<?xml version="1.0" encoding="utf-8"?>
<!-- Generator: Adobe Illustrator 20.1.0, SVG Export Plug-In . SVG Version: 6.00 Build 0)  -->
<svg version="1.1" id="Layer_1" xmlns="http://www.w3.org/2000/svg" xmlns:xlink="http://www.w3.org/1999/xlink" x="0px" y="0px"
	 viewBox="0 0 512 512" style="enable-background:new 0 0 512 512;" xml:space="preserve">
<style type="text/css">
	.st0{fill:#FFFFFF;}
</style>
<title></title>
<path class="st0" d="M448,192c-17.6,0-32,14.4-32,32v128c0,17.6,14.4,32,32,32s32-14.4,32-32V224C480,206.4,465.6,192,448,192z
	 M64,192c-17.6,0-32,14.4-32,32v128c0,17.6,14.4,32,32,32s32-14.4,32-32V224C96,206.4,81.6,192,64,192z M112,368
	c0,26.5,21.5,48,48,48l0,0v64c0,17.6,14.4,32,32,32s32-14.4,32-32v-64h64v64c0,17.6,14.4,32,32,32s32-14.4,32-32v-64
	c26.5,0,48-21.5,48-48V192H112V368z"/>
<path class="st0" d="M399.1,160c-4.9-43.9-29.5-81.9-64.8-104.8l16-32c4-7.9,0.7-17.5-7.2-21.5s-17.5-0.7-21.5,7.2L305.6,41
	l-4.2-1.7C287.2,34.6,271.9,32,256,32c-15.9,0-31.2,2.6-45.4,7.3l-4.2,1.7L190.3,8.8c-4-7.9-13.6-11.1-21.5-7.2
	c-7.9,4-11.1,13.6-7.2,21.5l16,32c-35.3,22.9-60,60.9-64.8,104.8v16H400v-16L399.1,160L399.1,160z M208,128c-8.8,0-16-7.2-16-16
	c0-8.8,7.1-16,16-16c0,0,0,0,0,0c0,0,0,0,0,0c8.8,0,16,7.2,16,16C224,120.8,216.8,128,208,128z M304,128c-8.8,0-16-7.2-16-16
	c0-8.8,7.1-16,16-16c0,0,0,0,0,0c0,0,0,0,0,0c8.8,0,16,7.2,16,16C320,120.8,312.8,128,304,128z"/>
</svg>
