<?xml version="1.0" standalone="no"?>
<!DOCTYPE svg PUBLIC "-//W3C//DTD SVG 1.1//EN" "http://www.w3.org/Graphics/SVG/1.1/DTD/svg11.dtd" >
<svg xmlns="http://www.w3.org/2000/svg">
<metadata>Generated by IcoMoon</metadata>
<defs>
<font id="nfb-app_icons" horiz-adv-x="1024">
<font-face units-per-em="1024" ascent="960" descent="-64" />
<missing-glyph horiz-adv-x="1024" />
<glyph unicode="&#x20;" horiz-adv-x="512" d="" />
<glyph unicode="&#xe900;" glyph-name="add-sq" d="M512-0c-235.641 0-426.667 191.027-426.667 426.667s191.025 426.667 426.667 426.667c235.639 0 426.667-191.026 426.667-426.667 0-235.639-191.027-426.667-426.667-426.667zM512 85.334c188.514 0 341.333 152.819 341.333 341.333 0 188.513-152.819 341.333-341.333 341.333-188.513 0-341.333-152.82-341.333-341.333s152.82-341.333 341.333-341.333zM469.333 682.667h85.333v-512h-85.333v512zM256 469.334h512v-85.333h-512v85.333z" />
<glyph unicode="&#xe901;" glyph-name="channel-sq" d="M170.667 256h85.333l-42.667-170.667h-85.333l42.667 170.667zM768 256h85.333l42.667-170.667h-85.333l-42.667 170.667zM938.667 768v-554.667h-853.333v554.667h853.333zM853.333 682.667h-682.667v-384h682.667v384zM640 576c-35.345 0-64-28.654-64-64v-42.667c0-35.345 28.655-64 64-64v-64h85.333v64c35.345 0 64 28.655 64 64v42.667c0 35.346-28.655 64-64 64h-85.333zM640 512h85.333v-42.667h-85.333v42.667z" />
<glyph unicode="&#xe902;" glyph-name="delete-sq" d="M512-0c-235.641 0-426.667 191.027-426.667 426.667s191.025 426.667 426.667 426.667c235.639 0 426.667-191.026 426.667-426.667 0-235.639-191.027-426.667-426.667-426.667zM512 85.334c188.514 0 341.333 152.819 341.333 341.333 0 188.513-152.819 341.333-341.333 341.333-188.513 0-341.333-152.82-341.333-341.333s152.82-341.333 341.333-341.333zM662.848 637.857l60.34-60.34-362.039-362.039-60.34 60.34 362.039 362.039zM361.151 637.857l362.039-362.039-60.34-60.34-362.039 362.039 60.34 60.34z" />
<glyph unicode="&#xe903;" glyph-name="download-sq" d="M469.333 853.334h85.333v-597.333h-85.333v597.333zM128 85.334h768v-85.333h-768v85.333zM204.661 466.048l61.468 59.191 307.338-295.954-61.468-59.191-307.338 295.954zM450.53 229.282l307.338 295.954 61.468-59.191-307.338-295.954-61.468 59.191z" />
<glyph unicode="&#xe904;" glyph-name="home-sq" d="M170.667 384h-85.333v42.667l426.667 426.667 426.667-426.667v-42.667h-85.333v-341.333h-682.667v341.333zM768 469.334l-256 263.253-256-263.253v-341.333h512v341.333z" />
<glyph unicode="&#xe905;" glyph-name="hourglass-sq" d="M213.333 810.667h597.333v-183.585l-162.057-200.415 162.057-200.414v-183.586h-597.333v183.586l162.054 200.414-162.054 200.415v183.585zM298.667 725.334v-72.415l186.5-226.252-186.5-226.253v-72.414h426.667v72.414l-186.061 226.253 186.061 226.252v72.415h-426.667zM469.333 298.667h85.333l68.898-85.333h-220.928l66.696 85.333z" />
<glyph unicode="&#xe906;" glyph-name="left-arr-sq" d="M896 469.334v-85.333h-682.667v85.333h682.667zM423.953 734.002l59.191-61.467-295.954-307.338-59.191 61.47 295.953 307.335zM187.191 488.133l295.954-307.337-59.191-61.466-295.953 307.337 59.191 61.466z" />
<glyph unicode="&#xe907;" glyph-name="menu-sq" d="M896 768h-768v-85.333h768v85.333zM896 469.334h-768v-85.333h768v85.333zM896 170.667h-768v-85.333h768v85.333z" />
<glyph unicode="&#xe908;" glyph-name="outside-sq" d="M554.667 469.334v-341.333h-341.333v341.333h341.333zM128 554.667v-512h512v512h-512zM896 810.667h-341.333v-85.333h256v-256h85.333v341.333z" />
<glyph unicode="&#xe909;" glyph-name="purchase-sq" d="M512-0c-235.641 0-426.667 191.027-426.667 426.667s191.025 426.667 426.667 426.667c235.639 0 426.667-191.026 426.667-426.667 0-235.639-191.027-426.667-426.667-426.667zM512 85.334c188.514 0 341.333 152.819 341.333 341.333 0 188.513-152.819 341.333-341.333 341.333-188.513 0-341.333-152.82-341.333-341.333s152.82-341.333 341.333-341.333zM469.333 682.667h85.333v-85.333h-85.333v85.333zM469.333 256h85.333v-85.333h-85.333v85.333zM594.714 327.207c0 7.42-1.482 14.365-4.445 20.834-2.752 6.469-7.621 12.463-14.606 17.98-6.774 5.708-15.77 10.845-26.989 15.411-11.008 4.756-24.767 9.133-41.278 13.128-20.109 4.947-39.372 11.13-57.788 18.551-18.205 7.421-34.292 16.363-48.263 26.828s-25.19 22.641-33.657 36.53c-8.255 13.889-12.383 29.872-12.383 47.947 0 17.504 4.128 33.391 12.383 47.661s19.686 26.447 34.292 36.531c14.606 10.084 31.857 17.79 51.756 23.117 19.898 5.518 41.489 8.276 64.774 8.276 24.131 0 46.146-3.139 66.044-9.418 20.109-6.279 37.361-15.126 51.756-26.542 14.394-11.226 25.613-24.639 33.657-40.241s12.7-33.154 12.7-51.799h-85.333c-0.423 9.323-4.63 18.313-8.017 26.114-3.175 7.801-8.044 14.46-14.606 19.978-6.351 5.708-14.394 10.084-24.131 13.128-9.526 3.235-20.745 4.852-33.657 4.852-11.854 0-22.438-1.332-31.752-3.995-9.102-2.473-16.829-6.089-23.179-10.845-6.351-4.567-11.219-10.084-14.606-16.553-3.175-6.279-4.763-13.129-4.763-20.549 0-7.801 2.117-14.841 6.351-21.119 4.445-6.279 10.796-11.987 19.051-17.124 8.256-4.947 18.205-9.513 29.847-13.699 11.854-4.186 25.19-8.086 40.007-11.701 21.168-5.518 40.643-12.272 58.423-20.263s33.022-17.504 45.723-28.54c12.913-10.845 22.862-23.308 29.847-37.387 7.197-13.889 10.796-29.396 10.796-46.52 0-18.265-4.128-34.533-12.383-48.803-8.044-14.080-19.263-26.066-33.657-35.96-14.394-9.703-31.54-17.124-51.438-22.261-19.898-4.947-41.595-7.42-65.091-7.42-14.606 0-29.212 1.237-43.818 3.71-14.394 2.283-28.259 5.898-41.595 10.845-13.124 4.947-25.402 11.13-36.832 18.551s-21.38 16.077-29.847 25.971c-8.256 9.894-14.818 21.12-19.686 33.677-4.657 12.558-6.579 20.026-6.579 35.247h84.927c0.424-12.557 5.16-16.886 9.606-25.828s10.584-16.268 18.416-21.975c8.044-5.708 17.57-9.894 28.577-12.558 11.219-2.664 23.497-3.995 36.832-3.995 11.854 0 22.332 1.236 31.434 3.71 9.314 2.473 17.146 5.898 23.497 10.274s11.219 9.608 14.606 15.697c3.387 6.279 5.080 13.128 5.080 20.549z" />
<glyph unicode="&#xe90a;" glyph-name="search-sq" d="M384 298.667c-141.385 0-256 114.615-256 256s114.615 256 256 256c141.385 0 256-114.615 256-256s-114.615-256-256-256zM384 384c94.255 0 170.667 76.407 170.667 170.667 0 94.258-76.412 170.667-170.667 170.667-94.257 0-170.667-76.409-170.667-170.667 0-94.259 76.41-170.667 170.667-170.667zM593.873 284.113l60.429 60.429 250.974-250.974-60.429-60.429-250.974 250.974z" />
<glyph unicode="&#xe90b;" glyph-name="watchlater-sq" d="M469.333 682.667h85.333v-213.333h128v-85.333h-170.667c-23.564 0-42.667 19.101-42.667 42.667v256zM512-0c-235.642 0-426.667 191.027-426.667 426.667s191.025 426.667 426.667 426.667c235.644 0 426.667-191.026 426.667-426.667 0-235.639-191.023-426.667-426.667-426.667zM512 85.334c188.514 0 341.333 152.819 341.333 341.333 0 188.513-152.819 341.333-341.333 341.333-188.513 0-341.333-152.82-341.333-341.333s152.82-341.333 341.333-341.333z" />
<glyph unicode="&#xe90c;" glyph-name="nfb-full" horiz-adv-x="2133" d="M1530.112 358.397c84.93 11.404 162.824 53.274 219.19 117.819v1.056c-56.727 64.108-134.434 105.911-219.19 117.915 23.688-9.44 43.999-25.769 58.308-46.876s21.959-46.020 21.959-71.52c0-25.5-7.65-50.413-21.959-71.52s-34.62-37.435-58.308-46.876zM1437.762 594.644c-85.369-11.373-163.669-53.463-220.247-118.395 56.876-64.557 135.026-106.567 220.247-118.395-23.935 9.201-44.518 25.44-59.037 46.577s-22.29 46.176-22.29 71.818c0 25.642 7.772 50.682 22.29 71.819s35.102 37.375 59.037 46.577zM1645.818 249.666l-8.48-3.2v-203.768h111.995v257.398c-32.41-20.807-67.153-37.733-103.515-50.43zM1330.567 246.498l-8.48 2.654c-115.359 40.589-212.34 121.199-273.333 227.192 42.678 74.755 103.841 137.295 177.628 181.626s157.722 68.967 243.762 71.547h26.018c89.83-2.519 177.306-29.312 253.141-77.533v158.682h-767.97v-767.97h349.234v203.802zM656.491 630.513c39.424 2.656 124.8 0 240.576 0v-75.846h-342.4v113.785c75.993 26.202 153.26 48.354 231.488 66.369-38.912-2.131-115.2 0-231.328 0v75.846h342.4v-113.785c-75.936-26.213-153.149-48.366-231.328-66.369h-9.408zM554.667 512h342.4v-170.667h-55.552v89.838h-83.2v-89.838h-55.584v89.838h-148.064v80.829zM730.411 141.291c-7.776-53.952-31.392-83.2-83.2-83.2-69.024 0-92.544 53.248-92.544 129.536v111.040h342.4v-101.856c0-76.8-17.376-129.536-83.2-129.536-9.727-0.026-19.363 1.872-28.355 5.583s-17.161 9.162-24.039 16.040c-6.878 6.878-12.329 15.048-16.040 24.039s-5.608 18.627-5.583 28.355h-9.44zM758.155 215.307v-27.744c0-23.36 17.216-37.024 46.272-37.024 5.039-0.772 10.189-0.347 15.034 1.241s9.247 4.293 12.852 7.898c3.604 3.605 6.31 8.008 7.898 12.852s2.013 9.995 1.241 15.034v27.744h-83.296zM610.091 215.307v-27.744c-0.954-6.296-0.416-12.728 1.572-18.778s5.369-11.548 9.872-16.050c4.503-4.503 10.001-7.884 16.050-9.872s12.482-2.526 18.778-1.572c6.257-0.753 12.605-0.074 18.561 1.985s11.368 5.445 15.825 9.902c4.457 4.457 7.842 9.868 9.901 15.825s2.738 12.303 1.985 18.561v27.744h-92.544zM299.184 39.595c-122.464 0-175.808 46.528-175.808 129.536 0 82.496 52.832 129.536 175.808 129.536s175.808-46.528 175.808-129.536c0-83.008-52.32-129.536-175.808-129.536zM178.896 169.131c0-21.792 23.264-37.024 120.288-37.024 96 0 120.288 14.176 120.288 37.024 0 22.4-24.288 46.272-120.288 46.272-97.024 0-120.288-23.424-120.288-46.272zM359.328 518.833c-39.424-2.655-115.616 0-231.328 0v75.811h342.4v-113.732c-78.943-26.616-159.257-48.762-240.576-66.339v-9.472c38.912 2.655 124.352 9.472 240.576 9.472v-75.811h-342.4v104.227c115.712 38.282 192.416 67.322 231.328 75.843zM470.368 639.341h-342.368v171.326h55.52v-90.185h74.016v90.185h55.52v-90.185h157.312v-81.141z" />
<glyph unicode="&#xe90d;" glyph-name="nfb-sq" d="M676.779 358.377c84.93 11.405 162.824 53.276 219.19 117.824v1.056c-56.727 64.11-134.434 105.916-219.19 117.92 23.688-9.441 43.999-25.77 58.308-46.877s21.959-46.022 21.959-71.523c0-25.501-7.65-50.415-21.959-71.523s-34.62-37.437-58.308-46.877zM584.429 594.636c-85.369-11.373-163.669-53.466-220.247-118.4 56.876-64.56 135.026-106.571 220.247-118.4-23.935 9.202-44.518 25.442-59.037 46.579s-22.29 46.178-22.29 71.821c0 25.643 7.771 50.684 22.29 71.821s35.102 37.377 59.037 46.579zM792.484 249.643l-8.48-3.2v-203.776h111.995v257.408c-32.41-20.808-67.153-37.734-103.515-50.432zM477.234 246.473l-8.48 2.658c-115.359 40.589-212.34 121.203-273.333 227.2 42.678 74.758 103.841 137.301 177.628 181.634s157.722 68.97 243.762 71.55h26.018c89.83-2.519 177.306-29.312 253.141-77.536v158.688h-767.97v-768h349.234v203.806z" />
<glyph unicode="&#xe90e;" glyph-name="eycon-tr" horiz-adv-x="1707" d="M1706.667-85.333v1024h-470.144v-2.048c0.013-97.77 29.491-193.267 84.587-274.035s133.252-143.057 224.277-178.743c-326.093 44.739-625.148 205.483-842.368 452.778l1.835 2.048c-78.161 0-704.853 0-704.853 0 392.96-682.667 1041.451-1022.208 1706.667-1024z" />
<glyph unicode="&#xe90f;" glyph-name="eycon-br" horiz-adv-x="1707" d="M1706.667 938.667l-0.001-1024h-470.143v2.048c0.013 97.77 29.491 193.267 84.585 274.035 55.096 80.768 133.254 143.057 224.279 178.743-326.092-44.739-625.147-205.484-842.368-452.779l1.835-2.048h-703.659c-0.384 0.683-0.811 1.323-1.195 2.048 392.96 682.667 1041.451 1020.16 1706.667 1021.952z" />
<glyph unicode="&#xe910;" glyph-name="eycon-tl" horiz-adv-x="1707" d="M0-85.333v1021.952l465.579 2.048v-2.048c-0.183-97.762-29.773-193.207-84.924-273.926-55.155-80.719-133.316-142.979-224.324-178.682 327.1 44.547 627.29 205.182 845.824 452.608l-2.048 2.048h704.512c-0.006-0.271 0.043-0.539 0.144-0.791s0.251-0.479 0.443-0.671c0.191-0.191 0.419-0.342 0.671-0.443s0.52-0.15 0.791-0.144c-393.216-681.984-1039.019-1019.904-1706.667-1021.952z" />
<glyph unicode="&#xe911;" glyph-name="eycon-bl" horiz-adv-x="1707" d="M0 938.667v-1021.952l465.579-2.048v2.048c-0.183 97.762-29.773 193.207-84.924 273.926-55.155 80.719-133.316 142.979-224.324 178.682 327.1-44.547 627.29-205.182 845.824-452.608l-2.048-2.048h704.512c-0.006 0.271 0.043 0.539 0.144 0.791s0.251 0.479 0.443 0.671c0.191 0.191 0.419 0.342 0.671 0.443s0.52 0.15 0.791 0.144c-393.216 681.984-1039.019 1019.904-1706.667 1021.952z" />
<glyph unicode="&#xe912;" glyph-name="ticket" d="M475.651 554.667l68.761-63.008 89.743 19.106-39.995-84.021 45.841-78.298-91.651 11.444-63.131-68.761-17.198 89.743-84.020 38.211 82.113 43.933 9.537 91.651zM782.978 825.672l79.016-217.096-54.449-36.816c-0.418-0.585-1.394-2.221-2.213-5.559-1.51-6.144-1.673-15.662 2.335-26.675s10.252-18.199 15.358-21.935c2.773-2.030 4.572-2.656 5.268-2.835l65.375 6.796 79.016-217.096-721.684-262.671-79.016 217.096 54.449 36.816c0.419 0.586 1.393 2.221 2.214 5.559 1.51 6.144 1.673 15.662-2.336 26.675s-10.251 18.199-15.357 21.935c-2.774 2.029-4.571 2.656-5.269 2.835l-65.375-6.796-79.016 217.096 721.684 262.671zM197.722 437.665c5.908 0.614 11.857 0.547 17.778-0.158 37.861-4.51 74.514-35.103 90.998-80.392s8.071-92.285-18.034-120.076c-4.082-4.346-8.597-8.222-13.517-11.549l27.055-74.333 561.31 204.3-27.055 74.333c-5.906-0.614-11.856-0.546-17.779 0.158-37.861 4.51-74.514 35.103-90.997 80.392s-8.071 92.285 18.033 120.076c4.084 4.347 8.599 8.223 13.518 11.549l-27.055 74.333-561.31-204.3 27.055-74.333z" />
<glyph unicode="&#xe913;" glyph-name="play" d="M341.333 256v341.333l426.667-170.667-426.667-170.667zM512-0c-235.642 0-426.667 191.027-426.667 426.667s191.025 426.667 426.667 426.667c235.644 0 426.667-191.026 426.667-426.667 0-235.639-191.023-426.667-426.667-426.667zM512 85.334c188.514 0 341.333 152.819 341.333 341.333 0 188.513-152.819 341.333-341.333 341.333-188.513 0-341.333-152.82-341.333-341.333s152.82-341.333 341.333-341.333z" />
<glyph unicode="&#xe914;" glyph-name="airplay" d="M281.6 34.134c-10.548-14.063-0.513-34.133 17.067-34.133h426.667c17.579 0 27.614 20.070 17.067 34.133l-213.333 284.446c-8.533 11.375-25.6 11.375-34.133 0l-213.333-284.446zM896 810.667h-768c-46.933 0-85.333-38.4-85.333-85.333v-469.333c0-46.933 38.4-85.333 85.333-85.333h149.333l64 85.333h-213.333v469.333h768v-469.333h-213.333l64-85.333h149.333c46.933 0 85.333 38.4 85.333 85.333v469.333c0 46.933-38.4 85.333-85.333 85.333z" />
<glyph unicode="&#xe915;" glyph-name="chromecast" d="M896 810.667h-768c-46.933 0-85.333-38.4-85.333-85.333v-128h85.333v128h768v-597.333h-298.667v-85.333h298.667c46.933 0 85.333 38.4 85.333 85.333v597.333c0 46.933-38.4 85.333-85.333 85.333zM42.667 170.667v-128h128c0 70.827-57.173 128-128 128zM42.667 341.334v-85.333c117.76 0 213.333-95.573 213.333-213.333h85.333c0 165.12-133.547 298.667-298.667 298.667zM42.667 512v-85.333c212.053 0 384-171.947 384-384h85.333c0 259.413-210.347 469.333-469.333 469.333z" />
<glyph unicode="&#xe916;" glyph-name="chromecast-on" d="M42.667 170.667v-128h128c0 70.827-57.173 128-128 128zM42.667 341.334v-85.333c117.76 0 213.333-95.573 213.333-213.333h85.333c0 165.12-133.547 298.667-298.667 298.667zM810.667 640h-597.333v-69.547c168.96-54.613 302.507-188.16 357.12-357.12h240.213v426.667zM42.667 512v-85.333c212.053 0 384-171.947 384-384h85.333c0 259.413-210.347 469.333-469.333 469.333zM896 810.667h-768c-46.933 0-85.333-38.4-85.333-85.333v-128h85.333v128h768v-597.333h-298.667v-85.333h298.667c46.933 0 85.333 38.4 85.333 85.333v597.333c0 46.933-38.4 85.333-85.333 85.333z" />
<glyph unicode="&#xe917;" glyph-name="nfb-full-flush" horiz-adv-x="2133" d="M1841.067 335.616c113.245 15.206 217.108 71.035 292.266 157.099v1.408c-75.639 85.48-179.253 141.221-292.266 157.227 31.585-12.588 58.668-34.36 77.747-62.503s29.28-61.362 29.28-95.363c0-34.001-10.2-67.22-29.28-95.363s-46.162-49.916-77.747-62.503zM1717.931 650.625c-113.83-15.165-218.234-71.287-293.675-157.867 75.838-86.080 180.042-142.095 293.675-157.867-31.914 12.269-59.36 33.923-78.719 62.105s-29.721 61.571-29.721 95.762c0 34.191 10.362 67.579 29.721 95.761s46.805 49.836 78.719 62.105zM1995.35 190.635l-11.307-4.267v-271.702h149.333v343.211c-43.216-27.743-89.542-50.313-138.026-67.243zM1574.997 186.411l-11.307 3.541c-153.818 54.118-283.13 161.6-364.459 302.933 56.906 99.677 138.461 183.068 236.847 242.179s210.305 91.96 325.031 95.4h34.688c119.782-3.359 236.42-39.084 337.536-103.381v211.584h-1024v-1024h465.664v271.744zM703.019 704.256c52.565 3.456 166.4 0 320.768 0v-98.688h-456.533v148.053c101.324 34.093 204.346 62.917 308.651 86.357-51.883-2.773-153.6 0-308.437 0v98.688h456.533v-148.053c-101.248-34.108-204.198-62.932-308.437-86.357h-12.544zM567.296 531.542h456.533v-234.411h-74.069v123.392h-110.933v-123.392h-74.112v123.392h-197.419v111.019zM801.707 38.059c-10.368-71.936-41.856-110.933-110.933-110.933-92.032 0-123.392 70.997-123.392 172.715v148.053h456.533v-135.808c0-102.4-23.168-172.715-110.933-172.715-12.969-0.034-25.818 2.496-37.807 7.443s-22.881 12.215-32.052 21.386c-9.171 9.171-16.439 20.064-21.386 32.052s-7.477 24.837-7.444 37.806h-12.587zM838.699 136.747v-36.992c0-31.147 22.955-49.365 61.696-49.365 6.719-1.029 13.586-0.463 20.045 1.654s12.329 5.724 17.136 10.531c4.806 4.806 8.414 10.676 10.531 17.136s2.684 13.326 1.655 20.045v36.992h-111.062zM641.28 136.747v-36.992c-1.272-8.395-0.554-16.971 2.096-25.037s7.159-15.397 13.163-21.4c6.004-6.004 13.334-10.513 21.4-13.163s16.642-3.368 25.037-2.096c8.343-1.004 16.806-0.099 24.748 2.647s15.157 7.26 21.1 13.202c5.942 5.942 10.456 13.157 13.201 21.1s3.651 16.404 2.647 24.748v36.992h-123.392zM234.411-85.333c-163.285 0-234.411 62.037-234.411 172.715 0 109.995 70.443 172.715 234.411 172.715s234.411-62.037 234.411-172.715c0-110.677-69.76-172.715-234.411-172.715zM74.027 87.382c0-29.056 31.019-49.365 160.384-49.365 128 0 160.384 18.901 160.384 49.365 0 29.867-32.384 61.696-160.384 61.696-129.365 0-160.384-31.232-160.384-61.696zM320.768 543.872c-52.565-3.456-154.155 0-308.437 0v98.688h456.533v-148.053c-105.257-34.648-212.342-63.477-320.768-86.357v-12.331c51.883 3.456 165.803 12.331 320.768 12.331v-98.688h-456.533v135.68c154.283 49.835 256.555 87.637 308.437 98.731zM468.821 704.256h-456.491v234.411h74.027v-123.392h98.688v123.392h74.027v-123.392h209.749v-111.019z" />
<glyph unicode="&#xe918;" glyph-name="nfb-sq-flush" d="M731.733 335.616c113.245 15.206 217.108 71.035 292.266 157.099v1.408c-75.639 85.48-179.253 141.221-292.266 157.227 31.585-12.588 58.668-34.36 77.747-62.503s29.28-61.362 29.28-95.363c0-34.001-10.2-67.22-29.28-95.363s-46.162-49.916-77.747-62.503zM608.596 650.625c-113.83-15.165-218.234-71.287-293.675-157.867 75.838-86.080 180.042-142.095 293.675-157.867-31.914 12.269-59.36 33.923-78.719 62.105s-29.721 61.571-29.721 95.762c0 34.191 10.362 67.579 29.721 95.761s46.805 49.836 78.719 62.105zM886.017 190.635l-11.307-4.267v-271.702h149.333v343.211c-43.216-27.743-89.542-50.313-138.026-67.243zM465.664 186.411l-11.307 3.541c-153.818 54.118-283.13 161.6-364.459 302.933 56.906 99.677 138.461 183.068 236.847 242.179s210.305 91.96 325.031 95.4h34.688c119.782-3.359 236.42-39.084 337.536-103.381v211.584h-1024v-1024h465.664v271.744z" />
<glyph unicode="&#xe919;" glyph-name="play-triangle" d="M256 170.667v512l682.667-255.997-682.667-256.003z" />
<glyph unicode="&#xe91a;" glyph-name="favorite-sq" d="M653.492 602.302l282.47-56.994-195.025-212.141 33.084-286.255-262.021 119.923-262.022-119.923 33.083 286.255-195.022 212.141 282.469 56.994 141.492 251.032 141.492-251.032zM770.676 491.604l-172.343 34.774-86.333 153.166-86.33-153.166-172.347-34.774 118.991-129.437-20.186-174.656 159.872 73.169 159.873-73.169-20.186 174.656 118.989 129.437z" />
<glyph unicode="&#xe91b;" glyph-name="share-classic-sq" d="M853.333 682.667c0-70.693-57.306-128-128-128-32.87 0-62.848 12.391-85.513 32.755l-257.428-140.414c1.057-6.625 1.607-13.42 1.607-20.341s-0.55-13.716-1.607-20.341l257.428-140.414c22.665 20.365 52.642 32.755 85.513 32.755 70.694 0 128-57.306 128-128s-57.306-128-128-128c-70.694 0-128 57.306-128 128 0 6.921 0.55 13.713 1.609 20.339l-257.428 140.416c-22.667-20.365-52.643-32.755-85.514-32.755-70.693 0-128 57.306-128 128s57.307 128 128 128c32.871 0 62.848-12.391 85.514-32.755l257.428 140.414c-1.058 6.625-1.609 13.42-1.609 20.341 0 70.693 57.306 128 128 128s128-57.307 128-128zM725.333 640c23.565 0 42.667 19.101 42.667 42.667s-19.102 42.667-42.667 42.667c-23.565 0-42.667-19.101-42.667-42.667s19.102-42.667 42.667-42.667zM298.667 426.667c0 23.565-19.103 42.667-42.667 42.667s-42.667-19.101-42.667-42.667c0-23.565 19.103-42.667 42.667-42.667s42.667 19.101 42.667 42.667zM725.333 128c23.565 0 42.667 19.102 42.667 42.667s-19.102 42.667-42.667 42.667c-23.565 0-42.667-19.102-42.667-42.667s19.102-42.667 42.667-42.667z" />
<glyph unicode="&#xe91c;" glyph-name="check-sq" d="M512-0c-235.642 0-426.667 191.027-426.667 426.667s191.025 426.667 426.667 426.667c235.644 0 426.667-191.026 426.667-426.667 0-235.639-191.023-426.667-426.667-426.667zM512 85.334c188.514 0 341.333 152.819 341.333 341.333 0 188.513-152.819 341.333-341.333 341.333-188.513 0-341.333-152.82-341.333-341.333s152.82-341.333 341.333-341.333zM469.731 237.93l-168.919 168.919 60.34 60.338 108.183-108.182 240.148 240.148 60.341-60.341-300.094-300.883z" />
<glyph unicode="&#xe91d;" glyph-name="share-sq" d="M768 213.334h-554.667v426.667h213.333c6.78 8.006 12.821 15.613 20.48 22.784 29.99 27.821 68.881 49.119 107.52 62.549h-426.667v-597.333h725.333v307.2l-85.333-56.875v-164.992zM469.333 469.334c0 0 39.211 128 256 128v-128l256 170.667-256 170.667v-128c-170.667 0-256-106.453-256-213.333z" />
<glyph unicode="&#xe91e;" glyph-name="warning" d="M512-0c-235.642 0-426.667 191.027-426.667 426.667s191.025 426.667 426.667 426.667c235.644 0 426.667-191.026 426.667-426.667 0-235.639-191.023-426.667-426.667-426.667zM512 85.334c188.514 0 341.333 152.819 341.333 341.333 0 188.513-152.819 341.333-341.333 341.333-188.513 0-341.333-152.82-341.333-341.333s152.82-341.333 341.333-341.333zM469.333 256h85.333v-85.333h-85.333v85.333zM469.333 341.334v341.333h85.333v-341.333h-85.333z" />
<glyph unicode="&#xe91f;" glyph-name="stop" d="M256 682.667h512v-512h-512v512z" />
<glyph unicode="&#xe920;" glyph-name="cc-en" d="M938.667 725.334v-597.333h-853.333v597.333h853.333zM853.333 640h-682.667v-426.667h682.667v426.667zM768 469.334h-85.333l-0.491 30.703c0 5.85-4.087 11.964-12.262 11.964h-17.161c-8.175 0-12.262-6.114-12.262-11.964v-146.739c0-5.85 4.087-11.964 12.262-11.964h17.161c8.175 0 12.262 6.114 12.262 11.964l0.491 30.703h85.333v-35.887c0-32.964-24.030-49.446-72.094-49.446h-69.146c-48.064 0-72.094 16.482-72.094 49.446v157.107c0 32.965 24.030 49.446 72.094 49.446h69.146c48.064 0 72.094-16.482 72.094-49.446v-35.887zM469.333 469.334h-85.333l-0.49 30.703c0 5.85-4.087 11.964-12.261 11.964h-17.165c-8.174 0-12.261-6.114-12.261-11.964v-146.739c0-5.85 4.087-11.964 12.261-11.964h17.165c8.174 0 12.261 6.114 12.261 11.964l0.49 30.703h85.333v-35.887c0-32.964-24.030-49.446-72.092-49.446h-69.149c-48.061 0-72.092 16.482-72.092 49.446v157.107c0 32.965 24.031 49.446 72.092 49.446h69.149c48.062 0 72.092-16.482 72.092-49.446v-35.887z" />
<glyph unicode="&#xe921;" glyph-name="cc-fr" d="M511.838 239.254c0 0 0.162-3.046 0.162-4.587 0-35.345-28.655-64-64-64-17.374 0-34.547 6.921-47.146 18.163l-59.537-59.537c27.453-27.153 65.333-43.959 106.682-43.959 82.475 0 149.333 66.859 149.333 149.333 0 11.883 6.835 24.166 11.831 31.334 5.001 7.164 10.701 13.338 23.113 19.955 80.755 43.063 135.723 128.132 135.723 226.044 0 141.385-114.615 256-256 256s-256-114.615-256-256h85.333c0 94.258 76.409 170.667 170.667 170.667s170.667-76.409 170.667-170.667c0-65.28-36.651-121.997-90.492-150.703-5.803-3.093-14.17-7.804-18.842-11.298-37.001-27.665-57.502-66.001-61.495-110.746zM396.28 283.584c-25.952 13.175-49.356 30.639-69.28 51.465l-241.667-239.91 60.12-60.557 250.827 249.003zM870.788 754.958l-60.122 60.56-77.709-77.145c20.676-20.070 37.973-43.596 50.961-69.651l86.869 86.236zM576 512c0-27.098-16.841-50.266-40.631-59.601l21.969-60.139c48.316 18.304 82.662 65.011 82.662 119.74 0 70.693-57.306 128-128 128s-128-57.307-128-128h64c0 35.346 28.655 64 64 64s64-28.654 64-64z" />
<glyph unicode="&#xe922;" glyph-name="settings" d="M200.553 739.566l196.591 113.669 74.767-87.27c26.914 3.199 53.914 3.14 80.427-0.012l74.884 87.38 196.493-113.502-38.191-108.561c7.945-10.667 15.339-21.895 22.123-33.662s12.796-23.795 18.048-36.018l112.973-21.158-0.094-227.168-113.007-21.257c-10.53-24.572-23.979-48.017-40.201-69.76l38.084-108.48-196.591-113.668-74.769 87.27c-26.91-3.2-53.909-3.136-80.422 0.013l-74.883-87.381-196.496 113.502 38.192 108.565c-7.943 10.667-15.337 21.892-22.121 33.66s-12.796 23.791-18.047 36.015l-112.98 21.154 0.096 227.174 113.008 21.256c10.531 24.571 23.978 48.016 40.198 69.757l-38.083 108.483zM335.679 612.338c-36.384-34.565-61.092-78.507-72.492-125.72l-92.464-17.391-0.036-85.41 92.379-17.297c5.615-23.322 14.622-46.229 27.205-68.058s27.892-41.092 45.25-57.621l-31.229-88.768 73.875-42.675 61.27 71.497c46.528-13.717 96.879-14.259 144.964 0.013l61.167-71.394 73.911 42.735-31.155 88.747c36.386 34.569 61.094 78.507 72.495 125.722l92.459 17.391 0.034 85.406-92.369 17.301c-5.615 23.322-14.626 46.232-27.209 68.059s-27.891 41.096-45.248 57.625l31.228 88.765-73.877 42.673-61.269-71.493c-46.528 13.72-96.879 14.259-144.964-0.016l-61.169 71.395-73.911-42.735 31.155-88.748zM597.103 278.865c-81.634-47.177-185.983-19.247-233.069 62.383s-19.079 186.045 62.557 233.22c81.634 47.175 185.984 19.245 233.071-62.385 47.083-81.628 19.076-186.042-62.558-233.218zM554.475 352.764c40.815 23.59 54.822 75.797 31.279 116.612-23.543 40.811-75.721 54.778-116.535 31.189-40.815-23.586-54.821-75.793-31.279-116.608s75.721-54.78 116.535-31.194z" />
<glyph unicode="&#xe923;" glyph-name="link" d="M330.982 305.984l301.699 301.699 60.34-60.34-301.699-301.699-60.34 60.34zM421.49 456.837c-49.987 49.988-131.034 49.988-181.021 0l-90.508-90.509c-49.987-49.988-49.987-131.034 0-181.022l120.68-120.678c49.987-49.988 131.031-49.988 181.020 0l90.509 90.509c49.988 49.988 49.988 131.034 0 181.022l-60.339-60.339c16.661-16.666 16.661-43.678 0-60.343l-90.509-90.509c-16.664-16.661-43.68-16.661-60.341 0l-120.68 120.683c-16.661 16.661-16.661 43.674 0 60.339l90.511 90.509c16.661 16.661 43.677 16.661 60.338 0l60.341 60.339zM542.17 637.856l90.509 90.51c16.661 16.662 43.678 16.662 60.339 0l120.683-120.68c16.661-16.662 16.661-43.677 0-60.34l-90.509-90.51c-16.666-16.661-43.682-16.661-60.343 0l-60.335-60.339c49.984-49.988 131.029-49.988 181.018 0l90.509 90.509c49.988 49.987 49.988 131.032 0 181.020l-120.678 120.679c-49.988 49.987-131.034 49.987-181.022 0l-90.509-90.51c-49.984-49.987-49.984-131.032 0-181.019l60.339 60.34c-16.661 16.663-16.661 43.677 0 60.34z" />
<glyph unicode="&#xe924;" glyph-name="envelope" d="M128 682.667h768v-554.667h-768v554.667zM730.761 597.334h-437.52l218.759-160.422 218.761 160.422zM213.333 550.113v-336.779h597.333v336.779l-298.667-219.023-298.667 219.023z" />
<glyph unicode="&#xe925;" glyph-name="newsletter" d="M170.667 725.334h725.333v-554.667h-512l-213.333-170.667v725.333zM719.915 640h-373.162l186.58-119.945 186.581 119.945zM256 596.897v-414.543l85.333 73.647h469.333v340.896l-277.333-178.285-277.333 178.285z" />
<glyph unicode="&#xe926;" glyph-name="twitter" d="M585.459 558.999h119.778l-13.986-132.358h-105.792v-383.974h-158.925v383.974h-79.227v132.358h79.227v79.697c0 56.541 13.359 99.338 40.081 128.391s70.686 43.58 131.891 43.58h105.792v-132.358h-66.18c-12.109 0-21.815-1.009-29.124-3.027-7.305-2.018-12.595-5.671-15.863-10.96-3.273-5.289-5.376-10.647-6.315-16.075s-1.412-13.117-1.412-23.069v-66.179h0.055z" />
<glyph unicode="&#xe927;" glyph-name="facebook" d="M906.018 654.364c-20.834-30.485-46.025-56.458-75.567-77.92 0.311-4.355 0.469-10.887 0.469-19.598 0-40.449-5.905-80.81-17.715-121.088-11.81-40.273-29.773-78.929-53.879-115.964-24.111-37.035-52.8-69.769-86.071-98.197-33.276-28.429-73.412-51.145-120.41-68.147s-97.237-25.485-150.718-25.451c-84.313 0-161.466 22.558-231.46 67.678 10.905-1.254 23.029-1.882 36.373-1.882 69.994 0 132.358 21.461 187.091 64.384-32.68 0.627-61.928 10.662-87.744 30.101-25.817 19.443-43.55 44.245-53.201 74.419 10.278-1.57 19.772-2.351 28.482-2.351 13.379 0 26.601 1.707 39.665 5.12-34.84 7.142-63.688 24.495-86.543 52.053s-34.283 59.524-34.283 95.895v1.881c21.148-11.812 43.863-18.186 68.147-19.129-20.521 13.696-36.861 31.584-49.020 53.673s-18.221 46.041-18.187 71.857c0 27.384 6.846 52.73 20.538 76.038 37.627-46.337 83.424-83.424 137.392-111.262s111.752-43.306 173.345-46.407c-2.47 11.811-3.708 23.325-3.708 34.544 0 41.669 14.703 77.206 44.105 106.611 29.406 29.405 64.943 44.108 106.611 44.108 43.55 0 80.256-15.87 110.114-47.609 33.899 6.55 65.779 18.674 95.637 36.373-11.499-35.781-33.587-63.461-66.27-83.041 28.919 3.101 57.856 10.87 86.805 23.308v0z" />
<glyph unicode="&#xe928;" glyph-name="download-done-sq" d="M128 213.334h768v-85.333h-768v85.333zM874.995 703.82l-60.343 60.34-345.173-345.178-174.277 174.273-60.34-60.34 234.616-234.612 405.517 405.516z" />
<glyph unicode="&#xe929;" glyph-name="eyecon3-br" d="M1018.94 938.667h-0.576c-353.225-0.92-706.216-180.178-914.813-542.49 138.873-241.271 341.719-401.203 565.847-481.51h354.603v1023.885c-1.724 0-3.452 0.115-5.060 0.115zM759.829 396.293c0-109.649 68.459-203.307 164.877-240.7-165.218 21.862-324.804 102.059-448.030 240.585 122.88 138.067 282.236 218.146 447.108 240.352-95.953-37.623-163.955-130.933-163.955-240.237z" />
<glyph unicode="&#xe92a;" glyph-name="eyecon3-bl" d="M5.062 938.667h0.575c353.223-0.92 706.213-180.178 914.81-542.49-138.871-241.271-341.717-401.203-565.845-481.51h-354.603v1023.885c1.726 0 3.452 0.115 5.062 0.115zM264.169 396.293c0-109.649-68.458-203.307-164.876-240.7 165.221 21.862 324.804 102.059 448.030 240.585-122.881 138.067-282.234 218.146-447.11 240.352 95.957-37.623 163.955-130.933 163.955-240.237z" />
<glyph unicode="&#xe92b;" glyph-name="eyecon2-br" d="M1024 938.666h-19.691c-258.022-6.564-491.298-145.42-628.64-377.688 96.442-162.586 237.318-279.732 406.974-338.304l13.129-4.041c0 0 0-149.457 0-303.966h228.228v1023.999zM955.836 385.263c-121.182 16.158-237.824 74.223-328.713 176.219 90.889 101.996 207.023 160.063 328.713 176.221-71.194-27.266-120.678-96.442-120.678-176.221s49.481-148.452 120.678-176.219z" />
<glyph unicode="&#xe92c;" glyph-name="eyecon2-bl" d="M0 938.666h19.692c258.020-6.564 491.297-145.42 628.641-377.688-96.444-162.586-237.32-279.732-406.976-338.304l-13.128-4.041c0 0 0-149.457 0-303.966h-228.229v1023.999zM68.165 385.263c121.183 16.158 237.822 74.223 328.71 176.219-90.888 101.996-207.022 160.063-328.71 176.221 71.195-27.266 120.679-96.442 120.679-176.221s-49.483-148.452-120.679-176.219z" />
<glyph unicode="&#xe92d;" glyph-name="collapse-up" d="M64.81 270.151c0-19.566 5.59-39.13 16.77-53.104 36.334-41.924 95.028-53.104 142.542-25.154l287.878 187.26 287.878-187.26c47.514-30.744 109.004-19.566 142.542 25.154 30.744 47.514 16.77 109.004-30.744 136.952l-340.982 223.596c-36.334 25.154-83.848 25.154-120.182 0l-346.572-223.596c-22.36-22.36-36.334-50.308-39.128-83.848v0z" />
<glyph unicode="&#xe92e;" glyph-name="pause-circle" d="M512 85.334c-188.513 0-341.333 152.819-341.333 341.333s152.82 341.333 341.333 341.333c188.514 0 341.333-152.82 341.333-341.333s-152.819-341.333-341.333-341.333zM512-0c235.639 0 426.667 191.027 426.667 426.667 0 235.642-191.027 426.667-426.667 426.667-235.642 0-426.667-191.025-426.667-426.667 0-235.639 191.025-426.667 426.667-426.667zM469.333 597.334h-85.333v-341.333h85.333v341.333zM640 597.334h-85.333v-341.333h85.333v341.333z" />
<glyph unicode="&#xe92f;" glyph-name="pause" d="M256 682.667h213.333v-512h-213.333zM554.667 682.667h213.333v-512h-213.333z" />
<glyph unicode="&#xe930;" glyph-name="play-interactive" d="M199.858 85.334c-20.015 0-36.856 8.158-50.524 21.333s-21.332 32.183-21.332 57.015v154.321c0 22.302-7.665 39.027-21.333 50.176-13.18 11.657-43.497 15.821-64 15.821v85.333c20.503 0 50.82 4.672 64 15.821 13.668 11.657 21.333 28.636 21.333 50.935v153.562c0 24.833 7.665 43.839 21.333 57.015s30.51 21.333 50.524 21.333h56.142v-85.333h-42.666v-157.173c0-12.163-1.521-23.819-5.915-34.968-3.905-10.645-9.275-20.275-16.109-28.89s-14.889-15.966-24.164-22.046c-9.275-5.577-19.038-9.378-29.289-11.405v-3.038c10.252-2.027 20.015-6.084 29.289-12.164 9.275-5.577 17.329-12.672 24.164-21.286s12.204-18.5 16.109-29.649c4.393-10.641 5.915-22.046 5.915-34.21v-157.171h42.666v-85.333h-56.143zM824.141 85.334c20.015 0 36.855 8.158 50.526 21.333s21.333 32.183 21.333 57.015v154.321c0 22.302 7.663 39.027 21.333 50.176 13.18 11.657 43.499 15.821 64 15.821v85.333c-20.501 0-50.82 4.672-64 15.821-13.67 11.657-21.333 28.636-21.333 50.935v153.562c0 24.833-7.667 43.839-21.333 57.015-13.67 13.177-30.511 21.333-50.526 21.333h-56.141v-85.333h42.667v-157.173c0-12.163 1.519-23.819 5.914-34.968 3.904-10.645 9.276-20.275 16.111-28.89 6.831-8.614 14.886-15.966 24.162-22.046 9.276-5.577 19.038-9.378 29.291-11.405v-3.038c-10.253-2.027-20.015-6.084-29.291-12.164-9.276-5.577-17.331-12.672-24.162-21.286-6.835-8.614-12.207-18.5-16.111-29.649-4.395-10.641-5.914-22.046-5.914-34.21v-157.171h-42.667v-85.333h56.141zM341.333 650.073l446.81-223.406-446.81-223.407v446.813zM426.667 341.334l170.667 85.333-170.667 85.333v-170.667z" />
<glyph unicode="&#xe931;" glyph-name="android" d="M832 533.334c-29.333 0-53.333-24-53.333-53.333v-213.333c0-29.333 24-53.333 53.333-53.333s53.333 24 53.333 53.333v213.333c0 29.333-24 53.333-53.333 53.333zM192 533.334c-29.333 0-53.333-24-53.333-53.333v-213.333c0-29.333 24-53.333 53.333-53.333s53.333 24 53.333 53.333v213.333c0 29.333-24 53.333-53.333 53.333zM272 240c0-44.16 35.84-80 80-80v-106.667c0-29.333 24-53.333 53.333-53.333s53.333 24 53.333 53.333v106.667h106.667v-106.667c0-29.333 24-53.333 53.333-53.333s53.333 24 53.333 53.333v106.667c44.16 0 80 35.84 80 80v293.333h-480v-293.333zM750.507 586.666c-8.107 73.227-49.173 136.48-107.998 174.72l26.667 53.387c6.558 13.173 1.225 29.173-11.947 35.787-13.175 6.613-29.175 1.227-35.789-11.947l-26.773-53.547-6.933 2.773c-23.787 7.893-49.28 12.213-75.733 12.213s-51.947-4.32-75.733-12.213l-6.933-2.773-26.773 53.547c-6.56 13.173-22.613 18.507-35.787 11.947s-18.507-22.613-11.947-35.787l26.667-53.387c-58.827-38.187-99.893-101.493-108-174.72v-26.667h478.507v26.667h-1.493zM432 639.999c-14.72 0-26.667 11.947-26.667 26.667s11.893 26.613 26.615 26.667h0.107c14.72-0.053 26.611-11.947 26.611-26.667s-11.947-26.667-26.667-26.667zM592 639.999c-14.72 0-26.667 11.947-26.667 26.667s11.895 26.613 26.615 26.667h0.051c0 0 0.055 0 0.107 0 14.72-0.053 26.615-11.947 26.615-26.667s-11.947-26.667-26.667-26.667h-0.055z" />
<glyph unicode="&#xe932;" glyph-name="apple" d="M744.905 399.945c-1.067 108.053 88.107 159.895 92.109 162.455-50.133 73.333-128.213 83.413-156.053 84.533-66.453 6.72-129.655-39.147-163.413-39.147-33.655 0-85.709 38.133-140.801 37.12-72.427-1.067-139.2-42.133-176.533-106.987-75.253-130.56-19.253-324.053 54.080-429.922 35.84-51.84 78.56-110.080 134.667-107.998 54.028 2.133 74.452 34.987 139.788 34.987 65.331 0 83.678-34.987 140.851-33.869 58.133 1.067 94.989 52.855 130.56 104.858 41.173 60.16 58.082 118.345 59.093 121.331-1.28 0.589-113.387 43.52-114.505 172.587l0.158 0.051zM637.491 717.067c29.76 36.107 49.869 86.24 44.373 136.267-42.88-1.76-94.878-28.587-125.653-64.64-27.627-32-51.785-83.040-45.333-132.053 47.893-3.733 96.802 24.32 126.562 60.373l0.051 0.053z" />
<glyph unicode="&#xe933;" glyph-name="viveport" d="M910.033 190.336l-300.079 583.973c-9.566 18.655-26.816 30.169-45.321 30.169h-104.721c-19.174 0-36.381-11.514-45.991-29.465l-300.081-583.973c-9.565-18.654-9.565-40.93 0-59.635l52.337-101.265c9.565-18.654 26.817-29.466 45.991-29.466h600.209c19.174 0 36.382 11.516 45.99 29.466l52.339 101.265c8.939 17.954 8.939 40.93-0.627 58.88l-0.047 0.051zM655.275 134.272c-45.321-15.787-93.235-24.435-143.023-24.435-49.792 0-97.705 8.597-143.025 24.435-53.008 18.654-85.546 78.993-74.060 140.087 20.426 110.618 72.138 209.020 143.651 283.034 41.519 43.091 105.344 43.091 147.49 0 71.514-73.963 122.598-172.416 143.65-283.034 10.863-61.043-21.722-121.382-74.684-140.087v0z" />
<glyph unicode="&#xe934;" glyph-name="steam" d="M701.252 614.646c0 46.37 37.636 84.003 84.006 84.003 46.366 0 84.002-37.633 84.002-84.003s-37.636-84.003-84.002-84.003c-46.37 0-84.006 37.633-84.006 84.003zM923.861 753.251c-76.553 76.555-200.657 76.555-277.21 0-31.138-31.137-49.617-70.114-55.386-110.604l-179.095-271.442c-24.081-1.233-47.938-7.39-69.946-18.368l-138.157 107.972c-31.977 24.977-78.179 19.319-103.156-12.655-24.977-31.979-19.321-78.182 12.657-103.155l136.421-106.684c-14.841-58.411 0.56-122.982 46.313-168.678 69.050-69.052 181-69.052 250.048 0 42.394 42.394 58.748 101.026 49.058 155.908l217.903 195.11c40.491 5.824 79.467 24.303 110.605 55.386 76.557 76.555 76.557 200.655 0 277.21h-0.055zM421.244 76.749c-65.074 0-117.884 52.753-117.884 117.884 0 0.614 0.056 1.229 0.056 1.847l58.578-45.756c13.44-10.526 29.401-15.569 45.193-15.569 21.839 0 43.458 9.69 57.961 28.228 24.977 31.974 19.324 78.178-12.655 103.155l-55.554 43.456c7.84 1.626 15.96 2.522 24.305 2.522 65.075 0 117.884-52.753 117.884-117.884s-52.753-117.884-117.884-117.884v0zM785.259 474.641c-77.342 0-140.006 62.666-140.006 140.005s62.665 140.005 140.006 140.005c77.338 0 140.002-62.666 140.002-140.005s-62.665-140.005-140.002-140.005z" />
<glyph unicode="&#xe935;" glyph-name="amazon" d="M856.691 73.012c-93.491-69.013-228.851-105.651-345.493-105.651-163.518 0-310.665 60.318-421.971 161.011-8.693 7.842-1.013 18.667 9.493 12.48 120.16-70.025 268.853-112 422.347-112 103.518 0 217.331 21.495 322.185 66.027 15.68 6.669 29.013-10.505 13.495-21.811l-0.055-0.055zM895.518 117.334c-11.998 15.305-78.985 7.305-109.171 3.678-9.173-1.011-10.509 6.827-2.347 12.693 53.491 37.495 141.171 26.667 151.36 14.187 10.347-12.693-2.667-100.48-52.855-142.507-7.68-6.507-14.985-2.987-11.678 5.495 11.52 28.16 36.693 91.145 24.691 106.505v-0.051zM674.829 179.307l0.158-0.162c20.642 18.189 57.813 50.667 78.827 68.16 8.32 6.669 6.827 17.813 0.32 27.149-18.825 26.027-38.827 47.147-38.827 95.147v160c0 67.84 4.693 130.027-45.171 176.693-39.36 37.653-104.695 50.987-154.667 50.987-97.655 0-206.668-36.48-229.495-157.173-2.507-12.853 6.987-19.68 15.307-21.493l99.52-10.827c9.333 0.48 16 9.653 17.813 18.987 8.479 41.493 43.359 61.653 82.506 61.653 21.175 0 45.175-7.68 57.655-26.667 14.345-21.173 12.48-50.027 12.48-74.507v-13.333c-59.52-6.667-137.335-10.987-193.015-35.522-64.32-27.84-109.493-84.48-109.493-167.838 0-106.667 67.147-160 153.653-160 73.015 0 112.852 17.173 169.172 74.825 18.667-26.987 24.695-40.158 58.829-68.48 7.838-4.16 17.493-3.84 24.32 2.347l0.107 0.055zM571.362 429.654c0-40 1.011-73.335-19.149-108.855-16.32-29.013-42.185-46.665-70.985-46.665-39.309 0-62.348 30.025-62.348 74.347 0 87.518 78.506 103.36 152.695 103.36v-22.187h-0.213z" />
<glyph unicode="&#xe936;" glyph-name="youtube" d="M170.667 245.743c0 74.274 4.124 129.826 12.372 166.656 4.444 18.739 13.652 34.453 27.625 47.147s30.327 20.156 49.064 22.396c58.094 6.366 146.018 9.549 263.771 9.549 117.751 0 205.837-3.183 264.247-9.549 18.419-2.24 34.684-9.702 48.798-22.396s23.236-28.407 27.358-47.147c8.252-35.55 12.373-91.102 12.373-166.656 0-74.27-4.122-129.822-12.373-166.656-4.442-18.735-13.649-34.449-27.622-47.142s-30.17-19.998-48.585-21.918c-58.415-6.686-146.496-10.027-264.252-10.027-117.751 0-205.835 3.341-264.249 10.027-18.417 1.92-34.682 9.225-48.797 21.918s-23.234 28.407-27.358 47.142c-8.248 35.554-12.372 91.106-12.372 166.656v0zM223.517 364.297h50.024v-270.916h47.624v270.916h50.93v44.745h-148.578v-44.745zM284.473 853.334h50.45l33.811-125.219 32.371 125.219h48.584l-57.597-190.015v-129.059h-47.624v129.059c-4.444 23.501-14.132 57.152-29.065 100.954-11.732 32.709-22.043 62.396-30.932 89.061v0zM378.281 142.443c0-15.569 1.262-27.162 3.786-34.769 3.804-11.733 13.012-17.6 27.625-17.6 15.252 0 31.447 9.69 48.582 29.065v-25.702h42.398v235.238h-42.398v-179.989c-9.527-13.333-18.577-19.998-27.145-19.998-5.723 0-9.065 3.341-10.025 10.022-0.32 0.96-0.48 6.528-0.48 16.695v173.321h-42.397v-186.176l0.053-0.107zM450.167 611.429v83.355c0 25.385 4.446 43.962 13.333 55.73 12.053 16.177 28.727 24.265 50.022 24.265 21.901 0 38.72-8.088 50.453-24.265 8.887-11.732 13.333-30.309 13.333-55.73v-83.355c0-25.705-4.446-44.442-13.333-56.209-11.733-16.177-28.553-24.265-50.453-24.265-21.261 0-37.935 8.088-50.022 24.265-8.887 12.052-13.333 30.789-13.333 56.209zM493.047 603.323c0-22.221 6.827-33.332 20.476-33.332 13.653 0 20.48 11.111 20.48 33.332v99.994c0 21.901-6.827 32.851-20.48 32.851-13.649 0-20.476-10.95-20.476-32.851v-99.994zM537.792 93.381h42.398v22.878c14.289-17.455 29.043-26.185 44.262-26.185 17.135 0 28.407 8.73 33.809 26.185 2.846 8.567 4.267 24.444 4.267 47.625v93.807c0 23.181-1.421 38.895-4.267 47.147-5.402 17.775-16.674 26.662-33.809 26.662-15.859 0-30.613-8.567-44.262-25.702v103.351h-42.398v-315.767zM580.19 139.085v143.351c6.967 6.967 14.114 10.453 21.436 10.453 12.373 0 18.56-10.633 18.56-31.893v-100.471c0-21.261-6.187-31.893-18.56-31.893-7.287 0-14.434 3.486-21.436 10.453v0zM612.561 584.284v187.615h43.354v-174.762c0-10.488 0.162-16.052 0.482-16.692 0.96-6.968 4.301-10.453 10.027-10.453 8.567 0 17.617 6.826 27.145 20.479v181.429h43.358v-237.585h-43.358v26.185c-16.819-19.697-33.173-29.545-49.062-29.545-14.613 0-23.983 5.866-28.109 17.599-2.522 7.608-3.785 19.519-3.785 35.731h-0.051zM695.859 169.592c0-25.067 4.604-43.486 13.815-55.253 12.369-16.175 29.508-24.265 51.409-24.265 22.861 0 39.996 8.41 51.409 25.225 5.726 8.572 9.067 17.139 10.027 25.707 0.64 2.846 0.96 12.053 0.96 27.627v6.182h-43.358c0-16.175-0.32-25.865-0.96-29.065-2.24-11.409-8.585-17.118-19.038-17.118-14.613 0-21.918 10.953-21.918 32.853v41.438h85.218v49.062c0 25.062-4.284 43.482-12.851 55.249-12.373 16.175-29.188 24.265-50.449 24.265-21.581 0-38.558-8.090-50.931-24.265-8.887-11.733-13.333-30.148-13.333-55.249v-82.394zM738.257 238.597v21.922c0 21.581 7.147 32.371 21.44 32.371s21.44-10.79 21.44-32.371v-21.922h-42.88z" />
<glyph unicode="&#xe937;" glyph-name="instagram" d="M512.081 776.476c113.98 0 127.526-0.48 172.331-2.507 41.655-1.813 64.162-8.854 79.151-14.668 19.84-7.68 34.189-17.014 49.015-31.842 14.989-14.988 24.162-29.175 32.004-49.017 5.811-14.988 12.851-37.655 14.665-79.151 1.975-45.016 2.509-58.511 2.509-172.33 0-113.822-0.482-127.531-2.509-172.331-1.813-41.655-8.853-64.166-14.665-79.151-7.68-19.844-17.015-34.189-31.842-49.020-14.989-14.985-29.175-24.162-49.020-32-14.985-5.815-37.653-12.855-79.151-14.669-45.013-1.971-58.509-2.505-172.331-2.505-113.819 0-127.527 0.478-172.33 2.505-41.656 1.813-64.164 8.853-79.151 14.669-19.841 7.68-34.189 17.015-49.016 31.842-14.988 14.989-24.162 29.175-32.002 49.015-5.814 14.989-12.854 37.658-14.668 79.151-2.027 45.018-2.507 58.513-2.507 172.331 0 113.821 0.48 127.529 2.507 172.332 1.813 41.656 8.854 64.164 14.668 79.151 7.68 19.841 17.014 34.189 31.842 49.017 14.988 14.988 29.175 24.161 49.017 32.002 14.988 5.814 37.655 12.854 79.151 14.668 44.856 2.027 58.351 2.507 172.332 2.507zM512.081 853.334c-115.848 0-130.356-0.48-175.852-2.507-45.336-2.027-76.485-9.334-103.526-19.841-28.162-10.988-52.003-25.495-75.685-49.337-23.842-23.681-38.349-47.523-49.337-75.525-10.507-27.148-17.814-58.19-19.841-103.526-1.973-45.656-2.507-60.164-2.507-176.012 0-115.844 0.48-130.355 2.507-175.851 2.027-45.338 9.334-76.484 19.841-103.526 10.988-28.16 25.495-52.002 49.337-75.682 23.681-23.684 47.523-38.353 75.525-49.178 27.148-10.509 58.19-17.813 103.526-19.84 45.496-1.975 60.004-2.509 175.85-2.509 115.849 0 130.355 0.478 175.851 2.509 45.338 1.971 76.484 9.331 103.526 19.84 28.002 10.825 51.844 25.493 75.524 49.178 23.684 23.68 38.353 47.522 49.178 75.524 10.509 27.149 17.813 58.189 19.84 103.526 1.975 45.495 2.509 60.002 2.509 175.851 0 115.846-0.478 130.354-2.509 175.85-1.971 45.336-9.331 76.485-19.84 103.526-10.505 28.322-25.015 52.163-48.858 75.845-23.68 23.682-47.522 38.349-75.524 49.177-27.149 10.507-58.189 17.814-103.526 19.841-45.653 2.187-60.164 2.667-176.009 2.667v0zM512.081 645.801c-121.022 0-219.162-98.193-219.162-219.16 0-120.969 98.193-219.162 219.162-219.162 120.964 0 219.157 98.193 219.157 219.162 0 121.020-98.193 219.16-219.157 219.16zM512.081 284.446c-78.511 0-142.197 63.684-142.197 142.195s63.686 142.195 142.197 142.195c78.511 0 142.195-63.684 142.195-142.195s-63.684-142.195-142.195-142.195zM791.083 654.494c0-28.268-22.933-51.15-51.149-51.15s-51.149 22.935-51.149 51.15c0 28.268 22.933 51.15 51.149 51.15s51.149-22.935 51.149-51.15z" />
<glyph unicode="&#xe938;" glyph-name="oculus" d="M730.133 355.712c-11.358-7.842-24-12.587-37.547-14.775-13.547-2.185-27.093-1.758-40.64-1.758h-279.893c-13.6 0-27.093-0.427-40.693 1.758-13.547 2.24-26.133 6.933-37.6 14.827-22.827 16-36.533 41.6-36.533 69.333 0 28.267 13.76 53.867 36.587 69.333 11.2 8 24 12.8 37.333 14.933s26.667 2.133 40.533 2.133h280.002c13.333 0 27.196 0.534 40.529-1.6s26.138-6.933 37.338-14.4c22.933-15.467 36.262-41.6 36.262-69.333s-13.862-53.333-36.796-69.333l1.118-1.118zM842.987 624.351c-30.025 24.107-64.427 40.747-101.867 49.76-21.333 5.173-42.825 7.467-64.798 8.16-16 0.533-32.004 0.373-48.538 0.373h-230.985c-16.267 0-32.533 0.16-48.8-0.373-21.973-0.747-43.413-2.987-64.853-8.16-37.333-9.067-72-25.707-101.867-49.813-60.747-48.533-95.947-121.761-95.947-199.252 0-77.547 35.2-150.775 95.627-199.309 30.080-24.107 64.533-40.747 101.867-49.758 21.44-5.175 42.88-7.467 64.853-8.162 16-0.533 32-0.371 48.533-0.371h230.935c16 0 32.533-0.162 48.533 0.371 21.867 0.695 43.2 2.987 64.533 8.162 37.333 9.067 71.467 25.707 101.867 49.813 61.385 48.533 96.585 121.758 96.585 199.253 0 77.491-35.2 150.772-95.68 199.305z" />
<glyph unicode="&#xe939;" glyph-name="windows" d="M85.603 475.021l-0.27 263.522 324.267 44.046v-307.568h-323.997zM463.646 790.426l432.247 62.908v-378.313h-432.247v315.405zM896 420.98l-0.107-378.313-432.247 60.8v317.513h432.354zM409.6 110.383l-323.997 44.425v266.223h323.997v-310.647z" />
<glyph unicode="&#xe93a;" glyph-name="notification" d="M426.667 853.334v-57.233c-99.43-35.143-170.667-129.969-170.667-241.433v-213.333h-80l-48-256h263.284c17.571-49.715 64.985-85.333 120.716-85.333s103.147 35.618 120.717 85.333h263.283l-48 256h-80v213.333c0 111.464-71.236 206.29-170.667 241.433v57.233h-170.667zM341.333 554.667c0 94.257 76.41 170.667 170.667 170.667 94.255 0 170.667-76.41 170.667-170.667v-298.667h94.511l16-85.333h-562.357l16 85.333h94.513v298.667z" />
<glyph unicode="&#xe93b;" glyph-name="events" d="M341.333 469.334h85.333v-85.333h-85.333v85.333zM469.333 469.334h85.333v-85.333h-85.333v85.333zM597.333 469.334h85.333v-85.333h-85.333v85.333zM341.333 341.334h85.333v-85.333h-85.333v85.333zM469.333 341.334h85.333v-85.333h-85.333v85.333zM597.333 341.334h85.333v-85.333h-85.333v85.333zM597.333 853.334v-85.333h-170.667v85.333h-85.333v-85.333h-170.667v-682.667h682.667v682.667h-170.667v85.333h-85.333zM341.333 682.667v-85.333h85.333v85.333h170.667v-85.333h85.333v85.333h85.333v-512h-512v512h85.333z" />
<glyph unicode="&#xe93c;" glyph-name="add-f" d="M938.667 426.667c0 235.641-191.027 426.667-426.667 426.667s-426.667-191.026-426.667-426.667c0-235.639 191.025-426.667 426.667-426.667 235.639 0 426.667 191.027 426.667 426.667zM469.333 469.334v213.333h85.333v-213.333h213.333v-85.333h-213.333v-213.333h-85.333v213.333h-213.333v85.333h213.333z" />
<glyph unicode="&#xe93d;" glyph-name="cc-en-f" d="M938.667 725.335h-853.333v-597.335h853.333v597.335zM469.333 469.334h-85.333l-0.49 30.703c0 5.85-4.087 11.964-12.261 11.964h-17.165c-8.174 0-12.261-6.114-12.261-11.964v-146.739c0-5.85 4.087-11.964 12.261-11.964h17.165c8.174 0 12.261 6.114 12.261 11.964l0.49 30.703h85.333v-35.887c0-32.964-24.030-49.446-72.092-49.446h-69.149c-48.061 0-72.092 16.482-72.092 49.446v157.107c0 32.965 24.031 49.446 72.092 49.446h69.149c48.062 0 72.092-16.482 72.092-49.446v-35.887zM682.667 469.334l-0.491 30.703c0 5.85-4.087 11.964-12.262 11.964h-17.161c-8.175 0-12.262-6.114-12.262-11.964v-146.739c0-5.85 4.087-11.964 12.262-11.964h17.161c8.175 0 12.262 6.114 12.262 11.964l0.491 30.703h85.333v-35.887c0-32.964-24.030-49.446-72.094-49.446h-69.146c-48.064 0-72.094 16.482-72.094 49.446v157.107c0 32.965 24.030 49.446 72.094 49.446h69.146c48.064 0 72.094-16.482 72.094-49.446v-35.887h-85.333z" />
<glyph unicode="&#xe93e;" glyph-name="channel-f" d="M725.333 512h-85.333v-42.667h85.333v42.667zM938.667 768h-853.333v-554.667h74.667l-32-128h85.333l32 128h533.333l32-128h85.333l-32 128h74.667v554.667zM576 512c0 35.346 28.655 64 64 64h85.333c35.345 0 64-28.654 64-64v-42.667c0-35.345-28.655-64-64-64v-64h-85.333v64c-35.345 0-64 28.655-64 64v42.667z" />
<glyph unicode="&#xe93f;" glyph-name="check-f" d="M938.667 426.667c0-235.639-191.023-426.667-426.667-426.667-235.642 0-426.667 191.027-426.667 426.667 0 235.641 191.025 426.667 426.667 426.667 235.644 0 426.667-191.026 426.667-426.667zM300.812 406.848l168.918-168.917 300.096 300.882-60.343 60.341-240.145-240.148-108.185 108.181-60.34-60.339z" />
<glyph unicode="&#xe940;" glyph-name="delete-f" d="M938.667 426.667c0 235.641-191.027 426.667-426.667 426.667s-426.667-191.026-426.667-426.667c0-235.639 191.025-426.667 426.667-426.667 235.639 0 426.667 191.027 426.667 426.667zM662.848 637.856l60.339-60.34-150.848-150.849 150.848-150.848-60.339-60.339-150.848 150.848-150.85-150.848-60.34 60.339 150.851 150.848-150.851 150.849 60.34 60.34 150.85-150.85 150.848 150.85z" />
<glyph unicode="&#xe941;" glyph-name="enveloppe-f" d="M176.544 682.667h670.134l-334.281-245.948-335.853 245.948zM128 612.999l384.004-281.799 383.996 282.316v-485.516h-768v484.999z" />
<glyph unicode="&#xe942;" glyph-name="events-f" d="M682.667 768v85.333h-85.333v-85.333h-170.667v85.333h-85.333v-85.333h-170.667v-682.667h682.667v682.667zM426.667 256h-85.333v85.333h85.333zM426.667 384h-85.333v85.333h85.333zM554.667 256h-85.333v85.333h85.333zM554.667 384h-85.333v85.333h85.333zM682.667 256h-85.333v85.333h85.333zM682.667 384h-85.333v85.333h85.333z" />
<glyph unicode="&#xe943;" glyph-name="favorite-f" d="M653.491 602.302l-141.491 251.032-141.492-251.032-282.469-56.994 195.022-212.141-33.083-286.255 262.022 119.923 262.020-119.923-33.079 286.255 195.021 212.141-282.47 56.994z" />
<glyph unicode="&#xe944;" glyph-name="more-menu-horz-sq" d="M853.333 341.334v128h-170.667v-128h170.667zM597.333 341.334v128h-170.667v-128h170.667zM341.333 341.334v128h-170.667v-128h170.667z" />
<glyph unicode="&#xe945;" glyph-name="more-menu-vert-sq" d="M597.333 725.334h-170.667v-128h170.667v128zM597.333 512h-170.667v-128h170.667v128zM597.333 298.667h-170.667v-128h170.667v128z" />
<glyph unicode="&#xe946;" glyph-name="map-marker" d="M512 42.667c0 0-298.667 261.333-298.667 514.667 0 82.667 31.467 174.291 87.477 221.801s131.979 74.199 211.189 74.199c79.211 0 155.179-26.691 211.187-74.199 56.013-47.509 87.479-139.134 87.479-221.801 0-253.333-298.667-514.667-298.667-514.667zM512 768c-60.706 0-116.655-20.577-155.991-53.943-30.636-25.986-57.343-89.551-57.343-156.724 0-96.956 59.299-206.332 131.618-300.284 28.787-37.393 57.702-69.879 81.715-95.108 24.013 25.229 52.928 57.715 81.715 95.108 72.32 93.952 131.618 203.328 131.618 300.284 0 67.173-26.705 130.738-57.344 156.724-39.334 33.365-95.283 53.943-155.989 53.943zM618.667 574.955c0-58.91-47.756-106.667-106.667-106.667s-106.667 47.756-106.667 106.667c0 58.91 47.756 106.667 106.667 106.667s106.667-47.756 106.667-106.667z" />
<glyph unicode="&#xe947;" glyph-name="home-f" d="M170.667 384h-85.333v42.667l426.667 426.667 426.667-426.667v-42.667h-85.333v-341.333h-682.667v341.333z" />
<glyph unicode="&#xe948;" glyph-name="map-marker-f" d="M810.667 557.334c0-253.333-298.667-514.667-298.667-514.667s-298.667 261.333-298.667 514.667c0 82.667 31.467 174.291 87.477 221.801s131.979 74.199 211.189 74.199c79.211 0 155.179-26.691 211.187-74.199 56.013-47.509 87.479-139.134 87.479-221.801zM512 468.288c58.91 0 106.667 47.756 106.667 106.666s-47.757 106.667-106.667 106.667c-58.91 0-106.667-47.756-106.667-106.667s47.757-106.666 106.667-106.666z" />
<glyph unicode="&#xe949;" glyph-name="newsletter-f" d="M896 651.675l-362.667-233.145-362.667 233.143v-651.674l213.333 170.667h512v481.008zM213.925 725.334h638.816l-319.407-205.334-319.409 205.334z" />
<glyph unicode="&#xe94a;" glyph-name="notification-f" d="M426.667 853.334h170.667v-57.233c99.43-35.143 170.667-129.969 170.667-241.433v-213.333h80l48-256h-263.283c-17.57-49.715-64.986-85.333-120.717-85.333s-103.145 35.618-120.716 85.333h-263.284l48 256h80v213.333c0 111.464 71.237 206.29 170.667 241.433v57.233z" />
<glyph unicode="&#xe94b;" glyph-name="pause-circle-f" d="M512-0c235.639 0 426.667 191.027 426.667 426.667 0 235.642-191.027 426.667-426.667 426.667-235.642 0-426.667-191.025-426.667-426.667 0-235.639 191.025-426.667 426.667-426.667zM384 597.334h85.333v-341.333h-85.333v341.333zM554.667 597.334h85.333v-341.333h-85.333v341.333z" />
<glyph unicode="&#xe94c;" glyph-name="play-disc" d="M512-0c-235.642 0-426.667 191.027-426.667 426.667 0 235.642 191.025 426.667 426.667 426.667 235.639 0 426.667-191.025 426.667-426.667 0-235.639-191.027-426.667-426.667-426.667zM768 426.667l-426.667 170.667v-341.333l426.667 170.667z" />
<glyph unicode="&#xe94d;" glyph-name="play-interactive-f" d="M199.857 85.334c-20.015 0-36.856 8.158-50.524 21.333s-21.332 32.183-21.332 57.015v154.321c0 22.302-7.665 39.027-21.333 50.176-13.18 11.657-43.497 15.821-64 15.821v85.333c20.503 0 50.82 4.672 64 15.821 13.668 11.657 21.333 28.636 21.333 50.935v153.562c0 24.833 7.665 43.839 21.333 57.015s30.51 21.333 50.524 21.333h56.142v-85.333h-42.666v-157.173c0-12.163-1.521-23.819-5.915-34.968-3.905-10.645-9.275-20.275-16.109-28.89s-14.889-15.966-24.164-22.046c-9.275-5.577-19.038-9.378-29.289-11.405v-3.038c10.252-2.027 20.015-6.084 29.289-12.164 9.275-5.577 17.329-12.672 24.164-21.286s12.204-18.5 16.109-29.649c4.393-10.641 5.915-22.046 5.915-34.21v-157.171h42.666v-85.333h-56.143zM824.141 85.334c20.015 0 36.855 8.158 50.526 21.333s21.333 32.183 21.333 57.015v154.321c0 22.302 7.663 39.027 21.333 50.176 13.18 11.657 43.499 15.821 64 15.821v85.333c-20.501 0-50.82 4.672-64 15.821-13.67 11.657-21.333 28.636-21.333 50.935v153.562c0 24.833-7.667 43.839-21.333 57.015-13.67 13.177-30.511 21.333-50.526 21.333h-56.141v-85.333h42.667v-157.173c0-12.163 1.519-23.819 5.914-34.968 3.904-10.645 9.276-20.275 16.111-28.89 6.831-8.614 14.886-15.966 24.162-22.046 9.276-5.577 19.038-9.378 29.291-11.405v-3.038c-10.253-2.027-20.015-6.084-29.291-12.164-9.276-5.577-17.331-12.672-24.162-21.286-6.835-8.614-12.207-18.5-16.111-29.649-4.395-10.641-5.914-22.046-5.914-34.21v-157.171h-42.667v-85.333h56.141zM341.333 650.073l446.81-223.406-446.81-223.407v446.813z" />
<glyph unicode="&#xe94e;" glyph-name="purchase-f" d="M938.667 426.667c0-235.639-191.027-426.667-426.667-426.667s-426.667 191.027-426.667 426.667c0 235.641 191.025 426.667 426.667 426.667 235.639 0 426.667-191.026 426.667-426.667zM554.667 682.667h-85.333v-47.251c-5.312-1.050-10.509-2.281-15.599-3.692-19.895-5.327-37.149-13.033-51.755-23.117s-26.037-22.261-34.292-36.53c-8.255-14.27-12.383-30.157-12.383-47.661 0-18.077 4.128-34.055 12.383-47.948 8.467-13.888 19.686-26.065 33.657-36.531 13.971-10.462 30.058-19.405 48.264-26.825 18.415-7.42 37.679-13.606 57.788-18.551 16.512-3.998 30.272-8.371 41.276-13.129 11.221-4.565 20.215-9.702 26.991-15.411 6.985-5.517 11.853-11.511 14.605-17.98 2.965-6.468 4.446-13.414 4.446-20.834s-1.694-14.272-5.082-20.548c-3.383-6.089-8.256-11.319-14.605-15.697s-14.182-7.799-23.497-10.274c-9.101-2.475-19.58-3.712-31.433-3.712-13.338 0-25.613 1.335-36.834 3.998-11.008 2.662-20.531 6.848-28.578 12.557-7.829 5.709-13.969 13.035-18.415 21.973-1.092 2.202-2.206 4.122-3.264 5.956-3.251 5.615-6.020 10.406-6.341 19.874h-84.927c0-15.219 1.922-22.69 6.579-35.247 4.869-12.557 11.431-23.782 19.686-33.677 8.467-9.894 18.416-18.551 29.847-25.971s23.708-13.602 36.832-18.551c11.179-4.143 22.729-7.356 34.65-9.63v-47.59h85.333v44.599c10.607 1.237 20.779 3.063 30.519 5.487 19.9 5.137 37.047 12.557 51.439 22.263 14.396 9.89 25.613 21.879 33.66 35.959 8.256 14.268 12.382 30.537 12.382 48.802 0 17.122-3.597 32.627-10.795 46.519-6.985 14.080-16.934 26.539-29.85 37.385-12.698 11.038-27.938 20.548-45.722 28.54-17.779 7.991-37.257 14.746-58.423 20.262-14.818 3.618-28.151 7.518-40.009 11.703-11.639 4.186-21.589 8.751-29.845 13.7-8.256 5.137-14.605 10.842-19.051 17.122-4.233 6.281-6.349 13.318-6.349 21.119 0 7.42 1.587 14.27 4.762 20.549 3.388 6.469 8.256 11.986 14.605 16.553 6.349 4.756 14.076 8.372 23.181 10.845 9.314 2.664 19.895 3.995 31.748 3.995 12.915 0 24.132-1.617 33.66-4.852 9.737-3.044 17.779-7.42 24.132-13.128 6.562-5.518 11.43-12.177 14.605-19.978l0.734-1.68c3.23-7.4 6.891-15.773 7.283-24.434h85.333c0 18.646-4.655 36.198-12.702 51.799-8.043 15.601-19.26 29.015-33.655 40.241-14.396 11.416-31.646 20.263-51.755 26.542-9.485 2.992-19.443 5.271-29.888 6.837v45.248z" />
<glyph unicode="&#xe94f;" glyph-name="search-f" d="M384 298.667c141.385 0 256 114.615 256 256s-114.615 256-256 256c-141.385 0-256-114.615-256-256s114.615-256 256-256zM593.873 284.113l60.429 60.429 250.974-250.974-60.429-60.429-250.974 250.974z" />
<glyph unicode="&#xe950;" glyph-name="settings-f" d="M585.754 469.376c23.543-40.815 9.536-93.022-31.279-116.608s-92.992-9.621-116.535 31.189c-23.542 40.815-9.536 93.026 31.279 116.612s92.992 9.621 116.535-31.194zM397.144 853.236l-196.591-113.669 38.083-108.483c-16.221-21.74-29.667-45.185-40.198-69.757l-113.008-21.256-0.096-227.174 112.98-21.154c5.251-12.224 11.264-24.247 18.047-36.015s14.177-22.993 22.121-33.66l-38.192-108.565 196.496-113.502 74.883 87.381c26.513-3.149 53.513-3.213 80.422-0.013l74.769-87.27 196.591 113.668-38.084 108.48c16.222 21.743 29.67 45.188 40.201 69.76l113.007 21.257 0.094 227.168-112.973 21.158c-5.252 12.223-11.264 24.25-18.048 36.018s-14.178 22.996-22.123 33.662l38.191 108.561-196.493 113.502-74.884-87.38c-26.513 3.151-53.513 3.211-80.427 0.012l-74.767 87.27zM659.661 512.085c47.083-81.629 19.076-186.043-62.558-233.219-81.634-47.172-185.983-19.243-233.069 62.387s-19.079 186.042 62.557 233.217c81.634 47.175 185.984 19.245 233.071-62.385z" />
<glyph unicode="&#xe951;" glyph-name="shield" d="M303.979 253.658c-7.151 16.090-14.558 37.321-21.929 63.117-14.726 51.541-27.441 114.628-37.878 177.254-10.373 62.234-18.191 122.134-23.424 166.608-0.217 1.844-0.429 3.662-0.637 5.451l291.889 97.296 291.887-97.296c-0.205-1.789-0.418-3.606-0.636-5.451-5.231-44.474-13.052-104.374-23.424-166.608-10.436-62.626-23.151-125.713-37.875-177.254-7.373-25.796-14.78-47.027-21.931-63.117-7.027-15.808-11.703-21.803-12.305-22.575-0.064-0.081-0.081-0.102-0.055-0.077-34.876-34.876-91.294-73.139-143.565-104.499-19.405-11.644-37.355-21.82-52.096-29.926-14.741 8.107-32.691 18.283-52.096 29.926-52.27 31.36-108.689 69.623-143.564 104.499 0.027-0.026 0.009-0.004-0.054 0.077-0.603 0.772-5.281 6.767-12.307 22.575zM128 725.334c0 0 42.667-469.333 128-554.667s256-170.667 256-170.667c0 0 170.667 85.333 256 170.667s128 554.667 128 554.667l-384 128-384-128zM554.667 391.284c49.715 17.57 85.333 64.986 85.333 120.717 0 70.692-57.306 128-128 128s-128-57.308-128-128c0-55.731 35.619-103.147 85.333-120.717v-135.283h85.333v135.283zM554.667 512c0-23.565-19.102-42.667-42.667-42.667s-42.667 19.102-42.667 42.667c0 23.564 19.102 42.667 42.667 42.667s42.667-19.103 42.667-42.667z" />
<glyph unicode="&#xe952;" glyph-name="shield-f" d="M512 469.334c23.565 0 42.667 19.102 42.667 42.667s-19.102 42.667-42.667 42.667c-23.565 0-42.667-19.103-42.667-42.667s19.102-42.667 42.667-42.667zM256 170.667c85.333-85.333 256-170.667 256-170.667s170.667 85.333 256 170.667c85.333 85.333 128 554.667 128 554.667l-384 128-384-128c0 0 42.667-469.333 128-554.667zM640 512c0-55.731-35.618-103.147-85.333-120.717v-135.283h-85.333v135.283c-49.715 17.57-85.333 64.986-85.333 120.717 0 70.692 57.306 128 128 128s128-57.308 128-128z" />
<glyph unicode="&#xe953;" glyph-name="subtitles" d="M938.667 725.335v-597.335h-853.335v597.335h853.335zM853.333 640.002h-682.668v-426.668h682.668v426.668zM256 341.334h256v-85.333h-256v85.333zM298.667 469.334h128v-85.333h-128v85.333zM554.667 341.334h213.333v-85.333h-213.333v85.333zM469.333 469.334h256v-85.333h-256v85.333z" />
<glyph unicode="&#xe954;" glyph-name="subtitles-f" d="M85.333 725.334v-597.333h853.333v597.333zM469.333 469.334h256v-85.333h-256zM298.667 469.334h128v-85.333h-128zM512 256h-256v85.333h256zM768 256h-213.333v85.333h213.333z" />
<glyph unicode="&#xe955;" glyph-name="ticket-f" d="M891.733 520.534l-64-8.533c0 0-4.267 0-4.267 4.267-4.267 4.267-12.8 12.8-17.067 21.333-4.267 12.8-4.267 21.333-4.267 25.6s0 4.267 4.267 4.267l55.467 38.4-81.067 217.6-721.067-260.267 81.067-217.6 64 8.533c0 0 4.267 0 4.267-4.267 4.267-4.267 12.8-12.8 17.067-21.333s4.267-21.333 4.267-25.6c0-4.267 0-4.267-4.267-4.267l-55.467-38.4 81.067-217.6 721.067 264.533-81.067 213.333zM550.4 358.4l-64-68.267-17.067 89.6-85.333 38.4 81.067 42.667 8.533 93.867 68.267-64 89.6 17.067-38.4-85.333 46.933-76.8-89.6 12.8z" />
<glyph unicode="&#xe956;" glyph-name="warning-f" d="M512 853.334c-235.641 0-426.667-191.025-426.667-426.667s191.025-426.667 426.667-426.667c235.641 0 426.667 191.025 426.667 426.667v0c0 235.641-191.025 426.667-426.667 426.667v0zM554.667 170.667h-85.333v85.333h85.333zM554.667 341.334h-85.333v341.333h85.333z" />
<glyph unicode="&#xe957;" glyph-name="watchlater-f" d="M938.667 426.667c0-235.639-191.023-426.667-426.667-426.667-235.642 0-426.667 191.027-426.667 426.667 0 235.641 191.025 426.667 426.667 426.667 235.644 0 426.667-191.026 426.667-426.667zM554.667 469.334v213.333h-85.333v-256c0-23.565 19.102-42.667 42.667-42.667h170.667v85.333h-128z" />
</font>
</defs>
</svg>
