<svg viewBox="0 0 121 22" fill="none" xmlns="http://www.w3.org/2000/svg">
<path d="M14.7988 5.74062C15.8415 5.66885 17.9522 5.61398 21 5.61398V7.59803H12V4.76548C15.0943 3.76501 17.1881 3.15291 18.2012 2.94184V2.87007C17.1754 2.92917 15.0732 2.98827 12 2.98827V1H21V3.84099C17.9437 4.83302 15.8246 5.44934 14.7988 5.66885V5.74062Z" fill="black"/>
<path d="M12 9.01642H21V13.6093H19.5521V11.2622H17.416V13.6051H15.9681V11.2622H12V9.01642Z" fill="black"/>
<path d="M13.4479 16.9231V17.5394C13.4479 18.3204 13.7772 18.7087 14.6384 18.7087C15.432 18.7087 15.9681 18.3457 15.9681 17.5563V16.9231H13.4479ZM17.416 16.9231V17.5478C17.416 18.1642 17.7622 18.4808 18.522 18.4808C19.2819 18.4808 19.5521 18.1177 19.5521 17.531V16.9231H17.416ZM16.7491 18.8902C16.5464 20.3128 15.8541 21.0009 14.4991 21.0009C12.6796 21.0009 12 19.6416 12 17.6238V14.6689H21V17.2777C21 19.3039 20.5314 20.6548 18.7922 20.6548C18.5432 20.6743 18.2928 20.6432 18.0562 20.5633C17.8195 20.4834 17.6015 20.3563 17.4153 20.1899C17.2291 20.0234 17.0785 19.8209 16.9727 19.5946C16.8669 19.3684 16.8081 19.123 16.7997 18.8734L16.7491 18.8902Z" fill="black"/>
<path d="M2.25676 17.8184C2.25676 18.3974 2.94555 18.8537 5.50212 18.8537C8.05869 18.8537 8.72213 18.3974 8.72213 17.8057C8.72213 17.2141 8.02911 16.7535 5.50212 16.7535C2.97513 16.7535 2.25676 17.2141 2.25676 17.8057V17.8184ZM5.46831 21.1568C2.23985 21.1568 0.820007 19.9905 0.820007 17.8057C0.820007 15.621 2.25676 14.4547 5.49789 14.4547C8.73903 14.4547 10.18 15.621 10.18 17.8057C10.18 19.9905 8.74326 21.1568 5.49789 21.1568H5.46831Z" fill="black"/>
<path d="M7.20088 8.80493C6.16134 8.88099 4.04848 8.93592 0.997498 8.93592V6.9456H10.0025V9.7853C6.9093 10.7826 4.81334 11.3953 3.79916 11.6066V11.6827C4.82601 11.6193 6.93043 11.5643 10.0025 11.5643V13.5504H0.997498V10.7192C4.05693 9.72614 6.17402 9.1134 7.20088 8.88944V8.80493Z" fill="black"/>
<path d="M10.0025 5.5976H0.997498V1H2.44692V3.34951H4.58515V1H6.03457V3.34951H10.0025V5.5976Z" fill="black"/>
<path d="M37.2845 12.7807C39.4956 12.4795 41.5245 11.3924 43 9.71826V9.6884C41.5262 8.0173 39.5006 6.93186 37.293 6.63019C37.912 6.87184 38.4436 7.29465 38.8184 7.84332C39.1932 8.39199 39.3937 9.041 39.3937 9.70547C39.3937 10.3699 39.1932 11.0189 38.8184 11.5676C38.4436 12.1163 37.912 12.5391 37.293 12.7807" fill="black"/>
<path d="M34.8789 6.62592C32.6593 6.92421 30.6236 8.01858 29.1506 9.70546C30.6304 11.3876 32.6673 12.4796 34.8874 12.7807C34.2671 12.5398 33.734 12.1171 33.3582 11.5679C32.9823 11.0187 32.7812 10.3688 32.7812 9.70333C32.7812 9.03786 32.9823 8.38792 33.3582 7.83876C33.734 7.28959 34.2671 6.86683 34.8874 6.62592" fill="black"/>
<path d="M40.2958 15.6044L40.074 15.6811V21.0042H43V14.2992C42.1531 14.8392 41.2454 15.2772 40.2958 15.6044" fill="black"/>
<path d="M32.0893 15.6897L31.8675 15.6172C28.8666 14.5647 26.3444 12.4679 24.7616 9.70973C25.8745 7.76633 27.4676 6.14107 29.3884 4.9895C31.3092 3.83793 33.4933 3.19859 35.7319 3.13265H36.4016C38.7416 3.18939 41.0223 3.88083 43 5.13307V1H23V21.0042H32.0893V15.6897Z" fill="black"/>
<path d="M60.4876 8.23124V13.7312H61.7339C61.9205 13.7493 62.1087 13.7251 62.2847 13.6606C62.4607 13.596 62.6199 13.4928 62.7506 13.3584C62.8813 13.224 62.9801 13.062 63.0397 12.8843C63.0993 12.7066 63.1183 12.5178 63.0951 12.3318V9.62644C63.1135 9.44139 63.0913 9.25455 63.03 9.07898C62.9687 8.90342 62.8697 8.74338 62.74 8.61007C62.6104 8.47676 62.4531 8.3734 62.2793 8.30723C62.1055 8.24106 61.9194 8.21367 61.7339 8.22699L60.4876 8.23124Z" fill="black"/>
<path d="M86.8688 12.3871H85.078L85.967 8.86504L86.8688 12.3871Z" fill="black"/>
<path d="M102.875 12.5402C102.875 12.882 103.011 13.2099 103.253 13.4516C103.495 13.6933 103.822 13.8291 104.164 13.8291C104.506 13.8291 104.834 13.6933 105.076 13.4516C105.317 13.2099 105.453 12.882 105.453 12.5402V9.418C105.453 9.07618 105.317 8.74835 105.076 8.50664C104.834 8.26493 104.506 8.12914 104.164 8.12914C103.822 8.12914 103.495 8.26493 103.253 8.50664C103.011 8.74835 102.875 9.07618 102.875 9.418V12.5402Z" fill="black"/>
<path fill-rule="evenodd" clip-rule="evenodd" d="M47 1H120V21H47V1ZM53.0266 13.7312V11.8043H56.2977V10.0348H53.0479V8.23124H56.7231V6.42343H51.0146V15.5348H56.8549V13.7312H53.0266ZM65.1071 9.58391V12.3743C65.1071 14.314 63.8863 15.5348 61.7339 15.5348H58.4756V6.42343H61.7339C63.8863 6.42343 65.1071 7.64423 65.1071 9.58391ZM73.2061 12.5827V6.42343H71.1941V12.5402C71.1941 13.3569 70.7517 13.8716 70.003 13.8716C69.2544 13.8716 68.8078 13.3569 68.8078 12.5402V6.42343H66.7958V12.5827C66.7958 14.4841 68.0761 15.6752 70.003 15.6752C71.93 15.6752 73.2061 14.4841 73.2061 12.5827ZM81.3943 12.3318V12.5827C81.3943 14.4841 80.1182 15.6751 78.2169 15.6751C76.3155 15.6751 74.9415 14.4841 74.9415 12.5827V9.37972C74.9415 7.47833 76.0815 6.28305 78.2169 6.28305C80.1182 6.28305 81.3943 7.47833 81.3943 9.37972V9.61367H79.4504V9.418C79.4694 9.24327 79.45 9.06649 79.3933 8.90009C79.3367 8.73369 79.2444 8.5817 79.1228 8.45481C79.0011 8.32791 78.8532 8.22919 78.6893 8.16558C78.5255 8.10197 78.3497 8.07502 78.1743 8.08661C78.0029 8.08111 77.8323 8.11271 77.6742 8.17924C77.5161 8.24577 77.3742 8.34567 77.2583 8.47209C77.1424 8.59851 77.0552 8.74848 77.0025 8.91174C76.9499 9.07499 76.9332 9.24769 76.9535 9.418V12.5402C76.9332 12.7105 76.9499 12.8832 77.0025 13.0465C77.0552 13.2097 77.1424 13.3597 77.2583 13.4861C77.3742 13.6125 77.5161 13.7124 77.6742 13.779C77.8323 13.8455 78.0029 13.8771 78.1743 13.8716C78.3497 13.8832 78.5255 13.8562 78.6893 13.7926C78.8532 13.729 79.0011 13.6303 79.1228 13.5034C79.2444 13.3765 79.3367 13.2245 79.3933 13.0581C79.45 12.8917 79.4694 12.7149 79.4504 12.5402V12.3318H81.3943ZM84.9547 6.42343L82.3174 15.5348H84.2868L84.6484 14.0928H87.2984L87.6728 15.5348H89.74L87.1198 6.42343H84.9547ZM89.5997 6.42343H95.7888V8.23124H93.7045V15.5348H91.6967V8.23124H89.5997V6.42343ZM97.269 15.5348H99.281V6.42343H97.269V15.5348ZM107.465 12.5827C107.465 14.4841 106.134 15.6751 104.164 15.6751C102.195 15.6751 100.863 14.4841 100.863 12.5827V9.37972C100.863 7.47833 101.999 6.28305 104.164 6.28305C106.134 6.28305 107.465 7.47833 107.465 9.37972V12.5827ZM114.011 15.5348H115.649L115.632 6.42343H113.799V11.4853L110.957 6.42343H109.256V15.5348H111.085V10.3581L114.011 15.5348Z" fill="black"/>
</svg>
