<?xml version="1.0" encoding="utf-8"?>
<!-- Generator: Adobe Illustrator 17.1.0, SVG Export Plug-In . SVG Version: 6.00 Build 0)  -->
<!DOCTYPE svg PUBLIC "-//W3C//DTD SVG 1.1//EN" "http://www.w3.org/Graphics/SVG/1.1/DTD/svg11.dtd">
<svg version="1.1" id="Layer_1" xmlns="http://www.w3.org/2000/svg" xmlns:xlink="http://www.w3.org/1999/xlink" x="0px" y="0px"
	 viewBox="0 0 40 5.7" enable-background="new 0 0 40 5.7" xml:space="preserve">
<g>
	<path d="M6.7,3.9v0.9h1.7v0.8H5.8V1.5h2.6v0.8H6.7v0.8h1.5v0.8H6.7z"/>
	<path d="M12.2,2.9v1.3c0,0.9-0.6,1.5-1.5,1.5H9.2V1.5h1.5C11.6,1.5,12.2,2,12.2,2.9z M10.1,2.3v2.5h0.6c0.4,0,0.6-0.2,0.6-0.6V2.9
		c0-0.4-0.2-0.6-0.6-0.6C10.6,2.3,10.1,2.3,10.1,2.3z"/>
	<path d="M15.9,1.5v2.8c0,0.9-0.6,1.4-1.5,1.4c-0.9,0-1.5-0.5-1.5-1.4V1.5h0.9v2.8c0,0.4,0.2,0.6,0.5,0.6c0.3,0,0.5-0.2,0.5-0.6V1.5
		H15.9z"/>
	<path d="M19.6,4.2v0.1c0,0.9-0.6,1.4-1.5,1.4c-0.9,0-1.5-0.5-1.5-1.4V2.8c0-0.9,0.5-1.4,1.5-1.4c0.9,0,1.5,0.5,1.5,1.4v0.1h-0.9
		V2.8c0-0.4-0.2-0.6-0.6-0.6c-0.3,0-0.6,0.2-0.6,0.6v1.4c0,0.4,0.2,0.6,0.6,0.6c0.4,0,0.6-0.2,0.6-0.6V4.2L19.6,4.2L19.6,4.2z"/>
	<path d="M19.8,5.6L21,1.5h1l1.2,4.2h-0.9L22.1,5h-1.2l-0.2,0.7H19.8z M21.1,4.2h0.8l-0.4-1.6L21.1,4.2z"/>
	<path d="M23.2,1.5H26v0.8h-1v3.3h-0.9V2.3h-1C23.2,2.3,23.2,1.5,23.2,1.5z"/>
	<path d="M27.5,5.6h-0.9V1.5h0.9V5.6z"/>
	<path d="M31.3,4.3c0,0.9-0.6,1.4-1.5,1.4c-0.9,0-1.5-0.5-1.5-1.4V2.8c0-0.9,0.5-1.4,1.5-1.4c0.9,0,1.5,0.5,1.5,1.4V4.3z M29.2,4.3
		c0,0.4,0.2,0.6,0.6,0.6c0.4,0,0.6-0.2,0.6-0.6V2.8c0-0.4-0.2-0.6-0.6-0.6c-0.4,0-0.6,0.2-0.6,0.6V4.3z"/>
	<path d="M35,5.6h-0.8l-1.3-2.4v2.4H32V1.5h0.8l1.3,2.3V1.5h0.8L35,5.6L35,5.6z"/>
	<g>
		<path d="M38.8,3.9c0.4-0.1,0.9-0.3,1.2-0.6v0c-0.3-0.4-0.8-0.6-1.2-0.6C39,2.7,39.2,3,39.2,3.3C39.2,3.6,39,3.8,38.8,3.9z"/>
		<path d="M38.3,2.6c-0.4,0.1-0.9,0.3-1.2,0.6c0.3,0.4,0.8,0.6,1.2,0.6c-0.3-0.1-0.4-0.4-0.4-0.6C37.8,3,38,2.7,38.3,2.6z"/>
		<path d="M39.4,4.5L39.4,4.5L39.4,4.5c0,0.1,0,0.6,0,1.1H40V4.2C39.8,4.3,39.6,4.4,39.4,4.5z"/>
		<path d="M37.7,4.5L37.7,4.5c-0.7-0.2-1.2-0.7-1.5-1.3c0.5-0.9,1.4-1.4,2.3-1.4h0.1c0.5,0,1,0.2,1.4,0.4V1.4h-4.2v4.2h1.9
			C37.7,5.1,37.7,4.5,37.7,4.5z"/>
	</g>
	<g>
		<path d="M2.9,2.4c0.2,0,0.7,0,1.3,0v0.4H2.3V2.2C2.9,2,3.4,1.9,3.6,1.8v0c-0.2,0-0.7,0-1.3,0V1.4h1.9V2C3.5,2.2,3.1,2.3,2.9,2.4
			C2.9,2.4,2.9,2.4,2.9,2.4z"/>
		<path d="M2.3,3.1h1.9v1H3.9V3.6H3.4v0.5H3.1V3.6H2.3V3.1z"/>
		<path d="M3.3,5.2c0,0.3-0.2,0.4-0.5,0.4c-0.4,0-0.5-0.3-0.5-0.7V4.3h1.9v0.5c0,0.4-0.1,0.7-0.5,0.7C3.4,5.5,3.3,5.4,3.3,5.2
			L3.3,5.2L3.3,5.2z M3.4,4.7v0.1c0,0.1,0.1,0.2,0.2,0.2c0.2,0,0.2-0.1,0.2-0.2V4.7C3.9,4.7,3.4,4.7,3.4,4.7z M2.6,4.7v0.1
			c0,0.2,0.1,0.2,0.3,0.2c0.2,0,0.3-0.1,0.3-0.2V4.8L2.6,4.7L2.6,4.7z"/>
		<path d="M1,5.6c-0.7,0-1-0.2-1-0.7c0-0.5,0.3-0.7,1-0.7s1,0.2,1,0.7C2,5.4,1.7,5.6,1,5.6L1,5.6z M0.3,4.9c0,0.1,0.1,0.2,0.7,0.2
			c0.5,0,0.7-0.1,0.7-0.2c0-0.1-0.1-0.2-0.7-0.2C0.4,4.7,0.3,4.8,0.3,4.9L0.3,4.9z"/>
		<path d="M1.3,3.1c-0.2,0-0.7,0-1.3,0V2.7h1.9v0.6C1.3,3.5,0.8,3.6,0.6,3.6v0c0.2,0,0.7,0,1.3,0V4H0V3.5C0.7,3.2,1.1,3.1,1.3,3.1
			C1.3,3.1,1.3,3.1,1.3,3.1z"/>
		<path d="M1.9,2.4H0v-1h0.3v0.5h0.4V1.4h0.3v0.5h0.8V2.4z"/>
	</g>
	<rect x="4.9" y="1.4" width="0.3" height="4.2"/>
	<polygon points="7.1,1.2 6.7,0.9 7.4,0 8,0.5 	"/>
</g>
</svg>
