<?xml version="1.0" encoding="utf-8"?>
<!-- Generator: Adobe Illustrator 17.1.0, SVG Export Plug-In . SVG Version: 6.00 Build 0)  -->
<!DOCTYPE svg PUBLIC "-//W3C//DTD SVG 1.1//EN" "http://www.w3.org/Graphics/SVG/1.1/DTD/svg11.dtd">
<svg version="1.1" id="Layer_1" xmlns="http://www.w3.org/2000/svg" xmlns:xlink="http://www.w3.org/1999/xlink" x="0px" y="0px"
	 viewBox="0 0 70 48" enable-background="new 0 0 70 48" xml:space="preserve">
<g>
	<g>
		<path fill="#000" d="M37.1,21.8c2.3-1,3.2-2,3.2-3.7c0-1.9-1.8-3.3-4.4-3.3c-2.6,0-4.3,1.2-4.3,3
			C31.6,19.6,32.7,20.4,37.1,21.8z M16.5,26.6v-6.4c0-0.7,0-1.3,0.3-4.1l-6.6,10.4H16.5z M34.4,25.4c-2.4,0.9-3.8,2.4-3.8,4
			c0,2,2.2,3.4,5.3,3.4c3,0,4.9-1.2,4.9-3.1C40.7,27.9,39.5,27.1,34.4,25.4z M64.4,0H5.6C2.5,0,0,2.6,0,5.9v36.2
			C0,45.4,2.5,48,5.6,48h58.9c3.1,0,5.6-2.6,5.6-5.9V5.9C70,2.6,67.5,0,64.4,0z M24.3,30.2h-3.5v5.2h-4.3v-5.2H6.2v-3l10.3-15.3h4.3
			v14.8h3.5V30.2z M35.6,35.8c-5.5,0-9-2.4-9-6.2c0-2.6,1.4-4.2,4.9-5.5c-2-1-2.8-1.7-3.4-2.9c-0.4-0.8-0.6-1.7-0.6-2.6
			c0-4,3.4-6.5,8.5-6.5c5,0,8.2,2.4,8.2,6c0,2.3-1.1,3.7-4.1,5c1.5,0.7,2.1,1,2.9,1.6c1.4,1.1,2.2,2.7,2.2,4.5
			C45,33.1,41.2,35.8,35.6,35.8z M62.6,35.4h-3.9V24.2c0-2.1-0.9-3.3-2.6-3.3c-1.3,0-2.5,0.8-3.1,1.9c-0.5,1-0.7,2.1-0.7,3.7v8.9
			h-3.9V12.3h3.9v9c1.1-2.6,2.6-3.7,5.1-3.7c2.1,0,3.5,0.8,4.4,2.2c0.6,1.1,0.8,2,0.8,3.9V35.4z"/>
	</g>
</g>
</svg>
