<?xml version="1.0" encoding="utf-8"?>
<!-- Generator: Adobe Illustrator 17.1.0, SVG Export Plug-In . SVG Version: 6.00 Build 0)  -->
<!DOCTYPE svg PUBLIC "-//W3C//DTD SVG 1.1//EN" "http://www.w3.org/Graphics/SVG/1.1/DTD/svg11.dtd">
<svg version="1.1" id="Layer_1" xmlns="http://www.w3.org/2000/svg" xmlns:xlink="http://www.w3.org/1999/xlink" x="0px" y="0px"
	 viewBox="0 0 131 44" enable-background="new 0 0 131 44" xml:space="preserve">
<g display="none">
	<g id="PLAY_2_">
		<g display="inline">
			<g>
				<defs>
					<path id="SVGID_1_" d="M28.8,18.8l-5.9-3.4c0,0-10.8-6.2-11.4-6.6c-0.6-0.4-1.3-0.1-1.3,0.6c0,1.3,0,13.3,0,13.3s0,13,0,13.6
						s0.4,0.8,1,0.5c0.5-0.3,11.7-6.8,11.7-6.8l5.9-3.4c0,0,5-2.9,5.7-3.3c0.7-0.4,0.6-0.9,0-1.2C33.9,21.8,28.8,18.8,28.8,18.8z"/>
				</defs>
				<clipPath id="SVGID_2_">
					<use xlink:href="#SVGID_1_"  overflow="visible"/>
				</clipPath>

					<linearGradient id="SVGID_3_" gradientUnits="userSpaceOnUse" x1="14.8137" y1="-248.4155" x2="14.8137" y2="-213.7508" gradientTransform="matrix(0.8397 0 0 0.8397 5.0399 216.7195)">
					<stop  offset="0" style="stop-color:#257CB0"/>
					<stop  offset="0.2863" style="stop-color:#4A93B5"/>
					<stop  offset="0.767" style="stop-color:#78BCBB"/>
					<stop  offset="1" style="stop-color:#89CFBD"/>
				</linearGradient>
				<polygon clip-path="url(#SVGID_2_)" fill="url(#SVGID_3_)" points="10.1,8.1 10.1,22.7 10.1,37.2 24.8,22.7 				"/>
			</g>
		</g>
		<g display="inline">
			<g>
				<defs>
					<path id="SVGID_4_" d="M28.8,18.8l-5.9-3.4c0,0-10.8-6.2-11.4-6.6c-0.6-0.4-1.3-0.1-1.3,0.6c0,1.3,0,13.3,0,13.3s0,13,0,13.6
						s0.4,0.8,1,0.5c0.5-0.3,11.7-6.8,11.7-6.8l5.9-3.4c0,0,5-2.9,5.7-3.3c0.7-0.4,0.6-0.9,0-1.2C33.9,21.8,28.8,18.8,28.8,18.8z"/>
				</defs>
				<clipPath id="SVGID_5_">
					<use xlink:href="#SVGID_4_"  overflow="visible"/>
				</clipPath>

					<linearGradient id="SVGID_6_" gradientUnits="userSpaceOnUse" x1="6.0724" y1="-239.8068" x2="28.2571" y2="-239.8068" gradientTransform="matrix(0.8397 0 0 0.8397 5.0399 216.7195)">
					<stop  offset="0" style="stop-color:#52C1AD"/>
					<stop  offset="1" style="stop-color:#DEE89A"/>
				</linearGradient>
				<polygon clip-path="url(#SVGID_5_)" fill="url(#SVGID_6_)" points="28.8,18.8 22.8,15.3 10.1,8 10.1,8.1 24.8,22.7 				"/>
			</g>
		</g>
		<g display="inline">
			<g>
				<defs>
					<path id="SVGID_7_" d="M28.8,18.8l-5.9-3.4c0,0-10.8-6.2-11.4-6.6c-0.6-0.4-1.3-0.1-1.3,0.6c0,1.3,0,13.3,0,13.3s0,13,0,13.6
						s0.4,0.8,1,0.5c0.5-0.3,11.7-6.8,11.7-6.8l5.9-3.4c0,0,5-2.9,5.7-3.3c0.7-0.4,0.6-0.9,0-1.2C33.9,21.8,28.8,18.8,28.8,18.8z"/>
				</defs>
				<clipPath id="SVGID_8_">
					<use xlink:href="#SVGID_7_"  overflow="visible"/>
				</clipPath>

					<linearGradient id="SVGID_9_" gradientUnits="userSpaceOnUse" x1="17.1647" y1="-231.0743" x2="17.1647" y2="-213.6094" gradientTransform="matrix(0.8397 0 0 0.8397 5.0399 216.7195)">
					<stop  offset="0" style="stop-color:#EC413D"/>
					<stop  offset="0.1668" style="stop-color:#DA4452"/>
					<stop  offset="0.5748" style="stop-color:#B0487A"/>
					<stop  offset="0.8619" style="stop-color:#954A92"/>
					<stop  offset="1" style="stop-color:#8A4A9D"/>
				</linearGradient>
				<polygon clip-path="url(#SVGID_8_)" fill="url(#SVGID_9_)" points="10.1,37.2 10.1,37.3 22.8,30 28.8,26.6 24.8,22.7 				"/>
			</g>
		</g>
		<g display="inline">
			<g>
				<defs>
					<path id="SVGID_10_" d="M28.8,18.8l-5.9-3.4c0,0-10.8-6.2-11.4-6.6c-0.6-0.4-1.3-0.1-1.3,0.6c0,1.3,0,13.3,0,13.3s0,13,0,13.6
						s0.4,0.8,1,0.5c0.5-0.3,11.7-6.8,11.7-6.8l5.9-3.4c0,0,5-2.9,5.7-3.3c0.7-0.4,0.6-0.9,0-1.2C33.9,21.8,28.8,18.8,28.8,18.8z"/>
				</defs>
				<clipPath id="SVGID_11_">
					<use xlink:href="#SVGID_10_"  overflow="visible"/>
				</clipPath>

					<linearGradient id="SVGID_12_" gradientUnits="userSpaceOnUse" x1="29.9364" y1="-235.7411" x2="29.9364" y2="-226.4252" gradientTransform="matrix(0.8397 0 0 0.8397 5.0399 216.7195)">
					<stop  offset="0" style="stop-color:#F58879"/>
					<stop  offset="0.1194" style="stop-color:#F69079"/>
					<stop  offset="0.7128" style="stop-color:#FCB877"/>
					<stop  offset="1" style="stop-color:#FEC874"/>
				</linearGradient>
				<polygon clip-path="url(#SVGID_11_)" fill="url(#SVGID_12_)" points="28.8,18.8 24.8,22.7 28.8,26.6 35.5,22.7 				"/>
			</g>
		</g>
	</g>
	<path fill="#F9F9F9" d="M102.6,28.4c-0.5,0-1.1-0.1-1.5-0.3c-0.5-0.2-0.8-0.5-1.1-0.9h-0.1c0.1,0.5,0.1,1,0.1,1.4V32h-1.3V19.7h1
		l0.2,1.2h0.1c0.3-0.5,0.7-0.8,1.2-1c0.4-0.2,0.9-0.3,1.5-0.3c1.1,0,2,0.4,2.6,1.2c0.6,0.8,0.9,1.8,0.9,3.2c0,1.4-0.3,2.5-0.9,3.2
		C104.5,28,103.7,28.4,102.6,28.4z M102.4,20.7c-0.9,0-1.5,0.2-1.9,0.7c-0.4,0.5-0.6,1.2-0.6,2.3V24c0,1.2,0.2,2,0.6,2.6
		c0.4,0.5,1,0.8,1.9,0.8c0.7,0,1.3-0.3,1.7-0.9c0.4-0.6,0.6-1.4,0.6-2.4c0-1.1-0.2-1.9-0.6-2.4C103.7,21,103.2,20.7,102.4,20.7z"/>
	<path fill="#F9F9F9" d="M109.1,28.2h-1.3v-12h1.3V28.2z"/>
	<path fill="#F9F9F9" d="M116.4,28.2l-0.3-1.2h-0.1c-0.4,0.5-0.8,0.9-1.3,1.1c-0.4,0.2-1,0.3-1.6,0.3c-0.8,0-1.5-0.2-2-0.7
		c-0.5-0.4-0.7-1.1-0.7-1.8c0-1.7,1.4-2.6,4.1-2.7l1.4,0v-0.5c0-0.7-0.1-1.2-0.4-1.5c-0.3-0.3-0.7-0.5-1.4-0.5
		c-0.7,0-1.5,0.2-2.4,0.7l-0.4-1c0.4-0.2,0.9-0.4,1.4-0.5c0.5-0.1,1-0.2,1.5-0.2c1,0,1.8,0.2,2.2,0.7c0.5,0.4,0.7,1.2,0.7,2.2v5.8
		L116.4,28.2L116.4,28.2z M113.5,27.3c0.8,0,1.4-0.2,1.9-0.7c0.5-0.4,0.7-1.1,0.7-1.8V24l-1.3,0.1c-1,0-1.8,0.2-2.2,0.5
		c-0.4,0.3-0.7,0.7-0.7,1.3c0,0.5,0.1,0.8,0.4,1.1C112.7,27.2,113,27.3,113.5,27.3z"/>
	<path fill="#F9F9F9" d="M118.1,19.7h1.4l1.9,4.8c0.4,1.1,0.7,1.9,0.8,2.4h0.1c0.1-0.3,0.2-0.7,0.4-1.4c0.2-0.6,0.9-2.6,2.1-5.9h1.4
		l-3.6,9.6c-0.4,1-0.8,1.6-1.3,2c-0.5,0.4-1.1,0.6-1.8,0.6c-0.4,0-0.8,0-1.2-0.1v-1c0.3,0.1,0.6,0.1,1,0.1c0.9,0,1.5-0.5,1.9-1.5
		l0.5-1.2L118.1,19.7z"/>
	<path fill="#F9F9F9" d="M78.8,20.5c0.4,0.3,1.3,1,1.3,2.4c0,1.3-0.7,1.9-1.5,2.5c-0.2,0.2-0.5,0.5-0.5,0.9c0,0.4,0.3,0.6,0.5,0.8
		l0.6,0.5c0.8,0.7,1.5,1.3,1.5,2.5c0,1.7-1.6,3.3-4.7,3.3c-2.6,0-3.8-1.2-3.8-2.5c0-0.6,0.3-1.5,1.4-2.2c1.1-0.7,2.6-0.8,3.4-0.8
		c-0.3-0.3-0.5-0.7-0.5-1.2c0-0.3,0.1-0.5,0.2-0.7c-0.2,0-0.4,0-0.6,0c-1.9,0-2.9-1.4-2.9-2.8c0-0.8,0.4-1.7,1.1-2.4
		c1-0.8,2.2-1,3.2-1h3.7l-1.1,0.6L78.8,20.5L78.8,20.5z M77.6,28.4c-0.1,0-0.2,0-0.4,0s-1.1,0-1.9,0.3c-0.4,0.1-1.5,0.6-1.5,1.8
		c0,1.3,1.2,2.2,3.1,2.2c1.7,0,2.6-0.8,2.6-1.9C79.5,29.8,78.9,29.3,77.6,28.4z M78.1,25c0.4-0.4,0.4-1,0.4-1.3
		c0-1.3-0.8-3.3-2.2-3.3c-0.5,0-1,0.2-1.2,0.6c-0.3,0.4-0.4,0.8-0.4,1.3c0,1.2,0.7,3.1,2.2,3.1C77.3,25.5,77.8,25.3,78.1,25z"/>
	<path fill="#F9F9F9" d="M67.7,28.1c-2.8,0-4.3-2.2-4.3-4.2c0-2.3,1.9-4.3,4.6-4.3c2.6,0,4.2,2,4.2,4.2
		C72.2,25.9,70.6,28.1,67.7,28.1z M69.9,26.7c0.4-0.6,0.5-1.3,0.5-2c0-1.6-0.7-4.5-2.9-4.5c-0.6,0-1.2,0.2-1.6,0.6
		c-0.7,0.6-0.8,1.4-0.8,2.2c0,1.8,0.9,4.6,3,4.6C68.8,27.6,69.5,27.2,69.9,26.7z"/>
	<path fill="#F9F9F9" d="M58.1,28.1c-2.8,0-4.3-2.2-4.3-4.2c0-2.3,1.9-4.3,4.6-4.3c2.6,0,4.2,2,4.2,4.2C62.6,25.9,61,28.1,58.1,28.1
		z M60.3,26.7c0.4-0.6,0.5-1.3,0.5-2c0-1.6-0.7-4.5-2.9-4.5c-0.6,0-1.2,0.2-1.6,0.6c-0.7,0.6-0.8,1.4-0.8,2.2c0,1.8,0.9,4.6,3,4.6
		C59.2,27.6,59.9,27.2,60.3,26.7z"/>
	<path fill="#F9F9F9" d="M52.4,27.8l-2.5,0.6c-1,0.2-2,0.3-2.9,0.3c-4.9,0-6.8-3.6-6.8-6.4c0-3.4,2.6-6.7,7.2-6.7
		c1,0,1.9,0.1,2.7,0.4c1.3,0.4,2,0.8,2.3,1.1l-1.5,1.4l-0.6,0.1l0.4-0.7c-0.6-0.6-1.7-1.7-3.8-1.7c-2.8,0-4.9,2.1-4.9,5.2
		c0,3.3,2.4,6.5,6.3,6.5c1.1,0,1.7-0.2,2.3-0.4v-2.9l-2.7,0.1l1.4-0.8h3.8l-0.5,0.4c-0.1,0.1-0.1,0.1-0.2,0.3c0,0.2,0,0.7,0,0.9
		L52.4,27.8L52.4,27.8z"/>
	<path fill="#F9F9F9" d="M84.4,27.3c-0.6-0.1-0.7-0.2-0.7-0.9v-0.2v-9.9c0,0,0-0.1,0-0.1c0.1-0.6,0.3-0.7,0.8-1.1H82l-1.3,0.6H82v0
		l0,0v10.4v0.6c0,0.4-0.1,0.4-0.5,0.9h3.1l0.7-0.4C85,27.4,84.7,27.4,84.4,27.3z"/>
	<path fill="#F9F9F9" d="M91.7,27.5c-0.2,0.1-0.4,0.2-0.6,0.3c-0.6,0.3-1.2,0.3-1.7,0.3c-0.6,0-1.4,0-2.3-0.7
		c-1.2-0.9-1.8-2.4-1.8-3.7c0-2.7,2.2-4.1,4-4.1c0.6,0,1.3,0.2,1.8,0.5c0.9,0.6,1.1,1.3,1.2,1.8l-4.2,1.7l-1.4,0.1
		c0.4,2.2,2,3.5,3.6,3.5c0.9,0,1.6-0.3,2.2-0.6L91.7,27.5z M90,22.2c0.3-0.1,0.5-0.2,0.5-0.5c0-0.7-0.8-1.5-1.8-1.5
		c-0.7,0-2,0.5-2,2.4c0,0.3,0,0.6,0.1,0.9L90,22.2z"/>
	<path fill="#F9F9F9" d="M93.4,19.8v1.2h-0.1v-1.2h-0.4v-0.1h0.9v0.1H93.4z"/>
	<path fill="#F9F9F9" d="M95,20.9v-1.2l0,0l-0.4,1.2h-0.1l-0.4-1.2l0,0v1.2H94v-1.3h0.2l0.3,1l0,0l0.3-1h0.2v1.3H95z"/>
	<path fill="#F9F9FA" d="M43.7,12.2h-0.9c0-0.1-0.1-0.5-0.3-1h-1.3c-0.2,0.6-0.3,0.9-0.3,1h-0.8c0-0.1,0.2-0.7,0.6-1.8
		c0.4-1.1,0.6-1.7,0.6-1.8h1c0,0.1,0.2,0.7,0.6,1.8C43.5,11.5,43.7,12.1,43.7,12.2z M42.4,10.6c-0.3-1-0.5-1.5-0.5-1.5h0
		c0,0.1-0.2,0.6-0.5,1.5H42.4z"/>
	<path fill="#F9F9FA" d="M47.3,12.2h-0.7c0-0.1-0.3-0.5-0.8-1.2c-0.5-0.8-0.8-1.3-0.9-1.6h0c0,0.4,0.1,0.8,0.1,1.1c0,0.5,0,1,0,1.7
		h-0.7c0-0.6,0-1.2,0-1.9c0-0.7,0-1.2,0-1.7h0.8c0,0.1,0.2,0.5,0.7,1.2c0.5,0.7,0.8,1.2,0.8,1.5h0c0-0.4-0.1-0.8-0.1-1.1
		c0-0.5,0-1,0-1.5h0.7c0,0.5,0,1,0,1.7C47.2,11,47.2,11.6,47.3,12.2z"/>
	<path fill="#F9F9FA" d="M51.3,10.3c0,0.5-0.2,1-0.5,1.4c-0.3,0.4-0.8,0.6-1.4,0.6c-0.3,0-0.7,0-1.1,0c0-0.5,0-1.2,0-1.9
		c0-0.7,0-1.2,0-1.7h0.5c0.1,0,0.2,0,0.4,0c0.2,0,0.3,0,0.3,0c0.7,0,1.1,0.2,1.4,0.5C51.1,9.4,51.3,9.8,51.3,10.3z M50.5,10.4
		c0-0.4-0.1-0.7-0.3-0.9s-0.5-0.4-1-0.4c-0.1,0-0.2,0-0.3,0c0,0.4,0,0.8,0,1.2c0,0.4,0,0.9,0,1.3c0.1,0,0.2,0,0.4,0
		c0.4,0,0.7-0.1,0.9-0.4C50.4,11,50.5,10.7,50.5,10.4z"/>
	<path fill="#F9F9FA" d="M55,12.2h-0.8c-0.2-0.7-0.4-1.1-0.5-1.2c-0.1-0.1-0.3-0.2-0.5-0.2c-0.1,0-0.2,0-0.3,0c0,0.5,0,1,0,1.4H52
		c0-0.5,0-1.2,0-1.9c0-0.7,0-1.2,0-1.7h0.5c0.1,0,0.2,0,0.3,0c0.2,0,0.3,0,0.5,0c0.8,0,1.3,0.3,1.3,0.9c0,0.5-0.2,0.8-0.7,1v0
		c0.2,0,0.3,0.2,0.5,0.4C54.5,11.1,54.7,11.5,55,12.2z M53.9,9.6c0-0.4-0.2-0.5-0.7-0.5c-0.2,0-0.3,0-0.5,0c0,0.3,0,0.7,0,1.1
		c0.1,0,0.2,0,0.3,0C53.6,10.2,53.9,10,53.9,9.6z"/>
	<path fill="#F9F9FA" d="M58.9,10.3c0,0.6-0.2,1-0.5,1.4c-0.3,0.4-0.8,0.6-1.3,0.6c-0.5,0-0.9-0.2-1.2-0.5c-0.3-0.3-0.5-0.8-0.5-1.3
		c0-0.6,0.2-1,0.5-1.4c0.3-0.4,0.8-0.6,1.3-0.6c0.5,0,0.9,0.2,1.2,0.5C58.8,9.3,58.9,9.8,58.9,10.3z M58.1,10.4
		c0-0.4-0.1-0.7-0.3-0.9c-0.2-0.2-0.4-0.4-0.7-0.4c-0.3,0-0.5,0.1-0.7,0.4c-0.2,0.2-0.3,0.5-0.3,0.9c0,0.4,0.1,0.7,0.3,0.9
		c0.2,0.2,0.4,0.4,0.7,0.4c0.3,0,0.5-0.1,0.7-0.4C58.1,11.1,58.1,10.8,58.1,10.4z"/>
	<path fill="#F9F9FA" d="M60.5,12.2h-0.8c0-0.6,0-1.2,0-1.9c0-0.7,0-1.2,0-1.7h0.8c0,0.5,0,1,0,1.7C60.4,11,60.4,11.6,60.5,12.2z"/>
	<path fill="#F9F9FA" d="M64.5,10.3c0,0.5-0.2,1-0.5,1.4c-0.3,0.4-0.8,0.6-1.4,0.6c-0.3,0-0.7,0-1.1,0c0-0.5,0-1.2,0-1.9
		c0-0.7,0-1.2,0-1.7h0.5c0.1,0,0.2,0,0.4,0c0.2,0,0.3,0,0.3,0c0.7,0,1.1,0.2,1.4,0.5C64.3,9.4,64.5,9.8,64.5,10.3z M63.7,10.4
		c0-0.4-0.1-0.7-0.3-0.9s-0.5-0.4-1-0.4c-0.1,0-0.2,0-0.3,0c0,0.4,0,0.8,0,1.2c0,0.4,0,0.9,0,1.3c0.1,0,0.2,0,0.4,0
		c0.4,0,0.7-0.1,0.9-0.4C63.6,11,63.7,10.7,63.7,10.4z"/>
	<path fill="#F9F9FA" d="M69.8,12.2h-0.9c0-0.1-0.1-0.5-0.3-1h-1.3c-0.2,0.6-0.3,0.9-0.3,1h-0.8c0-0.1,0.2-0.7,0.6-1.8
		c0.4-1.1,0.6-1.7,0.6-1.8h1c0,0.1,0.2,0.7,0.6,1.8C69.6,11.5,69.8,12.1,69.8,12.2z M68.5,10.6c-0.3-1-0.5-1.5-0.5-1.5h0
		c0,0.1-0.2,0.6-0.5,1.5H68.5z"/>
	<path fill="#F9F9FA" d="M73,9.5c0,0.4-0.2,0.8-0.5,1c-0.3,0.2-0.7,0.3-1.2,0.3c-0.1,0-0.1,0-0.2,0c0,0.3,0,0.8,0,1.4h-0.8
		c0-0.5,0-1.2,0-1.9c0-0.7,0-1.2,0-1.7h0.5c0.1,0,0.2,0,0.4,0c0.2,0,0.4,0,0.5,0c0.4,0,0.6,0.1,0.9,0.2C72.9,9,73,9.2,73,9.5z
		 M72.3,9.7c0-0.4-0.3-0.6-0.8-0.6c-0.1,0-0.3,0-0.4,0c0,0.3,0,0.7,0,1.2c0,0,0.1,0,0.2,0C71.9,10.3,72.3,10.1,72.3,9.7z"/>
	<path fill="#F9F9FA" d="M76.3,9.5c0,0.4-0.2,0.8-0.5,1c-0.3,0.2-0.7,0.3-1.2,0.3c-0.1,0-0.1,0-0.2,0c0,0.3,0,0.8,0,1.4h-0.8
		c0-0.5,0-1.2,0-1.9c0-0.7,0-1.2,0-1.7h0.5c0.1,0,0.2,0,0.4,0c0.2,0,0.4,0,0.5,0c0.4,0,0.6,0.1,0.9,0.2C76.2,9,76.3,9.2,76.3,9.5z
		 M75.6,9.7c0-0.4-0.3-0.6-0.8-0.6c-0.1,0-0.3,0-0.4,0c0,0.3,0,0.7,0,1.2c0,0,0.1,0,0.2,0C75.3,10.3,75.6,10.1,75.6,9.7z"/>
	<path fill="#F9F9FA" d="M81.7,10.3c0,0.6-0.2,1-0.5,1.4c-0.3,0.4-0.8,0.6-1.3,0.6c-0.5,0-0.9-0.2-1.2-0.5c-0.3-0.3-0.5-0.8-0.5-1.3
		c0-0.6,0.2-1,0.5-1.4c0.3-0.4,0.8-0.6,1.3-0.6c0.5,0,0.9,0.2,1.2,0.5C81.6,9.3,81.7,9.8,81.7,10.3z M81,10.4c0-0.4-0.1-0.7-0.3-0.9
		c-0.2-0.2-0.4-0.4-0.7-0.4c-0.3,0-0.5,0.1-0.7,0.4S79,10,79,10.4c0,0.4,0.1,0.7,0.3,0.9s0.4,0.4,0.7,0.4c0.3,0,0.5-0.1,0.7-0.4
		C80.9,11.1,81,10.8,81,10.4z"/>
	<path fill="#F9F9FA" d="M85.5,12.2h-0.7c0-0.1-0.3-0.5-0.8-1.2c-0.5-0.8-0.8-1.3-0.9-1.6h0c0,0.4,0.1,0.8,0.1,1.1c0,0.5,0,1,0,1.7
		h-0.7c0-0.6,0-1.2,0-1.9c0-0.7,0-1.2,0-1.7h0.8c0,0.1,0.2,0.5,0.7,1.2c0.5,0.7,0.8,1.2,0.8,1.5h0c0-0.4-0.1-0.8-0.1-1.1
		c0-0.5,0-1,0-1.5h0.7c0,0.5,0,1,0,1.7C85.4,11,85.4,11.6,85.5,12.2z"/>
</g>
<g>
	<g>
		<path d="M131.1,38.1c0,3.3-2.6,5.9-5.8,5.9H5.9c-3.2,0-5.8-2.7-5.8-5.9V5.9C0.1,2.7,2.7,0,5.9,0h119.4c3.2,0,5.8,2.7,5.8,5.9
			L131.1,38.1L131.1,38.1z"/>
		<path display="none" d="M95.2,28c0,2.8-2.1,4.6-4.9,4.6H7.5c-2.8,0-5.1-2.3-5.1-5.1V5.8c0-2.8,2.3-5.1,5.1-5.1h82.8
			c2.8,0,4.9,2.3,4.9,5.1L95.2,28L95.2,28z"/>
		<path display="none" fill="#FFFFFF" d="M90.3,32.9H7.5c-3,0-5.4-2.4-5.4-5.4V5.8c0-3,2.4-5.4,5.4-5.4h82.8c2.9,0,5.2,2.4,5.2,5.4
			V28C95.5,30.9,93.4,32.9,90.3,32.9z M7.5,1C4.9,1,2.7,3.2,2.7,5.8v21.6c0,2.6,2.1,4.8,4.8,4.8h82.8c2.7,0,4.6-1.7,4.6-4.3V5.8
			c0-2.7-2-4.8-4.6-4.8H7.5z"/>
	</g>
	<g>
		<g>
			<path fill="#FFFFFF" d="M89.5,31.7l-1,0.9c-0.2,0.1-0.4,0.3-0.7,0.4c-0.7,0.3-1.4,0.4-2,0.4c-0.7,0-1.7,0-2.7-0.8
				c-1.5-1-2.1-2.8-2.1-4.3c0-3.2,2.6-4.7,4.7-4.7c0.7,0,1.5,0.2,2.1,0.6c1,0.7,1.3,1.6,1.4,2l-4.8,1.9l-1.6,0.1
				c0.5,2.6,2.3,4.1,4.2,4.1C88.1,32.3,88.8,32,89.5,31.7C89.4,31.7,89.6,31.6,89.5,31.7z M86.6,26.5c0.4-0.1,0.6-0.3,0.6-0.5
				c0-0.8-0.9-1.8-2-1.8c-0.8,0-2.3,0.6-2.3,2.8c0,0.3,0,0.7,0.1,1.1L86.6,26.5z"/>
			<path fill="#FFFFFF" d="M79.4,31.6c0,0.8,0.1,0.9,0.8,1c0.3,0,0.7,0.1,1,0.1l-0.8,0.5h-3.6c0.5-0.6,0.6-0.7,0.6-1.1v-0.5l0-12.2
				h-1.6l1.5-0.7h2.9c-0.6,0.4-0.8,0.6-0.9,1.3L79.4,31.6z"/>
			<path fill="#FFFFFF" d="M73.9,24.6c0.5,0.4,1.4,1.2,1.4,2.8c0,1.5-0.9,2.2-1.7,2.9c-0.3,0.3-0.6,0.6-0.6,1c0,0.5,0.3,0.7,0.5,0.9
				l0.7,0.6c0.9,0.8,1.7,1.5,1.7,2.9c0,1.9-1.9,3.9-5.4,3.9c-3,0-4.4-1.4-4.4-2.9c0-0.7,0.4-1.8,1.6-2.5c1.3-0.8,3-0.9,3.9-0.9
				c-0.3-0.4-0.6-0.8-0.6-1.4c0-0.3,0.1-0.6,0.2-0.8c-0.2,0-0.4,0-0.7,0c-2.2,0-3.4-1.6-3.4-3.2c0-0.9,0.4-2,1.3-2.7
				c1.2-1,2.6-1.1,3.7-1.1h4.2l-1.3,0.7L73.9,24.6L73.9,24.6z M72.4,33.6c-0.2,0-0.3,0-0.5,0c-0.2,0-1.3,0-2.1,0.3
				c-0.5,0.2-1.8,0.7-1.8,2.1c0,1.5,1.4,2.5,3.6,2.5c2,0,3-0.9,3-2.2C74.6,35.3,74,34.7,72.4,33.6z M73,29.8
				c0.5-0.5,0.5-1.1,0.5-1.5c0-1.5-0.9-3.8-2.6-3.8c-0.5,0-1.1,0.3-1.4,0.7c-0.3,0.4-0.4,1-0.4,1.5c0,1.4,0.8,3.6,2.6,3.6
				C72.1,30.3,72.7,30.1,73,29.8z"/>
			<path fill="#FFFFFF" d="M61.2,33.3c-3.2,0-5-2.5-5-4.8c0-2.7,2.2-5,5.3-5c3,0,4.9,2.4,4.9,4.8C66.4,30.8,64.5,33.3,61.2,33.3z
				 M63.7,31.7c0.5-0.7,0.6-1.5,0.6-2.3c0-1.8-0.9-5.2-3.4-5.2c-0.7,0-1.4,0.3-1.8,0.7c-0.8,0.7-0.9,1.6-0.9,2.5c0,2,1,5.4,3.5,5.4
				C62.5,32.7,63.3,32.3,63.7,31.7z"/>
			<path fill="#FFFFFF" d="M50.3,33.3c-3.2,0-5-2.5-5-4.8c0-2.7,2.2-5,5.3-5c3,0,4.9,2.4,4.9,4.8C55.5,30.8,53.7,33.3,50.3,33.3z
				 M52.9,31.7c0.5-0.7,0.6-1.5,0.6-2.3c0-1.8-0.9-5.2-3.4-5.2c-0.7,0-1.3,0.3-1.8,0.7c-0.8,0.7-0.9,1.6-0.9,2.5c0,2,1,5.4,3.5,5.4
				C51.6,32.7,52.4,32.3,52.9,31.7z"/>
			<path fill="#FFFFFF" d="M44,32.6l-2.7,0.6c-1.1,0.2-2.1,0.3-3.2,0.3c-5.3,0-7.3-3.9-7.3-6.9c0-3.7,2.9-7.2,7.7-7.2
				c1,0,2,0.2,2.9,0.4c1.4,0.4,2.1,0.9,2.5,1.2l-1.6,1.5l-0.7,0.2l0.5-0.8c-0.6-0.6-1.8-1.8-4.1-1.8c-3,0-5.3,2.3-5.3,5.7
				c0,3.6,2.6,7,6.8,7c1.2,0,1.9-0.2,2.4-0.5v-3.1l-2.9,0.2l1.5-0.8h4.1l-0.5,0.5c-0.1,0.1-0.2,0.2-0.2,0.3c0,0.2,0,0.7,0,0.9
				L44,32.6L44,32.6z"/>
		</g>
		<g>
			<path fill="#FFFFFF" d="M95.4,31.8V37h-1V23.7h1v1.5c0.7-1,1.9-1.7,3.3-1.7c2.6,0,4.3,1.9,4.3,5c0,3.1-1.7,5-4.3,5
				C97.3,33.6,96.1,32.9,95.4,31.8z M101.9,28.5c0-2.3-1.2-4.1-3.4-4.1c-1.3,0-2.6,1-3.2,2v4.2c0.6,0.9,1.8,2,3.2,2
				C100.7,32.7,101.9,30.9,101.9,28.5z"/>
			<path fill="#FFFFFF" d="M104.4,33.3V20.1h1v13.3L104.4,33.3L104.4,33.3z"/>
			<path fill="#FFFFFF" d="M117,36.2c0.2,0.1,0.6,0.2,0.8,0.2c0.6,0,1.1-0.3,1.5-1.2l0.8-1.7l-4.1-9.7h1.2l3.5,8.4l3.5-8.4h1.2
				l-5,11.7c-0.5,1.2-1.3,1.8-2.4,1.8c-0.3,0-0.8-0.1-1-0.1L117,36.2z"/>
			<path fill="#FFFFFF" d="M114,33.3c-0.1-0.3-0.1-0.6-0.2-0.9c0-0.2,0-0.5,0-0.7c-0.4,0.5-0.9,1-1.5,1.3c-0.6,0.3-1.2,0.5-2.1,0.5
				c-1,0-1.8-0.2-2.3-0.8c-0.6-0.5-0.8-1.2-0.8-2s0.4-1.6,1.2-2.1c0.8-0.5,1.9-0.8,3.1-0.8h2.4v-1.2c0-0.7-0.2-1.2-0.7-1.6
				c-0.5-0.4-1.1-0.6-2-0.6c-0.8,0-1.4,0.2-1.9,0.5c-0.5,0.4-0.7,0.8-0.7,1.3h-1.1l0-0.1c0-0.7,0.3-1.4,1-1.9
				c0.7-0.5,1.6-0.8,2.7-0.8c1.1,0,2,0.3,2.7,0.8c0.7,0.5,1,1.3,1,2.3v4.7c0,0.3,0,0.7,0.1,1c0,0.3,0.1,0.6,0.2,0.9L114,33.3
				L114,33.3L114,33.3z M110.3,32.6c0.9,0,1.5-0.2,2.2-0.6c0.6-0.4,1.1-0.9,1.3-1.5v-1.8h-2.4c-0.9,0-1.7,0.2-2.3,0.6
				c-0.6,0.4-0.9,0.9-0.9,1.5c0,0.5,0.2,1,0.6,1.3C109.1,32.4,109.7,32.6,110.3,32.6z"/>
		</g>
	</g>
	<g>
		<polygon fill="none" points="17.4,28 20.7,24.7 20.7,24.7 17.4,28 6.8,17.4 6.8,17.4 17.4,28 6.8,38.6 6.8,38.6 17.4,28
			20.7,31.3 20.7,31.3 		"/>

			<linearGradient id="SVGID_13_" gradientUnits="userSpaceOnUse" x1="875.121" y1="-417.6482" x2="861.1348" y2="-426.4014" gradientTransform="matrix(0.7071 0.7071 -0.7071 0.7071 -898.9825 -296.3336)">
			<stop  offset="0" style="stop-color:#D6FFA1"/>
			<stop  offset="0.3264" style="stop-color:#93E2A7"/>
			<stop  offset="1" style="stop-color:#00A3B5"/>
		</linearGradient>
		<path fill="url(#SVGID_13_)" d="M20.7,24.7L7.8,17.6c-0.4-0.2-0.7-0.2-1-0.2L17.4,28L20.7,24.7z"/>

			<linearGradient id="SVGID_14_" gradientUnits="userSpaceOnUse" x1="866.9842" y1="-425.1158" x2="885.1137" y2="-420.3764" gradientTransform="matrix(0.7071 0.7071 -0.7071 0.7071 -898.9825 -296.3336)">
			<stop  offset="0" style="stop-color:#FF177B"/>
			<stop  offset="0.6721" style="stop-color:#FFA976"/>
			<stop  offset="1" style="stop-color:#FFEC73"/>
		</linearGradient>
		<path fill="url(#SVGID_14_)" d="M20.7,31.3l4.4-2.4c0.9-0.5,0.9-1.3,0-1.8l-4.4-2.4L17.4,28L20.7,31.3z"/>

			<linearGradient id="SVGID_15_" gradientUnits="userSpaceOnUse" x1="877.1172" y1="-411.0084" x2="857.4473" y2="-422.581" gradientTransform="matrix(0.7071 0.7071 -0.7071 0.7071 -898.9825 -296.3336)">
			<stop  offset="0" style="stop-color:#63FFD4"/>
			<stop  offset="0.4854" style="stop-color:#32A0BA"/>
			<stop  offset="0.8349" style="stop-color:#1262A9"/>
			<stop  offset="1" style="stop-color:#064AA2"/>
		</linearGradient>
		<path fill="url(#SVGID_15_)" d="M6.8,17.4c-0.4,0.1-0.6,0.5-0.6,1.1l0,19c0,0.6,0.2,1,0.6,1.1L17.4,28L6.8,17.4z"/>

			<linearGradient id="SVGID_16_" gradientUnits="userSpaceOnUse" x1="884.2447" y1="-420.1813" x2="872.1533" y2="-404.2515" gradientTransform="matrix(0.7071 0.7071 -0.7071 0.7071 -898.9825 -296.3336)">
			<stop  offset="0" style="stop-color:#FF4521"/>
			<stop  offset="0.3411" style="stop-color:#D43E65"/>
			<stop  offset="0.7935" style="stop-color:#9F36B9"/>
			<stop  offset="1" style="stop-color:#8A33DB"/>
		</linearGradient>
		<path fill="url(#SVGID_16_)" d="M6.8,38.6c0.3,0.1,0.6,0,1-0.2l12.9-7.1L17.4,28L6.8,38.6z"/>
	</g>
	<g display="none">
		<g display="inline">
			<path fill="#FFFFFF" d="M30.9,12.4V6h2.4c2,0,3.4,1.3,3.4,3.2c0,1.9-1.4,3.2-3.4,3.2C33.3,12.4,30.9,12.4,30.9,12.4z M35.5,9.2
				C35.5,8,34.7,7,33.3,7H32v4.5h1.3C34.7,11.4,35.5,10.4,35.5,9.2z"/>
			<path fill="#FFFFFF" d="M38,12.4V6h1.1v6.5C39.1,12.4,38,12.4,38,12.4z"/>
			<path fill="#FFFFFF" d="M40.3,11.5l0.6-0.9c0.4,0.5,1.1,0.9,2,0.9c0.9,0,1.3-0.5,1.3-0.9c0-1.4-3.8-0.5-3.8-2.9
				c0-1.1,0.9-1.9,2.4-1.9c1,0,1.8,0.3,2.4,0.9l-0.6,0.8c-0.5-0.5-1.2-0.7-1.9-0.7c-0.7,0-1.1,0.3-1.1,0.8c0,1.2,3.8,0.5,3.8,2.9
				c0,1.1-0.8,2-2.5,2C41.8,12.6,40.9,12.1,40.3,11.5z"/>
			<path fill="#FFFFFF" d="M46.7,12.4V6h2.8c1.4,0,2.1,0.9,2.1,2c0,1.1-0.8,2-2.1,2h-1.7v2.4C47.9,12.4,46.7,12.4,46.7,12.4z
				 M50.5,8c0-0.6-0.5-1-1.1-1h-1.6v2h1.6C50.1,9,50.5,8.6,50.5,8z"/>
			<path fill="#FFFFFF" d="M52.6,9.2c0-1.9,1.4-3.3,3.3-3.3c1.9,0,3.3,1.4,3.3,3.3s-1.4,3.3-3.3,3.3C53.9,12.6,52.6,11.1,52.6,9.2z
				 M58,9.2c0-1.3-0.8-2.3-2.1-2.3c-1.3,0-2.1,1-2.1,2.3c0,1.3,0.8,2.3,2.1,2.3C57.2,11.6,58,10.5,58,9.2z"/>
			<path fill="#FFFFFF" d="M65,12.4l-3.4-4.6v4.6h-1.1V6h1.2l3.3,4.5V6h1.1v6.5H65z"/>
			<path fill="#FFFFFF" d="M67.7,12.4V6h1.1v6.5C68.9,12.4,67.7,12.4,67.7,12.4z"/>
			<path fill="#FFFFFF" d="M70.5,12.4V6h3.2c1.2,0,1.8,0.7,1.8,1.7c0,0.8-0.5,1.4-1.1,1.5c0.7,0.1,1.2,0.8,1.2,1.6
				c0,1-0.7,1.8-1.9,1.8L70.5,12.4L70.5,12.4z M74.3,7.8C74.3,7.3,74,7,73.4,7h-1.8v1.7h1.8C74,8.6,74.3,8.3,74.3,7.8z M74.5,10.5
				c0-0.5-0.3-0.9-1-0.9h-1.9v1.8h1.9C74.1,11.4,74.5,11.1,74.5,10.5z"/>
			<path fill="#FFFFFF" d="M76.9,12.4V6h1.1v5.5h2.8v1L76.9,12.4L76.9,12.4z"/>
			<path fill="#FFFFFF" d="M82.1,12.4V6h4.4v1h-3.3v1.7h3.2v1h-3.2v1.8h3.3v1L82.1,12.4L82.1,12.4z"/>
			<path fill="#FFFFFF" d="M90.3,11.5l0.6-0.9c0.4,0.5,1.1,0.9,2,0.9c0.9,0,1.3-0.5,1.3-0.9c0-1.4-3.8-0.5-3.8-2.9
				c0-1.1,0.9-1.9,2.4-1.9c1,0,1.8,0.3,2.4,0.9l-0.6,0.8c-0.5-0.5-1.2-0.7-1.9-0.7c-0.7,0-1.1,0.3-1.1,0.8c0,1.2,3.8,0.5,3.8,2.9
				c0,1.1-0.8,2-2.5,2C91.7,12.6,90.9,12.1,90.3,11.5z"/>
			<path fill="#FFFFFF" d="M96.7,9.9V6h1.2v3.9c0,1,0.6,1.7,1.6,1.7c1.1,0,1.6-0.7,1.6-1.7V6h1.2v3.9c0,1.6-0.9,2.7-2.8,2.7
				C97.6,12.6,96.7,11.5,96.7,9.9z"/>
			<path fill="#FFFFFF" d="M107.6,12.4l-1.4-2.4H105v2.4h-1.1V6h2.8c1.3,0,2.1,0.8,2.1,2c0,1.1-0.8,1.8-1.5,1.9l1.6,2.5
				C108.9,12.4,107.6,12.4,107.6,12.4z M107.7,8c0-0.6-0.5-1-1.1-1H105V9h1.6C107.2,9,107.7,8.6,107.7,8z"/>
		</g>
	</g>
</g>
<g>
	<path display="none" d="M131,37.9c0,4-2.9,6.4-6.9,6.4H7.4c-4,0-7.2-3.2-7.2-7.2V6.8c0-4,3.2-7.2,7.2-7.2h116.7
		c4,0,6.9,3.2,6.9,7.2L131,37.9L131,37.9z"/>
	<path display="none" fill="#FFFFFF" d="M124.1,44.8H7.4c-4.2,0-7.6-3.4-7.6-7.7V6.8c0-4.2,3.4-7.7,7.6-7.7h116.7
		c4.1,0,7.3,3.4,7.3,7.7v31.1C131.5,42.1,128.5,44.8,124.1,44.8z M7.4,0.1c-3.7,0-6.7,3-6.7,6.7v30.4c0,3.7,3,6.7,6.7,6.7h116.7
		c3.8,0,6.4-2.4,6.4-6V6.8c0-3.8-2.8-6.7-6.4-6.7H7.4z"/>
</g>
<g>
	<g>
		<path fill="#FFFFFF" d="M89.6,31.8l-1,0.9c-0.2,0.1-0.5,0.3-0.7,0.4c-0.7,0.3-1.4,0.4-2,0.4c-0.7,0-1.7,0-2.7-0.8
			c-1.5-1-2.1-2.8-2.1-4.3c0-3.2,2.6-4.7,4.7-4.7c0.7,0,1.5,0.2,2.1,0.6c1,0.7,1.3,1.6,1.4,2l-4.8,2L83,28.2
			c0.5,2.6,2.3,4.1,4.2,4.1C88.2,32.4,88.9,32.1,89.6,31.8C89.6,31.7,89.7,31.7,89.6,31.8z M86.7,26.6c0.4-0.1,0.6-0.3,0.6-0.6
			c0-0.8-0.9-1.8-2-1.8c-0.8,0-2.4,0.6-2.4,2.9c0,0.3,0,0.7,0.1,1.1L86.7,26.6z"/>
		<path fill="#FFFFFF" d="M79.5,31.6c0,0.8,0.1,0.9,0.8,1c0.4,0,0.7,0.1,1,0.1l-0.8,0.5H77c0.5-0.6,0.6-0.7,0.6-1.1v-0.5l0-12.2
			h-1.6l1.5-0.7h2.9c-0.6,0.4-0.8,0.6-0.9,1.3L79.5,31.6z"/>
		<path fill="#FFFFFF" d="M73.9,24.6c0.5,0.4,1.5,1.2,1.5,2.8c0,1.5-0.9,2.2-1.7,2.9c-0.3,0.3-0.6,0.6-0.6,1c0,0.5,0.3,0.7,0.5,0.9
			l0.7,0.6c0.9,0.8,1.7,1.5,1.7,2.9c0,1.9-1.9,3.9-5.4,3.9c-3,0-4.4-1.4-4.4-2.9c0-0.7,0.4-1.8,1.6-2.5c1.3-0.8,3-0.9,3.9-0.9
			c-0.3-0.4-0.6-0.8-0.6-1.4c0-0.3,0.1-0.6,0.2-0.8c-0.2,0-0.5,0-0.7,0c-2.2,0-3.4-1.6-3.4-3.2c0-0.9,0.4-2,1.3-2.8
			c1.2-1,2.6-1.1,3.7-1.1h4.2l-1.3,0.7L73.9,24.6L73.9,24.6z M72.4,33.7c-0.2,0-0.3,0-0.5,0c-0.2,0-1.3,0-2.2,0.3
			c-0.5,0.2-1.8,0.7-1.8,2.1c0,1.5,1.4,2.5,3.6,2.5c2,0,3-0.9,3-2.2C74.7,35.4,74,34.8,72.4,33.7z M73,29.8c0.5-0.5,0.5-1.1,0.5-1.5
			c0-1.5-0.9-3.8-2.6-3.8c-0.5,0-1.1,0.3-1.4,0.7c-0.3,0.4-0.5,1-0.5,1.5c0,1.4,0.8,3.7,2.6,3.7C72.2,30.4,72.7,30.1,73,29.8z"/>
		<path fill="#FFFFFF" d="M61.2,33.4c-3.3,0-5-2.5-5-4.8c0-2.7,2.2-5,5.3-5c3,0,4.9,2.4,4.9,4.8C66.4,30.8,64.5,33.4,61.2,33.4z
			 M63.7,31.7c0.5-0.7,0.6-1.5,0.6-2.3c0-1.8-0.9-5.3-3.4-5.3c-0.7,0-1.4,0.3-1.9,0.7c-0.8,0.7-0.9,1.6-0.9,2.5c0,2,1,5.4,3.5,5.4
			C62.4,32.8,63.3,32.4,63.7,31.7z"/>
		<path fill="#FFFFFF" d="M50.2,33.4c-3.3,0-5-2.5-5-4.8c0-2.7,2.2-5,5.3-5c3,0,4.9,2.4,4.9,4.8C55.5,30.8,53.6,33.4,50.2,33.4z
			 M52.8,31.7c0.5-0.7,0.6-1.5,0.6-2.3c0-1.8-0.9-5.3-3.4-5.3c-0.7,0-1.4,0.3-1.8,0.7c-0.8,0.7-0.9,1.6-0.9,2.5c0,2,1,5.4,3.5,5.4
			C51.5,32.8,52.3,32.4,52.8,31.7z"/>
		<path fill="#FFFFFF" d="M43.9,32.7l-2.8,0.6c-1.1,0.2-2.1,0.3-3.2,0.3c-5.3,0-7.3-3.9-7.3-7c0-3.7,2.9-7.2,7.8-7.2
			c1,0,2,0.2,2.9,0.4c1.4,0.4,2.1,0.9,2.5,1.2l-1.6,1.5l-0.7,0.2l0.5-0.8c-0.7-0.6-1.8-1.8-4.1-1.8c-3,0-5.3,2.3-5.3,5.7
			c0,3.6,2.6,7,6.8,7c1.2,0,1.9-0.2,2.4-0.5v-3.1L39,29.4l1.5-0.8h4.1l-0.5,0.5C44,29.2,44,29.3,44,29.4c0,0.2,0,0.7,0,0.9
			L43.9,32.7L43.9,32.7z"/>
	</g>
	<g>
		<path fill="#FFFFFF" d="M95.5,31.8v5.2h-1V23.8h1v1.5c0.7-1,1.9-1.8,3.3-1.8c2.6,0,4.3,2,4.3,5c0,3.1-1.7,5.1-4.3,5.1
			C97.5,33.6,96.3,32.9,95.5,31.8z M102.1,28.6c0-2.3-1.2-4.1-3.4-4.1c-1.3,0-2.6,1.1-3.2,2v4.3c0.6,0.9,1.8,2,3.2,2
			C100.8,32.7,102.1,30.9,102.1,28.6z"/>
		<path fill="#FFFFFF" d="M104.6,33.4V20.1h1v13.3L104.6,33.4L104.6,33.4z"/>
		<path fill="#FFFFFF" d="M117.3,36.2c0.2,0.1,0.6,0.2,0.8,0.2c0.6,0,1.1-0.3,1.5-1.2l0.8-1.7l-4.1-9.7h1.2l3.5,8.4l3.5-8.4h1.2
			l-5,11.8c-0.5,1.2-1.3,1.8-2.5,1.8c-0.3,0-0.8-0.1-1-0.1L117.3,36.2z"/>
		<path fill="#FFFFFF" d="M114.3,33.4c-0.1-0.3-0.1-0.6-0.2-0.9c0-0.2,0-0.5,0-0.8c-0.4,0.5-0.9,1-1.5,1.3c-0.6,0.3-1.3,0.5-2.1,0.5
			c-1,0-1.8-0.2-2.4-0.8c-0.6-0.5-0.8-1.2-0.8-2.1c0-0.9,0.4-1.6,1.2-2.1c0.8-0.5,1.9-0.8,3.2-0.8h2.4v-1.2c0-0.7-0.2-1.2-0.7-1.6
			c-0.5-0.4-1.1-0.6-2-0.6c-0.8,0-1.4,0.2-1.9,0.5c-0.5,0.4-0.7,0.8-0.7,1.3h-1.1l0-0.1c0-0.7,0.3-1.4,1-1.9
			c0.7-0.6,1.6-0.8,2.8-0.8c1.1,0,2,0.3,2.7,0.8c0.7,0.5,1,1.3,1,2.3v4.8c0,0.3,0,0.7,0.1,1c0,0.3,0.1,0.6,0.2,1L114.3,33.4
			L114.3,33.4L114.3,33.4z M110.6,32.6c0.9,0,1.5-0.2,2.2-0.6c0.6-0.4,1.1-0.9,1.3-1.5v-1.8h-2.4c-0.9,0-1.7,0.2-2.3,0.6
			c-0.6,0.4-0.9,0.9-0.9,1.5c0,0.5,0.2,1,0.6,1.3C109.4,32.4,109.9,32.6,110.6,32.6z"/>
	</g>
</g>
<g>
	<polygon fill="none" points="17.1,28 20.4,24.7 20.4,24.7 17.1,28 6.5,17.4 6.5,17.4 17.1,28 6.5,38.7 6.5,38.7 17.1,28 20.4,31.4
		20.5,31.4 	"/>

		<linearGradient id="SVGID_17_" gradientUnits="userSpaceOnUse" x1="858.3321" y1="-457.5493" x2="844.2909" y2="-466.3368" gradientTransform="matrix(0.7071 0.7071 -0.7071 0.7071 -915.5979 -256.2212)">
		<stop  offset="0" style="stop-color:#D6FFA1"/>
		<stop  offset="0.3264" style="stop-color:#93E2A7"/>
		<stop  offset="1" style="stop-color:#00A3B5"/>
	</linearGradient>
	<path fill="url(#SVGID_17_)" d="M20.4,24.7l-13-7.1c-0.4-0.2-0.7-0.2-1-0.2L17.1,28L20.4,24.7z"/>

		<linearGradient id="SVGID_18_" gradientUnits="userSpaceOnUse" x1="850.1672" y1="-465.0558" x2="868.3743" y2="-460.2962" gradientTransform="matrix(0.7071 0.7071 -0.7071 0.7071 -915.5979 -256.2212)">
		<stop  offset="0" style="stop-color:#FF177B"/>
		<stop  offset="0.6721" style="stop-color:#FFA976"/>
		<stop  offset="1" style="stop-color:#FFEC73"/>
	</linearGradient>
	<path fill="url(#SVGID_18_)" d="M20.5,31.4l4.4-2.4c0.9-0.5,0.9-1.3,0-1.8l-4.4-2.4L17.1,28L20.5,31.4z"/>

		<linearGradient id="SVGID_19_" gradientUnits="userSpaceOnUse" x1="860.3303" y1="-450.8847" x2="840.5895" y2="-462.4991" gradientTransform="matrix(0.7071 0.7071 -0.7071 0.7071 -915.5979 -256.2212)">
		<stop  offset="0" style="stop-color:#63FFD4"/>
		<stop  offset="0.4854" style="stop-color:#32A0BA"/>
		<stop  offset="0.8349" style="stop-color:#1262A9"/>
		<stop  offset="1" style="stop-color:#064AA2"/>
	</linearGradient>
	<path fill="url(#SVGID_19_)" d="M6.5,17.4c-0.4,0.1-0.7,0.5-0.7,1.1l0,19c0,0.6,0.2,1,0.6,1.1L17.1,28L6.5,17.4z"/>

		<linearGradient id="SVGID_20_" gradientUnits="userSpaceOnUse" x1="867.4974" y1="-460.1052" x2="855.3426" y2="-444.0919" gradientTransform="matrix(0.7071 0.7071 -0.7071 0.7071 -915.5979 -256.2212)">
		<stop  offset="0" style="stop-color:#FF4521"/>
		<stop  offset="0.3411" style="stop-color:#D43E65"/>
		<stop  offset="0.7935" style="stop-color:#9F36B9"/>
		<stop  offset="1" style="stop-color:#8A33DB"/>
	</linearGradient>
	<path fill="url(#SVGID_20_)" d="M6.5,38.7c0.3,0.1,0.6,0,1-0.2l13-7.1L17.1,28L6.5,38.7z"/>
</g>
<g>
	<g>
		<path fill="#FFFFFF" d="M30.7,9.2c0-2,1.5-3.4,3.4-3.4c1.3,0,2.1,0.6,2.6,1.3l-0.9,0.5c-0.4-0.5-1-0.9-1.7-0.9
			c-1.3,0-2.2,1-2.2,2.3c0,1.4,1,2.3,2.2,2.3c0.7,0,1.2-0.3,1.5-0.6v-1h-1.9v-1h3.1v2.4c-0.6,0.7-1.5,1.2-2.7,1.2
			C32.2,12.5,30.7,11.2,30.7,9.2z"/>
		<path fill="#FFFFFF" d="M38.2,12.4V5.9h4.5v1h-3.3v1.7h3.2v1h-3.2v1.8h3.3v1L38.2,12.4L38.2,12.4z"/>
		<path fill="#FFFFFF" d="M45.8,12.4V6.9h-2v-1h5.1v1h-2v5.5H45.8z"/>
		<path fill="#FFFFFF" d="M52.8,12.4V5.9H54v6.5C54,12.4,52.8,12.4,52.8,12.4z"/>
		<path fill="#FFFFFF" d="M57.1,12.4V6.9h-2v-1h5.1v1h-2v5.5H57.1z"/>
		<path fill="#FFFFFF" d="M63.9,9.2c0-1.9,1.4-3.4,3.3-3.4c1.9,0,3.3,1.4,3.3,3.4s-1.4,3.4-3.3,3.4C65.3,12.5,63.9,11.1,63.9,9.2z
			 M69.4,9.2c0-1.3-0.8-2.3-2.2-2.3c-1.3,0-2.2,1-2.2,2.3c0,1.3,0.8,2.3,2.2,2.3C68.5,11.5,69.4,10.5,69.4,9.2z"/>
		<path fill="#FFFFFF" d="M76.4,12.4L73,7.8v4.6h-1.1V5.9h1.2l3.3,4.5V5.9h1.1v6.5H76.4z"/>
	</g>
</g>
</svg>
