<?xml version="1.0" encoding="utf-8"?>
<!-- Generator: Adobe Illustrator 17.1.0, SVG Export Plug-In . SVG Version: 6.00 Build 0)  -->
<!DOCTYPE svg PUBLIC "-//W3C//DTD SVG 1.1//EN" "http://www.w3.org/Graphics/SVG/1.1/DTD/svg11.dtd">
<svg version="1.1" id="Layer_1" xmlns="http://www.w3.org/2000/svg" xmlns:xlink="http://www.w3.org/1999/xlink" x="0px" y="0px"
	 viewBox="0 0 75 48" enable-background="new 0 0 75 48" xml:space="preserve">
<g>
	<g>
		<path fill="#0000" d="M64.3,1.4c0-0.8-0.6-1.4-1.4-1.4H1.4C0.6,0,0,0.6,0,1.4v37.7c0,0.8,0.6,1.4,1.4,1.4h22.2l-2.5,3.8
			c0,0.5,0.4,0.9,1,0.9h20c0.5,0,1-0.4,1-0.9l-2.5-3.8h6V21c0-1.2,1-2.2,2.3-2.2h15.4V1.4z M73.6,32.4h-5.9c-0.8,0-1.4,0.6-1.4,1.4
			v12.8c0,0.8,0.6,1.4,1.4,1.4h5.9c0.8,0,1.4-0.6,1.4-1.4V33.8C75,33,74.4,32.4,73.6,32.4z M66.4,29.9h2.5v-7.8c0-0.6-0.5-1-1.1-1
			H50.1c-0.6,0-1.1,0.5-1.1,1v22.9c0,0.6,0.5,1,1.1,1h13.9c-0.1-0.2-0.1-0.5-0.1-0.8V32.5C63.8,31.1,65,29.9,66.4,29.9z"/>
	</g>
</g>
</svg>
