<?xml version="1.0" encoding="utf-8"?>
<!-- Generator: Adobe Illustrator 17.1.0, SVG Export Plug-In . SVG Version: 6.00 Build 0)  -->
<!DOCTYPE svg PUBLIC "-//W3C//DTD SVG 1.1//EN" "http://www.w3.org/Graphics/SVG/1.1/DTD/svg11.dtd">
<svg version="1.1" id="Layer_1" xmlns="http://www.w3.org/2000/svg" xmlns:xlink="http://www.w3.org/1999/xlink" x="0px" y="0px"
	 viewBox="0 0 39.5 39.5" enable-background="new 0 0 39.5 39.5" xml:space="preserve">
<g id="Layer_2">
</g>
<path fill="#000000" d="M19.8,0C8.8,0,0,8.8,0,19.8s8.8,19.7,19.8,19.7s19.8-8.8,19.8-19.7S30.7,0,19.8,0z M19.7,33
	c-1.5,0-2.7-1.2-2.7-2.7c0-1.5,1.2-2.7,2.7-2.7c1.5,0,2.7,1.2,2.7,2.7C22.4,31.8,21.2,33,19.7,33z M24.7,21.3
	c-2.4,1.6-2.7,2-2.7,4.1v0.4h-4.9c0-0.4,0-0.7,0-0.8c0-4.1,0.2-4.6,3.5-7c1.7-1.2,2.2-2.1,2.2-3.6c0-1.8-1.3-3.1-3.1-3.1
	c-1.5,0-2.8,0.9-3.3,2.3c-0.3,0.7-0.4,1.2-0.6,2.6l-5.3-0.8c0.4-2.7,1-4,2.2-5.5C14.4,7.7,17,6.5,20,6.5c5.2,0,9,3.3,9,7.8
	C29,17.1,27.6,19.4,24.7,21.3z"/>
</svg>
