<?xml version="1.0" standalone="no"?>
<!DOCTYPE svg PUBLIC "-//W3C//DTD SVG 1.1//EN" "http://www.w3.org/Graphics/SVG/1.1/DTD/svg11.dtd" >
<svg xmlns="http://www.w3.org/2000/svg" xmlns:xlink="http://www.w3.org/1999/xlink" version="1.1">
<metadata>
Created by Christoph Koeberlin (http://christoph.koe.berlin)
Copyright (c) 2014 Swiss Typefaces Sa`rl. All rights reserved.
</metadata>
<defs>
<font id="Font" horiz-adv-x="724" >
  <font-face 
    font-family="Font"
    font-weight="400"
    font-stretch="normal"
    units-per-em="1000"
    panose-1="2 0 5 4 6 0 0 0 0 0"
    ascent="800"
    descent="-200"
    x-height="538"
    cap-height="725"
    bbox="-24 -228 1121 943"
    underline-thickness="60"
    underline-position="-50"
    unicode-range="U+0020-FB02"
  />
<missing-glyph horiz-adv-x="500" 
d="M0 725h500v-725h-500v725zM19 696v-667l220 333zM481 29v667l-221 -334zM33 19h433l-216 327zM250 378l216 328h-433z" />
    <glyph glyph-name="ellipsis" unicode="&#x2e;&#x2e;&#x2e;" horiz-adv-x="812" 
d="M75 129h130v-129h-130v129zM340 129h130v-129h-130v129zM606 129h130v-129h-130v129z" />
    <glyph glyph-name=".notdef" horiz-adv-x="500" 
d="M0 725h500v-725h-500v725zM19 696v-667l220 333zM481 29v667l-221 -334zM33 19h433l-216 327zM250 378l216 328h-433z" />
    <glyph glyph-name=".null" horiz-adv-x="0" 
 />
    <glyph glyph-name="nonmarkingreturn" horiz-adv-x="280" 
 />
    <glyph glyph-name="space" unicode=" " horiz-adv-x="280" 
 />
    <glyph glyph-name="exclam" unicode="!" horiz-adv-x="310" 
d="M209 725v-201l-34 -312h-41l-35 313v200h110zM90 129h130v-129h-130v129z" />
    <glyph glyph-name="quotedbl" unicode="&#x22;" horiz-adv-x="343" 
d="M144 725l-36 -254h-41l-37 254h114zM314 725l-36 -254h-41l-37 254h114z" />
    <glyph glyph-name="numbersign" unicode="#" horiz-adv-x="652" 
d="M196 527l28 198h67l-28 -198h171l28 198h67l-28 -198h138l-9 -64h-138l-24 -171h138l-10 -65h-137l-31 -227h-69l32 227h-170l-31 -227h-68l32 227h-141l9 65h141l24 171h-141l8 64h142zM230 292h170l25 171h-171z" />
    <glyph glyph-name="dollar" unicode="$" horiz-adv-x="638" 
d="M486 532q-8 62 -46.5 101.5t-97.5 50.5v-265l16 -4q53 -14 99.5 -30t81 -40t54 -59t19.5 -86q0 -53 -22.5 -92.5t-60 -66t-86 -40t-101.5 -14.5v-91h-54v93q-111 10 -181 70t-85 167h107q4 -33 15 -63t30.5 -54t47.5 -41t66 -23v288l-30 8q-42 11 -81 27.5t-69 41.5
t-48 59t-18 81q0 46 20.5 81t55 59t78.5 36.5t92 14.5v105h54v-106q47 -5 89 -21t75 -42.5t54.5 -63t28.5 -81.5h-103zM516 176q0 34 -14.5 57.5t-38.5 39t-55.5 26t-65.5 19.5v-277q30 1 61 8.5t56 23.5t41 41.5t16 61.5zM136 566q0 -30 12.5 -51.5t33.5 -37t48.5 -26
t57.5 -18.5v255q-32 -2 -59.5 -10.5t-48 -24t-32.5 -37.5t-12 -50z" />
    <glyph glyph-name="percent" unicode="%" horiz-adv-x="949" 
d="M50 533q0 52 14 91t37.5 65.5t55 39.5t66.5 13t66 -13t54.5 -39.5t37.5 -65.5t14 -91t-14 -91.5t-37.5 -65.5t-54.5 -39.5t-66 -13.5t-66.5 13.5t-55 39.5t-37.5 65.5t-14 91.5zM128 533q0 -86 24.5 -130.5t70.5 -44.5q45 0 70.5 44.5t25.5 130.5q0 85 -25.5 129.5
t-70.5 44.5q-46 0 -70.5 -44.5t-24.5 -129.5zM183 0l508 725h76l-508 -725h-76zM554 202q0 52 14 91t37.5 65.5t55 39.5t66.5 13t66 -13t54.5 -39.5t37.5 -65.5t14 -91t-14 -91.5t-37.5 -65.5t-54.5 -39.5t-66 -13.5t-66.5 13.5t-55 39.5t-37.5 65.5t-14 91.5zM632 202
q0 -86 24.5 -130.5t70.5 -44.5q45 0 70.5 44.5t25.5 130.5q0 85 -25.5 129.5t-70.5 44.5q-46 0 -70.5 -44.5t-24.5 -129.5z" />
    <glyph glyph-name="ampersand" unicode="&#x26;" horiz-adv-x="789" 
d="M714 40l-65 -61l-126 137q-51 -63 -111.5 -96t-134.5 -33q-52 0 -97.5 15t-79 42.5t-53 67.5t-19.5 90q0 45 18.5 80.5t48 62.5t67 46.5t76.5 33.5l-1 2q-42 45 -71.5 91t-29.5 92q0 34 15.5 60.5t42.5 45t64 28t81 9.5q35 0 68.5 -7.5t59 -23t41 -39t15.5 -56.5
q0 -36 -15.5 -65t-40 -51.5t-56 -40t-63.5 -32.5l194 -211q20 29 39.5 63t37.5 71q14 32 14 47.5t-26 17.5l-53 4v35h232v-35l-37 -2q-23 -2 -37.5 -20t-31.5 -49q-9 -16 -21 -37t-25.5 -43.5t-28 -45.5t-28.5 -44zM137 213q0 -35 11 -65t31.5 -52.5t49.5 -35.5t65 -13
q54 0 102.5 25t91.5 81l-226 247q-59 -25 -92 -71.5t-33 -115.5zM440 615q0 27 -8 45.5t-22 30t-32.5 17t-39.5 5.5q-45 0 -74 -23t-29 -65q0 -36 23.5 -74t67.5 -89l3 -3q63 31 87 71t24 85z" />
    <glyph glyph-name="quotesingle" unicode="'" horiz-adv-x="174" 
d="M144 725l-36 -254h-41l-37 254h114z" />
    <glyph glyph-name="parenleft" unicode="(" horiz-adv-x="247" 
d="M135 285q0 -130 27.5 -244t84.5 -230h-50q-78 111 -119.5 223.5t-41.5 242.5t41.5 242.5t119.5 225.5h50q-29 -56 -50 -111t-34.5 -111t-20.5 -115t-7 -123z" />
    <glyph glyph-name="parenright" unicode=")" horiz-adv-x="247" 
d="M112 285q0 64 -7 123t-21 115t-34.5 111t-48.5 111h49q78 -113 119.5 -225.5t41.5 -242.5t-41.5 -242.5t-119.5 -223.5h-49q55 116 83 230t28 244z" />
    <glyph glyph-name="asterisk" unicode="*" horiz-adv-x="383" 
d="M217 606l120 40l19 -52l-120 -39l73 -102l-44 -33l-75 103l-73 -102l-46 32l73 101l-118 40l16 53l119 -41v120h56v-120z" />
    <glyph glyph-name="plus" unicode="+" horiz-adv-x="705" 
d="M318 0v242h-242v66h242v231h70v-231h242v-66h-242v-242h-70z" />
    <glyph glyph-name="comma" unicode="," horiz-adv-x="298" 
d="M84 129h130v-138l-80 -164h-40l45 173h-55v129z" />
    <glyph glyph-name="hyphen" unicode="-" horiz-adv-x="329" 
d="M24 321h281v-88h-281v88z" />
    <glyph glyph-name="period" unicode="." horiz-adv-x="298" 
d="M84 129h130v-129h-130v129z" />
    <glyph glyph-name="slash" unicode="/" horiz-adv-x="364" 
d="M0 0l293 725h71l-293 -725h-71z" />
    <glyph glyph-name="zero" unicode="0" horiz-adv-x="689" 
d="M53 365q0 90 20.5 160t58 118.5t91.5 73.5t122 25q67 0 120.5 -25t91.5 -73.5t58.5 -118.5t20.5 -160t-20.5 -160.5t-58.5 -119t-91.5 -73.5t-120.5 -25q-68 0 -122 25t-91.5 73.5t-58 119t-20.5 160.5zM158 365q0 -155 46 -240.5t141 -85.5q93 0 139 85.5t46 240.5
q0 154 -46 239.5t-139 85.5q-95 0 -141 -85.5t-46 -239.5z" />
    <glyph glyph-name="one" unicode="1" horiz-adv-x="422" 
d="M296 66q0 -15 6 -20.5t24 -7.5l48 -4v-34h-287v34l82 4q17 2 23 7.5t6 20.5v541h-167v37q53 3 89 9t61 16.5t43 25.5t36 37h37l-1 -185v-481z" />
    <glyph glyph-name="two" unicode="2" horiz-adv-x="624" 
d="M568 85v-85h-544v76q132 90 216.5 157t133 120t67 97t18.5 88q0 37 -11.5 65.5t-31 48t-46.5 29t-57 9.5q-48 0 -80.5 -15.5t-52.5 -43t-27.5 -65.5t-4.5 -84h-97q-3 63 17 111.5t56.5 81.5t86.5 50t107 17q50 0 94.5 -13t77.5 -38t52 -62.5t19 -86.5q0 -59 -30.5 -112
t-87 -107t-136 -111.5t-176.5 -126.5h437z" />
    <glyph glyph-name="three" unicode="3" horiz-adv-x="640" 
d="M297 -13q-58 0 -105 16t-81 44.5t-53.5 67t-21.5 83.5h96q0 -33 11 -62t32.5 -50.5t52.5 -34t70 -12.5q38 0 70.5 9.5t56.5 28.5t37.5 48t13.5 67t-16.5 68t-46 50.5t-70.5 31t-90 10.5h-39v53h37q40 0 77 9.5t65.5 28.5t45.5 47.5t17 66.5q0 63 -39.5 98t-110.5 35
q-39 0 -69.5 -12t-51 -33.5t-31.5 -50t-11 -61.5h-96q2 43 21.5 81t53.5 66.5t82 45t107 16.5q48 0 93 -10.5t79 -32t54.5 -55.5t20.5 -81q0 -41 -17 -71t-43 -51t-56 -33.5t-57 -18.5v-1q41 -6 77 -20.5t62.5 -38.5t41.5 -56.5t15 -72.5q0 -55 -23 -95t-62 -66.5t-90.5 -39
t-108.5 -12.5z" />
    <glyph glyph-name="four" unicode="4" horiz-adv-x="671" 
d="M485 66q0 -16 6.5 -20.5t23.5 -6.5l49 -4v-35h-279v35l73 4q17 1 23 6t6 21v136h-370v62l387 461h83l-2 -183v-264h143v-76h-143v-136zM387 616l-284 -338h284v338z" />
    <glyph glyph-name="five" unicode="5" horiz-adv-x="657" 
d="M315 -13q-57 0 -103 17t-79 46t-52 67.5t-21 81.5h96q0 -33 11 -62t31.5 -50.5t50.5 -34.5t68 -13q43 0 76.5 14.5t56.5 41t34.5 63t11.5 81.5q0 49 -14 84.5t-38 59t-55.5 35t-66.5 11.5q-66 0 -113 -32t-68 -90l-58 12l47 406h428l-3 -85h-377l-26 -235
q31 43 81.5 64.5t107.5 21.5q51 0 97.5 -14t82 -44t56.5 -76.5t21 -111.5q0 -61 -22 -109t-60.5 -81t-90 -50.5t-110.5 -17.5z" />
    <glyph glyph-name="six" unicode="6" horiz-adv-x="662" 
d="M341 426q-40 0 -72.5 -14.5t-55.5 -40.5t-35.5 -62t-12.5 -80q0 -47 14 -82.5t37.5 -59.5t54.5 -36t65 -12q41 0 72.5 16t52.5 43t32 62.5t11 74.5q0 36 -10 70.5t-30 61t-50.5 43t-72.5 16.5zM365 690q-52 0 -90 -26.5t-63 -70.5t-38 -101.5t-14 -119.5q15 30 37.5 51.5
t49 35t54.5 20t55 6.5q51 0 96.5 -17t80 -49.5t54.5 -78.5t20 -104q0 -55 -21 -100.5t-57.5 -78.5t-86 -51.5t-106.5 -18.5q-73 0 -125 26t-85.5 72.5t-49.5 110.5t-16 139q0 105 24.5 181.5t67 126.5t99 74.5t120.5 24.5q39 0 76.5 -11t69 -34t53.5 -57.5t29 -82.5h-95
q-7 62 -43 97.5t-96 35.5z" />
    <glyph glyph-name="seven" unicode="7" horiz-adv-x="511" 
d="M1 725h526v-84q-53 -47 -109.5 -107.5t-103 -138.5t-75.5 -175.5t-27 -219.5h-116q4 112 36.5 206t82.5 173t113 143t129 116h-456v87z" />
    <glyph glyph-name="eight" unicode="8" horiz-adv-x="683" 
d="M344 -13q-59 0 -111 13t-91 38.5t-61.5 62.5t-22.5 86q0 38 16 69t42.5 54.5t61.5 40t74 25.5l-6 3q-71 30 -111 76.5t-40 108.5q0 39 18 72t51 56.5t79 36.5t102 13q57 0 103 -12t78.5 -33.5t50 -52t17.5 -67.5q0 -32 -14 -60t-37.5 -51t-54 -40.5t-63.5 -27.5l23 -9
q37 -16 69.5 -35t56.5 -43t38 -52.5t14 -64.5q0 -47 -22 -85.5t-60 -65.5t-89.5 -41.5t-110.5 -14.5zM155 189q0 -71 52 -110.5t137 -39.5q83 0 134 35.5t51 98.5q0 29 -14 52t-38.5 42.5t-57.5 35.5t-72 32l-55 24q-72 -21 -104.5 -67.5t-32.5 -102.5zM502 568q0 29 -12 52
t-33.5 38.5t-50.5 23.5t-63 8q-72 0 -114 -31.5t-42 -78.5q0 -26 11 -46.5t31 -38t49 -32.5t64 -30l42 -18q55 21 86.5 61.5t31.5 91.5z" />
    <glyph glyph-name="nine" unicode="9" horiz-adv-x="662" 
d="M321 304q40 0 72.5 14t55.5 40t36 62t13 80q0 47 -14 82.5t-37.5 59.5t-55 36t-65.5 12q-41 0 -72 -16t-52.5 -43t-32.5 -62t-11 -74q0 -36 10 -70.5t30 -61t51 -43t72 -16.5zM297 39q52 0 90 26.5t63 70.5t37.5 101.5t14.5 119.5q-15 -30 -38 -51.5t-49 -35t-54 -19.5
t-55 -6q-51 0 -96.5 17t-80 49t-54.5 78t-20 105q0 55 21 100.5t58 78.5t86 51t106 18q73 0 125 -26.5t85.5 -73t49.5 -110t16 -138.5q0 -104 -24.5 -181t-67 -127t-99 -74.5t-120.5 -24.5q-38 0 -76 11t-69.5 34t-53.5 58t-29 83h96q6 -62 42 -98t96 -36z" />
    <glyph glyph-name="colon" unicode=":" horiz-adv-x="298" 
d="M84 129h130v-129h-130v129zM84 538h130v-129h-130v129z" />
    <glyph glyph-name="semicolon" unicode=";" horiz-adv-x="311" 
d="M84 129h130v-138l-80 -164h-40l45 173h-55v129zM84 538h130v-129h-130v129z" />
    <glyph glyph-name="equal" unicode="=" horiz-adv-x="705" 
d="M111 349v66h483v-66h-483zM111 142v67h483v-67h-483z" />
    <glyph glyph-name="question" unicode="?" horiz-adv-x="537" 
d="M266 702q-42 0 -74.5 -13.5t-54 -37t-31.5 -55.5t-7 -70h-95q-3 58 16.5 101t55.5 71t86.5 41.5t109.5 13.5q54 0 99 -11t77 -31.5t50 -49t18 -63.5t-12 -61t-34 -48t-52.5 -42t-67.5 -42q-29 -18 -48.5 -34t-31.5 -34t-17 -39.5t-5 -49.5v-34h-59v38q0 44 6.5 76
t20.5 56.5t36.5 44t55.5 38.5q48 28 76 58.5t28 75.5q0 47 -39 74t-107 27zM156 129h130v-129h-130v129z" />
    <glyph glyph-name="at" unicode="@" horiz-adv-x="855" 
d="M635 159q-46 0 -74 29.5t-30 76.5q-23 -46 -63.5 -73.5t-97.5 -27.5q-30 0 -56.5 10.5t-46.5 32t-31.5 54.5t-11.5 79t15 89t42 76t66 53t87 20q49 0 78.5 -27t40.5 -65l10 73h55l-32 -228q-3 -17 -2.5 -37.5t6.5 -37.5t18.5 -28.5t34.5 -11.5q45 0 77.5 51t32.5 144
q0 67 -22.5 118t-63 84.5t-95.5 50.5t-121 17q-75 0 -136.5 -25.5t-105.5 -69.5t-68 -104.5t-24 -129.5q0 -67 20.5 -123t59 -96.5t93.5 -63t124 -22.5q49 0 102.5 10.5t98.5 32.5l21 -57q-51 -23 -111 -34.5t-111 -11.5q-81 0 -147.5 27.5t-114 76t-73 116t-25.5 147.5
q0 81 30 151t83 121.5t126.5 81t159.5 29.5q76 0 142 -20t114.5 -60.5t76 -101t27.5 -141.5q0 -62 -15.5 -109.5t-40.5 -79.5t-57 -49t-65 -17zM435 519q-32 0 -58.5 -14.5t-45.5 -39.5t-29.5 -57.5t-10.5 -69.5q0 -60 26 -88t70 -28q33 0 59 15t45 40.5t29 59t10 69.5
q0 54 -25 83.5t-70 29.5z" />
    <glyph glyph-name="A" unicode="A" 
d="M325 729h74l251 -646q9 -23 18.5 -33.5t37.5 -12.5l22 -2v-35h-272v35l48 3q31 2 38.5 11.5t-2.5 34.5l-53 139h-291l-44 -117q-16 -41 -9 -53.5t39 -14.5l43 -3v-35h-229v35l23 2q15 1 24 5t16 13t13.5 24t15.5 39zM218 281h247l-124 325z" />
    <glyph glyph-name="B" unicode="B" horiz-adv-x="703" 
d="M56 725h136h52.5t49 0.5t39 0.5h23.5q132 0 201 -41.5t69 -122.5q0 -38 -12 -67t-32.5 -50t-47.5 -35t-58 -21v-2q38 -7 71.5 -20.5t59 -35t40 -52.5t14.5 -73q0 -41 -13.5 -78.5t-47 -66t-91.5 -45.5t-146 -17h-167q-63 0 -140 1v36l54 4q17 1 23 7t6 20v591q0 14 -6 20
t-23 8l-54 4v35zM244 404h102q53 0 86.5 11t52.5 30.5t26 45.5t7 55q0 61 -39 94t-133 33h-102v-269zM244 52h101q58 0 97 9t62.5 27.5t33.5 47.5t10 69q0 78 -47 111.5t-151 33.5h-106v-298z" />
    <glyph glyph-name="C" unicode="C" horiz-adv-x="753" 
d="M46 366q0 86 25 155.5t70.5 118.5t110 75.5t143.5 26.5q60 0 112.5 -15.5t94.5 -45.5t71 -74.5t40 -102.5l-107 -1q-11 89 -65 137t-145 48q-108 0 -172 -83t-64 -239q0 -77 16.5 -137.5t46.5 -102t73.5 -63.5t97.5 -22q94 0 148.5 47.5t66.5 137.5l107 -1
q-12 -59 -41 -103.5t-72 -74.5t-96 -45t-113 -15q-82 0 -146.5 27.5t-109.5 77t-68.5 119.5t-23.5 155z" />
    <glyph glyph-name="D" unicode="D" horiz-adv-x="781" 
d="M622 363q0 95 -24.5 155t-67 94.5t-99 47.5t-120.5 13h-67v-621h67q64 0 120.5 13t99 47.5t67 95t24.5 155.5zM735 363q0 -102 -32.5 -171.5t-89.5 -112.5t-135 -61.5t-169 -18.5h-137q-53 0 -116 1v36l54 4q17 1 23 7t6 20v591q0 14 -6 20t-23 8l-54 4v35h115h44.5
t41 0.5t32.5 0.5h20q91 0 169 -18.5t135 -61.5t89.5 -112t32.5 -171z" />
    <glyph glyph-name="E" unicode="E" horiz-adv-x="699" 
d="M627 725v-217h-38l-14 86q-5 28 -11.5 44t-19 24t-34 9.5t-55.5 1.5h-211v-271h286v-56h-286v-294h220q34 0 55 1.5t33.5 9t19 24t11.5 45.5l15 85h38v-217h-580v36l54 4q17 1 23 7t6 20v591q0 14 -6 20t-23 8l-54 4v35h571z" />
    <glyph glyph-name="F" unicode="F" horiz-adv-x="670" 
d="M650 725v-217h-38l-14 86q-5 28 -11 44t-19 24t-34.5 9.5t-55.5 1.5h-234v-271h291v-56h-291v-278q0 -14 6 -20t23 -8l83 -4v-36h-300v36l54 4q17 1 23 7t6 20v591q0 14 -6 20t-23 8l-54 4v35h594z" />
    <glyph glyph-name="G" unicode="G" horiz-adv-x="794" 
d="M398 688q-54 0 -97.5 -21t-75 -62t-48.5 -101t-17 -138q0 -155 62.5 -238.5t171.5 -83.5q33 0 71 8.5t71 32t54.5 65.5t21.5 109v49h-135v50h236v-37.5v-64t-0.5 -77t-0.5 -77v-64v-38.5h-59l-21 102q-31 -50 -90.5 -82.5t-150.5 -32.5q-81 0 -145 27.5t-108.5 77
t-68 119.5t-23.5 155q0 86 25 155.5t71 118.5t110.5 75.5t143.5 26.5q60 0 112.5 -15.5t94.5 -45.5t71 -74.5t40 -102.5l-106 -1q-12 89 -65.5 137t-144.5 48z" />
    <glyph glyph-name="H" unicode="H" horiz-adv-x="865" 
d="M726 67q0 -14 6 -20t23 -7l54 -4v-36h-271v36l53 4q17 1 23.5 7t6.5 20v279h-377v-279q0 -14 6 -20t23 -7l54 -4v-36h-271v36l54 4q17 1 23 7t6 20v591q0 14 -6 20t-23 8l-54 4v35h271v-35l-54 -4q-17 -2 -23 -8t-6 -20v-254h377v254q0 14 -6.5 20t-23.5 8l-53 4v35h271
v-35l-54 -4q-17 -2 -23 -8t-6 -20v-591z" />
    <glyph glyph-name="I" unicode="I" horiz-adv-x="383" 
d="M327 0h-271v36l54 4q17 1 23 7t6 20v591q0 14 -6 20t-23 8l-54 4v35h271v-35l-54 -4q-17 -2 -23 -8t-6 -20v-591q0 -14 6 -20t23 -7l54 -4v-36z" />
    <glyph glyph-name="J" unicode="J" horiz-adv-x="390" 
d="M269 169q0 -62 -10.5 -96t-33.5 -50.5t-59.5 -19.5t-89.5 -3h-51v63h36q32 0 52 2.5t31.5 12.5t15.5 30.5t4 57.5v492q0 14 -6.5 20t-23.5 8l-53 4v35h272v-35l-53 -4q-17 -2 -24 -8t-7 -20v-489z" />
    <glyph glyph-name="K" unicode="K" horiz-adv-x="762" 
d="M244 348l295 291q23 23 19.5 33.5t-30.5 13.5l-46 4v35h250v-35l-29 -2q-14 -1 -25 -5t-23 -12t-27 -22t-37 -35l-180 -174l243 -355q17 -26 33 -36t44 -12l29 -1v-36h-287v36l39 2q31 2 32.5 11.5t-15.5 35.5l-192 284l-93 -90v-212q0 -14 6 -20t23 -7l54 -4v-36h-271
v36l54 4q17 1 23 7t6 20v591q0 14 -6 20t-23 8l-54 4v35h271v-35l-54 -4q-17 -2 -23 -8t-6 -20v-310z" />
    <glyph glyph-name="L" unicode="L" horiz-adv-x="639" 
d="M56 36l54 4q17 1 23 7t6 20v591q0 14 -6 20t-23 8l-54 4v35h276v-35l-59 -4q-17 -2 -23 -8t-6 -20v-606h204q34 0 55.5 1.5t34 9t18.5 24t11 45.5l14 85h37v-217h-562v36z" />
    <glyph glyph-name="M" unicode="M" horiz-adv-x="1011" 
d="M872 67q0 -14 6 -20t23 -7l54 -4v-36h-271v36l53 4q17 1 23.5 7t6.5 20v568l-257 -635h-49l-258 633v-550q0 -26 7.5 -34.5t34.5 -10.5l42 -2v-36h-229v36l42 2q27 2 34 10.5t7 34.5v574q0 26 -31 29l-54 4v35h225l228 -574l233 574h213v-35l-55 -4q-17 -2 -22.5 -9
t-5.5 -20v-590v0z" />
    <glyph glyph-name="N" unicode="N" horiz-adv-x="812" 
d="M694 -7h-61l-432 602v-512q0 -26 7.5 -34.5t34.5 -10.5l42 -2v-36h-229v36l40 2q14 1 22.5 3t13 7.5t6 13.5t1.5 21v574q0 13 -6 20t-23 9l-54 4v35h177l398 -557v474q0 26 -6.5 34.5t-34.5 10.5l-42 2v36h230v-36l-42 -2q-27 -2 -34.5 -10.5t-7.5 -34.5v-649z" />
    <glyph glyph-name="O" unicode="O" horiz-adv-x="797" 
d="M398 -13q-80 0 -144.5 26.5t-111 76t-71.5 119.5t-25 156t26 155.5t72.5 119t111.5 76t143 26.5t142.5 -25.5t111 -74.5t72.5 -119t26 -158q0 -89 -26 -159t-73 -118.5t-111.5 -74.5t-142.5 -26zM637 365q0 155 -64 239t-174 84q-55 0 -99.5 -21.5t-75.5 -63
t-47.5 -101.5t-16.5 -137q0 -156 64 -240t175 -84q110 0 174 84t64 240z" />
    <glyph glyph-name="P" unicode="P" horiz-adv-x="629" 
d="M321 727q69 0 126 -10.5t98.5 -35.5t64.5 -66t23 -102q0 -60 -23 -102.5t-64.5 -68.5t-98.5 -38t-126 -12h-77v-225q0 -12 6 -19.5t23 -8.5l75 -4v-35h-292v36l54 4q17 1 23 7t6 20v591q0 14 -6 20t-23 8l-54 4v35q14 0 48 0.5t74 0.5t79 0.5t64 0.5zM244 674v-329h83
q100 0 147 42t47 124q0 81 -47 122t-147 41h-83z" />
    <glyph glyph-name="Q" unicode="Q" horiz-adv-x="797" 
d="M398 -13q-80 0 -144.5 26.5t-111 76t-71.5 119.5t-25 156t26 155.5t72.5 119t111.5 76t143 26.5t142.5 -25.5t111 -74.5t72.5 -119t26 -158q0 -117 -44 -201t-121 -129l76 -94l-47 -38l-86 105q-60 -21 -131 -21zM459 191l80 -99q47 39 72.5 107.5t25.5 165.5
q0 155 -64 238t-174 83q-111 0 -175 -83t-64 -238q0 -156 64 -238.5t175 -82.5q50 0 88 16l-75 94z" />
    <glyph glyph-name="R" unicode="R" 
d="M56 725h46t72.5 0.5t78.5 0.5h63q150 0 231 -46.5t81 -152.5q0 -70 -39 -116t-112 -69l152 -255q16 -26 28 -37t37 -12l34 -2v-36h-170l-50 90l-136 233q-14 -2 -28 -2h-28h-72v-253q0 -14 6 -20t23 -8l64 -4v-36h-281v36l54 4q17 1 23 7t6 20v591q0 14 -6 20t-23 8
l-54 4v35zM244 674v-301h84q91 0 140 36t49 116q0 79 -49 114t-140 35h-84z" />
    <glyph glyph-name="S" unicode="S" horiz-adv-x="644" 
d="M488 532q-4 36 -19.5 65t-40 49.5t-57 31t-70.5 10.5q-33 0 -63 -8t-52 -23.5t-35 -38.5t-13 -52q0 -30 13 -51.5t34.5 -37t49 -26t57.5 -18.5l68 -18q53 -14 99.5 -30t81 -40t54 -59t19.5 -86q0 -55 -23.5 -95t-62.5 -66.5t-90 -39t-106 -12.5q-128 0 -209.5 61
t-98.5 178h107q4 -37 18 -70.5t39 -59t61 -40.5t86 -15q31 0 63.5 7t59 23t43.5 41.5t17 63.5q0 35 -14.5 58.5t-39 39t-56.5 26t-67 19.5l-81 22q-42 11 -81 27.5t-69 41.5t-48 59t-18 81q0 49 22.5 85t60 60t85 35.5t97.5 11.5q53 0 101 -14.5t86 -41.5t63 -66t32 -88
h-103z" />
    <glyph glyph-name="T" unicode="T" horiz-adv-x="687" 
d="M659 725v-214h-38l-14 85q-5 29 -11.5 45.5t-19 24t-34 9t-55.5 1.5h-91v-608q0 -14 6 -19.5t23 -7.5l79 -4v-37h-321v37l80 4q17 2 22.5 7.5t5.5 19.5v608h-90q-35 0 -56.5 -1.5t-34 -9t-19.5 -24t-11 -45.5l-14 -85h-38v214h631z" />
    <glyph glyph-name="U" unicode="U" horiz-adv-x="797" 
d="M409 -13q-87 0 -144.5 21t-92 58.5t-48.5 90t-14 115.5v386q0 14 -6 20t-23 8l-55 4v35h272v-35l-54 -4q-17 -2 -23 -8t-6 -20v-376q0 -108 46 -167t154 -59q109 0 161.5 55t52.5 175v356q0 26 -7.5 34.5t-34.5 10.5l-42 3v35h232v-35l-41 -3q-27 -2 -34.5 -10.5
t-7.5 -34.5v-355q0 -66 -14.5 -121t-47.5 -94.5t-87.5 -62t-135.5 -22.5z" />
    <glyph glyph-name="V" unicode="V" 
d="M400 0h-75l-249 642q-9 23 -18.5 33.5t-37.5 12.5l-28 2v35h279v-35l-47 -4q-32 -2 -39 -11t2 -34l197 -521l186 499q15 41 8.5 53.5t-38.5 14.5l-44 3v35h236v-35l-28 -2q-15 -1 -24 -5t-16 -13t-14 -24t-16 -39z" />
    <glyph glyph-name="W" unicode="W" horiz-adv-x="1002" 
d="M722 129l123 490q5 21 7 34t-1 20.5t-11.5 10t-24.5 3.5l-44 3v35h237v-35l-29 -2q-15 -1 -25 -4t-17.5 -12t-14 -24.5t-13.5 -40.5l-162 -607h-85l-160 567l-161 -567h-84l-179 642q-7 24 -17 34t-39 12l-28 2v35h280v-35l-47 -4q-32 -2 -37.5 -10.5t1.5 -34.5l125 -511
l165 595h80z" />
    <glyph glyph-name="X" unicode="X" horiz-adv-x="776" 
d="M374 314l-172 -214q-16 -19 -23.5 -30.5t-6.5 -18t11 -9t28 -4.5l27 -2v-36h-226v36l35 2q21 2 36 15.5t34 36.5l220 273l-210 279q-15 20 -26.5 31.5t-31.5 13.5l-35 3v35h285v-35l-44 -4q-36 -3 -39.5 -11.5t15.5 -34.5l149 -198l148 183q16 19 23.5 30.5t6.5 18
t-10.5 9t-27.5 4.5l-28 3v35h226v-35l-35 -3q-20 -2 -35.5 -15.5t-34.5 -36.5l-196 -243l234 -309q15 -20 27 -31t32 -13l34 -3v-36h-285v36l45 3q35 3 38.5 11.5t-15.5 34.5z" />
    <glyph glyph-name="Y" unicode="Y" horiz-adv-x="678" 
d="M285 283l-207 363q-11 21 -21.5 30t-37.5 11l-26 3v35h288v-35l-59 -4q-19 -2 -26.5 -11t3.5 -31l162 -297l167 292q15 26 7 35.5t-27 11.5l-59 4v35h236v-35l-26 -3q-13 -1 -21 -3.5t-15 -8t-13 -15t-14 -22.5l-208 -345v-225q0 -14 6.5 -20t24.5 -8l74 -4v-36h-312v36
l74 4q17 2 23.5 8t6.5 20v215z" />
    <glyph glyph-name="Z" unicode="Z" horiz-adv-x="698" 
d="M248 673q-35 0 -56 -1.5t-34 -9.5t-19.5 -24t-10.5 -44l-14 -86h-38v217h567v-51l-485 -622h310q34 0 55.5 1.5t34.5 9.5t19 23.5t11 44.5l15 86h38v-217h-605v52l484 621h-272v0z" />
    <glyph glyph-name="bracketleft" unicode="[" horiz-adv-x="285" 
d="M84 745h189v-49h-92v-836h92v-49h-189v934z" />
    <glyph glyph-name="bracketright" unicode="]" horiz-adv-x="285" 
d="M201 -189h-189v49h91v836h-91v49h189v-934z" />
    <glyph glyph-name="underscore" unicode="_" horiz-adv-x="492" 
d="M25 0h442v-71h-442v71z" />
    <glyph glyph-name="grave" unicode="`" horiz-adv-x="271" 
d="M26 745h131l87 -142h-43z" />
    <glyph glyph-name="a" unicode="a" horiz-adv-x="598" 
d="M412 97q-13 -24 -29 -44.5t-38 -35t-51 -22.5t-67 -8q-36 0 -66.5 10.5t-53.5 29.5t-36 46t-13 60q0 48 26.5 79.5t73 52t109.5 33t136 21.5v47q0 70 -28.5 101t-85.5 31q-32 0 -54 -9.5t-36 -27t-21 -41t-9 -50.5h-95q3 39 20 72t45.5 56t67.5 36t85 13q49 0 88.5 -10
t67 -33.5t41 -63t12.5 -98.5q-1 -27 -1.5 -60t-0.5 -72v-69.5t2 -69.5q1 -16 6.5 -20t22.5 -6l42 -5v-35l-153 -9l-5 101h-2zM407 269q-50 -6 -94.5 -13t-77.5 -20.5t-52 -37t-19 -62.5q0 -40 25.5 -65t72.5 -25q30 0 56.5 9.5t46 31.5t31 58.5t11.5 91.5v32z" />
    <glyph glyph-name="b" unicode="b" horiz-adv-x="648" 
d="M111 679q0 16 -6.5 20t-23.5 6l-41 5v35h170l-1 -114v-114q0 -20 -0.5 -39.5t-1.5 -38.5h2q12 22 28 41.5t37 34.5t47.5 23.5t59.5 8.5q47 0 87 -20.5t69 -57t45.5 -88t16.5 -114.5t-18.5 -115t-50.5 -88.5t-75 -56.5t-92 -20q-57 0 -100 25.5t-66 62.5h-2l-51 -77h-37
q2 48 3 94.5t1 94.5v492zM202 267q0 -63 12 -105.5t31.5 -68t45.5 -36.5t55 -11q65 0 105.5 58.5t40.5 162.5q0 52 -10.5 93t-29 69.5t-45 43.5t-57.5 15q-26 0 -52.5 -11t-47.5 -37t-34.5 -68t-13.5 -105z" />
    <glyph glyph-name="c" unicode="c" horiz-adv-x="586" 
d="M49 267q0 61 18.5 112.5t52 89t80 58t103.5 20.5q42 0 81 -11t70.5 -33.5t53.5 -57t30 -80.5h-97q-5 66 -42.5 97.5t-91.5 31.5q-42 0 -71 -19t-47 -50.5t-26 -72.5t-8 -85t8 -85t26 -73t47 -51t71 -19q55 0 92.5 31.5t42.5 97.5h97q-8 -47 -29.5 -81t-53.5 -56
t-71.5 -33t-81.5 -11q-57 0 -103.5 21t-80 58t-52 88.5t-18.5 112.5z" />
    <glyph glyph-name="d" unicode="d" horiz-adv-x="650" 
d="M448 267q0 63 -12 105.5t-32.5 68t-46.5 36.5t-54 11q-66 0 -107 -58.5t-41 -162.5q0 -52 10.5 -93t29.5 -69.5t45 -43.5t58 -15q25 0 52 11t48.5 37t35.5 68t14 105zM538 745l-1 -114v-559q0 -17 6.5 -21t23.5 -6l41 -5v-33l-162 -11l-3 99h-2q-12 -22 -28.5 -41.5
t-38 -34.5t-48 -23.5t-58.5 -8.5q-47 0 -87.5 20t-69.5 57t-45.5 88t-16.5 114q0 64 18.5 116t50.5 88.5t75 56.5t92 20q28 0 52 -8t43.5 -21.5t34 -31t24.5 -36.5h2q-1 37 -1.5 54.5t-0.5 31.5v142q0 17 -6.5 21t-23.5 6l-53 5v35h182z" />
    <glyph glyph-name="e" unicode="e" horiz-adv-x="595" 
d="M313 39q56 0 92 30t43 91h97q-8 -44 -30.5 -76t-55 -54t-72 -32.5t-80.5 -10.5q-62 0 -110 21.5t-81 59t-50 88t-17 109.5q0 61 18.5 113t52.5 89.5t81.5 58.5t104.5 21q47 0 91 -16.5t78 -51t54 -88t20 -128.5h-397q1 -50 10.5 -91t29 -70.5t49.5 -46t72 -16.5zM303 497
q-60 0 -102 -44.5t-48 -135.5h292q0 48 -11 82t-30.5 55.5t-45.5 32t-55 10.5z" />
    <glyph glyph-name="f" unicode="f" horiz-adv-x="420" 
d="M346 0h-283v35l42 4q17 2 23 6.5t6 20.5v415h-74v57h74v67q0 43 10.5 70t34 42.5t60 21.5t88.5 6h84v-64h-94q-25 0 -41.5 -2.5t-26 -10t-13.5 -21.5t-4 -36v-73h179v-57h-179v-414q0 -16 6 -21t23 -6l85 -4v-36z" />
    <glyph glyph-name="g" unicode="g" horiz-adv-x="586" 
d="M434 486q20 -23 32 -53t12 -68q0 -42 -15 -76.5t-42.5 -59.5t-66 -38.5t-85.5 -13.5q-31 0 -58 6q-20 -6 -35 -15.5t-15 -26.5q0 -21 17.5 -30.5t62.5 -12.5l134 -8q52 -3 86.5 -13t55 -25t29 -35t8.5 -43q0 -31 -17 -61.5t-52 -55t-88 -39.5t-124 -15q-116 0 -177 36
t-61 90q0 19 10.5 35t28 28t40 20t47.5 12q-50 12 -68.5 36t-18.5 50q0 32 30 52.5t76 29.5q-53 19 -87.5 61t-34.5 107q0 48 17.5 83t47 58t68.5 34.5t81 11.5q52 0 97 -18l211 9v-57zM272 224q51 0 80.5 35t29.5 104q0 68 -29.5 103t-80.5 35q-54 0 -85 -34t-31 -107
q0 -35 9.5 -60.5t25 -42t36.5 -25t45 -8.5zM217 16q-8 0 -14.5 0.5t-12.5 1.5q-30 -10 -51 -29.5t-21 -46.5q0 -41 39.5 -64t123.5 -23q40 0 73.5 6t58 18t38.5 28.5t14 37.5q0 32 -24 45.5t-88 18.5z" />
    <glyph glyph-name="h" unicode="h" horiz-adv-x="644" 
d="M547 66q0 -16 6.5 -20.5t23.5 -6.5l41 -4v-35h-240v35l41 4q17 2 23.5 6.5t6.5 20.5v268q0 77 -23 114t-80 37q-22 0 -45 -9t-42 -29.5t-31 -52.5t-12 -77v-251q0 -16 6.5 -20.5t23.5 -6.5l42 -4v-35h-242v35l41 4q17 2 24 6.5t7 20.5v613q0 16 -6 20t-25 6l-41 5v35h171
l-1 -113v-110q0 -5 -0.5 -17.5t-0.5 -26.5v-35h2q23 47 66.5 75.5t105.5 28.5q47 0 77.5 -16.5t48.5 -42.5t25 -59.5t7 -66.5v-296z" />
    <glyph glyph-name="i" unicode="i" horiz-adv-x="336" 
d="M229 426v-360q0 -16 6.5 -20.5t23.5 -6.5l41 -4v-35h-241v35l43 4q17 2 23 6.5t6 20.5v404q0 15 -5.5 20.5t-23.5 8.5l-43 5v34h171zM131 745h98v-125h-98v125z" />
    <glyph glyph-name="j" unicode="j" horiz-adv-x="336" 
d="M131 470q0 15 -5.5 20.5t-24.5 8.5l-42 5v34h171l-1 -112v-441q0 -60 -7 -94.5t-24 -52t-46 -22.5t-74 -5h-73v67h71q18 0 29 2t17 13t7.5 33.5t1.5 63.5v480zM131 745h98v-125h-98v125z" />
    <glyph glyph-name="k" unicode="k" horiz-adv-x="605" 
d="M217 745l-1 -114v-365l182 190q23 26 21.5 34.5t-31.5 10.5l-42 2v35h231v-35l-28 -2q-14 -1 -24 -3t-19 -6.5t-18.5 -12t-22.5 -20.5l-115 -119l150 -248q19 -32 37 -43t46 -13l22 -1v-35h-162l-161 271l-66 -68v-137q0 -16 6.5 -20.5t23.5 -6.5l42 -4v-35h-242v35l41 4
q17 2 24 6.5t7 20.5v613q0 16 -6 20t-25 6l-41 5v35h171z" />
    <glyph glyph-name="l" unicode="l" horiz-adv-x="327" 
d="M217 745l-1 -114v-565q0 -16 6.5 -20.5t23.5 -6.5l42 -4v-35h-242v35l41 4q17 2 24 6.5t7 20.5v613q0 16 -6 20t-25 6l-41 5v35h171z" />
    <glyph glyph-name="m" unicode="m" horiz-adv-x="962" 
d="M228 443h1q24 47 64 75.5t103 28.5q34 0 58.5 -9t41.5 -24.5t27 -36t16 -42.5q26 54 69.5 83t106.5 29q46 0 75.5 -16.5t46 -43t22.5 -59.5t6 -66v-296q0 -16 6.5 -20.5t23.5 -6.5l42 -4v-35h-243v35l43 4q17 2 23.5 6.5t6.5 20.5v268q0 77 -20.5 114t-72.5 37
q-23 0 -45.5 -9t-40.5 -29.5t-29.5 -52.5t-11.5 -77v-251q0 -16 6.5 -20.5t23.5 -6.5l42 -4v-35h-242v35l41 4q17 2 24 6.5t7 20.5v268q0 77 -20.5 114t-72.5 37q-23 0 -45.5 -9t-40.5 -29.5t-29.5 -52.5t-11.5 -77v-251q0 -16 6.5 -20.5t23.5 -6.5l41 -4v-35h-241v35l43 4
q17 2 23 6.5t6 20.5v404q0 15 -5.5 20.5t-23.5 8.5l-43 5v34h168z" />
    <glyph glyph-name="n" unicode="n" horiz-adv-x="657" 
d="M560 66q0 -16 6.5 -20.5t23.5 -6.5l42 -4v-35h-242v35l42 4q17 2 23.5 6.5t6.5 20.5v268q0 77 -23 114t-79 37q-22 0 -45.5 -9t-42.5 -29.5t-31 -52.5t-12 -77v-251q0 -16 6.5 -20.5t23.5 -6.5l41 -4v-35h-241v35l43 4q17 2 23 6.5t6 20.5v404q0 15 -5.5 20.5t-23.5 8.5
l-43 5v34h169v-95h1q24 47 67.5 75.5t106.5 28.5q47 0 77.5 -16.5t48 -42.5t24.5 -59.5t7 -66.5v-296z" />
    <glyph glyph-name="o" unicode="o" horiz-adv-x="612" 
d="M155 267q0 -59 11.5 -102.5t31.5 -71.5t48 -41.5t60 -13.5t59.5 13.5t48 41.5t32 71.5t11.5 102.5t-11.5 102.5t-32 71.5t-48 41.5t-59.5 13.5t-60 -13.5t-48 -41.5t-31.5 -71.5t-11.5 -102.5zM562 267q0 -63 -19.5 -115t-53.5 -88.5t-81 -56.5t-102 -20t-102 20
t-81 56.5t-53.5 88.5t-19.5 115t19.5 115t53.5 88.5t81 56.5t102 20t102 -20t81 -56.5t53.5 -88.5t19.5 -115z" />
    <glyph glyph-name="p" unicode="p" horiz-adv-x="643" 
d="M197 267q0 -63 12 -105.5t32 -68t46 -36.5t54 -11q66 0 107 58.5t41 162.5q0 52 -10.5 93t-30 69.5t-46 43.5t-57.5 15q-26 0 -52 -11t-47.5 -37t-35 -68t-13.5 -105zM201 439h2q24 44 66.5 76t106.5 32q47 0 87 -20.5t69 -57t45.5 -88t16.5 -114.5t-18.5 -115
t-50.5 -88.5t-74.5 -56.5t-91.5 -20q-29 0 -52.5 8t-43 21.5t-34.5 31t-25 36.5h-2q0 -4 0.5 -14t1 -21.5t0.5 -22v-15.5v-133q0 -17 7 -21.5t24 -6.5l65 -4v-35h-266v35l43 4q17 2 23 6.5t6 20.5v593q0 15 -5.5 20.5t-23.5 8.5l-43 5v34h168z" />
    <glyph glyph-name="q" unicode="q" horiz-adv-x="636" 
d="M448 267q0 63 -12 105.5t-32.5 68t-46.5 36.5t-54 11q-66 0 -107 -58.5t-41 -162.5q0 -52 10.5 -93t29.5 -69.5t45 -43.5t58 -15q25 0 52 11t48.5 37t35.5 68t14 105zM439 11q0 25 0.5 44t1.5 39h-1q-24 -44 -66 -75.5t-107 -31.5q-47 0 -86.5 20.5t-68.5 57t-45.5 88
t-16.5 114.5q0 64 18.5 115.5t50 88t74.5 56.5t92 20q57 0 99.5 -26t66.5 -63h2l25 80h62l-3 -182v-479q0 -16 6.5 -20.5t23.5 -6.5l41 -4v-35h-264v35l65 4q17 2 23.5 6.5t6.5 21.5v133z" />
    <glyph glyph-name="r" unicode="r" horiz-adv-x="449" 
d="M228 426h2q20 52 61.5 84.5t100.5 32.5h51v-92h-85q-32 0 -56 -7t-40.5 -24t-24.5 -44.5t-8 -68.5v-240q0 -16 6.5 -21t23.5 -6l84 -4v-36h-284v35l43 4q17 2 23 6.5t6 20.5v404q0 15 -5.5 20.5t-23.5 8.5l-43 5v34h168z" />
    <glyph glyph-name="s" unicode="s" horiz-adv-x="546" 
d="M144 169q6 -61 42.5 -95.5t99.5 -34.5q59 0 95.5 25.5t36.5 65.5q0 22 -10 38.5t-28 28.5t-42.5 20t-53.5 14l-65 12q-32 7 -60.5 19.5t-49.5 31.5t-33.5 44.5t-12.5 58.5q0 36 16 64t44.5 47t66.5 29t82 10q41 0 78.5 -10t67 -29.5t49 -48.5t25.5 -68h-95
q-5 50 -42.5 76.5t-91.5 26.5q-20 0 -40.5 -4.5t-37.5 -14.5t-28 -24.5t-11 -35.5q0 -36 28.5 -57.5t76.5 -31.5l61 -12q38 -8 72.5 -19.5t60.5 -30.5t41.5 -46t15.5 -64q0 -42 -17 -73.5t-47 -52t-70.5 -31t-86.5 -10.5q-54 0 -96.5 13.5t-71.5 37.5t-45.5 57.5t-19.5 73.5
h96v0z" />
    <glyph glyph-name="t" unicode="t" horiz-adv-x="403" 
d="M371 481h-160v-337q0 -26 3.5 -42t12.5 -25t23.5 -12t36.5 -3h79v-62h-101q-44 0 -73.5 5t-47 20t-24.5 41.5t-7 68.5v346h-97v57h97v174h98v-174h160v-57z" />
    <glyph glyph-name="u" unicode="u" horiz-adv-x="616" 
d="M412 91h-2q-23 -48 -63.5 -76t-103.5 -28q-47 0 -76.5 16.5t-46 42.5t-23 59t-6.5 66v299q0 15 -5 20.5t-24 8.5l-43 5v34h171l-1 -114v-224q0 -78 21 -114.5t77 -36.5q21 0 43 9t40 29.5t29.5 52t11.5 76.5v254q0 15 -5.5 20.5t-23.5 8.5l-43 5v34h171l-1 -114v-352
q0 -17 6.5 -21t23.5 -6l41 -5v-33l-166 -14z" />
    <glyph glyph-name="v" unicode="v" horiz-adv-x="540" 
d="M60 468q-5 17 -11.5 24t-25.5 9l-27 2v35h231v-35l-37 -3q-18 -2 -23.5 -7t-0.5 -22l115 -347l114 311q5 14 9 26t3 20.5t-7.5 13.5t-22.5 6l-29 2v35h196v-35l-28 -2q-11 -1 -18.5 -3.5t-13 -8.5t-10.5 -16.5t-11 -25.5l-173 -448h-55z" />
    <glyph glyph-name="w" unicode="w" horiz-adv-x="778" 
d="M638 435q8 29 7.5 46.5t-27.5 19.5l-29 2v35h193v-35l-28 -2q-20 -1 -30.5 -11.5t-19.5 -42.5l-131 -448h-62l-128 403l-130 -403h-57l-136 469q-5 17 -11 24t-22 9l-31 2v35h229v-35l-36 -3q-18 -2 -23 -7.5t-2 -18.5l83 -336l125 400h57l129 -400z" />
    <glyph glyph-name="x" unicode="x" horiz-adv-x="632" 
d="M269 265l-153 202q-14 18 -23 25t-26 9l-28 2v35h242v-35l-32 -2q-23 -2 -26 -9.5t10 -22.5l97 -130l88 107q23 28 25 40t-22 14l-36 3v35h209v-35l-23 -2q-12 -1 -21.5 -4t-19 -10t-20.5 -19t-26 -30l-119 -144l169 -223q14 -18 23 -25t26 -9l28 -2v-35h-243v35l32 2
q23 2 26.5 9.5t-9.5 22.5l-114 150l-105 -127q-23 -28 -25 -40t24 -14l36 -3v-35h-211v35l24 2q12 1 21.5 4t19 10t20.5 19t26 30z" />
    <glyph glyph-name="y" unicode="y" horiz-adv-x="552" 
d="M42 -189v65h74q21 0 35.5 3t26.5 14.5t23 35t25 64.5l6 17l-172 458q-6 18 -12.5 24.5t-26.5 8.5l-25 2v35h236v-35l-39 -3q-18 -2 -24 -7.5t-2 -18.5l121 -365l117 326q12 34 11.5 48.5t-31.5 17.5l-32 2v35h203v-35l-27 -2q-20 -2 -31 -14t-22 -36l-179 -463
q-23 -61 -40.5 -96.5t-36.5 -53.5t-44 -22.5t-64 -4.5h-70z" />
    <glyph glyph-name="z" unicode="z" horiz-adv-x="545" 
d="M52 55l325 426h-298v57h413v-53l-325 -428h327v-57h-442v55z" />
    <glyph glyph-name="braceleft" unicode="{" horiz-adv-x="301" 
d="M245 -189q-46 0 -74.5 7t-44.5 22t-22 38t-6 56v212q0 20 -2.5 39.5t-11 34.5t-24 24t-42.5 9v53q27 0 42.5 9t24 24t11 34.5t2.5 39.5v208q0 33 6 56.5t22 38.5t44.5 22t74.5 7h44v-49h-13q-27 0 -43 -4.5t-24.5 -14.5t-11 -26t-2.5 -40v-188q0 -36 -7 -61t-19.5 -41
t-31 -25.5t-41.5 -14.5v-3q23 -5 41.5 -14.5t31 -25.5t19.5 -41t7 -61v-192q0 -23 2.5 -39t11 -26t24.5 -14.5t43 -4.5h13v-49h-44v0z" />
    <glyph glyph-name="bar" unicode="|" horiz-adv-x="259" 
d="M94 -90v815h72v-815h-72z" />
    <glyph glyph-name="braceright" unicode="}" horiz-adv-x="301" 
d="M12 -189v49h13q27 0 43 4.5t24.5 14.5t11 26t2.5 39v192q0 36 6.5 61t19.5 41t31.5 25.5t41.5 14.5v3q-23 5 -41.5 14.5t-31.5 25.5t-19.5 41t-6.5 61v188q0 24 -2.5 40t-11 26t-24.5 14.5t-43 4.5h-13v49h44q46 0 74.5 -7t44.5 -22t22 -38.5t6 -56.5v-208
q0 -20 2.5 -39.5t11 -34.5t24 -24t42.5 -9v-53q-27 0 -42.5 -9t-24 -24t-11 -34.5t-2.5 -39.5v-212q0 -33 -6 -56t-22 -38t-44.5 -22t-74.5 -7h-44z" />
    <glyph glyph-name="uni00A0" unicode="&#xa0;" horiz-adv-x="280" 
 />
    <glyph glyph-name="exclamdown" unicode="&#xa1;" horiz-adv-x="310" 
d="M100 -188v198l35 323h41l35 -325v-196h-111zM90 538h130v-129h-130v129z" />
    <glyph glyph-name="sterling" unicode="&#xa3;" horiz-adv-x="617" 
d="M433 405v-45h-185q9 -22 15 -44.5t6 -47.5q0 -34 -10.5 -60t-28 -46.5t-39.5 -36t-45 -27.5l1 -2q21 9 40 13.5t41 4.5q29 0 52.5 -7t46 -15.5t46.5 -15.5t53 -7q34 0 66.5 9t61.5 21l30 -80q-23 -13 -66 -24t-85 -11q-32 0 -59 6t-53 13.5t-52 14t-55 6.5
q-36 0 -77.5 -12t-81.5 -29l-31 73q24 9 49.5 24t46.5 38.5t34.5 56.5t13.5 79q0 29 -7 55t-17 51h-119v45h100q-16 35 -29 71.5t-13 79.5q0 51 22.5 86.5t58.5 57.5t81.5 32t90.5 10q61 0 108 -17.5t79.5 -47.5t50.5 -71t21 -87h-97q0 36 -11 67t-32 54.5t-51 36.5t-69 13
q-27 0 -54 -6t-48 -21t-34.5 -40.5t-13.5 -64.5q0 -45 13.5 -81.5t29.5 -71.5h205z" />
    <glyph glyph-name="yen" unicode="&#xa5;" horiz-adv-x="686" 
d="M391 132v-64q0 -14 6.5 -20t23.5 -8l74 -4v-36h-309v36l74 4q17 2 23.5 8t6.5 20v64h-111v51h111v80h-111v51h93l-189 332q-11 21 -21.5 30t-37.5 11l-26 3v35h285v-35l-59 -4q-18 -2 -26 -11t3 -31l162 -297l168 292q14 26 6 35.5t-27 11.5l-59 4v35h237v-35l-27 -3
q-12 -1 -20.5 -3.5t-15.5 -8t-13 -15t-13 -22.5l-196 -324h106v-51h-118v-80h118v-51h-118z" />
    <glyph glyph-name="dieresis" unicode="&#xa8;" horiz-adv-x="376" 
d="M26 745h98v-125h-98v125zM251 745h98v-125h-98v125z" />
    <glyph glyph-name="copyright" unicode="&#xa9;" horiz-adv-x="846" 
d="M48 361q0 83 29.5 152.5t80.5 119t119.5 77t146.5 27.5q77 0 145 -27.5t119 -77t80.5 -119t29.5 -152.5t-29.5 -152t-80.5 -118.5t-119 -76.5t-145 -27q-78 0 -146.5 27t-119.5 76.5t-80.5 118.5t-29.5 152zM112 361q0 -71 24 -129t66 -100t99 -65t123 -23t122.5 23
t98.5 65t65.5 100t23.5 129t-23.5 129.5t-65.5 100.5t-98.5 65t-122.5 23t-123 -23t-99 -65t-66 -100.5t-24 -129.5zM420 214q18 0 36 4.5t33.5 14t27 24.5t17.5 36l62 -18q-8 -24 -22.5 -45t-36.5 -37.5t-51 -26t-66 -9.5q-88 0 -136.5 55.5t-48.5 153.5q0 97 51.5 151
t138.5 54q71 0 112.5 -35t55.5 -88l-61 -20q-10 42 -41.5 63.5t-70.5 21.5q-24 0 -45.5 -9t-38 -27.5t-26 -46t-9.5 -64.5t9.5 -65t26 -47.5t38 -29.5t45.5 -10z" />
    <glyph glyph-name="guillemotleft" unicode="&#xab;" horiz-adv-x="487" 
d="M6 273l203 234h49l-133 -234l133 -235h-49zM211 273l203 234h49l-133 -234l133 -235h-49z" />
    <glyph glyph-name="uni00AD" unicode="&#xad;" horiz-adv-x="329" 
d="M24 321h281v-88h-281v88z" />
    <glyph glyph-name="macron" unicode="&#xaf;" horiz-adv-x="328" 
d="M26 633v69h275v-69h-275z" />
    <glyph glyph-name="degree" unicode="&#xb0;" horiz-adv-x="346" 
d="M24 589q0 31 11.5 58.5t32 47.5t47.5 31.5t57 11.5q31 0 58.5 -11.5t47.5 -31.5t32 -47.5t12 -58.5t-12 -58t-32 -47.5t-47.5 -32t-58.5 -11.5q-30 0 -57 11.5t-47.5 32t-32 47.5t-11.5 58zM92 589q0 -38 21.5 -64t58.5 -26q38 0 60.5 26t22.5 64t-22.5 64t-60.5 26
q-37 0 -58.5 -26t-21.5 -64z" />
    <glyph glyph-name="acute" unicode="&#xb4;" horiz-adv-x="271" 
d="M70 603h-44l86 142h132z" />
    <glyph glyph-name="periodcentered" unicode="&#xb7;" horiz-adv-x="298" 
d="M84 343h130v-129h-130v129z" />
    <glyph glyph-name="cedilla" unicode="&#xb8;" horiz-adv-x="264" 
d="M113 3h48l-37 -53q51 10 82 -13t31 -64q0 -21 -10 -38t-26 -28.5t-37.5 -18t-43.5 -6.5q-25 0 -46.5 4t-47.5 15l16 37q29 -13 64 -13q23 0 42.5 9.5t19.5 33.5q0 20 -15 29t-32 9q-11 0 -23 -2.5t-21 -7.5l-20 19z" />
    <glyph glyph-name="guillemotright" unicode="&#xbb;" horiz-adv-x="487" 
d="M74 38h-50l134 235l-134 234h50l203 -234zM278 38h-50l134 235l-134 234h50l203 -234z" />
    <glyph glyph-name="questiondown" unicode="&#xbf;" horiz-adv-x="537" 
d="M271 -148q43 0 75.5 13.5t54 36.5t31.5 55t7 70h95q3 -58 -17 -101t-56 -71t-86.5 -41.5t-109.5 -13.5q-54 0 -98.5 11t-77 31.5t-50 49t-17.5 63.5t12 61.5t34 48.5t52.5 42t66.5 41q29 18 48.5 34t31.5 34t17.5 39.5t5.5 50.5v34h60v-39q0 -44 -6.5 -76t-21 -56.5
t-37.5 -44t-56 -38.5q-47 -28 -75.5 -58.5t-28.5 -74.5q0 -47 39 -74t107 -27zM251 538h130v-129h-130v129z" />
    <glyph glyph-name="Agrave" unicode="&#xc0;" 
d="M325 729h74l251 -646q9 -23 18.5 -33.5t37.5 -12.5l22 -2v-35h-272v35l48 3q31 2 38.5 11.5t-2.5 34.5l-53 139h-291l-44 -117q-16 -41 -9 -53.5t39 -14.5l43 -3v-35h-229v35l23 2q15 1 24 5t16 13t13.5 24t15.5 39zM218 281h247l-124 325zM150 890h132l109 -117h-64z
" />
    <glyph glyph-name="Aacute" unicode="&#xc1;" 
d="M325 729h74l251 -646q9 -23 18.5 -33.5t37.5 -12.5l22 -2v-35h-272v35l48 3q31 2 38.5 11.5t-2.5 34.5l-53 139h-291l-44 -117q-16 -41 -9 -53.5t39 -14.5l43 -3v-35h-229v35l23 2q15 1 24 5t16 13t13.5 24t15.5 39zM218 281h247l-124 325zM396 773h-66l110 117h131z" />
    <glyph glyph-name="Acircumflex" unicode="&#xc2;" 
d="M325 729h74l251 -646q9 -23 18.5 -33.5t37.5 -12.5l22 -2v-35h-272v35l48 3q31 2 38.5 11.5t-2.5 34.5l-53 139h-291l-44 -117q-16 -41 -9 -53.5t39 -14.5l43 -3v-35h-229v35l23 2q15 1 24 5t16 13t13.5 24t15.5 39zM218 281h247l-124 325zM533 773h-70l-103 58l-104 -58
h-71l135 117h81z" />
    <glyph glyph-name="Atilde" unicode="&#xc3;" 
d="M325 729h74l251 -646q9 -23 18.5 -33.5t37.5 -12.5l22 -2v-35h-272v35l48 3q31 2 38.5 11.5t-2.5 34.5l-53 139h-291l-44 -117q-16 -41 -9 -53.5t39 -14.5l43 -3v-35h-229v35l23 2q15 1 24 5t16 13t13.5 24t15.5 39zM218 281h247l-124 325zM430 840q24 0 35.5 12.5
t15.5 36.5h62q-10 -57 -38.5 -86t-70.5 -29q-23 0 -42.5 8t-37 17t-33 17t-29.5 8q-22 0 -33.5 -13t-16.5 -37h-60q8 61 39 88t70 27q23 0 42 -7.5t35.5 -17t31.5 -17t30 -7.5z" />
    <glyph glyph-name="Adieresis" unicode="&#xc4;" 
d="M325 729h74l251 -646q9 -23 18.5 -33.5t37.5 -12.5l22 -2v-35h-272v35l48 3q31 2 38.5 11.5t-2.5 34.5l-53 139h-291l-44 -117q-16 -41 -9 -53.5t39 -14.5l43 -3v-35h-229v35l23 2q15 1 24 5t16 13t13.5 24t15.5 39zM218 281h247l-124 325zM200 890h98v-117h-98v117z
M425 890h98v-117h-98v117z" />
    <glyph glyph-name="Aring" unicode="&#xc5;" 
d="M325 729h74l251 -646q9 -23 18.5 -33.5t37.5 -12.5l22 -2v-35h-272v35l48 3q31 2 38.5 11.5t-2.5 34.5l-53 139h-291l-44 -117q-16 -41 -9 -53.5t39 -14.5l43 -3v-35h-229v35l23 2q15 1 24 5t16 13t13.5 24t15.5 39zM218 281h247l-124 325zM360 943q19 0 36 -6.5
t29.5 -18t20 -27.5t7.5 -35q0 -38 -27 -63t-66 -25q-40 0 -67 25t-27 63q0 19 7.5 35t20.5 27.5t30 18t36 6.5zM360 900q-18 0 -31.5 -12.5t-13.5 -31.5q0 -20 13.5 -32t31.5 -12q17 0 30.5 12t13.5 32q0 19 -13.5 31.5t-30.5 12.5z" />
    <glyph glyph-name="AE" unicode="&#xc6;" horiz-adv-x="1051" 
d="M980 725v-217h-38l-15 86q-5 28 -11 44t-19 24t-34.5 9.5t-55.5 1.5h-210v-271h286v-56h-286v-294h219q34 0 55.5 1.5t34 9t19 24t11.5 45.5l14 85h38v-217h-579v36l53 4q17 1 23.5 7t6.5 20v156h-253l-74 -117q-14 -22 -21 -35t-7 -20t6.5 -9.5t18.5 -3.5l46 -3v-35
h-225v35l16 2q15 1 26.5 4t22.5 11t23.5 23.5t29.5 42.5l390 607h489zM276 281h216v337z" />
    <glyph glyph-name="Ccedilla" unicode="&#xc7;" horiz-adv-x="753" 
d="M351 3h48l-37 -53q48 9 78 -13t30 -64q0 -21 -9.5 -37.5t-25 -28.5t-36.5 -18.5t-44 -6.5q-24 0 -42.5 3.5t-43.5 14.5l15 36q12 -7 28 -10t33 -3q25 0 42.5 10t17.5 35q0 20 -14.5 29t-30.5 9q-28 0 -45 -10l-21 19zM46 366q0 86 25 155.5t70.5 118.5t110 75.5
t143.5 26.5q60 0 112.5 -15.5t94.5 -45.5t71 -74.5t40 -102.5l-107 -1q-11 89 -65 137t-145 48q-108 0 -172 -83t-64 -239q0 -77 16.5 -137.5t46.5 -102t73.5 -63.5t97.5 -22q94 0 148.5 47.5t66.5 137.5l107 -1q-12 -59 -41 -103.5t-72 -74.5t-96 -45t-113 -15
q-82 0 -146.5 27.5t-109.5 77t-68.5 119.5t-23.5 155z" />
    <glyph glyph-name="Egrave" unicode="&#xc8;" horiz-adv-x="699" 
d="M164 890h132l109 -117h-64zM627 725v-217h-38l-14 86q-5 28 -11.5 44t-19 24t-34 9.5t-55.5 1.5h-211v-271h286v-56h-286v-294h220q34 0 55 1.5t33.5 9t19 24t11.5 45.5l15 85h38v-217h-580v36l54 4q17 1 23 7t6 20v591q0 14 -6 20t-23 8l-54 4v35h571z" />
    <glyph glyph-name="Eacute" unicode="&#xc9;" horiz-adv-x="699" 
d="M627 725v-217h-38l-14 86q-5 28 -11.5 44t-19 24t-34 9.5t-55.5 1.5h-211v-271h286v-56h-286v-294h220q34 0 55 1.5t33.5 9t19 24t11.5 45.5l15 85h38v-217h-580v36l54 4q17 1 23 7t6 20v591q0 14 -6 20t-23 8l-54 4v35h571zM384 773h-66l110 117h131z" />
    <glyph glyph-name="Ecircumflex" unicode="&#xca;" horiz-adv-x="699" 
d="M535 773h-70l-103 58l-104 -58h-71l135 117h81zM627 725v-217h-38l-14 86q-5 28 -11.5 44t-19 24t-34 9.5t-55.5 1.5h-211v-271h286v-56h-286v-294h220q34 0 55 1.5t33.5 9t19 24t11.5 45.5l15 85h38v-217h-580v36l54 4q17 1 23 7t6 20v591q0 14 -6 20t-23 8l-54 4v35
h571z" />
    <glyph glyph-name="Edieresis" unicode="&#xcb;" horiz-adv-x="699" 
d="M627 725v-217h-38l-14 86q-5 28 -11.5 44t-19 24t-34 9.5t-55.5 1.5h-211v-271h286v-56h-286v-294h220q34 0 55 1.5t33.5 9t19 24t11.5 45.5l15 85h38v-217h-580v36l54 4q17 1 23 7t6 20v591q0 14 -6 20t-23 8l-54 4v35h571zM200 890h98v-117h-98v117zM425 890h98v-117
h-98v117z" />
    <glyph glyph-name="Igrave" unicode="&#xcc;" horiz-adv-x="383" 
d="M327 0h-271v36l54 4q17 1 23 7t6 20v591q0 14 -6 20t-23 8l-54 4v35h271v-35l-54 -4q-17 -2 -23 -8t-6 -20v-591q0 -14 6 -20t23 -7l54 -4v-36zM4 890h132l109 -117h-64z" />
    <glyph glyph-name="Iacute" unicode="&#xcd;" horiz-adv-x="383" 
d="M327 0h-271v36l54 4q17 1 23 7t6 20v591q0 14 -6 20t-23 8l-54 4v35h271v-35l-54 -4q-17 -2 -23 -8t-6 -20v-591q0 -14 6 -20t23 -7l54 -4v-36zM209 773h-66l110 117h131z" />
    <glyph glyph-name="Icircumflex" unicode="&#xce;" horiz-adv-x="383" 
d="M327 0h-271v36l54 4q17 1 23 7t6 20v591q0 14 -6 20t-23 8l-54 4v35h271v-35l-54 -4q-17 -2 -23 -8t-6 -20v-591q0 -14 6 -20t23 -7l54 -4v-36zM367 773h-70l-103 58l-104 -58h-71l135 117h81z" />
    <glyph glyph-name="Idieresis" unicode="&#xcf;" horiz-adv-x="383" 
d="M327 0h-271v36l54 4q17 1 23 7t6 20v591q0 14 -6 20t-23 8l-54 4v35h271v-35l-54 -4q-17 -2 -23 -8t-6 -20v-591q0 -14 6 -20t23 -7l54 -4v-36zM30 890h98v-117h-98v117zM255 890h98v-117h-98v117z" />
    <glyph glyph-name="Eth" unicode="&#xd0;" horiz-adv-x="781" 
d="M735 363q0 -102 -32.5 -171.5t-89.5 -112.5t-135 -61.5t-169 -18.5h-137q-53 0 -116 1v36l54 4q17 1 23 7t6 20v279h-110v58h110v254q0 14 -6 20t-23 8l-54 4v35h115h44.5t41 0.5t32.5 0.5h20q91 0 169 -18.5t135 -61.5t89.5 -112t32.5 -171zM622 363q0 95 -24.5 155
t-67 94.5t-99 47.5t-120.5 13h-67v-269h154v-58h-154v-294h67q64 0 120.5 13t99 47.5t67 95t24.5 155.5z" />
    <glyph glyph-name="Ntilde" unicode="&#xd1;" horiz-adv-x="812" 
d="M478 840q24 0 35.5 12.5t15.5 36.5h62q-10 -57 -38.5 -86t-70.5 -29q-23 0 -42.5 8t-37 17t-33 17t-29.5 8q-22 0 -33.5 -13t-16.5 -37h-60q8 61 39 88t70 27q23 0 42 -7.5t35.5 -17t31.5 -17t30 -7.5zM694 -7h-61l-432 602v-512q0 -26 7.5 -34.5t34.5 -10.5l42 -2v-36
h-229v36l40 2q14 1 22.5 3t13 7.5t6 13.5t1.5 21v574q0 13 -6 20t-23 9l-54 4v35h177l398 -557v474q0 26 -6.5 34.5t-34.5 10.5l-42 2v36h230v-36l-42 -2q-27 -2 -34.5 -10.5t-7.5 -34.5v-649z" />
    <glyph glyph-name="Ograve" unicode="&#xd2;" horiz-adv-x="796" 
d="M186 890h132l109 -117h-64zM398 -13q-80 0 -144.5 26.5t-111 76t-71.5 119.5t-25 156t26 155.5t72.5 119t111.5 76t143 26.5t142.5 -25.5t111 -74.5t72.5 -119t26 -158q0 -89 -26 -159t-73 -118.5t-111.5 -74.5t-142.5 -26zM637 365q0 155 -64 239t-174 84
q-55 0 -99.5 -21.5t-75.5 -63t-47.5 -101.5t-16.5 -137q0 -156 64 -240t175 -84q110 0 174 84t64 240z" />
    <glyph glyph-name="Oacute" unicode="&#xd3;" horiz-adv-x="796" 
d="M423 773h-66l110 117h131zM398 -13q-80 0 -144.5 26.5t-111 76t-71.5 119.5t-25 156t26 155.5t72.5 119t111.5 76t143 26.5t142.5 -25.5t111 -74.5t72.5 -119t26 -158q0 -89 -26 -159t-73 -118.5t-111.5 -74.5t-142.5 -26zM637 365q0 155 -64 239t-174 84
q-55 0 -99.5 -21.5t-75.5 -63t-47.5 -101.5t-16.5 -137q0 -156 64 -240t175 -84q110 0 174 84t64 240z" />
    <glyph glyph-name="Ocircumflex" unicode="&#xd4;" horiz-adv-x="796" 
d="M571 773h-70l-103 58l-104 -58h-71l135 117h81zM398 -13q-80 0 -144.5 26.5t-111 76t-71.5 119.5t-25 156t26 155.5t72.5 119t111.5 76t143 26.5t142.5 -25.5t111 -74.5t72.5 -119t26 -158q0 -89 -26 -159t-73 -118.5t-111.5 -74.5t-142.5 -26zM637 365q0 155 -64 239
t-174 84q-55 0 -99.5 -21.5t-75.5 -63t-47.5 -101.5t-16.5 -137q0 -156 64 -240t175 -84q110 0 174 84t64 240z" />
    <glyph glyph-name="Otilde" unicode="&#xd5;" horiz-adv-x="796" 
d="M398 -13q-80 0 -144.5 26.5t-111 76t-71.5 119.5t-25 156t26 155.5t72.5 119t111.5 76t143 26.5t142.5 -25.5t111 -74.5t72.5 -119t26 -158q0 -89 -26 -159t-73 -118.5t-111.5 -74.5t-142.5 -26zM637 365q0 155 -64 239t-174 84q-55 0 -99.5 -21.5t-75.5 -63
t-47.5 -101.5t-16.5 -137q0 -156 64 -240t175 -84q110 0 174 84t64 240zM457 840q24 0 35.5 12.5t15.5 36.5h62q-10 -57 -38.5 -86t-70.5 -29q-23 0 -42.5 8t-37 17t-33 17t-29.5 8q-22 0 -33.5 -13t-16.5 -37h-60q8 61 39 88t70 27q23 0 42 -7.5t35.5 -17t31.5 -17t30 -7.5
z" />
    <glyph glyph-name="Odieresis" unicode="&#xd6;" horiz-adv-x="796" 
d="M398 -13q-80 0 -144.5 26.5t-111 76t-71.5 119.5t-25 156t26 155.5t72.5 119t111.5 76t143 26.5t142.5 -25.5t111 -74.5t72.5 -119t26 -158q0 -89 -26 -159t-73 -118.5t-111.5 -74.5t-142.5 -26zM637 365q0 155 -64 239t-174 84q-55 0 -99.5 -21.5t-75.5 -63
t-47.5 -101.5t-16.5 -137q0 -156 64 -240t175 -84q110 0 174 84t64 240zM239 890h98v-117h-98v117zM464 890h98v-117h-98v117z" />
    <glyph glyph-name="multiply" unicode="&#xd7;" horiz-adv-x="706" 
d="M538 38l-186 186l-185 -185l-49 49l185 186l-185 185l49 49l185 -185l185 185l49 -49l-184 -185l186 -187z" />
    <glyph glyph-name="Oslash" unicode="&#xd8;" horiz-adv-x="796" 
d="M751 365q0 -89 -26 -159t-73 -118.5t-111.5 -74.5t-142.5 -26q-136 0 -226 75l-71 -86l-39 33l73 89q-43 49 -66 116t-23 151q0 86 26 155.5t72.5 119t111.5 76t143 26.5q126 0 215 -66l65 78l40 -30l-67 -82q47 -49 73 -118.5t26 -158.5zM637 365q0 63 -11.5 115
t-32.5 91l-369 -446q64 -84 175 -84q110 0 174 84t64 240zM160 365q0 -59 9.5 -107t27.5 -86l367 443q-62 73 -165 73q-55 0 -99.5 -21.5t-75.5 -63t-47.5 -101.5t-16.5 -137z" />
    <glyph glyph-name="Ugrave" unicode="&#xd9;" horiz-adv-x="797" 
d="M216 890h132l109 -117h-64zM409 -13q-87 0 -144.5 21t-92 58.5t-48.5 90t-14 115.5v386q0 14 -6 20t-23 8l-55 4v35h272v-35l-54 -4q-17 -2 -23 -8t-6 -20v-376q0 -108 46 -167t154 -59q109 0 161.5 55t52.5 175v356q0 26 -7.5 34.5t-34.5 10.5l-42 3v35h232v-35l-41 -3
q-27 -2 -34.5 -10.5t-7.5 -34.5v-355q0 -66 -14.5 -121t-47.5 -94.5t-87.5 -62t-135.5 -22.5z" />
    <glyph glyph-name="Uacute" unicode="&#xda;" horiz-adv-x="797" 
d="M409 -13q-87 0 -144.5 21t-92 58.5t-48.5 90t-14 115.5v386q0 14 -6 20t-23 8l-55 4v35h272v-35l-54 -4q-17 -2 -23 -8t-6 -20v-376q0 -108 46 -167t154 -59q109 0 161.5 55t52.5 175v356q0 26 -7.5 34.5t-34.5 10.5l-42 3v35h232v-35l-41 -3q-27 -2 -34.5 -10.5
t-7.5 -34.5v-355q0 -66 -14.5 -121t-47.5 -94.5t-87.5 -62t-135.5 -22.5zM452 773h-66l110 117h131z" />
    <glyph glyph-name="Ucircumflex" unicode="&#xdb;" horiz-adv-x="797" 
d="M595 773h-70l-103 58l-104 -58h-71l135 117h81zM409 -13q-87 0 -144.5 21t-92 58.5t-48.5 90t-14 115.5v386q0 14 -6 20t-23 8l-55 4v35h272v-35l-54 -4q-17 -2 -23 -8t-6 -20v-376q0 -108 46 -167t154 -59q109 0 161.5 55t52.5 175v356q0 26 -7.5 34.5t-34.5 10.5l-42 3
v35h232v-35l-41 -3q-27 -2 -34.5 -10.5t-7.5 -34.5v-355q0 -66 -14.5 -121t-47.5 -94.5t-87.5 -62t-135.5 -22.5z" />
    <glyph glyph-name="Udieresis" unicode="&#xdc;" horiz-adv-x="797" 
d="M409 -13q-87 0 -144.5 21t-92 58.5t-48.5 90t-14 115.5v386q0 14 -6 20t-23 8l-55 4v35h272v-35l-54 -4q-17 -2 -23 -8t-6 -20v-376q0 -108 46 -167t154 -59q109 0 161.5 55t52.5 175v356q0 26 -7.5 34.5t-34.5 10.5l-42 3v35h232v-35l-41 -3q-27 -2 -34.5 -10.5
t-7.5 -34.5v-355q0 -66 -14.5 -121t-47.5 -94.5t-87.5 -62t-135.5 -22.5zM260 890h98v-117h-98v117zM485 890h98v-117h-98v117z" />
    <glyph glyph-name="Yacute" unicode="&#xdd;" horiz-adv-x="678" 
d="M285 283l-207 363q-11 21 -21.5 30t-37.5 11l-26 3v35h288v-35l-59 -4q-19 -2 -26.5 -11t3.5 -31l162 -297l167 292q15 26 7 35.5t-27 11.5l-59 4v35h236v-35l-26 -3q-13 -1 -21 -3.5t-15 -8t-13 -15t-14 -22.5l-208 -345v-225q0 -14 6.5 -20t24.5 -8l74 -4v-36h-312v36
l74 4q17 2 23.5 8t6.5 20v215zM394 773h-66l110 117h131z" />
    <glyph glyph-name="Thorn" unicode="&#xde;" horiz-adv-x="629" 
d="M327 210q100 0 147 41.5t47 124.5q0 82 -47 122t-147 40h-83v-328h83zM321 591q69 0 126.5 -10.5t98.5 -35.5t64 -66t23 -101t-23 -102.5t-64 -68.5t-98.5 -38t-126.5 -12h-77v-90q0 -12 6 -19.5t23 -8.5l75 -4v-35h-292v36l54 4q17 1 23 7t6 20v591q0 14 -6 20t-23 8
l-54 4v35h292v-35l-75 -4q-17 -1 -23 -8.5t-6 -19.5v-67h77z" />
    <glyph glyph-name="germandbls" unicode="&#xdf;" horiz-adv-x="698" 
d="M112 520q0 121 66.5 177t183.5 56q59 0 102.5 -13.5t72.5 -36.5t43 -55.5t14 -69.5t-13 -64.5t-33 -47.5t-44.5 -32t-46.5 -18v-2q33 -4 68 -17.5t63 -37.5t46 -60.5t18 -85.5q0 -55 -18.5 -97.5t-52.5 -71t-80.5 -43t-101.5 -14.5q-42 0 -77.5 3.5t-64.5 8.5v85h2
q30 -17 66.5 -29t71.5 -12q33 0 60.5 10t47.5 30.5t31 52t11 75.5q0 42 -15.5 74t-43 53.5t-65 32t-81.5 10.5h-35v54h19q79 0 122.5 31t43.5 105q0 66 -38 98t-98 32q-79 0 -112.5 -45t-33.5 -147v-306l2 -203h-168v34l37 4q18 2 24.5 7.5t6.5 20.5v454z" />
    <glyph glyph-name="agrave" unicode="&#xe0;" horiz-adv-x="598" 
d="M412 97q-13 -24 -29 -44.5t-38 -35t-51 -22.5t-67 -8q-36 0 -66.5 10.5t-53.5 29.5t-36 46t-13 60q0 48 26.5 79.5t73 52t109.5 33t136 21.5v47q0 70 -28.5 101t-85.5 31q-32 0 -54 -9.5t-36 -27t-21 -41t-9 -50.5h-95q3 39 20 72t45.5 56t67.5 36t85 13q49 0 88.5 -10
t67 -33.5t41 -63t12.5 -98.5q-1 -27 -1.5 -60t-0.5 -72v-69.5t2 -69.5q1 -16 6.5 -20t22.5 -6l42 -5v-35l-153 -9l-5 101h-2zM407 269q-50 -6 -94.5 -13t-77.5 -20.5t-52 -37t-19 -62.5q0 -40 25.5 -65t72.5 -25q30 0 56.5 9.5t46 31.5t31 58.5t11.5 91.5v32zM129 745h131
l87 -142h-43z" />
    <glyph glyph-name="aacute" unicode="&#xe1;" horiz-adv-x="598" 
d="M412 97q-13 -24 -29 -44.5t-38 -35t-51 -22.5t-67 -8q-36 0 -66.5 10.5t-53.5 29.5t-36 46t-13 60q0 48 26.5 79.5t73 52t109.5 33t136 21.5v47q0 70 -28.5 101t-85.5 31q-32 0 -54 -9.5t-36 -27t-21 -41t-9 -50.5h-95q3 39 20 72t45.5 56t67.5 36t85 13q49 0 88.5 -10
t67 -33.5t41 -63t12.5 -98.5q-1 -27 -1.5 -60t-0.5 -72v-69.5t2 -69.5q1 -16 6.5 -20t22.5 -6l42 -5v-35l-153 -9l-5 101h-2zM407 269q-50 -6 -94.5 -13t-77.5 -20.5t-52 -37t-19 -62.5q0 -40 25.5 -65t72.5 -25q30 0 56.5 9.5t46 31.5t31 58.5t11.5 91.5v32zM306 603h-44
l86 142h132z" />
    <glyph glyph-name="acircumflex" unicode="&#xe2;" horiz-adv-x="598" 
d="M412 97q-13 -24 -29 -44.5t-38 -35t-51 -22.5t-67 -8q-36 0 -66.5 10.5t-53.5 29.5t-36 46t-13 60q0 48 26.5 79.5t73 52t109.5 33t136 21.5v47q0 70 -28.5 101t-85.5 31q-32 0 -54 -9.5t-36 -27t-21 -41t-9 -50.5h-95q3 39 20 72t45.5 56t67.5 36t85 13q49 0 88.5 -10
t67 -33.5t41 -63t12.5 -98.5q-1 -27 -1.5 -60t-0.5 -72v-69.5t2 -69.5q1 -16 6.5 -20t22.5 -6l42 -5v-35l-153 -9l-5 101h-2zM407 269q-50 -6 -94.5 -13t-77.5 -20.5t-52 -37t-19 -62.5q0 -40 25.5 -65t72.5 -25q30 0 56.5 9.5t46 31.5t31 58.5t11.5 91.5v32zM462 603h-60
l-106 71l-108 -71h-60l141 142h56z" />
    <glyph glyph-name="atilde" unicode="&#xe3;" horiz-adv-x="598" 
d="M412 97q-13 -24 -29 -44.5t-38 -35t-51 -22.5t-67 -8q-36 0 -66.5 10.5t-53.5 29.5t-36 46t-13 60q0 48 26.5 79.5t73 52t109.5 33t136 21.5v47q0 70 -28.5 101t-85.5 31q-32 0 -54 -9.5t-36 -27t-21 -41t-9 -50.5h-95q3 39 20 72t45.5 56t67.5 36t85 13q49 0 88.5 -10
t67 -33.5t41 -63t12.5 -98.5q-1 -27 -1.5 -60t-0.5 -72v-69.5t2 -69.5q1 -16 6.5 -20t22.5 -6l42 -5v-35l-153 -9l-5 101h-2zM407 269q-50 -6 -94.5 -13t-77.5 -20.5t-52 -37t-19 -62.5q0 -40 25.5 -65t72.5 -25q30 0 56.5 9.5t46 31.5t31 58.5t11.5 91.5v32zM354 676
q24 0 36 13t16 36h61q-10 -56 -38 -85.5t-71 -29.5q-23 0 -42 8t-36.5 18t-32.5 18t-30 8q-23 0 -34 -14t-17 -38h-60q8 61 39.5 88t70.5 27q22 0 41.5 -7.5t36 -17t31.5 -17t29 -7.5z" />
    <glyph glyph-name="adieresis" unicode="&#xe4;" horiz-adv-x="598" 
d="M412 97q-13 -24 -29 -44.5t-38 -35t-51 -22.5t-67 -8q-36 0 -66.5 10.5t-53.5 29.5t-36 46t-13 60q0 48 26.5 79.5t73 52t109.5 33t136 21.5v47q0 70 -28.5 101t-85.5 31q-32 0 -54 -9.5t-36 -27t-21 -41t-9 -50.5h-95q3 39 20 72t45.5 56t67.5 36t85 13q49 0 88.5 -10
t67 -33.5t41 -63t12.5 -98.5q-1 -27 -1.5 -60t-0.5 -72v-69.5t2 -69.5q1 -16 6.5 -20t22.5 -6l42 -5v-35l-153 -9l-5 101h-2zM407 269q-50 -6 -94.5 -13t-77.5 -20.5t-52 -37t-19 -62.5q0 -40 25.5 -65t72.5 -25q30 0 56.5 9.5t46 31.5t31 58.5t11.5 91.5v32zM135 745h98
v-125h-98v125zM360 745h98v-125h-98v125z" />
    <glyph glyph-name="aring" unicode="&#xe5;" horiz-adv-x="598" 
d="M412 97q-13 -24 -29 -44.5t-38 -35t-51 -22.5t-67 -8q-36 0 -66.5 10.5t-53.5 29.5t-36 46t-13 60q0 48 26.5 79.5t73 52t109.5 33t136 21.5v47q0 70 -28.5 101t-85.5 31q-32 0 -54 -9.5t-36 -27t-21 -41t-9 -50.5h-95q3 39 20 72t45.5 56t67.5 36t85 13q49 0 88.5 -10
t67 -33.5t41 -63t12.5 -98.5q-1 -27 -1.5 -60t-0.5 -72v-69.5t2 -69.5q1 -16 6.5 -20t22.5 -6l42 -5v-35l-153 -9l-5 101h-2zM407 269q-50 -6 -94.5 -13t-77.5 -20.5t-52 -37t-19 -62.5q0 -40 25.5 -65t72.5 -25q30 0 56.5 9.5t46 31.5t31 58.5t11.5 91.5v32zM295 766
q19 0 36 -6.5t30 -18.5t20.5 -28t7.5 -35q0 -38 -27.5 -63t-66.5 -25q-40 0 -67 25t-27 63q0 19 7.5 35t20.5 28t30 18.5t36 6.5zM295 723q-17 0 -31 -13t-14 -32q0 -20 14 -32t31 -12t31 12t14 32q0 19 -14 32t-31 13z" />
    <glyph glyph-name="ae" unicode="&#xe6;" horiz-adv-x="943" 
d="M652 497q-59 0 -101.5 -45t-47.5 -135h291q0 48 -11 82t-30.5 55.5t-45.5 32t-55 10.5zM262 46q30 0 56.5 9.5t46 31.5t31 58.5t11.5 91.5v32q-50 -6 -94.5 -13t-77.5 -20.5t-52 -37t-19 -62.5q0 -40 25.5 -65t72.5 -25zM894 160q-8 -44 -30.5 -76t-55 -54t-72 -32.5
t-80.5 -10.5q-81 0 -136 36t-83 97q-31 -72 -83 -102.5t-127 -30.5q-36 0 -66.5 10.5t-53.5 29.5t-36 46t-13 60q0 48 26.5 79.5t73 52t109.5 33t136 21.5v47q0 70 -28.5 101t-85.5 31q-32 0 -54 -9.5t-36 -27t-21 -41t-9 -50.5h-95q3 39 20 72t45.5 56t67.5 36t85 13
q65 0 112 -17t72 -61q32 37 77 57.5t102 20.5q47 0 91 -16.5t78 -51t54 -88t20 -128.5h-397q1 -50 10.5 -91t29 -70.5t49.5 -46t72 -16.5q56 0 92 30t43 91h97z" />
    <glyph glyph-name="ccedilla" unicode="&#xe7;" horiz-adv-x="586" 
d="M49 267q0 61 18.5 112.5t52 89t80 58t103.5 20.5q42 0 81 -11t70.5 -33.5t53.5 -57t30 -80.5h-97q-5 66 -42.5 97.5t-91.5 31.5q-42 0 -71 -19t-47 -50.5t-26 -72.5t-8 -85t8 -85t26 -73t47 -51t71 -19q55 0 92.5 31.5t42.5 97.5h97q-8 -47 -29.5 -81t-53.5 -56
t-71.5 -33t-81.5 -11q-57 0 -103.5 21t-80 58t-52 88.5t-18.5 112.5zM287 3h48l-37 -53q51 10 82 -13t31 -64q0 -21 -10 -38t-26 -28.5t-37.5 -18t-43.5 -6.5q-25 0 -46.5 4t-47.5 15l16 37q29 -13 64 -13q23 0 42.5 9.5t19.5 33.5q0 20 -15 29t-32 9q-11 0 -23 -2.5
t-21 -7.5l-20 19z" />
    <glyph glyph-name="egrave" unicode="&#xe8;" horiz-adv-x="595" 
d="M313 39q56 0 92 30t43 91h97q-8 -44 -30.5 -76t-55 -54t-72 -32.5t-80.5 -10.5q-62 0 -110 21.5t-81 59t-50 88t-17 109.5q0 61 18.5 113t52.5 89.5t81.5 58.5t104.5 21q47 0 91 -16.5t78 -51t54 -88t20 -128.5h-397q1 -50 10.5 -91t29 -70.5t49.5 -46t72 -16.5zM303 497
q-60 0 -102 -44.5t-48 -135.5h292q0 48 -11 82t-30.5 55.5t-45.5 32t-55 10.5zM125 745h131l87 -142h-43z" />
    <glyph glyph-name="eacute" unicode="&#xe9;" horiz-adv-x="595" 
d="M315 603h-44l86 142h132zM313 39q56 0 92 30t43 91h97q-8 -44 -30.5 -76t-55 -54t-72 -32.5t-80.5 -10.5q-62 0 -110 21.5t-81 59t-50 88t-17 109.5q0 61 18.5 113t52.5 89.5t81.5 58.5t104.5 21q47 0 91 -16.5t78 -51t54 -88t20 -128.5h-397q1 -50 10.5 -91t29 -70.5
t49.5 -46t72 -16.5zM303 497q-60 0 -102 -44.5t-48 -135.5h292q0 48 -11 82t-30.5 55.5t-45.5 32t-55 10.5z" />
    <glyph glyph-name="ecircumflex" unicode="&#xea;" horiz-adv-x="595" 
d="M477 603h-60l-106 71l-108 -71h-60l141 142h56zM313 39q56 0 92 30t43 91h97q-8 -44 -30.5 -76t-55 -54t-72 -32.5t-80.5 -10.5q-62 0 -110 21.5t-81 59t-50 88t-17 109.5q0 61 18.5 113t52.5 89.5t81.5 58.5t104.5 21q47 0 91 -16.5t78 -51t54 -88t20 -128.5h-397
q1 -50 10.5 -91t29 -70.5t49.5 -46t72 -16.5zM303 497q-60 0 -102 -44.5t-48 -135.5h292q0 48 -11 82t-30.5 55.5t-45.5 32t-55 10.5z" />
    <glyph glyph-name="edieresis" unicode="&#xeb;" horiz-adv-x="595" 
d="M148 745h98v-125h-98v125zM373 745h98v-125h-98v125zM313 39q56 0 92 30t43 91h97q-8 -44 -30.5 -76t-55 -54t-72 -32.5t-80.5 -10.5q-62 0 -110 21.5t-81 59t-50 88t-17 109.5q0 61 18.5 113t52.5 89.5t81.5 58.5t104.5 21q47 0 91 -16.5t78 -51t54 -88t20 -128.5h-397
q1 -50 10.5 -91t29 -70.5t49.5 -46t72 -16.5zM303 497q-60 0 -102 -44.5t-48 -135.5h292q0 48 -11 82t-30.5 55.5t-45.5 32t-55 10.5z" />
    <glyph glyph-name="igrave" unicode="&#xec;" horiz-adv-x="336" 
d="M229 426v-360q0 -16 6.5 -20.5t23.5 -6.5l41 -4v-35h-241v35l43 4q17 2 23 6.5t6 20.5v404q0 15 -5.5 20.5t-23.5 8.5l-43 5v34h171zM-24 745h131l87 -142h-43z" />
    <glyph glyph-name="iacute" unicode="&#xed;" horiz-adv-x="336" 
d="M182 603h-44l86 142h132zM229 426v-360q0 -16 6.5 -20.5t23.5 -6.5l41 -4v-35h-241v35l43 4q17 2 23 6.5t6 20.5v404q0 15 -5.5 20.5t-23.5 8.5l-43 5v34h171z" />
    <glyph glyph-name="icircumflex" unicode="&#xee;" horiz-adv-x="336" 
d="M346 603h-60l-106 71l-108 -71h-60l141 142h56zM229 426v-360q0 -16 6.5 -20.5t23.5 -6.5l41 -4v-35h-241v35l43 4q17 2 23 6.5t6 20.5v404q0 15 -5.5 20.5t-23.5 8.5l-43 5v34h171z" />
    <glyph glyph-name="idieresis" unicode="&#xef;" horiz-adv-x="336" 
d="M18 745h98v-125h-98v125zM243 745h98v-125h-98v125zM229 426v-360q0 -16 6.5 -20.5t23.5 -6.5l41 -4v-35h-241v35l43 4q17 2 23 6.5t6 20.5v404q0 15 -5.5 20.5t-23.5 8.5l-43 5v34h171z" />
    <glyph glyph-name="eth" unicode="&#xf0;" horiz-adv-x="587" 
d="M193 689q-48 21 -102 36l13 36q32 -5 63.5 -12.5t62.5 -18.5l59 65l34 -30l-49 -53q56 -25 104.5 -61.5t84 -84t56 -106.5t20.5 -129q0 -171 -68.5 -257.5t-187.5 -86.5q-56 0 -100.5 20t-76 56t-48.5 87t-17 113q0 63 18 114t49.5 87.5t73.5 56t90 19.5q29 0 53 -8
t43.5 -21t34.5 -30.5t25 -36.5l2 1q-17 72 -68 128.5t-127 96.5l-70 -77l-32 30zM435 263q0 63 -12 105.5t-32 68.5t-45.5 37t-53.5 11q-32 0 -59 -15.5t-46.5 -44t-30 -70t-10.5 -92.5t10.5 -92.5t29.5 -71t45.5 -45t58.5 -15.5q26 0 52 11.5t46.5 38t33.5 69.5t13 105z
" />
    <glyph glyph-name="ntilde" unicode="&#xf1;" horiz-adv-x="657" 
d="M560 66q0 -16 6.5 -20.5t23.5 -6.5l42 -4v-35h-242v35l42 4q17 2 23.5 6.5t6.5 20.5v268q0 77 -23 114t-79 37q-22 0 -45.5 -9t-42.5 -29.5t-31 -52.5t-12 -77v-251q0 -16 6.5 -20.5t23.5 -6.5l41 -4v-35h-241v35l43 4q17 2 23 6.5t6 20.5v404q0 15 -5.5 20.5t-23.5 8.5
l-43 5v34h169v-95h1q24 47 67.5 75.5t106.5 28.5q47 0 77.5 -16.5t48 -42.5t24.5 -59.5t7 -66.5v-296zM416 676q24 0 36 13t16 36h61q-10 -56 -38 -85.5t-71 -29.5q-23 0 -42 8t-36.5 18t-32.5 18t-30 8q-23 0 -34 -14t-17 -38h-60q8 61 39.5 88t70.5 27q22 0 41.5 -7.5
t36 -17t31.5 -17t29 -7.5z" />
    <glyph glyph-name="ograve" unicode="&#xf2;" horiz-adv-x="612" 
d="M155 267q0 -59 11.5 -102.5t31.5 -71.5t48 -41.5t60 -13.5t59.5 13.5t48 41.5t32 71.5t11.5 102.5t-11.5 102.5t-32 71.5t-48 41.5t-59.5 13.5t-60 -13.5t-48 -41.5t-31.5 -71.5t-11.5 -102.5zM562 267q0 -63 -19.5 -115t-53.5 -88.5t-81 -56.5t-102 -20t-102 20
t-81 56.5t-53.5 88.5t-19.5 115t19.5 115t53.5 88.5t81 56.5t102 20t102 -20t81 -56.5t53.5 -88.5t19.5 -115zM108 745h131l87 -142h-43z" />
    <glyph glyph-name="oacute" unicode="&#xf3;" horiz-adv-x="612" 
d="M329 603h-44l86 142h132zM155 267q0 -59 11.5 -102.5t31.5 -71.5t48 -41.5t60 -13.5t59.5 13.5t48 41.5t32 71.5t11.5 102.5t-11.5 102.5t-32 71.5t-48 41.5t-59.5 13.5t-60 -13.5t-48 -41.5t-31.5 -71.5t-11.5 -102.5zM562 267q0 -63 -19.5 -115t-53.5 -88.5t-81 -56.5
t-102 -20t-102 20t-81 56.5t-53.5 88.5t-19.5 115t19.5 115t53.5 88.5t81 56.5t102 20t102 -20t81 -56.5t53.5 -88.5t19.5 -115z" />
    <glyph glyph-name="ocircumflex" unicode="&#xf4;" horiz-adv-x="612" 
d="M477 603h-60l-106 71l-108 -71h-60l141 142h56zM155 267q0 -59 11.5 -102.5t31.5 -71.5t48 -41.5t60 -13.5t59.5 13.5t48 41.5t32 71.5t11.5 102.5t-11.5 102.5t-32 71.5t-48 41.5t-59.5 13.5t-60 -13.5t-48 -41.5t-31.5 -71.5t-11.5 -102.5zM562 267q0 -63 -19.5 -115
t-53.5 -88.5t-81 -56.5t-102 -20t-102 20t-81 56.5t-53.5 88.5t-19.5 115t19.5 115t53.5 88.5t81 56.5t102 20t102 -20t81 -56.5t53.5 -88.5t19.5 -115z" />
    <glyph glyph-name="otilde" unicode="&#xf5;" horiz-adv-x="612" 
d="M155 267q0 -59 11.5 -102.5t31.5 -71.5t48 -41.5t60 -13.5t59.5 13.5t48 41.5t32 71.5t11.5 102.5t-11.5 102.5t-32 71.5t-48 41.5t-59.5 13.5t-60 -13.5t-48 -41.5t-31.5 -71.5t-11.5 -102.5zM562 267q0 -63 -19.5 -115t-53.5 -88.5t-81 -56.5t-102 -20t-102 20
t-81 56.5t-53.5 88.5t-19.5 115t19.5 115t53.5 88.5t81 56.5t102 20t102 -20t81 -56.5t53.5 -88.5t19.5 -115zM374 676q24 0 36 13t16 36h61q-10 -56 -38 -85.5t-71 -29.5q-23 0 -42 8t-36.5 18t-32.5 18t-30 8q-23 0 -34 -14t-17 -38h-60q8 61 39.5 88t70.5 27
q22 0 41.5 -7.5t36 -17t31.5 -17t29 -7.5z" />
    <glyph glyph-name="odieresis" unicode="&#xf6;" horiz-adv-x="612" 
d="M152 745h98v-125h-98v125zM377 745h98v-125h-98v125zM155 267q0 -59 11.5 -102.5t31.5 -71.5t48 -41.5t60 -13.5t59.5 13.5t48 41.5t32 71.5t11.5 102.5t-11.5 102.5t-32 71.5t-48 41.5t-59.5 13.5t-60 -13.5t-48 -41.5t-31.5 -71.5t-11.5 -102.5zM562 267
q0 -63 -19.5 -115t-53.5 -88.5t-81 -56.5t-102 -20t-102 20t-81 56.5t-53.5 88.5t-19.5 115t19.5 115t53.5 88.5t81 56.5t102 20t102 -20t81 -56.5t53.5 -88.5t19.5 -115z" />
    <glyph glyph-name="divide" unicode="&#xf7;" horiz-adv-x="705" 
d="M307 163h95v-101h-95v101zM307 486h95v-101h-95v101zM95 240v66h515v-66h-515z" />
    <glyph glyph-name="oslash" unicode="&#xf8;" horiz-adv-x="612" 
d="M562 267q0 -63 -19.5 -115t-53.5 -88.5t-81 -56.5t-102 -20q-46 0 -86 13.5t-72 39.5l-48 -60l-35 28l51 63q-32 36 -49 85.5t-17 110.5q0 63 19.5 115t53.5 88.5t81 56.5t102 20q89 0 154 -51l46 58l34 -27l-48 -60q33 -37 51.5 -87.5t18.5 -112.5zM306 38
q32 0 59.5 13.5t48 41.5t32 71.5t11.5 102.5q0 40 -5.5 72.5t-15.5 58.5l-241 -300q20 -31 48.5 -45.5t62.5 -14.5zM155 267q0 -76 18 -125l241 298q-20 29 -48 42.5t-60 13.5t-60 -13.5t-48 -41.5t-31.5 -71.5t-11.5 -102.5z" />
    <glyph glyph-name="ugrave" unicode="&#xf9;" horiz-adv-x="616" 
d="M412 91h-2q-23 -48 -63.5 -76t-103.5 -28q-47 0 -76.5 16.5t-46 42.5t-23 59t-6.5 66v299q0 15 -5 20.5t-24 8.5l-43 5v34h171l-1 -114v-224q0 -78 21 -114.5t77 -36.5q21 0 43 9t40 29.5t29.5 52t11.5 76.5v254q0 15 -5.5 20.5t-23.5 8.5l-43 5v34h171l-1 -114v-352
q0 -17 6.5 -21t23.5 -6l41 -5v-33l-166 -14zM100 745h131l87 -142h-43z" />
    <glyph glyph-name="uacute" unicode="&#xfa;" horiz-adv-x="616" 
d="M296 603h-44l86 142h132zM412 91h-2q-23 -48 -63.5 -76t-103.5 -28q-47 0 -76.5 16.5t-46 42.5t-23 59t-6.5 66v299q0 15 -5 20.5t-24 8.5l-43 5v34h171l-1 -114v-224q0 -78 21 -114.5t77 -36.5q21 0 43 9t40 29.5t29.5 52t11.5 76.5v254q0 15 -5.5 20.5t-23.5 8.5l-43 5
v34h171l-1 -114v-352q0 -17 6.5 -21t23.5 -6l41 -5v-33l-166 -14z" />
    <glyph glyph-name="ucircumflex" unicode="&#xfb;" horiz-adv-x="616" 
d="M447 603h-60l-106 71l-108 -71h-60l141 142h56zM412 91h-2q-23 -48 -63.5 -76t-103.5 -28q-47 0 -76.5 16.5t-46 42.5t-23 59t-6.5 66v299q0 15 -5 20.5t-24 8.5l-43 5v34h171l-1 -114v-224q0 -78 21 -114.5t77 -36.5q21 0 43 9t40 29.5t29.5 52t11.5 76.5v254
q0 15 -5.5 20.5t-23.5 8.5l-43 5v34h171l-1 -114v-352q0 -17 6.5 -21t23.5 -6l41 -5v-33l-166 -14z" />
    <glyph glyph-name="udieresis" unicode="&#xfc;" horiz-adv-x="616" 
d="M117 745h98v-125h-98v125zM342 745h98v-125h-98v125zM412 91h-2q-23 -48 -63.5 -76t-103.5 -28q-47 0 -76.5 16.5t-46 42.5t-23 59t-6.5 66v299q0 15 -5 20.5t-24 8.5l-43 5v34h171l-1 -114v-224q0 -78 21 -114.5t77 -36.5q21 0 43 9t40 29.5t29.5 52t11.5 76.5v254
q0 15 -5.5 20.5t-23.5 8.5l-43 5v34h171l-1 -114v-352q0 -17 6.5 -21t23.5 -6l41 -5v-33l-166 -14z" />
    <glyph glyph-name="yacute" unicode="&#xfd;" horiz-adv-x="552" 
d="M42 -189v65h74q21 0 35.5 3t26.5 14.5t23 35t25 64.5l6 17l-172 458q-6 18 -12.5 24.5t-26.5 8.5l-25 2v35h236v-35l-39 -3q-18 -2 -24 -7.5t-2 -18.5l121 -365l117 326q12 34 11.5 48.5t-31.5 17.5l-32 2v35h203v-35l-27 -2q-20 -2 -31 -14t-22 -36l-179 -463
q-23 -61 -40.5 -96.5t-36.5 -53.5t-44 -22.5t-64 -4.5h-70zM305 603h-44l86 142h132z" />
    <glyph glyph-name="thorn" unicode="&#xfe;" horiz-adv-x="641" 
d="M195 266q0 -63 12 -105.5t32 -68t46 -36t54 -10.5q66 0 107 58t41 162t-40 161.5t-103 57.5q-26 0 -52 -10.5t-48 -36t-35.5 -67.5t-13.5 -105zM203 527q0 -46 -3 -91h1q12 22 28.5 41.5t38 34.5t48 23.5t59.5 8.5q47 0 86.5 -20t68.5 -56.5t45.5 -87.5t16.5 -114
t-18.5 -114.5t-50 -88t-74.5 -56.5t-92 -20q-28 0 -52 8t-43.5 21.5t-34 31t-24.5 36.5h-2q0 -4 0.5 -14t0.5 -21.5t0.5 -22t0.5 -15.5v-133q0 -17 6.5 -21.5t23.5 -6.5l65 -4v-35h-264v35l41 4q17 2 23.5 6.5t6.5 20.5v802q0 16 -5.5 20t-24.5 6l-41 5v35h170l-1 -114v-104
z" />
    <glyph glyph-name="ydieresis" unicode="&#xff;" horiz-adv-x="552" 
d="M42 -189v65h74q21 0 35.5 3t26.5 14.5t23 35t25 64.5l6 17l-172 458q-6 18 -12.5 24.5t-26.5 8.5l-25 2v35h236v-35l-39 -3q-18 -2 -24 -7.5t-2 -18.5l121 -365l117 326q12 34 11.5 48.5t-31.5 17.5l-32 2v35h203v-35l-27 -2q-20 -2 -31 -14t-22 -36l-179 -463
q-23 -61 -40.5 -96.5t-36.5 -53.5t-44 -22.5t-64 -4.5h-70zM130 745h98v-125h-98v125zM355 745h98v-125h-98v125z" />
    <glyph glyph-name="Abreve" unicode="&#x102;" 
d="M325 729h74l251 -646q9 -23 18.5 -33.5t37.5 -12.5l22 -2v-35h-272v35l48 3q31 2 38.5 11.5t-2.5 34.5l-53 139h-291l-44 -117q-16 -41 -9 -53.5t39 -14.5l43 -3v-35h-229v35l23 2q15 1 24 5t16 13t13.5 24t15.5 39zM218 281h247l-124 325zM519 890q-6 -54 -45 -88
t-119 -34q-77 0 -116 34.5t-46 87.5h66q4 -32 32 -49.5t65 -17.5t65 18t33 49h65z" />
    <glyph glyph-name="Amacron" unicode="&#x100;" 
d="M325 729h74l251 -646q9 -23 18.5 -33.5t37.5 -12.5l22 -2v-35h-272v35l48 3q31 2 38.5 11.5t-2.5 34.5l-53 139h-291l-44 -117q-16 -41 -9 -53.5t39 -14.5l43 -3v-35h-229v35l23 2q15 1 24 5t16 13t13.5 24t15.5 39zM218 281h247l-124 325zM204 798v67h311v-67h-311z" />
    <glyph glyph-name="Aogonek" unicode="&#x104;" 
d="M456 0v35l48 3q31 2 38.5 11.5t-2.5 34.5l-53 139h-290l-45 -117q-16 -41 -9 -53.5t39 -14.5l43 -3v-35h-229v35l23 2q15 1 24 5t16 13t13.5 24t15.5 39l237 611h74l251 -646q9 -23 18.5 -33.5t37.5 -12.5l22 -2v-35h-85q-39 -19 -67 -42.5t-28 -49.5q0 -15 6.5 -25
t16.5 -16t23 -8.5t25 -2.5q32 0 52 9v-44q-14 -6 -34 -9t-43 -3q-21 0 -43 4.5t-41 14.5t-31 27t-12 43q0 32 31.5 59.5t76.5 42.5h-119zM218 281h246l-123 325z" />
    <glyph glyph-name="Cacute" unicode="&#x106;" horiz-adv-x="753" 
d="M46 366q0 86 25 155.5t70.5 118.5t110 75.5t143.5 26.5q60 0 112.5 -15.5t94.5 -45.5t71 -74.5t40 -102.5l-107 -1q-11 89 -65 137t-145 48q-108 0 -172 -83t-64 -239q0 -77 16.5 -137.5t46.5 -102t73.5 -63.5t97.5 -22q94 0 148.5 47.5t66.5 137.5l107 -1
q-12 -59 -41 -103.5t-72 -74.5t-96 -45t-113 -15q-82 0 -146.5 27.5t-109.5 77t-68.5 119.5t-23.5 155zM424 773h-66l110 117h131z" />
    <glyph glyph-name="Ccaron" unicode="&#x10c;" horiz-adv-x="753" 
d="M46 366q0 86 25 155.5t70.5 118.5t110 75.5t143.5 26.5q60 0 112.5 -15.5t94.5 -45.5t71 -74.5t40 -102.5l-107 -1q-11 89 -65 137t-145 48q-108 0 -172 -83t-64 -239q0 -77 16.5 -137.5t46.5 -102t73.5 -63.5t97.5 -22q94 0 148.5 47.5t66.5 137.5l107 -1
q-12 -59 -41 -103.5t-72 -74.5t-96 -45t-113 -15q-82 0 -146.5 27.5t-109.5 77t-68.5 119.5t-23.5 155zM218 890h70l104 -58l104 58h70l-135 -117h-82z" />
    <glyph glyph-name="Ccircumflex" unicode="&#x108;" horiz-adv-x="753" 
d="M46 366q0 86 25 155.5t70.5 118.5t110 75.5t143.5 26.5q60 0 112.5 -15.5t94.5 -45.5t71 -74.5t40 -102.5l-107 -1q-11 89 -65 137t-145 48q-108 0 -172 -83t-64 -239q0 -77 16.5 -137.5t46.5 -102t73.5 -63.5t97.5 -22q94 0 148.5 47.5t66.5 137.5l107 -1
q-12 -59 -41 -103.5t-72 -74.5t-96 -45t-113 -15q-82 0 -146.5 27.5t-109.5 77t-68.5 119.5t-23.5 155zM564 773h-70l-103 58l-104 -58h-71l135 117h81z" />
    <glyph glyph-name="Cdotaccent" unicode="&#x10a;" horiz-adv-x="753" 
d="M351 890h98v-117h-98v117zM46 366q0 86 25 155.5t70.5 118.5t110 75.5t143.5 26.5q60 0 112.5 -15.5t94.5 -45.5t71 -74.5t40 -102.5l-107 -1q-11 89 -65 137t-145 48q-108 0 -172 -83t-64 -239q0 -77 16.5 -137.5t46.5 -102t73.5 -63.5t97.5 -22q94 0 148.5 47.5
t66.5 137.5l107 -1q-12 -59 -41 -103.5t-72 -74.5t-96 -45t-113 -15q-82 0 -146.5 27.5t-109.5 77t-68.5 119.5t-23.5 155z" />
    <glyph glyph-name="Dcaron" unicode="&#x10e;" horiz-adv-x="781" 
d="M622 363q0 95 -24.5 155t-67 94.5t-99 47.5t-120.5 13h-67v-621h67q64 0 120.5 13t99 47.5t67 95t24.5 155.5zM735 363q0 -102 -32.5 -171.5t-89.5 -112.5t-135 -61.5t-169 -18.5h-137q-53 0 -116 1v36l54 4q17 1 23 7t6 20v591q0 14 -6 20t-23 8l-54 4v35h115h44.5
t41 0.5t32.5 0.5h20q91 0 169 -18.5t135 -61.5t89.5 -112t32.5 -171zM194 890h70l104 -58l104 58h70l-135 -117h-82z" />
    <glyph glyph-name="Dcroat" unicode="&#x110;" horiz-adv-x="781" 
d="M735 363q0 -102 -32.5 -171.5t-89.5 -112.5t-135 -61.5t-169 -18.5h-137q-53 0 -116 1v36l54 4q17 1 23 7t6 20v279h-110v58h110v254q0 14 -6 20t-23 8l-54 4v35h115h44.5t41 0.5t32.5 0.5h20q91 0 169 -18.5t135 -61.5t89.5 -112t32.5 -171zM622 363q0 95 -24.5 155
t-67 94.5t-99 47.5t-120.5 13h-67v-269h154v-58h-154v-294h67q64 0 120.5 13t99 47.5t67 95t24.5 155.5z" />
    <glyph glyph-name="Ebreve" unicode="&#x114;" horiz-adv-x="699" 
d="M627 725v-217h-38l-14 86q-5 28 -11.5 44t-19 24t-34 9.5t-55.5 1.5h-211v-271h286v-56h-286v-294h220q34 0 55 1.5t33.5 9t19 24t11.5 45.5l15 85h38v-217h-580v36l54 4q17 1 23 7t6 20v591q0 14 -6 20t-23 8l-54 4v35h571zM522 890q-6 -54 -45 -88t-119 -34
q-77 0 -116 34.5t-46 87.5h66q4 -32 32 -49.5t65 -17.5t65 18t33 49h65z" />
    <glyph glyph-name="Ecaron" unicode="&#x11a;" horiz-adv-x="699" 
d="M627 725v-217h-38l-14 86q-5 28 -11.5 44t-19 24t-34 9.5t-55.5 1.5h-211v-271h286v-56h-286v-294h220q34 0 55 1.5t33.5 9t19 24t11.5 45.5l15 85h38v-217h-580v36l54 4q17 1 23 7t6 20v591q0 14 -6 20t-23 8l-54 4v35h571zM192 890h70l104 -58l104 58h70l-135 -117h-82
z" />
    <glyph glyph-name="Emacron" unicode="&#x112;" horiz-adv-x="699" 
d="M627 725v-217h-38l-14 86q-5 28 -11.5 44t-19 24t-34 9.5t-55.5 1.5h-211v-271h286v-56h-286v-294h220q34 0 55 1.5t33.5 9t19 24t11.5 45.5l15 85h38v-217h-580v36l54 4q17 1 23 7t6 20v591q0 14 -6 20t-23 8l-54 4v35h571zM208 798v67h311v-67h-311z" />
    <glyph glyph-name="Eogonek" unicode="&#x118;" horiz-adv-x="693" 
d="M56 0v36l54 4q17 1 23 7t6 20v591q0 14 -6 20t-23 8l-54 4v35h571v-217h-38l-14 86q-5 28 -11.5 44t-19 24t-34 9.5t-55.5 1.5h-211v-271h286v-56h-286v-294h220q34 0 55 1.5t33.5 9t19 24t11.5 45.5l15 85h38v-217q-40 -19 -67.5 -42.5t-27.5 -49.5q0 -29 22.5 -40.5
t48.5 -11.5q31 0 51 9v-44q-13 -6 -33 -9t-43 -3q-21 0 -43.5 4.5t-41.5 14.5t-31 27t-12 43q0 32 31.5 59.5t76.5 42.5h-511z" />
    <glyph glyph-name="Edotaccent" unicode="&#x116;" horiz-adv-x="699" 
d="M627 725v-217h-38l-14 86q-5 28 -11.5 44t-19 24t-34 9.5t-55.5 1.5h-211v-271h286v-56h-286v-294h220q34 0 55 1.5t33.5 9t19 24t11.5 45.5l15 85h38v-217h-580v36l54 4q17 1 23 7t6 20v591q0 14 -6 20t-23 8l-54 4v35h571zM313 890h98v-117h-98v117z" />
    <glyph glyph-name="Gbreve" unicode="&#x11e;" horiz-adv-x="794" 
d="M398 688q-54 0 -97.5 -21t-75 -62t-48.5 -101t-17 -138q0 -155 62.5 -238.5t171.5 -83.5q33 0 71 8.5t71 32t54.5 65.5t21.5 109v49h-135v50h236v-37.5v-64t-0.5 -77t-0.5 -77v-64v-38.5h-59l-21 102q-31 -50 -90.5 -82.5t-150.5 -32.5q-81 0 -145 27.5t-108.5 77
t-68 119.5t-23.5 155q0 86 25 155.5t71 118.5t110.5 75.5t143.5 26.5q60 0 112.5 -15.5t94.5 -45.5t71 -74.5t40 -102.5l-106 -1q-12 89 -65.5 137t-144.5 48zM552 890q-6 -54 -45 -88t-119 -34q-77 0 -116 34.5t-46 87.5h66q4 -32 32 -49.5t65 -17.5t65 18t33 49h65z" />
    <glyph glyph-name="Gcircumflex" unicode="&#x11c;" horiz-adv-x="794" 
d="M560 773h-70l-103 58l-104 -58h-71l135 117h81zM398 688q-54 0 -97.5 -21t-75 -62t-48.5 -101t-17 -138q0 -155 62.5 -238.5t171.5 -83.5q33 0 71 8.5t71 32t54.5 65.5t21.5 109v49h-135v50h236v-37.5v-64t-0.5 -77t-0.5 -77v-64v-38.5h-59l-21 102q-31 -50 -90.5 -82.5
t-150.5 -32.5q-81 0 -145 27.5t-108.5 77t-68 119.5t-23.5 155q0 86 25 155.5t71 118.5t110.5 75.5t143.5 26.5q60 0 112.5 -15.5t94.5 -45.5t71 -74.5t40 -102.5l-106 -1q-12 89 -65.5 137t-144.5 48z" />
    <glyph glyph-name="Gcommaaccent" unicode="&#x122;" horiz-adv-x="794" 
d="M329 -37h103v-98l-46 -93h-60l40 99h-37v92zM398 688q-54 0 -97.5 -21t-75 -62t-48.5 -101t-17 -138q0 -155 62.5 -238.5t171.5 -83.5q33 0 71 8.5t71 32t54.5 65.5t21.5 109v49h-135v50h236v-37.5v-64t-0.5 -77t-0.5 -77v-64v-38.5h-59l-21 102q-31 -50 -90.5 -82.5
t-150.5 -32.5q-81 0 -145 27.5t-108.5 77t-68 119.5t-23.5 155q0 86 25 155.5t71 118.5t110.5 75.5t143.5 26.5q60 0 112.5 -15.5t94.5 -45.5t71 -74.5t40 -102.5l-106 -1q-12 89 -65.5 137t-144.5 48z" />
    <glyph glyph-name="Gdotaccent" unicode="&#x120;" horiz-adv-x="794" 
d="M343 890h98v-117h-98v117zM398 688q-54 0 -97.5 -21t-75 -62t-48.5 -101t-17 -138q0 -155 62.5 -238.5t171.5 -83.5q33 0 71 8.5t71 32t54.5 65.5t21.5 109v49h-135v50h236v-37.5v-64t-0.5 -77t-0.5 -77v-64v-38.5h-59l-21 102q-31 -50 -90.5 -82.5t-150.5 -32.5
q-81 0 -145 27.5t-108.5 77t-68 119.5t-23.5 155q0 86 25 155.5t71 118.5t110.5 75.5t143.5 26.5q60 0 112.5 -15.5t94.5 -45.5t71 -74.5t40 -102.5l-106 -1q-12 89 -65.5 137t-144.5 48z" />
    <glyph glyph-name="Hbar" unicode="&#x126;" horiz-adv-x="865" 
d="M726 570h83v-58h-83v-445q0 -14 6 -20t23 -7l54 -4v-36h-271v36l53 4q17 1 23.5 7t6.5 20v279h-377v-279q0 -14 6 -20t23 -7l54 -4v-36h-271v36l54 4q17 1 23 7t6 20v445h-83v58h83v88q0 14 -6 20t-23 8l-54 4v35h271v-35l-54 -4q-17 -2 -23 -8t-6 -20v-88h377v88
q0 14 -6.5 20t-23.5 8l-53 4v35h271v-35l-54 -4q-17 -2 -23 -8t-6 -20v-88zM621 404v108h-377v-108h377z" />
    <glyph glyph-name="Hcircumflex" unicode="&#x124;" horiz-adv-x="865" 
d="M726 67q0 -14 6 -20t23 -7l54 -4v-36h-271v36l53 4q17 1 23.5 7t6.5 20v279h-377v-279q0 -14 6 -20t23 -7l54 -4v-36h-271v36l54 4q17 1 23 7t6 20v591q0 14 -6 20t-23 8l-54 4v35h271v-35l-54 -4q-17 -2 -23 -8t-6 -20v-254h377v254q0 14 -6.5 20t-23.5 8l-53 4v35h271
v-35l-54 -4q-17 -2 -23 -8t-6 -20v-591zM606 773h-70l-103 58l-104 -58h-71l135 117h81z" />
    <glyph glyph-name="Ibreve" unicode="&#x12c;" horiz-adv-x="383" 
d="M354 890q-6 -54 -45 -88t-119 -34q-77 0 -116 34.5t-46 87.5h66q4 -32 32 -49.5t65 -17.5t65 18t33 49h65zM327 0h-271v36l54 4q17 1 23 7t6 20v591q0 14 -6 20t-23 8l-54 4v35h271v-35l-54 -4q-17 -2 -23 -8t-6 -20v-591q0 -14 6 -20t23 -7l54 -4v-36z" />
    <glyph glyph-name="Idotaccent" unicode="&#x130;" horiz-adv-x="383" 
d="M327 0h-271v36l54 4q17 1 23 7t6 20v591q0 14 -6 20t-23 8l-54 4v35h271v-35l-54 -4q-17 -2 -23 -8t-6 -20v-591q0 -14 6 -20t23 -7l54 -4v-36zM143 890h98v-117h-98v117z" />
    <glyph glyph-name="Imacron" unicode="&#x12a;" horiz-adv-x="383" 
d="M327 0h-271v36l54 4q17 1 23 7t6 20v591q0 14 -6 20t-23 8l-54 4v35h271v-35l-54 -4q-17 -2 -23 -8t-6 -20v-591q0 -14 6 -20t23 -7l54 -4v-36zM36 798v67h311v-67h-311z" />
    <glyph glyph-name="Iogonek" unicode="&#x12e;" horiz-adv-x="383" 
d="M327 0h-271v36l54 4q17 1 23 7t6 20v591q0 14 -6 20t-23 8l-54 4v35h271v-35l-54 -4q-17 -2 -23 -8t-6 -20v-591q0 -14 6 -20t23 -7l54 -4v-36zM246 0q-40 -19 -67 -42.5t-27 -49.5q0 -15 6 -25t16 -16t23 -8.5t26 -2.5q31 0 51 9v-44q-13 -6 -33.5 -9t-43.5 -3
q-21 0 -43.5 4.5t-41.5 14.5t-31 27t-12 43q0 16 8.5 31t23.5 28.5t34.5 24t41.5 18.5h69z" />
    <glyph glyph-name="Itilde" unicode="&#x128;" horiz-adv-x="383" 
d="M327 0h-271v36l54 4q17 1 23 7t6 20v591q0 14 -6 20t-23 8l-54 4v35h271v-35l-54 -4q-17 -2 -23 -8t-6 -20v-591q0 -14 6 -20t23 -7l54 -4v-36zM260 840q24 0 35.5 12.5t15.5 36.5h62q-10 -57 -38.5 -86t-70.5 -29q-23 0 -42.5 8t-37 17t-33 17t-29.5 8q-22 0 -33.5 -13
t-16.5 -37h-60q8 61 39 88t70 27q23 0 42 -7.5t35.5 -17t31.5 -17t30 -7.5z" />
    <glyph glyph-name="uni1ECA" unicode="&#x1eca;" horiz-adv-x="383" 
d="M143 -53h98v-125h-98v125zM327 0h-271v36l54 4q17 1 23 7t6 20v591q0 14 -6 20t-23 8l-54 4v35h271v-35l-54 -4q-17 -2 -23 -8t-6 -20v-591q0 -14 6 -20t23 -7l54 -4v-36z" />
    <glyph glyph-name="Jcircumflex" unicode="&#x134;" horiz-adv-x="390" 
d="M269 169q0 -62 -10.5 -96t-33.5 -50.5t-59.5 -19.5t-89.5 -3h-51v63h36q32 0 52 2.5t31.5 12.5t15.5 30.5t4 57.5v492q0 14 -6.5 20t-23.5 8l-53 4v35h272v-35l-53 -4q-17 -2 -24 -8t-7 -20v-489zM389 773h-70l-103 58l-104 -58h-71l135 117h81z" />
    <glyph glyph-name="Kcommaaccent" unicode="&#x136;" horiz-adv-x="762" 
d="M346 -37h103v-98l-46 -93h-60l40 99h-37v92zM244 348l295 291q23 23 19.5 33.5t-30.5 13.5l-46 4v35h250v-35l-29 -2q-14 -1 -25 -5t-23 -12t-27 -22t-37 -35l-180 -174l243 -355q17 -26 33 -36t44 -12l29 -1v-36h-287v36l39 2q31 2 32.5 11.5t-15.5 35.5l-192 284
l-93 -90v-212q0 -14 6 -20t23 -7l54 -4v-36h-271v36l54 4q17 1 23 7t6 20v591q0 14 -6 20t-23 8l-54 4v35h271v-35l-54 -4q-17 -2 -23 -8t-6 -20v-310z" />
    <glyph glyph-name="Lacute" unicode="&#x139;" horiz-adv-x="639" 
d="M216 773h-66l110 117h131zM56 36l54 4q17 1 23 7t6 20v591q0 14 -6 20t-23 8l-54 4v35h276v-35l-59 -4q-17 -2 -23 -8t-6 -20v-606h204q34 0 55.5 1.5t34 9t18.5 24t11 45.5l14 85h37v-217h-562v36z" />
    <glyph glyph-name="Lcaron" unicode="&#x13d;" horiz-adv-x="639" 
d="M403 725h118v-122l-70 -152h-40l42 155h-50v119zM56 36l54 4q17 1 23 7t6 20v591q0 14 -6 20t-23 8l-54 4v35h276v-35l-59 -4q-17 -2 -23 -8t-6 -20v-606h204q34 0 55.5 1.5t34 9t18.5 24t11 45.5l14 85h37v-217h-562v36z" />
    <glyph glyph-name="Lcommaaccent" unicode="&#x13b;" horiz-adv-x="639" 
d="M295 -37h103v-98l-46 -93h-60l40 99h-37v92zM56 36l54 4q17 1 23 7t6 20v591q0 14 -6 20t-23 8l-54 4v35h276v-35l-59 -4q-17 -2 -23 -8t-6 -20v-606h204q34 0 55.5 1.5t34 9t18.5 24t11 45.5l14 85h37v-217h-562v36z" />
    <glyph glyph-name="Ldot" unicode="&#x13f;" horiz-adv-x="639" 
d="M56 36l54 4q17 1 23 7t6 20v591q0 14 -6 20t-23 8l-54 4v35h276v-35l-59 -4q-17 -2 -23 -8t-6 -20v-606h204q34 0 55.5 1.5t34 9t18.5 24t11 45.5l14 85h37v-217h-562v36zM368 476h98v-125h-98v125z" />
    <glyph glyph-name="Lslash" unicode="&#x141;" horiz-adv-x="648" 
d="M65 36l54 4q17 1 23 7t6 20v254l-121 -38l-16 52l137 43v280q0 14 -6 20t-23 8l-54 4v35h276v-35l-59 -4q-17 -2 -23 -8t-6 -20v-247l154 49l17 -53l-171 -54v-301h204q34 0 55.5 1.5t34 9t18.5 24t11 45.5l14 85h37v-217h-562v36z" />
    <glyph glyph-name="Nacute" unicode="&#x143;" horiz-adv-x="812" 
d="M421 773h-66l110 117h131zM694 -7h-61l-432 602v-512q0 -26 7.5 -34.5t34.5 -10.5l42 -2v-36h-229v36l40 2q14 1 22.5 3t13 7.5t6 13.5t1.5 21v574q0 13 -6 20t-23 9l-54 4v35h177l398 -557v474q0 26 -6.5 34.5t-34.5 10.5l-42 2v36h230v-36l-42 -2q-27 -2 -34.5 -10.5
t-7.5 -34.5v-649z" />
    <glyph glyph-name="Ncaron" unicode="&#x147;" horiz-adv-x="812" 
d="M694 -7h-61l-432 602v-512q0 -26 7.5 -34.5t34.5 -10.5l42 -2v-36h-229v36l40 2q14 1 22.5 3t13 7.5t6 13.5t1.5 21v574q0 13 -6 20t-23 9l-54 4v35h177l398 -557v474q0 26 -6.5 34.5t-34.5 10.5l-42 2v36h230v-36l-42 -2q-27 -2 -34.5 -10.5t-7.5 -34.5v-649zM244 890
h70l104 -58l104 58h70l-135 -117h-82z" />
    <glyph glyph-name="Ncommaaccent" unicode="&#x145;" horiz-adv-x="812" 
d="M372 -37h103v-98l-46 -93h-60l40 99h-37v92zM694 -7h-61l-432 602v-512q0 -26 7.5 -34.5t34.5 -10.5l42 -2v-36h-229v36l40 2q14 1 22.5 3t13 7.5t6 13.5t1.5 21v574q0 13 -6 20t-23 9l-54 4v35h177l398 -557v474q0 26 -6.5 34.5t-34.5 10.5l-42 2v36h230v-36l-42 -2
q-27 -2 -34.5 -10.5t-7.5 -34.5v-649z" />
    <glyph glyph-name="OE" unicode="&#x152;" horiz-adv-x="1183" 
d="M398 -13q-80 0 -144.5 26.5t-111 76t-71.5 119.5t-25 156t26 155.5t72.5 119t111.5 76t143 26.5q75 0 131.5 -27t94.5 -78v88h489v-217h-38l-15 86q-5 28 -11.5 44t-19 24t-34 9.5t-55.5 1.5h-211v-271h286v-56h-286v-294h220q34 0 55.5 1.5t34 9t18.5 24t11 45.5l14 85
h38v-217h-496v96q-38 -52 -95 -80.5t-132 -28.5zM637 365q0 155 -64 239t-174 84q-55 0 -99.5 -21.5t-75.5 -63t-47.5 -101.5t-16.5 -137q0 -156 64 -240t175 -84q110 0 174 84t64 240z" />
    <glyph glyph-name="Obreve" unicode="&#x14e;" horiz-adv-x="796" 
d="M398 -13q-80 0 -144.5 26.5t-111 76t-71.5 119.5t-25 156t26 155.5t72.5 119t111.5 76t143 26.5t142.5 -25.5t111 -74.5t72.5 -119t26 -158q0 -89 -26 -159t-73 -118.5t-111.5 -74.5t-142.5 -26zM637 365q0 155 -64 239t-174 84q-55 0 -99.5 -21.5t-75.5 -63
t-47.5 -101.5t-16.5 -137q0 -156 64 -240t175 -84q110 0 174 84t64 240zM535 890q-6 -54 -45 -88t-119 -34q-77 0 -116 34.5t-46 87.5h66q4 -32 32 -49.5t65 -17.5t65 18t33 49h65z" />
    <glyph glyph-name="Ohungarumlaut" unicode="&#x150;" horiz-adv-x="796" 
d="M337 773h-60l110 117h127zM504 773h-60l110 117h127zM398 -13q-80 0 -144.5 26.5t-111 76t-71.5 119.5t-25 156t26 155.5t72.5 119t111.5 76t143 26.5t142.5 -25.5t111 -74.5t72.5 -119t26 -158q0 -89 -26 -159t-73 -118.5t-111.5 -74.5t-142.5 -26zM637 365
q0 155 -64 239t-174 84q-55 0 -99.5 -21.5t-75.5 -63t-47.5 -101.5t-16.5 -137q0 -156 64 -240t175 -84q110 0 174 84t64 240z" />
    <glyph glyph-name="Omacron" unicode="&#x14c;" horiz-adv-x="796" 
d="M398 -13q-80 0 -144.5 26.5t-111 76t-71.5 119.5t-25 156t26 155.5t72.5 119t111.5 76t143 26.5t142.5 -25.5t111 -74.5t72.5 -119t26 -158q0 -89 -26 -159t-73 -118.5t-111.5 -74.5t-142.5 -26zM637 365q0 155 -64 239t-174 84q-55 0 -99.5 -21.5t-75.5 -63
t-47.5 -101.5t-16.5 -137q0 -156 64 -240t175 -84q110 0 174 84t64 240zM242 798v67h311v-67h-311z" />
    <glyph glyph-name="uni1ECC" unicode="&#x1ecc;" horiz-adv-x="796" 
d="M398 -13q-80 0 -144.5 26.5t-111 76t-71.5 119.5t-25 156t26 155.5t72.5 119t111.5 76t143 26.5t142.5 -25.5t111 -74.5t72.5 -119t26 -158q0 -89 -26 -159t-73 -118.5t-111.5 -74.5t-142.5 -26zM637 365q0 155 -64 239t-174 84q-55 0 -99.5 -21.5t-75.5 -63
t-47.5 -101.5t-16.5 -137q0 -156 64 -240t175 -84q110 0 174 84t64 240zM349 -53h98v-125h-98v125z" />
    <glyph glyph-name="Racute" unicode="&#x154;" 
d="M56 725h46t72.5 0.5t78.5 0.5h63q150 0 231 -46.5t81 -152.5q0 -70 -39 -116t-112 -69l152 -255q16 -26 28 -37t37 -12l34 -2v-36h-170l-50 90l-136 233q-14 -2 -28 -2h-28h-72v-253q0 -14 6 -20t23 -8l64 -4v-36h-281v36l54 4q17 1 23 7t6 20v591q0 14 -6 20t-23 8
l-54 4v35zM244 674v-301h84q91 0 140 36t49 116q0 79 -49 114t-140 35h-84zM369 773h-66l110 117h131z" />
    <glyph glyph-name="Rcaron" unicode="&#x158;" 
d="M56 725h46t72.5 0.5t78.5 0.5h63q150 0 231 -46.5t81 -152.5q0 -70 -39 -116t-112 -69l152 -255q16 -26 28 -37t37 -12l34 -2v-36h-170l-50 90l-136 233q-14 -2 -28 -2h-28h-72v-253q0 -14 6 -20t23 -8l64 -4v-36h-281v36l54 4q17 1 23 7t6 20v591q0 14 -6 20t-23 8
l-54 4v35zM244 674v-301h84q91 0 140 36t49 116q0 79 -49 114t-140 35h-84zM182 890h70l104 -58l104 58h70l-135 -117h-82z" />
    <glyph glyph-name="Rcommaaccent" unicode="&#x156;" 
d="M339 -37h103v-98l-46 -93h-60l40 99h-37v92zM56 725h46t72.5 0.5t78.5 0.5h63q150 0 231 -46.5t81 -152.5q0 -70 -39 -116t-112 -69l152 -255q16 -26 28 -37t37 -12l34 -2v-36h-170l-50 90l-136 233q-14 -2 -28 -2h-28h-72v-253q0 -14 6 -20t23 -8l64 -4v-36h-281v36
l54 4q17 1 23 7t6 20v591q0 14 -6 20t-23 8l-54 4v35zM244 674v-301h84q91 0 140 36t49 116q0 79 -49 114t-140 35h-84z" />
    <glyph glyph-name="Sacute" unicode="&#x15a;" horiz-adv-x="644" 
d="M488 532q-4 36 -19.5 65t-40 49.5t-57 31t-70.5 10.5q-33 0 -63 -8t-52 -23.5t-35 -38.5t-13 -52q0 -30 13 -51.5t34.5 -37t49 -26t57.5 -18.5l68 -18q53 -14 99.5 -30t81 -40t54 -59t19.5 -86q0 -55 -23.5 -95t-62.5 -66.5t-90 -39t-106 -12.5q-128 0 -209.5 61
t-98.5 178h107q4 -37 18 -70.5t39 -59t61 -40.5t86 -15q31 0 63.5 7t59 23t43.5 41.5t17 63.5q0 35 -14.5 58.5t-39 39t-56.5 26t-67 19.5l-81 22q-42 11 -81 27.5t-69 41.5t-48 59t-18 81q0 49 22.5 85t60 60t85 35.5t97.5 11.5q53 0 101 -14.5t86 -41.5t63 -66t32 -88
h-103zM335 773h-66l110 117h131z" />
    <glyph glyph-name="Scaron" unicode="&#x160;" horiz-adv-x="644" 
d="M488 532q-4 36 -19.5 65t-40 49.5t-57 31t-70.5 10.5q-33 0 -63 -8t-52 -23.5t-35 -38.5t-13 -52q0 -30 13 -51.5t34.5 -37t49 -26t57.5 -18.5l68 -18q53 -14 99.5 -30t81 -40t54 -59t19.5 -86q0 -55 -23.5 -95t-62.5 -66.5t-90 -39t-106 -12.5q-128 0 -209.5 61
t-98.5 178h107q4 -37 18 -70.5t39 -59t61 -40.5t86 -15q31 0 63.5 7t59 23t43.5 41.5t17 63.5q0 35 -14.5 58.5t-39 39t-56.5 26t-67 19.5l-81 22q-42 11 -81 27.5t-69 41.5t-48 59t-18 81q0 49 22.5 85t60 60t85 35.5t97.5 11.5q53 0 101 -14.5t86 -41.5t63 -66t32 -88
h-103zM139 890h70l104 -58l104 58h70l-135 -117h-82z" />
    <glyph glyph-name="Scedilla" unicode="&#x15e;" horiz-adv-x="644" 
d="M284 3h48l-37 -53q48 9 78 -13t30 -64q0 -21 -9.5 -37.5t-25 -28.5t-36.5 -18.5t-44 -6.5q-24 0 -42.5 3.5t-43.5 14.5l15 36q12 -7 28 -10t33 -3q25 0 42.5 10t17.5 35q0 20 -14.5 29t-30.5 9q-28 0 -45 -10l-21 19zM488 532q-4 36 -19.5 65t-40 49.5t-57 31t-70.5 10.5
q-33 0 -63 -8t-52 -23.5t-35 -38.5t-13 -52q0 -30 13 -51.5t34.5 -37t49 -26t57.5 -18.5l68 -18q53 -14 99.5 -30t81 -40t54 -59t19.5 -86q0 -55 -23.5 -95t-62.5 -66.5t-90 -39t-106 -12.5q-128 0 -209.5 61t-98.5 178h107q4 -37 18 -70.5t39 -59t61 -40.5t86 -15
q31 0 63.5 7t59 23t43.5 41.5t17 63.5q0 35 -14.5 58.5t-39 39t-56.5 26t-67 19.5l-81 22q-42 11 -81 27.5t-69 41.5t-48 59t-18 81q0 49 22.5 85t60 60t85 35.5t97.5 11.5q53 0 101 -14.5t86 -41.5t63 -66t32 -88h-103z" />
    <glyph glyph-name="Scircumflex" unicode="&#x15c;" horiz-adv-x="644" 
d="M488 532q-4 36 -19.5 65t-40 49.5t-57 31t-70.5 10.5q-33 0 -63 -8t-52 -23.5t-35 -38.5t-13 -52q0 -30 13 -51.5t34.5 -37t49 -26t57.5 -18.5l68 -18q53 -14 99.5 -30t81 -40t54 -59t19.5 -86q0 -55 -23.5 -95t-62.5 -66.5t-90 -39t-106 -12.5q-128 0 -209.5 61
t-98.5 178h107q4 -37 18 -70.5t39 -59t61 -40.5t86 -15q31 0 63.5 7t59 23t43.5 41.5t17 63.5q0 35 -14.5 58.5t-39 39t-56.5 26t-67 19.5l-81 22q-42 11 -81 27.5t-69 41.5t-48 59t-18 81q0 49 22.5 85t60 60t85 35.5t97.5 11.5q53 0 101 -14.5t86 -41.5t63 -66t32 -88
h-103zM490 773h-70l-103 58l-104 -58h-71l135 117h81z" />
    <glyph glyph-name="Scommaaccent" unicode="&#x218;" horiz-adv-x="644" 
d="M273 -37h103v-98l-46 -93h-60l40 99h-37v92zM488 532q-4 36 -19.5 65t-40 49.5t-57 31t-70.5 10.5q-33 0 -63 -8t-52 -23.5t-35 -38.5t-13 -52q0 -30 13 -51.5t34.5 -37t49 -26t57.5 -18.5l68 -18q53 -14 99.5 -30t81 -40t54 -59t19.5 -86q0 -55 -23.5 -95t-62.5 -66.5
t-90 -39t-106 -12.5q-128 0 -209.5 61t-98.5 178h107q4 -37 18 -70.5t39 -59t61 -40.5t86 -15q31 0 63.5 7t59 23t43.5 41.5t17 63.5q0 35 -14.5 58.5t-39 39t-56.5 26t-67 19.5l-81 22q-42 11 -81 27.5t-69 41.5t-48 59t-18 81q0 49 22.5 85t60 60t85 35.5t97.5 11.5
q53 0 101 -14.5t86 -41.5t63 -66t32 -88h-103z" />
    <glyph glyph-name="Tcaron" unicode="&#x164;" horiz-adv-x="687" 
d="M659 725v-214h-38l-14 85q-5 29 -11.5 45.5t-19 24t-34 9t-55.5 1.5h-91v-608q0 -14 6 -19.5t23 -7.5l79 -4v-37h-321v37l80 4q17 2 22.5 7.5t5.5 19.5v608h-90q-35 0 -56.5 -1.5t-34 -9t-19.5 -24t-11 -45.5l-14 -85h-38v214h631zM170 890h70l104 -58l104 58h70
l-135 -117h-82z" />
    <glyph glyph-name="uni0162" unicode="&#x162;" horiz-adv-x="687" 
d="M291 -37h103v-98l-46 -93h-60l40 99h-37v92zM659 725v-214h-38l-14 85q-5 29 -11.5 45.5t-19 24t-34 9t-55.5 1.5h-91v-608q0 -14 6 -19.5t23 -7.5l79 -4v-37h-321v37l80 4q17 2 22.5 7.5t5.5 19.5v608h-90q-35 0 -56.5 -1.5t-34 -9t-19.5 -24t-11 -45.5l-14 -85h-38v214
h631z" />
    <glyph glyph-name="Tcommaaccent" unicode="&#x21a;" horiz-adv-x="687" 
d="M291 -37h103v-98l-46 -93h-60l40 99h-37v92zM659 725v-214h-38l-14 85q-5 29 -11.5 45.5t-19 24t-34 9t-55.5 1.5h-91v-608q0 -14 6 -19.5t23 -7.5l79 -4v-37h-321v37l80 4q17 2 22.5 7.5t5.5 19.5v608h-90q-35 0 -56.5 -1.5t-34 -9t-19.5 -24t-11 -45.5l-14 -85h-38v214
h631z" />
    <glyph glyph-name="Ubreve" unicode="&#x16c;" horiz-adv-x="797" 
d="M409 -13q-87 0 -144.5 21t-92 58.5t-48.5 90t-14 115.5v386q0 14 -6 20t-23 8l-55 4v35h272v-35l-54 -4q-17 -2 -23 -8t-6 -20v-376q0 -108 46 -167t154 -59q109 0 161.5 55t52.5 175v356q0 26 -7.5 34.5t-34.5 10.5l-42 3v35h232v-35l-41 -3q-27 -2 -34.5 -10.5
t-7.5 -34.5v-355q0 -66 -14.5 -121t-47.5 -94.5t-87.5 -62t-135.5 -22.5zM560 890q-6 -54 -45 -88t-119 -34q-77 0 -116 34.5t-46 87.5h66q4 -32 32 -49.5t65 -17.5t65 18t33 49h65z" />
    <glyph glyph-name="Uhungarumlaut" unicode="&#x170;" horiz-adv-x="797" 
d="M368 773h-60l110 117h127zM535 773h-60l110 117h127zM409 -13q-87 0 -144.5 21t-92 58.5t-48.5 90t-14 115.5v386q0 14 -6 20t-23 8l-55 4v35h272v-35l-54 -4q-17 -2 -23 -8t-6 -20v-376q0 -108 46 -167t154 -59q109 0 161.5 55t52.5 175v356q0 26 -7.5 34.5t-34.5 10.5
l-42 3v35h232v-35l-41 -3q-27 -2 -34.5 -10.5t-7.5 -34.5v-355q0 -66 -14.5 -121t-47.5 -94.5t-87.5 -62t-135.5 -22.5z" />
    <glyph glyph-name="Umacron" unicode="&#x16a;" horiz-adv-x="797" 
d="M409 -13q-87 0 -144.5 21t-92 58.5t-48.5 90t-14 115.5v386q0 14 -6 20t-23 8l-55 4v35h272v-35l-54 -4q-17 -2 -23 -8t-6 -20v-376q0 -108 46 -167t154 -59q109 0 161.5 55t52.5 175v356q0 26 -7.5 34.5t-34.5 10.5l-42 3v35h232v-35l-41 -3q-27 -2 -34.5 -10.5
t-7.5 -34.5v-355q0 -66 -14.5 -121t-47.5 -94.5t-87.5 -62t-135.5 -22.5zM266 798v67h311v-67h-311z" />
    <glyph glyph-name="Uogonek" unicode="&#x172;" horiz-adv-x="797" 
d="M694 287q0 -62 -12.5 -114t-41 -91t-75 -63.5t-115.5 -29.5q-32 -17 -51.5 -37.5t-19.5 -43.5q0 -15 6 -25t16 -16t23 -8.5t26 -2.5q14 0 27.5 2t23.5 7v-44q-14 -6 -34 -9t-44 -3q-21 0 -43 4.5t-41 14.5t-31 27t-12 43t21.5 49.5t56.5 40.5q-76 4 -127 26.5t-81.5 59.5
t-43 87.5t-12.5 110.5v386q0 14 -6 20t-23 8l-55 4v35h271v-35l-54 -4q-17 -2 -23 -8t-6 -20v-376q0 -108 46.5 -167t154.5 -59q109 0 161.5 55t52.5 175v356q0 26 -7.5 34.5t-34.5 10.5l-42 3v35h232v-35l-41 -3q-27 -2 -34.5 -10.5t-7.5 -34.5v-355v0z" />
    <glyph glyph-name="Uring" unicode="&#x16e;" horiz-adv-x="797" 
d="M419 943q19 0 36 -6.5t29.5 -18t20 -27.5t7.5 -35q0 -38 -27 -63t-66 -25q-40 0 -67 25t-27 63q0 19 7.5 35t20.5 27.5t30 18t36 6.5zM419 900q-18 0 -31.5 -12.5t-13.5 -31.5q0 -20 13.5 -32t31.5 -12q17 0 30.5 12t13.5 32q0 19 -13.5 31.5t-30.5 12.5zM409 -13
q-87 0 -144.5 21t-92 58.5t-48.5 90t-14 115.5v386q0 14 -6 20t-23 8l-55 4v35h272v-35l-54 -4q-17 -2 -23 -8t-6 -20v-376q0 -108 46 -167t154 -59q109 0 161.5 55t52.5 175v356q0 26 -7.5 34.5t-34.5 10.5l-42 3v35h232v-35l-41 -3q-27 -2 -34.5 -10.5t-7.5 -34.5v-355
q0 -66 -14.5 -121t-47.5 -94.5t-87.5 -62t-135.5 -22.5z" />
    <glyph glyph-name="Utilde" unicode="&#x168;" horiz-adv-x="797" 
d="M409 -13q-87 0 -144.5 21t-92 58.5t-48.5 90t-14 115.5v386q0 14 -6 20t-23 8l-55 4v35h272v-35l-54 -4q-17 -2 -23 -8t-6 -20v-376q0 -108 46 -167t154 -59q109 0 161.5 55t52.5 175v356q0 26 -7.5 34.5t-34.5 10.5l-42 3v35h232v-35l-41 -3q-27 -2 -34.5 -10.5
t-7.5 -34.5v-355q0 -66 -14.5 -121t-47.5 -94.5t-87.5 -62t-135.5 -22.5zM489 840q24 0 35.5 12.5t15.5 36.5h62q-10 -57 -38.5 -86t-70.5 -29q-23 0 -42.5 8t-37 17t-33 17t-29.5 8q-22 0 -33.5 -13t-16.5 -37h-60q8 61 39 88t70 27q23 0 42 -7.5t35.5 -17t31.5 -17
t30 -7.5z" />
    <glyph glyph-name="uni1EE4" unicode="&#x1ee4;" horiz-adv-x="797" 
d="M361 -53h98v-125h-98v125zM409 -13q-87 0 -144.5 21t-92 58.5t-48.5 90t-14 115.5v386q0 14 -6 20t-23 8l-55 4v35h272v-35l-54 -4q-17 -2 -23 -8t-6 -20v-376q0 -108 46 -167t154 -59q109 0 161.5 55t52.5 175v356q0 26 -7.5 34.5t-34.5 10.5l-42 3v35h232v-35l-41 -3
q-27 -2 -34.5 -10.5t-7.5 -34.5v-355q0 -66 -14.5 -121t-47.5 -94.5t-87.5 -62t-135.5 -22.5z" />
    <glyph glyph-name="Wacute" unicode="&#x1e82;" horiz-adv-x="1002" 
d="M556 773h-66l110 117h131zM722 129l123 490q5 21 7 34t-1 20.5t-11.5 10t-24.5 3.5l-44 3v35h237v-35l-29 -2q-15 -1 -25 -4t-17.5 -12t-14 -24.5t-13.5 -40.5l-162 -607h-85l-160 567l-161 -567h-84l-179 642q-7 24 -17 34t-39 12l-28 2v35h280v-35l-47 -4
q-32 -2 -37.5 -10.5t1.5 -34.5l125 -511l165 595h80z" />
    <glyph glyph-name="Wcircumflex" unicode="&#x174;" horiz-adv-x="1002" 
d="M692 773h-70l-103 58l-104 -58h-71l135 117h81zM722 129l123 490q5 21 7 34t-1 20.5t-11.5 10t-24.5 3.5l-44 3v35h237v-35l-29 -2q-15 -1 -25 -4t-17.5 -12t-14 -24.5t-13.5 -40.5l-162 -607h-85l-160 567l-161 -567h-84l-179 642q-7 24 -17 34t-39 12l-28 2v35h280v-35
l-47 -4q-32 -2 -37.5 -10.5t1.5 -34.5l125 -511l165 595h80z" />
    <glyph glyph-name="Wdieresis" unicode="&#x1e84;" horiz-adv-x="1002" 
d="M722 129l123 490q5 21 7 34t-1 20.5t-11.5 10t-24.5 3.5l-44 3v35h237v-35l-29 -2q-15 -1 -25 -4t-17.5 -12t-14 -24.5t-13.5 -40.5l-162 -607h-85l-160 567l-161 -567h-84l-179 642q-7 24 -17 34t-39 12l-28 2v35h280v-35l-47 -4q-32 -2 -37.5 -10.5t1.5 -34.5l125 -511
l165 595h80zM355 890h98v-117h-98v117zM580 890h98v-117h-98v117z" />
    <glyph glyph-name="Wgrave" unicode="&#x1e80;" horiz-adv-x="1002" 
d="M312 890h132l109 -117h-64zM722 129l123 490q5 21 7 34t-1 20.5t-11.5 10t-24.5 3.5l-44 3v35h237v-35l-29 -2q-15 -1 -25 -4t-17.5 -12t-14 -24.5t-13.5 -40.5l-162 -607h-85l-160 567l-161 -567h-84l-179 642q-7 24 -17 34t-39 12l-28 2v35h280v-35l-47 -4
q-32 -2 -37.5 -10.5t1.5 -34.5l125 -511l165 595h80z" />
    <glyph glyph-name="Ycircumflex" unicode="&#x176;" horiz-adv-x="678" 
d="M285 283l-207 363q-11 21 -21.5 30t-37.5 11l-26 3v35h288v-35l-59 -4q-19 -2 -26.5 -11t3.5 -31l162 -297l167 292q15 26 7 35.5t-27 11.5l-59 4v35h236v-35l-26 -3q-13 -1 -21 -3.5t-15 -8t-13 -15t-14 -22.5l-208 -345v-225q0 -14 6.5 -20t24.5 -8l74 -4v-36h-312v36
l74 4q17 2 23.5 8t6.5 20v215zM539 773h-70l-103 58l-104 -58h-71l135 117h81z" />
    <glyph glyph-name="Ydieresis" unicode="&#x178;" horiz-adv-x="678" 
d="M285 283l-207 363q-11 21 -21.5 30t-37.5 11l-26 3v35h288v-35l-59 -4q-19 -2 -26.5 -11t3.5 -31l162 -297l167 292q15 26 7 35.5t-27 11.5l-59 4v35h236v-35l-26 -3q-13 -1 -21 -3.5t-15 -8t-13 -15t-14 -22.5l-208 -345v-225q0 -14 6.5 -20t24.5 -8l74 -4v-36h-312v36
l74 4q17 2 23.5 8t6.5 20v215zM204 890h98v-117h-98v117zM429 890h98v-117h-98v117z" />
    <glyph glyph-name="Ygrave" unicode="&#x1ef2;" horiz-adv-x="678" 
d="M285 283l-207 363q-11 21 -21.5 30t-37.5 11l-26 3v35h288v-35l-59 -4q-19 -2 -26.5 -11t3.5 -31l162 -297l167 292q15 26 7 35.5t-27 11.5l-59 4v35h236v-35l-26 -3q-13 -1 -21 -3.5t-15 -8t-13 -15t-14 -22.5l-208 -345v-225q0 -14 6.5 -20t24.5 -8l74 -4v-36h-312v36
l74 4q17 2 23.5 8t6.5 20v215zM158 890h132l109 -117h-64z" />
    <glyph glyph-name="uni0232" unicode="&#x232;" horiz-adv-x="678" 
d="M285 283l-207 363q-11 21 -21.5 30t-37.5 11l-26 3v35h288v-35l-59 -4q-19 -2 -26.5 -11t3.5 -31l162 -297l167 292q15 26 7 35.5t-27 11.5l-59 4v35h236v-35l-26 -3q-13 -1 -21 -3.5t-15 -8t-13 -15t-14 -22.5l-208 -345v-225q0 -14 6.5 -20t24.5 -8l74 -4v-36h-312v36
l74 4q17 2 23.5 8t6.5 20v215zM209 798v67h311v-67h-311z" />
    <glyph glyph-name="Zacute" unicode="&#x179;" horiz-adv-x="698" 
d="M248 673q-35 0 -56 -1.5t-34 -9.5t-19.5 -24t-10.5 -44l-14 -86h-38v217h567v-51l-485 -622h310q34 0 55.5 1.5t34.5 9.5t19 23.5t11 44.5l15 86h38v-217h-605v52l484 621h-272v0zM386 773h-66l110 117h131z" />
    <glyph glyph-name="Zcaron" unicode="&#x17d;" horiz-adv-x="698" 
d="M248 673q-35 0 -56 -1.5t-34 -9.5t-19.5 -24t-10.5 -44l-14 -86h-38v217h567v-51l-485 -622h310q34 0 55.5 1.5t34.5 9.5t19 23.5t11 44.5l15 86h38v-217h-605v52l484 621h-272v0zM191 890h70l104 -58l104 58h70l-135 -117h-82z" />
    <glyph glyph-name="Zdotaccent" unicode="&#x17b;" horiz-adv-x="698" 
d="M314 890h98v-117h-98v117zM248 673q-35 0 -56 -1.5t-34 -9.5t-19.5 -24t-10.5 -44l-14 -86h-38v217h567v-51l-485 -622h310q34 0 55.5 1.5t34.5 9.5t19 23.5t11 44.5l15 86h38v-217h-605v52l484 621h-272v0z" />
    <glyph glyph-name="abreve" unicode="&#x103;" horiz-adv-x="598" 
d="M412 97q-13 -24 -29 -44.5t-38 -35t-51 -22.5t-67 -8q-36 0 -66.5 10.5t-53.5 29.5t-36 46t-13 60q0 48 26.5 79.5t73 52t109.5 33t136 21.5v47q0 70 -28.5 101t-85.5 31q-32 0 -54 -9.5t-36 -27t-21 -41t-9 -50.5h-95q3 39 20 72t45.5 56t67.5 36t85 13q49 0 88.5 -10
t67 -33.5t41 -63t12.5 -98.5q-1 -27 -1.5 -60t-0.5 -72v-69.5t2 -69.5q1 -16 6.5 -20t22.5 -6l42 -5v-35l-153 -9l-5 101h-2zM407 269q-50 -6 -94.5 -13t-77.5 -20.5t-52 -37t-19 -62.5q0 -40 25.5 -65t72.5 -25q30 0 56.5 9.5t46 31.5t31 58.5t11.5 91.5v32zM204 744
q3 -46 26 -67.5t59 -21.5q37 0 60.5 21.5t26.5 67.5h66q-6 -64 -43 -104t-111 -40q-70 0 -107.5 40t-42.5 104h66v0z" />
    <glyph glyph-name="amacron" unicode="&#x101;" horiz-adv-x="598" 
d="M412 97q-13 -24 -29 -44.5t-38 -35t-51 -22.5t-67 -8q-36 0 -66.5 10.5t-53.5 29.5t-36 46t-13 60q0 48 26.5 79.5t73 52t109.5 33t136 21.5v47q0 70 -28.5 101t-85.5 31q-32 0 -54 -9.5t-36 -27t-21 -41t-9 -50.5h-95q3 39 20 72t45.5 56t67.5 36t85 13q49 0 88.5 -10
t67 -33.5t41 -63t12.5 -98.5q-1 -27 -1.5 -60t-0.5 -72v-69.5t2 -69.5q1 -16 6.5 -20t22.5 -6l42 -5v-35l-153 -9l-5 101h-2zM407 269q-50 -6 -94.5 -13t-77.5 -20.5t-52 -37t-19 -62.5q0 -40 25.5 -65t72.5 -25q30 0 56.5 9.5t46 31.5t31 58.5t11.5 91.5v32zM151 633v69
h275v-69h-275z" />
    <glyph glyph-name="aogonek" unicode="&#x105;" horiz-adv-x="598" 
d="M474 -191q-21 0 -43 4.5t-41 14.5t-31 27t-12 43q0 31 19.5 54.5t52.5 43.5l-5 101h-2q-13 -24 -29 -44.5t-38 -35t-51 -22.5t-67 -8q-36 0 -66.5 10.5t-53.5 29.5t-36 46t-13 60q0 48 26.5 79.5t73 52t109.5 33t136 21.5v47q0 70 -28.5 101t-85.5 31q-32 0 -54 -9.5
t-36 -27t-21 -41t-9 -50.5h-95q3 39 20 72t45.5 56t67.5 36t85 13q49 0 88.5 -10t67 -33.5t41 -63t12.5 -98.5q-1 -27 -1.5 -60t-0.5 -72v-69.5t2 -69.5q1 -16 6.5 -20t22.5 -6l42 -5v-35l-61 -4q-35 -19 -58.5 -43.5t-23.5 -49.5q0 -29 22.5 -40.5t48.5 -11.5q31 0 51 9
v-44q-14 -6 -34 -9t-43 -3zM407 269q-50 -6 -94.5 -13t-77.5 -20.5t-52 -37t-19 -62.5q0 -40 25.5 -65t72.5 -25q30 0 56.5 9.5t46 31.5t31 58.5t11.5 91.5v32z" />
    <glyph glyph-name="cacute" unicode="&#x107;" horiz-adv-x="586" 
d="M329 603h-44l86 142h132zM49 267q0 61 18.5 112.5t52 89t80 58t103.5 20.5q42 0 81 -11t70.5 -33.5t53.5 -57t30 -80.5h-97q-5 66 -42.5 97.5t-91.5 31.5q-42 0 -71 -19t-47 -50.5t-26 -72.5t-8 -85t8 -85t26 -73t47 -51t71 -19q55 0 92.5 31.5t42.5 97.5h97
q-8 -47 -29.5 -81t-53.5 -56t-71.5 -33t-81.5 -11q-57 0 -103.5 21t-80 58t-52 88.5t-18.5 112.5z" />
    <glyph glyph-name="ccaron" unicode="&#x10d;" horiz-adv-x="586" 
d="M139 745h60l107 -71l107 71h60l-141 -142h-55zM49 267q0 61 18.5 112.5t52 89t80 58t103.5 20.5q42 0 81 -11t70.5 -33.5t53.5 -57t30 -80.5h-97q-5 66 -42.5 97.5t-91.5 31.5q-42 0 -71 -19t-47 -50.5t-26 -72.5t-8 -85t8 -85t26 -73t47 -51t71 -19q55 0 92.5 31.5
t42.5 97.5h97q-8 -47 -29.5 -81t-53.5 -56t-71.5 -33t-81.5 -11q-57 0 -103.5 21t-80 58t-52 88.5t-18.5 112.5z" />
    <glyph glyph-name="ccircumflex" unicode="&#x109;" horiz-adv-x="586" 
d="M475 603h-60l-106 71l-108 -71h-60l141 142h56zM49 267q0 61 18.5 112.5t52 89t80 58t103.5 20.5q42 0 81 -11t70.5 -33.5t53.5 -57t30 -80.5h-97q-5 66 -42.5 97.5t-91.5 31.5q-42 0 -71 -19t-47 -50.5t-26 -72.5t-8 -85t8 -85t26 -73t47 -51t71 -19q55 0 92.5 31.5
t42.5 97.5h97q-8 -47 -29.5 -81t-53.5 -56t-71.5 -33t-81.5 -11q-57 0 -103.5 21t-80 58t-52 88.5t-18.5 112.5z" />
    <glyph glyph-name="cdotaccent" unicode="&#x10b;" horiz-adv-x="586" 
d="M49 267q0 61 18.5 112.5t52 89t80 58t103.5 20.5q42 0 81 -11t70.5 -33.5t53.5 -57t30 -80.5h-97q-5 66 -42.5 97.5t-91.5 31.5q-42 0 -71 -19t-47 -50.5t-26 -72.5t-8 -85t8 -85t26 -73t47 -51t71 -19q55 0 92.5 31.5t42.5 97.5h97q-8 -47 -29.5 -81t-53.5 -56
t-71.5 -33t-81.5 -11q-57 0 -103.5 21t-80 58t-52 88.5t-18.5 112.5zM260 745h98v-125h-98v125z" />
    <glyph glyph-name="dcaron" unicode="&#x10f;" horiz-adv-x="748" 
d="M615 745h106v-110l-63 -137h-36l38 140h-45v107zM448 267q0 63 -12 105.5t-32.5 68t-46.5 36.5t-54 11q-66 0 -107 -58.5t-41 -162.5q0 -52 10.5 -93t29.5 -69.5t45 -43.5t58 -15q25 0 52 11t48.5 37t35.5 68t14 105zM538 745l-1 -114v-559q0 -17 6.5 -21t23.5 -6l41 -5
v-33l-162 -11l-3 99h-2q-12 -22 -28.5 -41.5t-38 -34.5t-48 -23.5t-58.5 -8.5q-47 0 -87.5 20t-69.5 57t-45.5 88t-16.5 114q0 64 18.5 116t50.5 88.5t75 56.5t92 20q28 0 52 -8t43.5 -21.5t34 -31t24.5 -36.5h2q-1 37 -1.5 54.5t-0.5 31.5v142q0 17 -6.5 21t-23.5 6l-53 5
v35h182z" />
    <glyph glyph-name="dcroat" unicode="&#x111;" horiz-adv-x="662" 
d="M538 745l-1 -113h98v-57h-98v-503q0 -17 6.5 -21t23.5 -6l41 -5v-33l-162 -11l-3 99h-2q-12 -22 -28.5 -41.5t-38 -34.5t-48 -23.5t-58.5 -8.5q-47 0 -87.5 20t-69.5 57t-45.5 88t-16.5 114q0 64 18.5 116t50.5 88.5t75 56.5t92 20q28 0 52 -8t43.5 -21.5t34 -31
t24.5 -36.5h2q-1 37 -1.5 54.5t-0.5 31.5v39h-121v57h121v46q0 17 -6.5 21t-23.5 6l-53 5v35h182zM448 267q0 63 -12 105.5t-32.5 68t-46.5 36.5t-54 11q-66 0 -107 -58.5t-41 -162.5q0 -52 10.5 -93t29.5 -69.5t45 -43.5t58 -15q25 0 52 11t48.5 37t35.5 68t14 105z" />
    <glyph glyph-name="ebreve" unicode="&#x115;" horiz-adv-x="595" 
d="M313 39q56 0 92 30t43 91h97q-8 -44 -30.5 -76t-55 -54t-72 -32.5t-80.5 -10.5q-62 0 -110 21.5t-81 59t-50 88t-17 109.5q0 61 18.5 113t52.5 89.5t81.5 58.5t104.5 21q47 0 91 -16.5t78 -51t54 -88t20 -128.5h-397q1 -50 10.5 -91t29 -70.5t49.5 -46t72 -16.5zM303 497
q-60 0 -102 -44.5t-48 -135.5h292q0 48 -11 82t-30.5 55.5t-45.5 32t-55 10.5zM225 744q3 -46 26 -67.5t59 -21.5q37 0 60.5 21.5t26.5 67.5h66q-6 -64 -43 -104t-111 -40q-70 0 -107.5 40t-42.5 104h66v0z" />
    <glyph glyph-name="ecaron" unicode="&#x11b;" horiz-adv-x="595" 
d="M143 745h60l107 -71l107 71h60l-141 -142h-55zM313 39q56 0 92 30t43 91h97q-8 -44 -30.5 -76t-55 -54t-72 -32.5t-80.5 -10.5q-62 0 -110 21.5t-81 59t-50 88t-17 109.5q0 61 18.5 113t52.5 89.5t81.5 58.5t104.5 21q47 0 91 -16.5t78 -51t54 -88t20 -128.5h-397
q1 -50 10.5 -91t29 -70.5t49.5 -46t72 -16.5zM303 497q-60 0 -102 -44.5t-48 -135.5h292q0 48 -11 82t-30.5 55.5t-45.5 32t-55 10.5z" />
    <glyph glyph-name="emacron" unicode="&#x113;" horiz-adv-x="595" 
d="M313 39q56 0 92 30t43 91h97q-8 -44 -30.5 -76t-55 -54t-72 -32.5t-80.5 -10.5q-62 0 -110 21.5t-81 59t-50 88t-17 109.5q0 61 18.5 113t52.5 89.5t81.5 58.5t104.5 21q47 0 91 -16.5t78 -51t54 -88t20 -128.5h-397q1 -50 10.5 -91t29 -70.5t49.5 -46t72 -16.5zM303 497
q-60 0 -102 -44.5t-48 -135.5h292q0 48 -11 82t-30.5 55.5t-45.5 32t-55 10.5zM175 633v69h275v-69h-275z" />
    <glyph glyph-name="eogonek" unicode="&#x119;" horiz-adv-x="595" 
d="M311 39q57 0 93.5 33.5t43.5 94.5h97q-12 -66 -54 -107.5t-97 -62.5q-42 -17 -68.5 -40t-26.5 -49q0 -29 22.5 -40.5t48.5 -11.5q31 0 51 9v-44q-13 -6 -33 -9t-43 -3q-21 0 -43.5 4.5t-41.5 14.5t-31 27t-12 43q0 52 61 91q-55 4 -97.5 27.5t-72 61t-44.5 86t-15 104.5
q0 61 18.5 112.5t52 88.5t81 57.5t105.5 20.5q47 0 91 -16t78 -50.5t54 -88t20 -128.5h-397q1 -49 10.5 -90t29 -71t49 -47t70.5 -17zM303 497q-30 0 -56.5 -11t-46.5 -33t-32.5 -56t-14.5 -79h292q0 48 -11 81.5t-30.5 55.5t-45.5 32t-55 10z" />
    <glyph glyph-name="edotaccent" unicode="&#x117;" horiz-adv-x="595" 
d="M313 39q56 0 92 30t43 91h97q-8 -44 -30.5 -76t-55 -54t-72 -32.5t-80.5 -10.5q-62 0 -110 21.5t-81 59t-50 88t-17 109.5q0 61 18.5 113t52.5 89.5t81.5 58.5t104.5 21q47 0 91 -16.5t78 -51t54 -88t20 -128.5h-397q1 -50 10.5 -91t29 -70.5t49.5 -46t72 -16.5zM303 497
q-60 0 -102 -44.5t-48 -135.5h292q0 48 -11 82t-30.5 55.5t-45.5 32t-55 10.5zM267 745h98v-125h-98v125z" />
    <glyph glyph-name="gbreve" unicode="&#x11f;" horiz-adv-x="586" 
d="M434 486q20 -23 32 -53t12 -68q0 -42 -15 -76.5t-42.5 -59.5t-66 -38.5t-85.5 -13.5q-31 0 -58 6q-20 -6 -35 -15.5t-15 -26.5q0 -21 17.5 -30.5t62.5 -12.5l134 -8q52 -3 86.5 -13t55 -25t29 -35t8.5 -43q0 -31 -17 -61.5t-52 -55t-88 -39.5t-124 -15q-116 0 -177 36
t-61 90q0 19 10.5 35t28 28t40 20t47.5 12q-50 12 -68.5 36t-18.5 50q0 32 30 52.5t76 29.5q-53 19 -87.5 61t-34.5 107q0 48 17.5 83t47 58t68.5 34.5t81 11.5q52 0 97 -18l211 9v-57zM272 224q51 0 80.5 35t29.5 104q0 68 -29.5 103t-80.5 35q-54 0 -85 -34t-31 -107
q0 -35 9.5 -60.5t25 -42t36.5 -25t45 -8.5zM217 16q-8 0 -14.5 0.5t-12.5 1.5q-30 -10 -51 -29.5t-21 -46.5q0 -41 39.5 -64t123.5 -23q40 0 73.5 6t58 18t38.5 28.5t14 37.5q0 32 -24 45.5t-88 18.5zM190 744q3 -46 26 -67.5t59 -21.5q37 0 60.5 21.5t26.5 67.5h66
q-6 -64 -43 -104t-111 -40q-70 0 -107.5 40t-42.5 104h66v0z" />
    <glyph glyph-name="gcircumflex" unicode="&#x11d;" horiz-adv-x="586" 
d="M440 603h-60l-106 71l-108 -71h-60l141 142h56zM434 486q20 -23 32 -53t12 -68q0 -42 -15 -76.5t-42.5 -59.5t-66 -38.5t-85.5 -13.5q-31 0 -58 6q-20 -6 -35 -15.5t-15 -26.5q0 -21 17.5 -30.5t62.5 -12.5l134 -8q52 -3 86.5 -13t55 -25t29 -35t8.5 -43q0 -31 -17 -61.5
t-52 -55t-88 -39.5t-124 -15q-116 0 -177 36t-61 90q0 19 10.5 35t28 28t40 20t47.5 12q-50 12 -68.5 36t-18.5 50q0 32 30 52.5t76 29.5q-53 19 -87.5 61t-34.5 107q0 48 17.5 83t47 58t68.5 34.5t81 11.5q52 0 97 -18l211 9v-57zM272 224q51 0 80.5 35t29.5 104
q0 68 -29.5 103t-80.5 35q-54 0 -85 -34t-31 -107q0 -35 9.5 -60.5t25 -42t36.5 -25t45 -8.5zM217 16q-8 0 -14.5 0.5t-12.5 1.5q-30 -10 -51 -29.5t-21 -46.5q0 -41 39.5 -64t123.5 -23q40 0 73.5 6t58 18t38.5 28.5t14 37.5q0 32 -24 45.5t-88 18.5z" />
    <glyph glyph-name="gcommaaccent" unicode="&#x123;" horiz-adv-x="586" 
d="M336 613h-102v98l46 93h60l-41 -100h37v-91zM434 486q20 -23 32 -53t12 -68q0 -42 -15 -76.5t-42.5 -59.5t-66 -38.5t-85.5 -13.5q-31 0 -58 6q-20 -6 -35 -15.5t-15 -26.5q0 -21 17.5 -30.5t62.5 -12.5l134 -8q52 -3 86.5 -13t55 -25t29 -35t8.5 -43q0 -31 -17 -61.5
t-52 -55t-88 -39.5t-124 -15q-116 0 -177 36t-61 90q0 19 10.5 35t28 28t40 20t47.5 12q-50 12 -68.5 36t-18.5 50q0 32 30 52.5t76 29.5q-53 19 -87.5 61t-34.5 107q0 48 17.5 83t47 58t68.5 34.5t81 11.5q52 0 97 -18l211 9v-57zM272 224q51 0 80.5 35t29.5 104
q0 68 -29.5 103t-80.5 35q-54 0 -85 -34t-31 -107q0 -35 9.5 -60.5t25 -42t36.5 -25t45 -8.5zM217 16q-8 0 -14.5 0.5t-12.5 1.5q-30 -10 -51 -29.5t-21 -46.5q0 -41 39.5 -64t123.5 -23q40 0 73.5 6t58 18t38.5 28.5t14 37.5q0 32 -24 45.5t-88 18.5z" />
    <glyph glyph-name="gdotaccent" unicode="&#x121;" horiz-adv-x="586" 
d="M434 486q20 -23 32 -53t12 -68q0 -42 -15 -76.5t-42.5 -59.5t-66 -38.5t-85.5 -13.5q-31 0 -58 6q-20 -6 -35 -15.5t-15 -26.5q0 -21 17.5 -30.5t62.5 -12.5l134 -8q52 -3 86.5 -13t55 -25t29 -35t8.5 -43q0 -31 -17 -61.5t-52 -55t-88 -39.5t-124 -15q-116 0 -177 36
t-61 90q0 19 10.5 35t28 28t40 20t47.5 12q-50 12 -68.5 36t-18.5 50q0 32 30 52.5t76 29.5q-53 19 -87.5 61t-34.5 107q0 48 17.5 83t47 58t68.5 34.5t81 11.5q52 0 97 -18l211 9v-57zM272 224q51 0 80.5 35t29.5 104q0 68 -29.5 103t-80.5 35q-54 0 -85 -34t-31 -107
q0 -35 9.5 -60.5t25 -42t36.5 -25t45 -8.5zM217 16q-8 0 -14.5 0.5t-12.5 1.5q-30 -10 -51 -29.5t-21 -46.5q0 -41 39.5 -64t123.5 -23q40 0 73.5 6t58 18t38.5 28.5t14 37.5q0 32 -24 45.5t-88 18.5zM230 745h98v-125h-98v125z" />
    <glyph glyph-name="hbar" unicode="&#x127;" horiz-adv-x="659" 
d="M562 66q0 -16 6.5 -20.5t23.5 -6.5l41 -4v-35h-240v35l41 4q17 2 23.5 6.5t6.5 20.5v268q0 77 -23 114t-80 37q-22 0 -45 -9t-42 -29.5t-31 -52.5t-12 -77v-251q0 -16 6.5 -20.5t23.5 -6.5l42 -4v-35h-242v35l41 4q17 2 24 6.5t7 20.5v509h-104v57h104v47q0 16 -6 20
t-25 6l-41 5v35h171l-1 -113h116v-57h-116v-53q0 -5 -0.5 -17.5t-0.5 -26.5v-35h2q23 47 66.5 75.5t105.5 28.5q47 0 77.5 -16.5t48.5 -42.5t25 -59.5t7 -66.5v-296z" />
    <glyph glyph-name="hcircumflex" unicode="&#x125;" horiz-adv-x="639" 
d="M543 66q0 -16 6.5 -20.5t23.5 -6.5l41 -4v-35h-240v35l41 4q17 2 23.5 6.5t6.5 20.5v268q0 77 -23 114t-80 37q-22 0 -45 -9t-42 -29.5t-31 -52.5t-12 -77v-251q0 -16 6.5 -20.5t23.5 -6.5l42 -4v-35h-242v35l41 4q17 2 24 6.5t7 20.5v613q0 16 -6 20t-25 6l-41 5v35h171
l-1 -113v-110q0 -5 -0.5 -17.5t-0.5 -26.5v-35h2q23 47 66.5 75.5t105.5 28.5q47 0 77.5 -16.5t48.5 -42.5t25 -59.5t7 -66.5v-296zM335 773h-70l-103 58l-104 -58h-71l135 117h81z" />
    <glyph glyph-name="dotlessi" unicode="&#x131;" horiz-adv-x="336" 
d="M229 426v-360q0 -16 6.5 -20.5t23.5 -6.5l41 -4v-35h-241v35l43 4q17 2 23 6.5t6 20.5v404q0 15 -5.5 20.5t-23.5 8.5l-43 5v34h171z" />
    <glyph glyph-name="ibreve" unicode="&#x12d;" horiz-adv-x="336" 
d="M229 426v-360q0 -16 6.5 -20.5t23.5 -6.5l41 -4v-35h-241v35l43 4q17 2 23 6.5t6 20.5v404q0 15 -5.5 20.5t-23.5 8.5l-43 5v34h171zM92 744q3 -46 26 -67.5t59 -21.5q37 0 60.5 21.5t26.5 67.5h66q-6 -64 -43 -104t-111 -40q-70 0 -107.5 40t-42.5 104h66v0z" />
    <glyph glyph-name="imacron" unicode="&#x12b;" horiz-adv-x="336" 
d="M229 426v-360q0 -16 6.5 -20.5t23.5 -6.5l41 -4v-35h-241v35l43 4q17 2 23 6.5t6 20.5v404q0 15 -5.5 20.5t-23.5 8.5l-43 5v34h171zM36 633v69h275v-69h-275z" />
    <glyph glyph-name="iogonek" unicode="&#x12f;" horiz-adv-x="336" 
d="M229 0q-40 -19 -67 -42.5t-27 -49.5q0 -15 6 -25t16 -16t23 -8.5t26 -2.5q31 0 51 9v-44q-13 -6 -33.5 -9t-43.5 -3q-21 0 -43.5 4.5t-41.5 14.5t-31 27t-12 43q0 16 8.5 31t23.5 28.5t34.5 24t41.5 18.5h69zM229 426v-360q0 -16 6.5 -20.5t23.5 -6.5l41 -4v-35h-241v35
l43 4q17 2 23 6.5t6 20.5v404q0 15 -5.5 20.5t-23.5 8.5l-43 5v34h171zM131 745h98v-125h-98v125z" />
    <glyph glyph-name="itilde" unicode="&#x129;" horiz-adv-x="336" 
d="M229 426v-360q0 -16 6.5 -20.5t23.5 -6.5l41 -4v-35h-241v35l43 4q17 2 23 6.5t6 20.5v404q0 15 -5.5 20.5t-23.5 8.5l-43 5v34h171zM243 676q24 0 36 13t16 36h61q-10 -56 -38 -85.5t-71 -29.5q-23 0 -42 8t-36.5 18t-32.5 18t-30 8q-23 0 -34 -14t-17 -38h-60
q8 61 39.5 88t70.5 27q22 0 41.5 -7.5t36 -17t31.5 -17t29 -7.5z" />
    <glyph glyph-name="uni1ECB" unicode="&#x1ecb;" horiz-adv-x="336" 
d="M130 -53h98v-125h-98v125zM229 426v-360q0 -16 6.5 -20.5t23.5 -6.5l41 -4v-35h-241v35l43 4q17 2 23 6.5t6 20.5v404q0 15 -5.5 20.5t-23.5 8.5l-43 5v34h171zM131 745h98v-125h-98v125z" />
    <glyph glyph-name="dotlessj" unicode="&#x237;" horiz-adv-x="336" 
d="M131 470q0 15 -5.5 20.5t-24.5 8.5l-42 5v34h171l-1 -112v-441q0 -60 -7 -94.5t-24 -52t-46 -22.5t-74 -5h-73v67h71q18 0 29 2t17 13t7.5 33.5t1.5 63.5v480z" />
    <glyph glyph-name="jcircumflex" unicode="&#x135;" horiz-adv-x="336" 
d="M343 603h-60l-106 71l-108 -71h-60l141 142h56zM131 470q0 15 -5.5 20.5t-24.5 8.5l-42 5v34h171l-1 -112v-441q0 -60 -7 -94.5t-24 -52t-46 -22.5t-74 -5h-73v67h71q18 0 29 2t17 13t7.5 33.5t1.5 63.5v480z" />
    <glyph glyph-name="kcommaaccent" unicode="&#x137;" horiz-adv-x="605" 
d="M269 -37h103v-98l-46 -93h-60l40 99h-37v92zM217 745l-1 -114v-365l182 190q23 26 21.5 34.5t-31.5 10.5l-42 2v35h231v-35l-28 -2q-14 -1 -24 -3t-19 -6.5t-18.5 -12t-22.5 -20.5l-115 -119l150 -248q19 -32 37 -43t46 -13l22 -1v-35h-162l-161 271l-66 -68v-137
q0 -16 6.5 -20.5t23.5 -6.5l42 -4v-35h-242v35l41 4q17 2 24 6.5t7 20.5v613q0 16 -6 20t-25 6l-41 5v35h171z" />
    <glyph glyph-name="lacute" unicode="&#x13a;" horiz-adv-x="314" 
d="M192 773h-66l110 117h131zM217 745l-1 -114v-565q0 -16 6.5 -20.5t23.5 -6.5l42 -4v-35h-242v35l41 4q17 2 24 6.5t7 20.5v613q0 16 -6 20t-25 6l-41 5v35h171z" />
    <glyph glyph-name="lcaron" unicode="&#x13e;" horiz-adv-x="437" 
d="M294 745h106v-110l-63 -137h-36l38 140h-45v107zM217 745l-1 -114v-565q0 -16 6.5 -20.5t23.5 -6.5l42 -4v-35h-242v35l41 4q17 2 24 6.5t7 20.5v613q0 16 -6 20t-25 6l-41 5v35h171z" />
    <glyph glyph-name="lcommaaccent" unicode="&#x13c;" horiz-adv-x="327" 
d="M114 -37h103v-98l-46 -93h-60l40 99h-37v92zM217 745l-1 -114v-565q0 -16 6.5 -20.5t23.5 -6.5l42 -4v-35h-242v35l41 4q17 2 24 6.5t7 20.5v613q0 16 -6 20t-25 6l-41 5v35h171z" />
    <glyph glyph-name="ldot" unicode="&#x140;" horiz-adv-x="397" 
d="M217 745l-1 -114v-565q0 -16 6.5 -20.5t23.5 -6.5l42 -4v-35h-242v35l41 4q17 2 24 6.5t7 20.5v613q0 16 -6 20t-25 6l-41 5v35h171zM292 476h98v-125h-98v125z" />
    <glyph glyph-name="lslash" unicode="&#x142;" horiz-adv-x="357" 
d="M225 745l-1 -114v-209l105 33l15 -49l-120 -38v-302q0 -16 6.5 -20.5t23.5 -6.5l42 -4v-35h-242v35l41 4q17 2 24 6.5t7 20.5v272l-96 -30l-14 49l110 34v288q0 16 -6 20t-25 6l-41 5v35h171z" />
    <glyph glyph-name="nacute" unicode="&#x144;" horiz-adv-x="657" 
d="M382 603h-44l86 142h132zM560 66q0 -16 6.5 -20.5t23.5 -6.5l42 -4v-35h-242v35l42 4q17 2 23.5 6.5t6.5 20.5v268q0 77 -23 114t-79 37q-22 0 -45.5 -9t-42.5 -29.5t-31 -52.5t-12 -77v-251q0 -16 6.5 -20.5t23.5 -6.5l41 -4v-35h-241v35l43 4q17 2 23 6.5t6 20.5v404
q0 15 -5.5 20.5t-23.5 8.5l-43 5v34h169v-95h1q24 47 67.5 75.5t106.5 28.5q47 0 77.5 -16.5t48 -42.5t24.5 -59.5t7 -66.5v-296z" />
    <glyph glyph-name="ncaron" unicode="&#x148;" horiz-adv-x="657" 
d="M180 745h60l107 -71l107 71h60l-141 -142h-55zM560 66q0 -16 6.5 -20.5t23.5 -6.5l42 -4v-35h-242v35l42 4q17 2 23.5 6.5t6.5 20.5v268q0 77 -23 114t-79 37q-22 0 -45.5 -9t-42.5 -29.5t-31 -52.5t-12 -77v-251q0 -16 6.5 -20.5t23.5 -6.5l41 -4v-35h-241v35l43 4
q17 2 23 6.5t6 20.5v404q0 15 -5.5 20.5t-23.5 8.5l-43 5v34h169v-95h1q24 47 67.5 75.5t106.5 28.5q47 0 77.5 -16.5t48 -42.5t24.5 -59.5t7 -66.5v-296z" />
    <glyph glyph-name="ncommaaccent" unicode="&#x146;" horiz-adv-x="657" 
d="M292 -37h103v-98l-46 -93h-60l40 99h-37v92zM560 66q0 -16 6.5 -20.5t23.5 -6.5l42 -4v-35h-242v35l42 4q17 2 23.5 6.5t6.5 20.5v268q0 77 -23 114t-79 37q-22 0 -45.5 -9t-42.5 -29.5t-31 -52.5t-12 -77v-251q0 -16 6.5 -20.5t23.5 -6.5l41 -4v-35h-241v35l43 4
q17 2 23 6.5t6 20.5v404q0 15 -5.5 20.5t-23.5 8.5l-43 5v34h169v-95h1q24 47 67.5 75.5t106.5 28.5q47 0 77.5 -16.5t48 -42.5t24.5 -59.5t7 -66.5v-296z" />
    <glyph glyph-name="oe" unicode="&#x153;" horiz-adv-x="997" 
d="M713 39q57 0 93.5 33.5t42.5 94.5h98q-8 -45 -30.5 -79t-55 -56.5t-72 -33.5t-81.5 -11q-72 0 -122 28.5t-81 77.5q-31 -51 -82 -78.5t-119 -27.5q-55 0 -102 20t-81 56.5t-53 88t-19 114.5q0 64 19 115.5t53.5 87.5t81.5 55.5t103 19.5q66 0 117 -28t82 -78
q32 50 82.5 78t119.5 28q47 0 91.5 -16t78.5 -50t54 -87.5t20 -128.5h-398q1 -49 11 -90t29.5 -70.5t49 -46t70.5 -16.5zM456 265q0 60 -11.5 103t-31.5 70t-47.5 40t-59.5 13t-60 -13t-48 -40t-31.5 -70t-11.5 -103q0 -59 11.5 -102t31.5 -70.5t48 -40.5t60 -13t59.5 13
t47.5 40.5t31.5 70.5t11.5 102zM847 316q0 48 -11.5 81.5t-30.5 55t-45 31.5t-55 10q-61 0 -103 -43.5t-47 -134.5h292z" />
    <glyph glyph-name="obreve" unicode="&#x14f;" horiz-adv-x="612" 
d="M155 267q0 -59 11.5 -102.5t31.5 -71.5t48 -41.5t60 -13.5t59.5 13.5t48 41.5t32 71.5t11.5 102.5t-11.5 102.5t-32 71.5t-48 41.5t-59.5 13.5t-60 -13.5t-48 -41.5t-31.5 -71.5t-11.5 -102.5zM562 267q0 -63 -19.5 -115t-53.5 -88.5t-81 -56.5t-102 -20t-102 20
t-81 56.5t-53.5 88.5t-19.5 115t19.5 115t53.5 88.5t81 56.5t102 20t102 -20t81 -56.5t53.5 -88.5t19.5 -115zM222 744q3 -46 26 -67.5t59 -21.5q37 0 60.5 21.5t26.5 67.5h66q-6 -64 -43 -104t-111 -40q-70 0 -107.5 40t-42.5 104h66v0z" />
    <glyph glyph-name="ohungarumlaut" unicode="&#x151;" horiz-adv-x="608" 
d="M247 603h-43l87 142h131zM413 603h-44l87 142h131zM155 267q0 -59 11.5 -102.5t31.5 -71.5t48 -41.5t60 -13.5t59.5 13.5t48 41.5t32 71.5t11.5 102.5t-11.5 102.5t-32 71.5t-48 41.5t-59.5 13.5t-60 -13.5t-48 -41.5t-31.5 -71.5t-11.5 -102.5zM562 267
q0 -63 -19.5 -115t-53.5 -88.5t-81 -56.5t-102 -20t-102 20t-81 56.5t-53.5 88.5t-19.5 115t19.5 115t53.5 88.5t81 56.5t102 20t102 -20t81 -56.5t53.5 -88.5t19.5 -115z" />
    <glyph glyph-name="omacron" unicode="&#x14d;" horiz-adv-x="612" 
d="M155 267q0 -59 11.5 -102.5t31.5 -71.5t48 -41.5t60 -13.5t59.5 13.5t48 41.5t32 71.5t11.5 102.5t-11.5 102.5t-32 71.5t-48 41.5t-59.5 13.5t-60 -13.5t-48 -41.5t-31.5 -71.5t-11.5 -102.5zM562 267q0 -63 -19.5 -115t-53.5 -88.5t-81 -56.5t-102 -20t-102 20
t-81 56.5t-53.5 88.5t-19.5 115t19.5 115t53.5 88.5t81 56.5t102 20t102 -20t81 -56.5t53.5 -88.5t19.5 -115zM168 633v69h275v-69h-275z" />
    <glyph glyph-name="uni1ECD" unicode="&#x1ecd;" horiz-adv-x="612" 
d="M256 -53h98v-125h-98v125zM155 267q0 -59 11.5 -102.5t31.5 -71.5t48 -41.5t60 -13.5t59.5 13.5t48 41.5t32 71.5t11.5 102.5t-11.5 102.5t-32 71.5t-48 41.5t-59.5 13.5t-60 -13.5t-48 -41.5t-31.5 -71.5t-11.5 -102.5zM562 267q0 -63 -19.5 -115t-53.5 -88.5t-81 -56.5
t-102 -20t-102 20t-81 56.5t-53.5 88.5t-19.5 115t19.5 115t53.5 88.5t81 56.5t102 20t102 -20t81 -56.5t53.5 -88.5t19.5 -115z" />
    <glyph glyph-name="racute" unicode="&#x155;" horiz-adv-x="445" 
d="M288 603h-44l86 142h132zM228 426h2q20 52 61.5 84.5t100.5 32.5h51v-92h-85q-32 0 -56 -7t-40.5 -24t-24.5 -44.5t-8 -68.5v-240q0 -16 6.5 -21t23.5 -6l84 -4v-36h-284v35l43 4q17 2 23 6.5t6 20.5v404q0 15 -5.5 20.5t-23.5 8.5l-43 5v34h168z" />
    <glyph glyph-name="rcaron" unicode="&#x159;" horiz-adv-x="449" 
d="M107 745h60l107 -71l107 71h60l-141 -142h-55zM228 426h2q20 52 61.5 84.5t100.5 32.5h51v-92h-85q-32 0 -56 -7t-40.5 -24t-24.5 -44.5t-8 -68.5v-240q0 -16 6.5 -21t23.5 -6l84 -4v-36h-284v35l43 4q17 2 23 6.5t6 20.5v404q0 15 -5.5 20.5t-23.5 8.5l-43 5v34h168z
" />
    <glyph glyph-name="rcommaaccent" unicode="&#x157;" horiz-adv-x="449" 
d="M128 -37h103v-98l-46 -93h-60l40 99h-37v92zM228 426h2q20 52 61.5 84.5t100.5 32.5h51v-92h-85q-32 0 -56 -7t-40.5 -24t-24.5 -44.5t-8 -68.5v-240q0 -16 6.5 -21t23.5 -6l84 -4v-36h-284v35l43 4q17 2 23 6.5t6 20.5v404q0 15 -5.5 20.5t-23.5 8.5l-43 5v34h168z" />
    <glyph glyph-name="sacute" unicode="&#x15b;" horiz-adv-x="546" 
d="M269 603h-44l86 142h132zM144 169q6 -61 42.5 -95.5t99.5 -34.5q59 0 95.5 25.5t36.5 65.5q0 22 -10 38.5t-28 28.5t-42.5 20t-53.5 14l-65 12q-32 7 -60.5 19.5t-49.5 31.5t-33.5 44.5t-12.5 58.5q0 36 16 64t44.5 47t66.5 29t82 10q41 0 78.5 -10t67 -29.5t49 -48.5
t25.5 -68h-95q-5 50 -42.5 76.5t-91.5 26.5q-20 0 -40.5 -4.5t-37.5 -14.5t-28 -24.5t-11 -35.5q0 -36 28.5 -57.5t76.5 -31.5l61 -12q38 -8 72.5 -19.5t60.5 -30.5t41.5 -46t15.5 -64q0 -42 -17 -73.5t-47 -52t-70.5 -31t-86.5 -10.5q-54 0 -96.5 13.5t-71.5 37.5
t-45.5 57.5t-19.5 73.5h96v0z" />
    <glyph glyph-name="scaron" unicode="&#x161;" horiz-adv-x="546" 
d="M110 745h60l107 -71l107 71h60l-141 -142h-55zM144 169q6 -61 42.5 -95.5t99.5 -34.5q59 0 95.5 25.5t36.5 65.5q0 22 -10 38.5t-28 28.5t-42.5 20t-53.5 14l-65 12q-32 7 -60.5 19.5t-49.5 31.5t-33.5 44.5t-12.5 58.5q0 36 16 64t44.5 47t66.5 29t82 10q41 0 78.5 -10
t67 -29.5t49 -48.5t25.5 -68h-95q-5 50 -42.5 76.5t-91.5 26.5q-20 0 -40.5 -4.5t-37.5 -14.5t-28 -24.5t-11 -35.5q0 -36 28.5 -57.5t76.5 -31.5l61 -12q38 -8 72.5 -19.5t60.5 -30.5t41.5 -46t15.5 -64q0 -42 -17 -73.5t-47 -52t-70.5 -31t-86.5 -10.5q-54 0 -96.5 13.5
t-71.5 37.5t-45.5 57.5t-19.5 73.5h96v0z" />
    <glyph glyph-name="scedilla" unicode="&#x15f;" horiz-adv-x="546" 
d="M144 169q6 -61 42.5 -95.5t99.5 -34.5q59 0 95.5 25.5t36.5 65.5q0 22 -10 38.5t-28 28.5t-42.5 20t-53.5 14l-65 12q-32 7 -60.5 19.5t-49.5 31.5t-33.5 44.5t-12.5 58.5q0 36 16 64t44.5 47t66.5 29t82 10q41 0 78.5 -10t67 -29.5t49 -48.5t25.5 -68h-95
q-5 50 -42.5 76.5t-91.5 26.5q-20 0 -40.5 -4.5t-37.5 -14.5t-28 -24.5t-11 -35.5q0 -36 28.5 -57.5t76.5 -31.5l61 -12q38 -8 72.5 -19.5t60.5 -30.5t41.5 -46t15.5 -64q0 -42 -17 -73.5t-47 -52t-70.5 -31t-86.5 -10.5q-54 0 -96.5 13.5t-71.5 37.5t-45.5 57.5t-19.5 73.5
h96v0zM246 3h48l-37 -53q51 10 82 -13t31 -64q0 -21 -10 -38t-26 -28.5t-37.5 -18t-43.5 -6.5q-25 0 -46.5 4t-47.5 15l16 37q29 -13 64 -13q23 0 42.5 9.5t19.5 33.5q0 20 -15 29t-32 9q-11 0 -23 -2.5t-21 -7.5l-20 19z" />
    <glyph glyph-name="scircumflex" unicode="&#x15d;" horiz-adv-x="546" 
d="M450 603h-60l-106 71l-108 -71h-60l141 142h56zM144 169q6 -61 42.5 -95.5t99.5 -34.5q59 0 95.5 25.5t36.5 65.5q0 22 -10 38.5t-28 28.5t-42.5 20t-53.5 14l-65 12q-32 7 -60.5 19.5t-49.5 31.5t-33.5 44.5t-12.5 58.5q0 36 16 64t44.5 47t66.5 29t82 10q41 0 78.5 -10
t67 -29.5t49 -48.5t25.5 -68h-95q-5 50 -42.5 76.5t-91.5 26.5q-20 0 -40.5 -4.5t-37.5 -14.5t-28 -24.5t-11 -35.5q0 -36 28.5 -57.5t76.5 -31.5l61 -12q38 -8 72.5 -19.5t60.5 -30.5t41.5 -46t15.5 -64q0 -42 -17 -73.5t-47 -52t-70.5 -31t-86.5 -10.5q-54 0 -96.5 13.5
t-71.5 37.5t-45.5 57.5t-19.5 73.5h96v0z" />
    <glyph glyph-name="scommaaccent" unicode="&#x219;" horiz-adv-x="546" 
d="M229 -37h103v-98l-46 -93h-60l40 99h-37v92zM144 169q6 -61 42.5 -95.5t99.5 -34.5q59 0 95.5 25.5t36.5 65.5q0 22 -10 38.5t-28 28.5t-42.5 20t-53.5 14l-65 12q-32 7 -60.5 19.5t-49.5 31.5t-33.5 44.5t-12.5 58.5q0 36 16 64t44.5 47t66.5 29t82 10q41 0 78.5 -10
t67 -29.5t49 -48.5t25.5 -68h-95q-5 50 -42.5 76.5t-91.5 26.5q-20 0 -40.5 -4.5t-37.5 -14.5t-28 -24.5t-11 -35.5q0 -36 28.5 -57.5t76.5 -31.5l61 -12q38 -8 72.5 -19.5t60.5 -30.5t41.5 -46t15.5 -64q0 -42 -17 -73.5t-47 -52t-70.5 -31t-86.5 -10.5q-54 0 -96.5 13.5
t-71.5 37.5t-45.5 57.5t-19.5 73.5h96v0z" />
    <glyph glyph-name="tcaron" unicode="&#x165;" horiz-adv-x="521" 
d="M425 745h106v-110l-63 -137h-36l38 140h-45v107zM371 481h-160v-337q0 -26 3.5 -42t12.5 -25t23.5 -12t36.5 -3h79v-62h-101q-44 0 -73.5 5t-47 20t-24.5 41.5t-7 68.5v346h-97v57h97v174h98v-174h160v-57z" />
    <glyph glyph-name="uni0163" unicode="&#x163;" horiz-adv-x="403" 
d="M122 -37h103v-98l-46 -93h-60l40 99h-37v92zM371 481h-160v-337q0 -26 3.5 -42t12.5 -25t23.5 -12t36.5 -3h79v-62h-101q-44 0 -73.5 5t-47 20t-24.5 41.5t-7 68.5v346h-97v57h97v174h98v-174h160v-57z" />
    <glyph glyph-name="tcommaaccent" unicode="&#x21b;" horiz-adv-x="403" 
d="M122 -37h103v-98l-46 -93h-60l40 99h-37v92zM371 481h-160v-337q0 -26 3.5 -42t12.5 -25t23.5 -12t36.5 -3h79v-62h-101q-44 0 -73.5 5t-47 20t-24.5 41.5t-7 68.5v346h-97v57h97v174h98v-174h160v-57z" />
    <glyph glyph-name="ubreve" unicode="&#x16d;" horiz-adv-x="616" 
d="M412 91h-2q-23 -48 -63.5 -76t-103.5 -28q-47 0 -76.5 16.5t-46 42.5t-23 59t-6.5 66v299q0 15 -5 20.5t-24 8.5l-43 5v34h171l-1 -114v-224q0 -78 21 -114.5t77 -36.5q21 0 43 9t40 29.5t29.5 52t11.5 76.5v254q0 15 -5.5 20.5t-23.5 8.5l-43 5v34h171l-1 -114v-352
q0 -17 6.5 -21t23.5 -6l41 -5v-33l-166 -14zM214 744q3 -46 26 -67.5t59 -21.5q37 0 60.5 21.5t26.5 67.5h66q-6 -64 -43 -104t-111 -40q-70 0 -107.5 40t-42.5 104h66v0z" />
    <glyph glyph-name="uhungarumlaut" unicode="&#x171;" horiz-adv-x="616" 
d="M412 91h-2q-23 -48 -63.5 -76t-103.5 -28q-47 0 -76.5 16.5t-46 42.5t-23 59t-6.5 66v299q0 15 -5 20.5t-24 8.5l-43 5v34h171l-1 -114v-224q0 -78 21 -114.5t77 -36.5q21 0 43 9t40 29.5t29.5 52t11.5 76.5v254q0 15 -5.5 20.5t-23.5 8.5l-43 5v34h171l-1 -114v-352
q0 -17 6.5 -21t23.5 -6l41 -5v-33l-166 -14zM204 603h-43l87 142h131zM370 603h-44l87 142h131z" />
    <glyph glyph-name="umacron" unicode="&#x16b;" horiz-adv-x="616" 
d="M412 91h-2q-23 -48 -63.5 -76t-103.5 -28q-47 0 -76.5 16.5t-46 42.5t-23 59t-6.5 66v299q0 15 -5 20.5t-24 8.5l-43 5v34h171l-1 -114v-224q0 -78 21 -114.5t77 -36.5q21 0 43 9t40 29.5t29.5 52t11.5 76.5v254q0 15 -5.5 20.5t-23.5 8.5l-43 5v34h171l-1 -114v-352
q0 -17 6.5 -21t23.5 -6l41 -5v-33l-166 -14zM150 633v69h275v-69h-275z" />
    <glyph glyph-name="uogonek" unicode="&#x173;" horiz-adv-x="616" 
d="M412 91h-2q-23 -48 -63.5 -76t-103.5 -28q-47 0 -76.5 16.5t-46 42.5t-23 59t-6.5 66v299q0 15 -5 20.5t-24 8.5l-43 5v34h171l-1 -114v-224q0 -78 21 -114.5t77 -36.5q21 0 43 9t40 29.5t29.5 52t11.5 76.5v254q0 15 -5.5 20.5t-23.5 8.5l-43 5v34h171l-1 -114v-352
q0 -17 6.5 -21t23.5 -6l41 -5v-33l-66 -6q-33 -19 -55 -44t-22 -49q0 -29 22.5 -40.5t48.5 -11.5q31 0 51 9v-44q-13 -6 -33 -9t-43 -3q-21 0 -43.5 4.5t-41.5 14.5t-31 27t-12 43q0 29 19.5 53t48.5 44z" />
    <glyph glyph-name="uring" unicode="&#x16f;" horiz-adv-x="616" 
d="M272 766q19 0 36 -6.5t30 -18.5t20.5 -28t7.5 -35q0 -38 -27.5 -63t-66.5 -25q-40 0 -67 25t-27 63q0 19 7.5 35t20.5 28t30 18.5t36 6.5zM272 723q-17 0 -31 -13t-14 -32q0 -20 14 -32t31 -12t31 12t14 32q0 19 -14 32t-31 13zM412 91h-2q-23 -48 -63.5 -76t-103.5 -28
q-47 0 -76.5 16.5t-46 42.5t-23 59t-6.5 66v299q0 15 -5 20.5t-24 8.5l-43 5v34h171l-1 -114v-224q0 -78 21 -114.5t77 -36.5q21 0 43 9t40 29.5t29.5 52t11.5 76.5v254q0 15 -5.5 20.5t-23.5 8.5l-43 5v34h171l-1 -114v-352q0 -17 6.5 -21t23.5 -6l41 -5v-33l-166 -14z" />
    <glyph glyph-name="utilde" unicode="&#x169;" horiz-adv-x="616" 
d="M412 91h-2q-23 -48 -63.5 -76t-103.5 -28q-47 0 -76.5 16.5t-46 42.5t-23 59t-6.5 66v299q0 15 -5 20.5t-24 8.5l-43 5v34h171l-1 -114v-224q0 -78 21 -114.5t77 -36.5q21 0 43 9t40 29.5t29.5 52t11.5 76.5v254q0 15 -5.5 20.5t-23.5 8.5l-43 5v34h171l-1 -114v-352
q0 -17 6.5 -21t23.5 -6l41 -5v-33l-166 -14zM362 676q24 0 36 13t16 36h61q-10 -56 -38 -85.5t-71 -29.5q-23 0 -42 8t-36.5 18t-32.5 18t-30 8q-23 0 -34 -14t-17 -38h-60q8 61 39.5 88t70.5 27q22 0 41.5 -7.5t36 -17t31.5 -17t29 -7.5z" />
    <glyph glyph-name="uni1EE5" unicode="&#x1ee5;" horiz-adv-x="616" 
d="M248 -53h98v-125h-98v125zM412 91h-2q-23 -48 -63.5 -76t-103.5 -28q-47 0 -76.5 16.5t-46 42.5t-23 59t-6.5 66v299q0 15 -5 20.5t-24 8.5l-43 5v34h171l-1 -114v-224q0 -78 21 -114.5t77 -36.5q21 0 43 9t40 29.5t29.5 52t11.5 76.5v254q0 15 -5.5 20.5t-23.5 8.5
l-43 5v34h171l-1 -114v-352q0 -17 6.5 -21t23.5 -6l41 -5v-33l-166 -14z" />
    <glyph glyph-name="wacute" unicode="&#x1e83;" horiz-adv-x="778" 
d="M416 603h-44l86 142h132zM638 435q8 29 7.5 46.5t-27.5 19.5l-29 2v35h193v-35l-28 -2q-20 -1 -30.5 -11.5t-19.5 -42.5l-131 -448h-62l-128 403l-130 -403h-57l-136 469q-5 17 -11 24t-22 9l-31 2v35h229v-35l-36 -3q-18 -2 -23 -7.5t-2 -18.5l83 -336l125 400h57
l129 -400z" />
    <glyph glyph-name="wcircumflex" unicode="&#x175;" horiz-adv-x="778" 
d="M565 603h-60l-106 71l-108 -71h-60l141 142h56zM638 435q8 29 7.5 46.5t-27.5 19.5l-29 2v35h193v-35l-28 -2q-20 -1 -30.5 -11.5t-19.5 -42.5l-131 -448h-62l-128 403l-130 -403h-57l-136 469q-5 17 -11 24t-22 9l-31 2v35h229v-35l-36 -3q-18 -2 -23 -7.5t-2 -18.5
l83 -336l125 400h57l129 -400z" />
    <glyph glyph-name="wdieresis" unicode="&#x1e85;" horiz-adv-x="778" 
d="M236 745h98v-125h-98v125zM461 745h98v-125h-98v125zM638 435q8 29 7.5 46.5t-27.5 19.5l-29 2v35h193v-35l-28 -2q-20 -1 -30.5 -11.5t-19.5 -42.5l-131 -448h-62l-128 403l-130 -403h-57l-136 469q-5 17 -11 24t-22 9l-31 2v35h229v-35l-36 -3q-18 -2 -23 -7.5
t-2 -18.5l83 -336l125 400h57l129 -400z" />
    <glyph glyph-name="wgrave" unicode="&#x1e81;" horiz-adv-x="778" 
d="M638 435q8 29 7.5 46.5t-27.5 19.5l-29 2v35h193v-35l-28 -2q-20 -1 -30.5 -11.5t-19.5 -42.5l-131 -448h-62l-128 403l-130 -403h-57l-136 469q-5 17 -11 24t-22 9l-31 2v35h229v-35l-36 -3q-18 -2 -23 -7.5t-2 -18.5l83 -336l125 400h57l129 -400zM193 745h131l87 -142
h-43z" />
    <glyph glyph-name="ycircumflex" unicode="&#x177;" horiz-adv-x="552" 
d="M42 -189v65h74q21 0 35.5 3t26.5 14.5t23 35t25 64.5l6 17l-172 458q-6 18 -12.5 24.5t-26.5 8.5l-25 2v35h236v-35l-39 -3q-18 -2 -24 -7.5t-2 -18.5l121 -365l117 326q12 34 11.5 48.5t-31.5 17.5l-32 2v35h203v-35l-27 -2q-20 -2 -31 -14t-22 -36l-179 -463
q-23 -61 -40.5 -96.5t-36.5 -53.5t-44 -22.5t-64 -4.5h-70zM449 603h-60l-106 71l-108 -71h-60l141 142h56z" />
    <glyph glyph-name="ygrave" unicode="&#x1ef3;" horiz-adv-x="552" 
d="M42 -189v65h74q21 0 35.5 3t26.5 14.5t23 35t25 64.5l6 17l-172 458q-6 18 -12.5 24.5t-26.5 8.5l-25 2v35h236v-35l-39 -3q-18 -2 -24 -7.5t-2 -18.5l121 -365l117 326q12 34 11.5 48.5t-31.5 17.5l-32 2v35h203v-35l-27 -2q-20 -2 -31 -14t-22 -36l-179 -463
q-23 -61 -40.5 -96.5t-36.5 -53.5t-44 -22.5t-64 -4.5h-70zM86 745h131l87 -142h-43z" />
    <glyph glyph-name="uni0233" unicode="&#x233;" horiz-adv-x="552" 
d="M42 -189v65h74q21 0 35.5 3t26.5 14.5t23 35t25 64.5l6 17l-172 458q-6 18 -12.5 24.5t-26.5 8.5l-25 2v35h236v-35l-39 -3q-18 -2 -24 -7.5t-2 -18.5l121 -365l117 326q12 34 11.5 48.5t-31.5 17.5l-32 2v35h203v-35l-27 -2q-20 -2 -31 -14t-22 -36l-179 -463
q-23 -61 -40.5 -96.5t-36.5 -53.5t-44 -22.5t-64 -4.5h-70zM154 633v69h275v-69h-275z" />
    <glyph glyph-name="zacute" unicode="&#x17a;" horiz-adv-x="545" 
d="M300 603h-44l86 142h132zM52 55l325 426h-298v57h413v-53l-325 -428h327v-57h-442v55z" />
    <glyph glyph-name="zcaron" unicode="&#x17e;" horiz-adv-x="545" 
d="M110 745h60l107 -71l107 71h60l-141 -142h-55zM52 55l325 426h-298v57h413v-53l-325 -428h327v-57h-442v55z" />
    <glyph glyph-name="zdotaccent" unicode="&#x17c;" horiz-adv-x="545" 
d="M52 55l325 426h-298v57h413v-53l-325 -428h327v-57h-442v55zM232 745h98v-125h-98v125z" />
    <glyph glyph-name="endash" unicode="&#x2013;" horiz-adv-x="487" 
d="M36 243v66h415v-66h-415z" />
    <glyph glyph-name="emdash" unicode="&#x2014;" horiz-adv-x="714" 
d="M36 243v66h642v-66h-642z" />
    <glyph glyph-name="guilsinglleft" unicode="&#x2039;" horiz-adv-x="282" 
d="M6 273l203 234h49l-133 -234l133 -235h-49z" />
    <glyph glyph-name="guilsinglright" unicode="&#x203a;" horiz-adv-x="283" 
d="M74 38h-50l134 235l-134 234h50l203 -234z" />
    <glyph glyph-name="quoteleft" unicode="&#x2018;" horiz-adv-x="257" 
d="M188 451h-118v122l71 152h39l-41 -155h49v-119z" />
    <glyph glyph-name="quoteright" unicode="&#x2019;" horiz-adv-x="257" 
d="M70 725h118v-122l-70 -152h-40l42 155h-50v119z" />
    <glyph glyph-name="quotedblleft" unicode="&#x201c;" horiz-adv-x="432" 
d="M188 451h-118v122l71 152h39l-41 -155h49v-119zM363 451h-118v122l71 152h39l-41 -155h49v-119z" />
    <glyph glyph-name="quotedblright" unicode="&#x201d;" horiz-adv-x="432" 
d="M70 725h118v-122l-70 -152h-40l42 155h-50v119zM245 725h118v-122l-70 -152h-40l42 155h-50v119z" />
    <glyph glyph-name="quotesinglbase" unicode="&#x201a;" horiz-adv-x="298" 
d="M84 129h130v-138l-80 -164h-40l45 173h-55v129z" />
    <glyph glyph-name="quotedblbase" unicode="&#x201e;" horiz-adv-x="500" 
d="M286 129h130v-138l-80 -164h-40l45 173h-55v129zM84 129h130v-138l-80 -164h-40l45 173h-55v129z" />
    <glyph glyph-name="bullet" unicode="&#x2022;" horiz-adv-x="462" 
d="M48 283q0 37 14 70t38.5 57.5t57 38.5t69.5 14q40 0 74 -14t59 -38.5t39.5 -57.5t14.5 -70q0 -39 -14.5 -73t-39.5 -59t-59 -39.5t-74 -14.5q-37 0 -69.5 14.5t-57 39.5t-38.5 59t-14 73z" />
    <glyph glyph-name="minus" unicode="&#x2212;" horiz-adv-x="705" 
d="M613 308v-66h-520v66h520z" />
    <glyph glyph-name="Euro" unicode="&#x20ac;" horiz-adv-x="765" 
d="M232 266q17 -114 70 -172t131 -58q93 0 139 46.5t58 140.5h97q-9 -58 -35 -102t-65 -74t-88 -45t-104 -15q-66 0 -118.5 20t-91.5 56.5t-64 88t-35 114.5h-126l40 60h79q-1 10 -1 19.5v20.5v25.5t2 25.5h-120l40 60h89q12 61 39 110.5t66 83.5t90 52.5t112 18.5
q55 0 103.5 -16t86.5 -46t63.5 -74t33.5 -99h-97q-11 92 -56.5 139t-132.5 47q-77 0 -131 -53.5t-73 -162.5h261l-41 -60h-227q-1 -13 -1 -25v-26v-20.5t1 -19.5h186l-41 -60h-139z" />
    <glyph glyph-name="fi" unicode="&#xfb01;" horiz-adv-x="756" 
d="M649 426v-360q0 -16 6.5 -20.5t23.5 -6.5l41 -4v-35h-241v35l43 4q17 2 23 6.5t6 20.5v404q0 15 -5.5 20.5t-23.5 8.5l-43 5v34h171zM346 0h-283v35l42 4q17 2 23 6.5t6 20.5v415h-74v57h74v67q0 43 10.5 70t34 42.5t60 21.5t88.5 6h84v-64h-94q-25 0 -41.5 -2.5t-26 -10
t-13.5 -21.5t-4 -36v-73h179v-57h-179v-414q0 -16 6 -21t23 -6l85 -4v-36zM551 745h98v-125h-98v125z" />
    <glyph glyph-name="fl" unicode="&#xfb02;" horiz-adv-x="747" 
d="M346 0h-283v35l42 4q17 2 23 6.5t6 20.5v415h-74v57h74v67q0 43 10.5 70t34 42.5t60 21.5t88.5 6h84v-64h-94q-25 0 -41.5 -2.5t-26 -10t-13.5 -21.5t-4 -36v-73h179v-57h-179v-414q0 -16 6 -21t23 -6l85 -4v-36zM637 745l-1 -114v-565q0 -16 6.5 -20.5t23.5 -6.5l42 -4
v-35h-242v35l41 4q17 2 24 6.5t7 20.5v613q0 16 -6 20t-25 6l-41 5v35h171z" />
    <glyph glyph-name="breve" unicode="&#x2d8;" horiz-adv-x="357" 
d="M92 744q3 -46 26 -67.5t59 -21.5q37 0 60.5 21.5t26.5 67.5h66q-6 -64 -43 -104t-111 -40q-70 0 -107.5 40t-42.5 104h66v0z" />
    <glyph glyph-name="caron" unicode="&#x2c7;" horiz-adv-x="387" 
d="M26 745h60l107 -71l107 71h60l-141 -142h-55z" />
    <glyph glyph-name="circumflex" unicode="&#x2c6;" horiz-adv-x="387" 
d="M360 603h-60l-106 71l-108 -71h-60l141 142h56z" />
    <glyph glyph-name="dotaccent" unicode="&#x2d9;" horiz-adv-x="151" 
d="M26 745h98v-125h-98v125z" />
    <glyph glyph-name="dot" horiz-adv-x="336" 
d="M131 745h98v-125h-98v125z" />
    <glyph glyph-name="dotaccent.low" horiz-adv-x="151" 
d="M26 -53h98v-125h-98v125z" />
    <glyph glyph-name="hungarumlaut" unicode="&#x2dd;" horiz-adv-x="436" 
d="M69 603h-43l87 142h131zM235 603h-44l87 142h131z" />
    <glyph glyph-name="commaaccent" horiz-adv-x="159" 
d="M29 -37h103v-98l-46 -93h-60l40 99h-37v92z" />
    <glyph glyph-name="ogonek" unicode="&#x2db;" horiz-adv-x="258" 
d="M203 0q-40 -19 -67 -42.5t-27 -49.5q0 -15 6 -25t16 -16t23 -8.5t26 -2.5q31 0 51 9v-44q-13 -6 -33.5 -9t-43.5 -3q-21 0 -43.5 4.5t-41.5 14.5t-31 27t-12 43q0 16 8.5 31t23.5 28.5t34.5 24t41.5 18.5h69z" />
    <glyph glyph-name="ring" unicode="&#x2da;" horiz-adv-x="241" 
d="M120 766q19 0 36 -6.5t30 -18.5t20.5 -28t7.5 -35q0 -38 -27.5 -63t-66.5 -25q-40 0 -67 25t-27 63q0 19 7.5 35t20.5 28t30 18.5t36 6.5zM120 723q-17 0 -31 -13t-14 -32q0 -20 14 -32t31 -12t31 12t14 32q0 19 -14 32t-31 13z" />
    <glyph glyph-name="tilde" unicode="&#x2dc;" horiz-adv-x="414" 
d="M274 676q24 0 36 13t16 36h61q-10 -56 -38 -85.5t-71 -29.5q-23 0 -42 8t-36.5 18t-32.5 18t-30 8q-23 0 -34 -14t-17 -38h-60q8 61 39.5 88t70.5 27q22 0 41.5 -7.5t36 -17t31.5 -17t29 -7.5z" />
    <glyph glyph-name="caron.slovak" horiz-adv-x="158" 
d="M26 745h106v-110l-63 -137h-36l38 140h-45v107z" />
    <glyph glyph-name="acute.case" horiz-adv-x="294" 
d="M92 773h-66l110 117h131z" />
    <glyph glyph-name="breve.case" horiz-adv-x="379" 
d="M352 890q-6 -54 -45 -88t-119 -34q-77 0 -116 34.5t-46 87.5h66q4 -32 32 -49.5t65 -17.5t65 18t33 49h65z" />
    <glyph glyph-name="caron.case" horiz-adv-x="401" 
d="M26 890h70l104 -58l104 58h70l-135 -117h-82z" />
    <glyph glyph-name="cedilla.case" horiz-adv-x="254" 
d="M108 3h48l-37 -53q48 9 78 -13t30 -64q0 -21 -9.5 -37.5t-25 -28.5t-36.5 -18.5t-44 -6.5q-24 0 -42.5 3.5t-43.5 14.5l15 36q12 -7 28 -10t33 -3q25 0 42.5 10t17.5 35q0 20 -14.5 29t-30.5 9q-28 0 -45 -10l-21 19z" />
    <glyph glyph-name="circumflex.case" horiz-adv-x="401" 
d="M374 773h-70l-103 58l-104 -58h-71l135 117h81z" />
    <glyph glyph-name="dieresis.case" horiz-adv-x="376" 
d="M26 890h98v-117h-98v117zM251 890h98v-117h-98v117z" />
    <glyph glyph-name="dotaccent.case" horiz-adv-x="151" 
d="M26 890h98v-117h-98v117z" />
    <glyph glyph-name="grave.case" horiz-adv-x="294" 
d="M26 890h132l109 -117h-64z" />
    <glyph glyph-name="hungarumlaut.case" horiz-adv-x="457" 
d="M86 773h-60l110 117h127zM253 773h-60l110 117h127z" />
    <glyph glyph-name="macron.case" horiz-adv-x="364" 
d="M26 798v67h311v-67h-311z" />
    <glyph glyph-name="ogonek.case" horiz-adv-x="258" 
d="M203 0q-40 -19 -67 -42.5t-27 -49.5q0 -15 6 -25t16 -16t23 -8.5t26 -2.5q31 0 51 9v-44q-13 -6 -33.5 -9t-43.5 -3q-21 0 -43.5 4.5t-41.5 14.5t-31 27t-12 43q0 16 8.5 31t23.5 28.5t34.5 24t41.5 18.5h69z" />
    <glyph glyph-name="ring.case" horiz-adv-x="240" 
d="M120 943q19 0 36 -6.5t29.5 -18t20 -27.5t7.5 -35q0 -38 -27 -63t-66 -25q-40 0 -67 25t-27 63q0 19 7.5 35t20.5 27.5t30 18t36 6.5zM120 900q-18 0 -31.5 -12.5t-13.5 -31.5q0 -20 13.5 -32t31.5 -12q17 0 30.5 12t13.5 32q0 19 -13.5 31.5t-30.5 12.5z" />
    <glyph glyph-name="tilde.case" horiz-adv-x="414" 
d="M274 840q24 0 35.5 12.5t15.5 36.5h62q-10 -57 -38.5 -86t-70.5 -29q-23 0 -42.5 8t-37 17t-33 17t-29.5 8q-22 0 -33.5 -13t-16.5 -37h-60q8 61 39 88t70 27q23 0 42 -7.5t35.5 -17t31.5 -17t30 -7.5z" />
    </font>
</defs>
</svg>
