<?xml version="1.0" standalone="no"?>
<!DOCTYPE svg PUBLIC "-//W3C//DTD SVG 1.1//EN" "http://www.w3.org/Graphics/SVG/1.1/DTD/svg11.dtd" >
<svg xmlns="http://www.w3.org/2000/svg" xmlns:xlink="http://www.w3.org/1999/xlink" version="1.1">
<metadata>
Created by Christoph Koeberlin (http://christoph.koe.berlin)
Copyright (c) 2014 Swiss Typefaces Sa`rl. All rights reserved.
</metadata>
<defs>
<font id="Font" horiz-adv-x="705" >
  <font-face 
    font-family="Font"
    font-weight="500"
    font-stretch="normal"
    units-per-em="1000"
    panose-1="2 0 6 4 6 0 0 0 0 0"
    ascent="800"
    descent="-200"
    x-height="538"
    cap-height="725"
    bbox="-173 -239 1324 943"
    underline-thickness="60"
    underline-position="-50"
    unicode-range="U+0020-FB02"
  />
<missing-glyph horiz-adv-x="500" 
d="M0 725h500v-725h-500v725zM19 696v-667l220 333zM481 29v667l-221 -334zM33 19h433l-216 327zM250 378l216 328h-433z" />
    <glyph glyph-name=".notdef" horiz-adv-x="500" 
d="M0 725h500v-725h-500v725zM19 696v-667l220 333zM481 29v667l-221 -334zM33 19h433l-216 327zM250 378l216 328h-433z" />
    <glyph glyph-name=".null" horiz-adv-x="0" 
 />
    <glyph glyph-name="nonmarkingreturn" horiz-adv-x="270" 
 />
    <glyph glyph-name="space" unicode=" " horiz-adv-x="270" 
 />
    <glyph glyph-name="exclam" unicode="!" horiz-adv-x="337" 
d="M234 725v-203l-43 -315h-48l-44 316v202h135zM96 145h145v-145h-145v145z" />
    <glyph glyph-name="quotedbl" unicode="&#x22;" horiz-adv-x="419" 
d="M190 725l-43 -273h-55l-44 273h142zM370 725l-43 -273h-55l-44 273h142z" />
    <glyph glyph-name="numbersign" unicode="#" horiz-adv-x="680" 
d="M211 535l27 190h75l-27 -190h159l27 190h75l-27 -190h136l-10 -72h-136l-24 -166h136l-9 -72h-137l-31 -225h-75l31 225h-158l-31 -225h-76l31 225h-143l10 72h143l24 166h-143l10 72h143zM253 297h158l24 166h-159z" />
    <glyph glyph-name="dollar" unicode="$" horiz-adv-x="653" 
d="M492 522q-7 66 -44 104.5t-93 49.5v-244l19 -5q48 -12 94 -28.5t82 -41.5t58.5 -62t22.5 -91q0 -53 -23.5 -92.5t-62 -66.5t-88.5 -41t-102 -16v-78h-56v79q-116 9 -190 73.5t-91 175.5h124q3 -33 13.5 -63.5t29.5 -55.5t47 -43t67 -24v276l-48 13q-41 10 -79 27.5
t-67.5 43t-47 60t-17.5 79.5q0 47 21.5 82t57.5 58t83 35.5t97 14.5v92h56v-92q54 -5 98 -24t77 -48t54 -67t29 -80h-121zM517 180q0 30 -13 51.5t-35.5 37t-51.5 26t-62 19.5v-265q28 1 57 9t52.5 24t38 40t14.5 58zM152 571q0 -27 11 -47t30.5 -34.5t45.5 -24.5t55 -17
l5 -2v234q-25 -1 -51 -7.5t-47.5 -20t-35 -33.5t-13.5 -48z" />
    <glyph glyph-name="percent" unicode="%" horiz-adv-x="951" 
d="M547 197q0 52 14.5 91.5t39 65.5t56.5 39t67 13t67 -13t56.5 -39t39 -65.5t14.5 -91.5q0 -53 -14.5 -92.5t-39 -65.5t-56.5 -39t-67 -13t-67 13t-56.5 39t-39 65.5t-14.5 92.5zM631 197q0 -85 25 -129t68 -44t68 44t25 129t-25 129t-68 44t-68 -44t-25 -129zM172 0
l508 725h88l-508 -725h-88zM50 533q0 52 14.5 91.5t39 65.5t56.5 39t67 13t67 -13t56.5 -39t39 -65.5t14.5 -91.5q0 -53 -14.5 -92.5t-39 -65.5t-56.5 -39t-67 -13t-67 13t-56.5 39t-39 65.5t-14.5 92.5zM134 533q0 -85 25 -128.5t68 -43.5t68 43.5t25 128.5t-25 129t-68 44
t-68 -44t-25 -129z" />
    <glyph glyph-name="ampersand" unicode="&#x26;" horiz-adv-x="784" 
d="M728 57l-77 -74l-127 131q-43 -55 -104 -90.5t-146 -35.5q-56 0 -102.5 16t-80.5 44.5t-53 68t-19 86.5q0 46 17.5 80t46 60t66 44.5t77.5 32.5q-20 21 -38 44.5t-31.5 47.5t-21 47t-7.5 44q0 40 18.5 68.5t48 46.5t67 26.5t75.5 8.5q37 0 72 -8t62 -24t43 -41.5
t16 -59.5t-15.5 -61t-40.5 -48.5t-56.5 -39t-62.5 -32.5l190 -195q19 29 36.5 59.5t31.5 63.5q9 21 10 37t-22 20l-45 5v38h216v-38l-31 -2q-15 -2 -28 -14t-30 -46q-22 -42 -46 -83t-51 -82zM153 215q0 -70 40.5 -113.5t109.5 -43.5q63 0 105.5 27.5t74.5 70.5l-231 238
q-49 -23 -74 -70t-25 -109zM430 609q0 53 -27 76.5t-64 23.5q-45 0 -67 -25.5t-22 -58.5q0 -40 22 -78.5t60 -83.5l2 -3q27 12 45.5 29.5t30 37t16 41t4.5 41.5z" />
    <glyph glyph-name="quotesingle" unicode="'" horiz-adv-x="238" 
d="M190 725l-43 -273h-55l-44 273h142z" />
    <glyph glyph-name="parenleft" unicode="(" horiz-adv-x="265" 
d="M154 278q0 -129 27 -241.5t84 -225.5h-61q-39 57 -70.5 112.5t-53 112.5t-33 117t-11.5 125q0 130 44.5 243t123.5 224h61q-28 -58 -49 -114t-34.5 -113t-20.5 -116.5t-7 -123.5z" />
    <glyph glyph-name="parenright" unicode=")" horiz-adv-x="265" 
d="M111 278q0 129 -27.5 241.5t-83.5 225.5h61q79 -113 123.5 -225t44.5 -242t-44.5 -243t-123.5 -224h-61q28 58 48.5 114t34.5 113t21 116t7 124z" />
    <glyph glyph-name="asterisk" unicode="*" horiz-adv-x="373" 
d="M213 607l118 43l21 -55l-118 -39l71 -101l-45 -34l-75 103l-71 -103l-49 33l72 101l-117 40l19 55l116 -43v121h58v-121z" />
    <glyph glyph-name="plus" unicode="+" 
d="M312 0v236h-236v76h236v227h81v-227h235v-76h-235v-236h-81z" />
    <glyph glyph-name="comma" unicode="," horiz-adv-x="313" 
d="M84 145h145v-155l-85 -175h-47l48 185h-61v145z" />
    <glyph glyph-name="hyphen" unicode="-" horiz-adv-x="329" 
d="M24 326h281v-99h-281v99z" />
    <glyph glyph-name="period" unicode="." horiz-adv-x="313" 
d="M84 145h145v-145h-145v145z" />
    <glyph glyph-name="slash" unicode="/" horiz-adv-x="372" 
d="M0 0l292 725h80l-291 -725h-81z" />
    <glyph glyph-name="zero" unicode="0" horiz-adv-x="729" 
d="M60 365q0 92 23 162.5t64 118t97 72t121 24.5t120.5 -24.5t96.5 -72t64 -118t23 -162.5q0 -93 -23 -163.5t-64 -118t-96.5 -72t-120.5 -24.5t-121 24.5t-97 72t-64 118t-23 163.5zM187 365q0 -154 45.5 -236.5t132.5 -82.5q86 0 132 82.5t46 236.5t-46 236.5t-132 82.5
q-87 0 -132.5 -82.5t-45.5 -236.5z" />
    <glyph glyph-name="one" unicode="1" horiz-adv-x="419" 
d="M302 73q0 -16 6 -23.5t26 -10.5l43 -4v-35h-296v35l76 5q20 2 25.5 9.5t5.5 23.5v521h-164v44q49 2 84 7.5t61.5 16t46.5 26t38 37.5h50l-2 -186v-466z" />
    <glyph glyph-name="two" unicode="2" horiz-adv-x="623" 
d="M571 98v-98h-557v97q130 87 214.5 151t133.5 115t68 94t19 88q0 65 -38.5 102t-98.5 37q-45 0 -76.5 -15.5t-50.5 -43t-26 -66t-4 -83.5h-114q-3 65 17.5 114.5t58.5 83.5t89.5 51t111.5 17q54 0 99.5 -12t79.5 -36t53 -61t19 -87q0 -59 -35 -113.5t-95 -108.5
t-139.5 -109.5t-167.5 -116.5h439z" />
    <glyph glyph-name="three" unicode="3" horiz-adv-x="644" 
d="M305 -13q-59 0 -108.5 16.5t-85.5 46t-57 70.5t-24 89h111q0 -34 11.5 -63.5t33.5 -51.5t52 -35t68 -13q35 0 65.5 9t52.5 27.5t34.5 46t12.5 65.5q0 39 -16 67t-44.5 46.5t-67.5 27t-84 8.5h-32v65h25q39 0 75.5 8.5t64.5 26.5t45 46t17 66q0 60 -39 94.5t-105 34.5
q-36 0 -65.5 -11.5t-50.5 -32.5t-32.5 -50t-11.5 -63h-111q2 46 23.5 85t57.5 68t85 45.5t108 16.5q49 0 95.5 -10.5t83.5 -32t59.5 -55.5t22.5 -80q0 -36 -12.5 -64.5t-34 -49.5t-49.5 -36t-58 -25v-1q81 -17 128.5 -63t47.5 -123q0 -56 -23.5 -97t-63.5 -67t-93 -38.5
t-111 -12.5z" />
    <glyph glyph-name="four" unicode="4" horiz-adv-x="690" 
d="M516 75q0 -20 6 -26t26 -8l43 -4v-37h-277v37l54 4q20 2 26 8t6 26v122h-376v68l393 460h101l-2 -186v-254h138v-88h-138v-122zM400 602l-271 -317h271v317z" />
    <glyph glyph-name="five" unicode="5" horiz-adv-x="657" 
d="M322 -13q-58 0 -105.5 17.5t-81.5 47t-53.5 69t-21.5 84.5h111q0 -32 10.5 -60.5t30.5 -50.5t48 -35t63 -13q40 0 71 14.5t52 40.5t31.5 62t10.5 79q0 47 -13.5 82t-36 57.5t-53 33.5t-64.5 11q-57 0 -104 -33t-67 -93l-67 14l46 411h447v-97h-386l-25 -200
q32 35 79 52.5t103 17.5q52 0 99.5 -14t83.5 -44.5t57.5 -78t21.5 -114.5q0 -61 -23 -109t-62 -81.5t-91 -51.5t-111 -18z" />
    <glyph glyph-name="six" unicode="6" horiz-adv-x="677" 
d="M352 425q-77 0 -121.5 -52t-44.5 -142q0 -46 13 -80.5t35 -58t51.5 -35t62.5 -11.5q38 0 67.5 15t49.5 41t30 61t10 74q0 37 -9.5 71t-28.5 60t-48 41.5t-67 15.5zM368 684q-44 0 -77.5 -22.5t-57 -61t-36 -89t-15.5 -107.5q32 44 83 64.5t108 20.5q42 0 87.5 -14.5
t83 -45.5t61.5 -78t24 -113q0 -55 -21.5 -101t-59.5 -79.5t-89 -52t-111 -18.5q-75 0 -129.5 26.5t-89.5 73t-52 110.5t-17 139q0 102 24.5 178t67 127t100 76t122.5 25q42 0 82.5 -11t73.5 -33.5t56.5 -58.5t31.5 -85h-111q-7 61 -43 95.5t-96 34.5z" />
    <glyph glyph-name="seven" unicode="7" horiz-adv-x="513" 
d="M-4 725h533v-92q-52 -45 -107.5 -99t-101 -127.5t-74 -172.5t-25.5 -234h-134q1 108 31 201.5t79.5 172t113.5 142t133 111.5h-448v98z" />
    <glyph glyph-name="eight" unicode="8" horiz-adv-x="700" 
d="M352 -13q-62 0 -116 13.5t-94.5 39t-64 63.5t-23.5 88q0 38 17.5 68.5t44.5 53t61 37.5t67 23q-152 72 -152 189q0 40 19.5 73t54.5 57t83.5 37t105.5 13t105 -12t82 -34t53 -53t19 -69q0 -30 -14.5 -57t-38 -49t-54.5 -39t-64 -27l16 -7q40 -17 74 -36.5t59 -43
t39.5 -52t14.5 -64.5q0 -48 -23 -87.5t-63 -67t-93.5 -42.5t-114.5 -15zM170 193q0 -72 50 -109.5t132 -37.5q81 0 128.5 33t47.5 91q0 30 -11 51t-33.5 38.5t-55.5 33.5t-76 35l-60 25q-33 -11 -56.5 -28.5t-38 -39t-21 -45t-6.5 -47.5zM506 566q0 29 -12.5 51t-33.5 37
t-48.5 22.5t-58.5 7.5q-66 0 -106.5 -27.5t-40.5 -77.5q0 -26 11 -45.5t30.5 -35.5t47 -30t60.5 -28l44 -19q48 20 77.5 59.5t29.5 85.5z" />
    <glyph glyph-name="nine" unicode="9" horiz-adv-x="677" 
d="M325 305q77 0 121.5 51.5t44.5 141.5q0 46 -13 80.5t-35 58t-51.5 35.5t-62.5 12q-38 0 -67.5 -15t-49.5 -41.5t-30.5 -61.5t-10.5 -74q0 -37 9.5 -70.5t29 -59.5t48.5 -41.5t67 -15.5zM309 46q44 0 77.5 22.5t56.5 60.5t36 89t16 107q-32 -43 -83 -64t-109 -21
q-42 0 -87 14.5t-82.5 45.5t-61.5 78.5t-24 112.5q0 55 21.5 101.5t59.5 79.5t89 51.5t111 18.5q75 0 129 -26.5t89.5 -73t52.5 -110.5t17 -139q0 -102 -24.5 -178t-67.5 -127t-100 -76t-123 -25q-42 0 -82 11t-73 34t-56.5 58.5t-31.5 85.5h111q7 -62 43 -96t96 -34z" />
    <glyph glyph-name="colon" unicode=":" horiz-adv-x="313" 
d="M84 145h145v-145h-145v145zM84 538h145v-145h-145v145z" />
    <glyph glyph-name="semicolon" unicode=";" horiz-adv-x="313" 
d="M84 538h145v-145h-145v145zM84 145h145v-155l-85 -175h-47l48 185h-61v145z" />
    <glyph glyph-name="less" unicode="&#x3c;" 
d="M592 543v-87l-424 -183l424 -180v-86l-521 231v71z" />
    <glyph glyph-name="equal" unicode="=" 
d="M106 344v75h494v-75h-494zM106 138v75h494v-75h-494z" />
    <glyph glyph-name="greater" unicode="&#x3e;" 
d="M634 238l-521 -231v86l424 180l-424 183v87l521 -234v-71z" />
    <glyph glyph-name="question" unicode="?" horiz-adv-x="563" 
d="M278 694q-38 0 -69.5 -11t-53.5 -33t-33.5 -53.5t-8.5 -73.5h-107q-3 60 18 103t59 71.5t89 42t109 13.5q57 0 103.5 -11.5t79.5 -31.5t51 -48.5t18 -62.5q0 -39 -16 -66.5t-41 -49.5t-55.5 -39t-58.5 -35q-27 -17 -47.5 -32.5t-33.5 -33.5t-19.5 -40.5t-6.5 -53.5v-35
h-64v39q0 52 7 87.5t21.5 61t37.5 44t55 38.5q18 11 36 23t33 26t24 31t9 38q0 40 -34.5 66t-101.5 26zM152 145h145v-145h-145v145z" />
    <glyph glyph-name="at" unicode="@" horiz-adv-x="862" 
d="M630 157q-44 0 -71.5 27.5t-31.5 73.5q-23 -45 -62.5 -70.5t-95.5 -25.5q-30 0 -56.5 10.5t-47 32t-32.5 55t-12 80.5q0 45 14.5 87.5t41.5 76t66 53.5t87 20q46 0 75.5 -24.5t42.5 -61.5l8 67h64l-32 -224q-2 -15 -2.5 -34.5t4 -37t16 -29t32.5 -11.5q43 0 74 48.5
t31 138.5q0 66 -21.5 115.5t-60.5 82.5t-93 50t-118 17q-73 0 -133 -24.5t-103 -68t-66.5 -102.5t-23.5 -127q0 -65 20 -119.5t57 -94t90.5 -61.5t120.5 -22q48 0 101 10.5t98 31.5l24 -63q-51 -23 -111.5 -35t-111.5 -12q-81 0 -147 27.5t-113.5 76.5t-73 116t-25.5 147
q0 81 30.5 151t83.5 121.5t126 80.5t159 29q75 0 140.5 -20t114 -60t76.5 -100.5t28 -142.5q0 -62 -15.5 -109.5t-41 -80t-58 -49.5t-66.5 -17zM431 510q-30 0 -55 -14t-42 -37.5t-26.5 -55t-9.5 -65.5q0 -57 23.5 -84.5t66.5 -27.5q31 0 56.5 14.5t42.5 39t26.5 56.5
t9.5 67q0 52 -24 79.5t-68 27.5z" />
    <glyph glyph-name="A" unicode="A" horiz-adv-x="740" 
d="M329 725h82l255 -649q6 -14 13 -23.5t26 -11.5l39 -3v-38h-287v38l49 5q42 3 29 33l-53 137h-276l-52 -137q-11 -30 29 -33l49 -5v-38h-236v38l40 3q18 2 25 11.5t13 23.5zM231 277h227l-114 296z" />
    <glyph glyph-name="B" unicode="B" horiz-adv-x="725" 
d="M60 725h316q131 0 200 -39.5t69 -122.5q0 -36 -10.5 -64t-29 -49t-43.5 -35.5t-54 -23.5v-2q85 -16 130 -63t45 -117q0 -42 -13 -79.5t-47 -66.5t-92 -46t-149 -17h-322v38l49 5q20 2 25.5 10t5.5 23v573q0 15 -5.5 24t-25.5 11l-49 4v37zM265 62h88q60 0 98 9t60.5 28
t31 47t8.5 67q0 31 -8.5 56t-29.5 43t-57.5 28t-91.5 10h-99v-288zM265 411h97q50 0 80.5 10.5t47 28.5t22 42.5t5.5 52.5q0 27 -7 49t-24 37.5t-45.5 23.5t-70.5 8h-105v-252z" />
    <glyph glyph-name="C" unicode="C" horiz-adv-x="783" 
d="M50 365q0 87 26 157t73 118.5t114 75t150 26.5q60 0 113.5 -15.5t96.5 -46t73 -76.5t44 -107h-124q-9 84 -60.5 133.5t-142.5 49.5q-59 0 -102 -22.5t-71.5 -64t-42.5 -99.5t-14 -129t14 -129t42.5 -99.5t71.5 -64.5t102 -23q91 0 143 49.5t61 134.5h124
q-14 -61 -44 -107t-73.5 -77t-97 -46.5t-113.5 -15.5q-83 0 -150 26.5t-114 75.5t-73 119t-26 157z" />
    <glyph glyph-name="D" unicode="D" horiz-adv-x="811" 
d="M629 363q0 155 -69 227.5t-217 72.5h-78v-601h78q148 0 217 72.5t69 228.5zM761 363q0 -97 -30.5 -166t-87 -112.5t-135.5 -64t-175 -20.5h-273v38l49 5q20 2 25.5 10t5.5 23v573q0 15 -5.5 24t-25.5 11l-49 4v37h273q96 0 175 -20.5t135.5 -64t87 -112t30.5 -165.5z" />
    <glyph glyph-name="E" unicode="E" horiz-adv-x="724" 
d="M647 725v-222h-44l-9 66q-5 35 -11.5 54t-20 28t-36.5 10.5t-60 1.5h-201v-256h297v-65h-297v-280h213q37 0 59.5 1.5t36 10.5t20 28t11.5 54l9 66h44v-222h-598v38l49 5q20 2 25.5 10t5.5 23v573q0 15 -5.5 24t-25.5 11l-49 4v37h587z" />
    <glyph glyph-name="F" unicode="F" horiz-adv-x="692" 
d="M677 725v-222h-44l-9 66q-5 35 -11.5 54t-20 28t-36.5 10.5t-60 1.5h-231v-256h297v-65h-297v-266q0 -15 5.5 -23t25.5 -10l73 -5v-38h-309v38l49 5q20 2 25.5 10t5.5 23v573q0 15 -5.5 24t-25.5 11l-49 4v37h617z" />
    <glyph glyph-name="G" unicode="G" horiz-adv-x="825" 
d="M413 680q-59 0 -102 -22.5t-71.5 -64t-42.5 -99.5t-14 -129t14 -129t42.5 -99.5t71.5 -64.5t102 -23q14 0 34.5 2t43 9t45 20t40.5 36t29.5 56.5t11.5 80.5v56h-113v54h237v-363h-70l-20 93q-34 -52 -93.5 -79t-144.5 -27q-83 0 -150 26.5t-114 75.5t-73 119t-26 157
t26 157t73 118.5t114 75t150 26.5q60 0 113.5 -15.5t96.5 -46t73 -76.5t44 -107h-124q-9 84 -60.5 133.5t-142.5 49.5z" />
    <glyph glyph-name="H" unicode="H" horiz-adv-x="882" 
d="M742 76q0 -15 5 -23t25 -10l50 -5v-38h-285v38l49 5q20 2 25.5 10t5.5 23v266h-352v-266q0 -15 5.5 -23t25.5 -10l49 -5v-38h-285v38l49 5q20 2 25.5 10t5.5 23v573q0 15 -5.5 24t-25.5 11l-49 4v37h285v-37l-49 -4q-20 -2 -25.5 -11t-5.5 -24v-242h352v242q0 15 -5.5 24
t-25.5 11l-49 4v37h285v-37l-50 -4q-20 -2 -25 -11t-5 -24v-573z" />
    <glyph glyph-name="I" unicode="I" horiz-adv-x="405" 
d="M345 0h-285v38l49 5q20 2 25.5 10t5.5 23v573q0 15 -5.5 24t-25.5 11l-49 4v37h285v-37l-49 -4q-20 -2 -25.5 -11t-5.5 -24v-573q0 -15 5.5 -23t25.5 -10l49 -5v-38z" />
    <glyph glyph-name="J" unicode="J" horiz-adv-x="432" 
d="M309 176q0 -66 -13 -102t-38.5 -52.5t-62.5 -19t-84 -2.5h-61v62h22q27 0 48 2t35.5 13.5t21.5 35.5t7 68v468q0 15 -5 24t-25 11l-49 4v37h285v-37l-50 -4q-20 -2 -25.5 -11t-5.5 -24v-473z" />
    <glyph glyph-name="K" unicode="K" horiz-adv-x="788" 
d="M265 357l295 292q19 18 11 25t-39 11l-33 3v37h247v-37l-25 -2q-24 -3 -42.5 -17t-50.5 -46l-184 -180l235 -353q10 -16 18.5 -25.5t17 -15t17 -7.5t20.5 -3l24 -1v-38h-289v38l22 1q18 1 27.5 3t12 6.5t-1 11.5t-9.5 16l-183 279l-90 -88v-191q0 -15 5.5 -23t25.5 -10
l49 -5v-38h-285v38l49 5q20 2 25.5 10t5.5 23v573q0 15 -5.5 24t-25.5 11l-49 4v37h285v-37l-49 -4q-20 -2 -25.5 -11t-5.5 -24v-292z" />
    <glyph glyph-name="L" unicode="L" horiz-adv-x="646" 
d="M60 38l49 5q20 2 25.5 10t5.5 23v573q0 15 -5.5 24t-25.5 11l-49 4v37h285v-37l-49 -4q-20 -2 -25.5 -11t-5.5 -24v-587h189q37 0 59.5 1.5t36 10.5t20 28t11.5 54l9 66h44v-222h-574v38z" />
    <glyph glyph-name="M" unicode="M" horiz-adv-x="1047" 
d="M907 76q0 -15 5.5 -23t25.5 -10l49 -5v-38h-285v38l49 5q20 2 25.5 10t5.5 23v516l-252 -592h-61l-252 586v-510q0 -15 5.5 -23t25.5 -10l49 -5v-38h-233v38l50 5q20 2 25 10t5 23v573q0 20 -7.5 26.5t-27.5 8.5l-49 4v37h236l231 -546l233 546h225v-37l-49 -4
q-20 -2 -24.5 -11t-4.5 -24v-573v0z" />
    <glyph glyph-name="N" unicode="N" horiz-adv-x="825" 
d="M715 0h-66l-436 563v-487q0 -15 5 -23t25 -10l50 -5v-38h-233v38l49 5q20 2 25.5 10t5.5 23v573q0 15 -5.5 24t-25.5 11l-49 4v37h183l399 -518v442q0 15 -5.5 23t-25.5 10l-49 5v38h233v-38l-49 -5q-20 -2 -25.5 -10t-5.5 -23v-649z" />
    <glyph glyph-name="O" unicode="O" horiz-adv-x="828" 
d="M414 -13q-80 0 -147 26.5t-115 75.5t-75 119t-27 157t27 157t75 118.5t115 75t147 26.5t146.5 -26.5t114.5 -75t75 -118.5t27 -157t-27 -157t-75 -119t-114.5 -75.5t-146.5 -26.5zM644 365q0 70 -14 128t-42.5 99.5t-72 64.5t-101.5 23q-59 0 -102.5 -23t-72 -64.5
t-42.5 -99.5t-14 -128q0 -71 14 -129t42.5 -99.5t72 -64.5t102.5 -23q58 0 101.5 23t72 64.5t42.5 99.5t14 129z" />
    <glyph glyph-name="P" unicode="P" horiz-adv-x="665" 
d="M349 726q71 0 130 -10.5t101 -35.5t65.5 -66t23.5 -102t-23.5 -102t-65.5 -66t-101 -35.5t-130 -10.5h-84v-222q0 -15 5.5 -23t25.5 -10l66 -5v-38h-302v38l49 5q20 2 25.5 10t5.5 23v573q0 15 -5.5 24t-25.5 11l-49 4v37q72 0 144.5 0.5t144.5 0.5zM265 663v-302h76
q57 0 94.5 11t60 30.5t32 47.5t9.5 62t-9.5 62t-32 47.5t-60 30.5t-94.5 11h-76z" />
    <glyph glyph-name="Q" unicode="Q" horiz-adv-x="828" 
d="M414 -13q-80 0 -147 26.5t-115 75.5t-75 119t-27 157t27 157t75 118.5t115 75t147 26.5t146.5 -26.5t114.5 -75t75 -118.5t27 -157q0 -109 -40.5 -190t-112.5 -129l91 -89l-50 -50l-107 106q-66 -26 -144 -26zM463 206l100 -99q42 42 61.5 107.5t19.5 150.5q0 70 -14 128
t-42.5 99.5t-72 64.5t-101.5 23q-59 0 -102.5 -23t-72 -64.5t-42.5 -99.5t-14 -128q0 -71 14 -129t42.5 -99.5t72 -64.5t102.5 -23q50 0 90 17l-90 90z" />
    <glyph glyph-name="R" unicode="R" horiz-adv-x="757" 
d="M60 725q69 0 136.5 0.5t136.5 0.5q88 0 149 -13.5t99 -39t55.5 -63.5t17.5 -86q0 -60 -35 -107t-110 -73l154 -258q14 -26 25 -33.5t31 -9.5l42 -5v-38h-189l-51 94l-134 228q-13 -1 -26.5 -1.5t-27.5 -0.5h-68v-244q0 -15 5.5 -23t25.5 -10l53 -5v-38h-289v38l49 5
q20 2 25.5 10t5.5 23v573q0 15 -5.5 24t-25.5 11l-49 4v37zM265 664v-281h73q94 0 140 33t46 108t-46 107.5t-140 32.5h-73z" />
    <glyph glyph-name="S" unicode="S" horiz-adv-x="662" 
d="M493 522q-8 79 -58 118.5t-123 39.5q-26 0 -54 -6t-51 -18.5t-38.5 -33.5t-15.5 -51q0 -27 11 -47t30.5 -34.5t45.5 -24.5t55 -17l80 -21q48 -12 94 -28.5t82 -41.5t58.5 -62t22.5 -91q0 -55 -25.5 -95.5t-66.5 -67.5t-93.5 -40.5t-107.5 -13.5q-66 0 -120.5 17t-96 49
t-68 78.5t-35.5 106.5h124q4 -37 16.5 -71t36.5 -60.5t60 -42t86 -15.5q30 0 61 7t56.5 23t42 40.5t16.5 60.5q0 32 -14.5 54t-38.5 37.5t-55.5 26t-66.5 19.5l-91 24q-41 10 -79 27.5t-67.5 43t-47 60t-17.5 79.5q0 50 24 86t64 59.5t91 34.5t104 11q61 0 111 -17.5
t87 -47.5t60.5 -70t31.5 -85h-121z" />
    <glyph glyph-name="T" unicode="T" horiz-adv-x="719" 
d="M695 725v-222h-44l-9 66q-5 35 -11.5 54.5t-20 28.5t-36.5 11t-60 2h-92v-587q0 -16 6 -24t26 -10l60 -5v-39h-309v39l61 5q20 2 25.5 10t5.5 24v587h-92q-37 0 -59.5 -2t-36 -11t-20.5 -28.5t-11 -54.5l-9 -66h-45v222h671z" />
    <glyph glyph-name="U" unicode="U" horiz-adv-x="800" 
d="M407 -13q-89 0 -148.5 20.5t-95.5 57.5t-51 89.5t-15 117.5v377q0 15 -6 24t-26 11l-49 4v37h286v-37l-49 -4q-20 -2 -25.5 -11t-5.5 -24v-372q0 -104 43.5 -159t145.5 -55q103 0 159 48t56 164v374q0 15 -5 24t-25 11l-49 4v37h235v-37l-49 -4q-20 -2 -25 -11t-5 -24
v-369q0 -63 -15.5 -116.5t-50.5 -93t-91.5 -61.5t-138.5 -22z" />
    <glyph glyph-name="V" unicode="V" horiz-adv-x="748" 
d="M415 0h-82l-255 649q-6 14 -13 24t-25 12l-40 3v37h287v-37l-49 -4q-41 -5 -28 -35l190 -497l190 497q11 30 -29 35l-49 4v37h236v-37l-39 -3q-19 -2 -26 -12t-13 -24z" />
    <glyph glyph-name="W" unicode="W" horiz-adv-x="999" 
d="M728 175l107 474q3 14 -3 23.5t-27 11.5l-49 4v37h237v-37l-40 -3q-19 -2 -26.5 -11.5t-12.5 -24.5l-161 -649h-96l-153 516l-162 -516h-88l-170 649q-5 15 -12.5 24.5t-25.5 11.5l-40 3v37h287v-37l-49 -4q-21 -2 -27 -10t-1 -25l106 -471l164 547h79z" />
    <glyph glyph-name="X" unicode="X" horiz-adv-x="819" 
d="M393 302l-181 -226q-13 -14 -10 -22.5t33 -12.5l26 -3v-38h-225v38l34 2q18 1 29.5 12.5t21.5 23.5l229 285l-211 288q-11 14 -20.5 24t-25.5 12l-33 3v37h302v-37l-49 -4q-26 -2 -34.5 -9.5t5.5 -25.5l142 -194l155 194q12 14 9 23t-32 13l-27 3v37h225v-37l-33 -2
q-17 -1 -29 -13t-23 -24l-202 -252l236 -321q11 -14 19.5 -23.5t26.5 -11.5l32 -3v-38h-302v38l50 5q24 2 33 8.5t-5 24.5z" />
    <glyph glyph-name="Y" unicode="Y" horiz-adv-x="692" 
d="M279 287l-205 362q-8 14 -17 24t-27 12l-34 3v37h297v-37l-49 -4q-20 -2 -28 -11.5t-1 -23.5l159 -288l165 288q7 14 -1.5 23.5t-28.5 11.5l-49 4v37h236v-37l-32 -3q-19 -2 -28.5 -12t-17.5 -24l-214 -363v-210q0 -15 6 -23t26 -10l49 -5v-38h-286v38l48 5q20 2 26 10
t6 23v211z" />
    <glyph glyph-name="Z" unicode="Z" horiz-adv-x="707" 
d="M250 663q-37 0 -59.5 -1.5t-36 -10.5t-20.5 -28t-11 -54l-8 -66h-45v222h581v-59l-471 -604h297q37 0 59.5 1.5t36 10.5t20 28t11.5 54l9 66h44v-222h-621v61l470 602h-256v0z" />
    <glyph glyph-name="bracketleft" unicode="[" horiz-adv-x="300" 
d="M82 745h202v-53h-85v-827h85v-53h-202v933z" />
    <glyph glyph-name="backslash" unicode="\" horiz-adv-x="372" 
d="M372 0h-80l-292 725h81z" />
    <glyph glyph-name="bracketright" unicode="]" horiz-adv-x="301" 
d="M220 -188h-203v53h86v827h-86v53h203v-933z" />
    <glyph glyph-name="asciicircum" unicode="^" horiz-adv-x="439" 
d="M463 332h-88l-153 293l-152 -293h-87l202 393h74z" />
    <glyph glyph-name="underscore" unicode="_" horiz-adv-x="446" 
d="M26 0h393v-78h-393v78z" />
    <glyph glyph-name="grave" unicode="`" horiz-adv-x="297" 
d="M36 745h131l94 -142h-57z" />
    <glyph glyph-name="a" unicode="a" horiz-adv-x="607" 
d="M402 269q-48 -6 -89 -12.5t-70.5 -19.5t-46 -35.5t-16.5 -59.5q0 -38 24.5 -62.5t67.5 -24.5q25 0 48.5 9t41.5 30t29 56t11 88v31zM400 362q0 72 -26 100.5t-83 28.5q-55 0 -81.5 -33.5t-29.5 -87.5h-110q3 39 21.5 72t48.5 56t69.5 36t85.5 13q55 0 97 -10.5t69 -34.5
t40 -63t12 -96q-1 -23 -1.5 -55.5t-0.5 -67.5v-68t2 -69q2 -20 6.5 -26t24.5 -8l43 -4v-37l-167 -11l-8 98h-3q-26 -49 -68 -78.5t-116 -29.5q-37 0 -68.5 10.5t-54.5 29.5t-36 46t-13 60q0 48 26 80.5t72.5 54t110 35t138.5 22.5v37z" />
    <glyph glyph-name="b" unicode="b" horiz-adv-x="664" 
d="M109 670q0 20 -5.5 25.5t-25.5 7.5l-43 5v37h192l-1 -137v-88v-38.5t-1 -36.5h1q11 20 27.5 38.5t38 32.5t48 22.5t58.5 8.5q47 0 87 -19.5t69 -56t45.5 -88.5t16.5 -116t-18 -115.5t-50 -88t-75.5 -56.5t-94.5 -20q-54 0 -97.5 24.5t-71.5 66.5h-3l-52 -79h-47
q2 47 2 93v93v485zM217 267q0 -63 12.5 -104t32 -65t43.5 -33.5t48 -9.5q32 0 57.5 15.5t43 43.5t26.5 67t9 86t-8 86t-24 67t-40 43.5t-57 15.5q-24 0 -49 -9.5t-46 -33.5t-34.5 -65t-13.5 -104z" />
    <glyph glyph-name="c" unicode="c" horiz-adv-x="597" 
d="M48 267q0 64 19.5 116t54 88.5t82.5 56t106 19.5q41 0 81 -11t73 -33.5t56 -57.5t31 -83h-113q-1 35 -13 59t-30 39t-39 21.5t-40 6.5q-70 0 -105.5 -60t-35.5 -161q0 -50 9 -90.5t26.5 -69.5t44 -45t62.5 -16q19 0 40 6t38.5 20.5t29.5 38.5t13 59h113q-8 -48 -31 -83
t-56 -57t-73 -32.5t-81 -10.5q-58 0 -106 20t-82.5 56.5t-54 88t-19.5 115.5z" />
    <glyph glyph-name="d" unicode="d" horiz-adv-x="661" 
d="M447 267q0 63 -12.5 104t-32 65t-44 33.5t-47.5 9.5q-32 0 -57.5 -15.5t-43 -43.5t-26.5 -67t-9 -86t8 -86t24 -67t40 -43.5t56 -15.5q24 0 49.5 9.5t46.5 33.5t34.5 65t13.5 104zM556 745l-1 -137v-524q0 -20 5.5 -26t25.5 -8l43 -4v-37l-186 -12l-2 93h-2
q-12 -20 -28.5 -38.5t-38 -32.5t-48 -23t-57.5 -9q-48 0 -88 20t-69 56.5t-45.5 88t-16.5 115.5t18 116t50 88.5t75.5 56t94.5 19.5q54 0 92 -29t60 -68h2q0 13 -0.5 23t-1 19.5t-0.5 20.5v25v132q0 20 -6 25.5t-26 7.5l-56 5v37h206z" />
    <glyph glyph-name="e" unicode="e" horiz-adv-x="604" 
d="M319 46q50 0 84.5 29.5t39.5 86.5h114q-8 -47 -31.5 -80t-56.5 -54t-74 -31t-84 -10q-58 0 -106.5 19.5t-83.5 55.5t-54.5 87t-19.5 115q0 60 18 111.5t52 90t82.5 60t109.5 21.5q54 0 100 -17.5t79.5 -52.5t52.5 -88.5t18 -126.5h-390q0 -100 38.5 -158t111.5 -58z
M308 490q-57 0 -95.5 -40t-43.5 -128h267q1 45 -8.5 77t-27 52.5t-41.5 29.5t-51 9z" />
    <glyph glyph-name="f" unicode="f" horiz-adv-x="425" 
d="M348 0h-298v37l43 4q20 2 25.5 8t5.5 26v399h-74v64h74v57q0 49 13 78.5t38.5 45.5t63 21t87.5 5h93v-70h-106q-43 0 -57.5 -14.5t-14.5 -50.5v-72h178v-64h-178v-398q0 -20 6 -26t26 -7l75 -5v-38z" />
    <glyph glyph-name="g" unicode="g" horiz-adv-x="608" 
d="M441 485q22 -23 34.5 -53.5t12.5 -69.5q0 -46 -17.5 -80.5t-47 -57.5t-68.5 -34.5t-82 -11.5q-35 0 -64 7q-14 -6 -22 -15.5t-8 -20.5q0 -21 17.5 -28.5t49.5 -10.5l143 -10q51 -3 84.5 -12.5t53.5 -24.5t28 -34.5t8 -43.5q0 -33 -20 -65t-57 -57.5t-90.5 -41
t-119.5 -15.5q-64 0 -109.5 10t-74.5 27.5t-42.5 40t-13.5 46.5q0 19 10 35.5t27.5 29t40 20.5t47.5 11q-44 11 -62.5 33.5t-18.5 51.5q0 15 8.5 28t22.5 23.5t32.5 18t38.5 11.5q-54 19 -89 61.5t-35 108.5q0 46 17.5 80.5t47 58t68.5 35t82 11.5q54 0 99 -18l212 9v-64z
M273 226q47 0 73 33.5t26 102.5q0 70 -26 103.5t-73 33.5t-73 -33.5t-26 -103.5q0 -69 26 -102.5t73 -33.5zM204 20q-4 0 -7.5 0.5t-7.5 0.5q-20 -9 -34.5 -29t-14.5 -43q0 -39 35.5 -64.5t107.5 -25.5q36 0 67 7t53.5 19t35.5 29t13 37q0 30 -23 43.5t-77 16.5z" />
    <glyph glyph-name="h" unicode="h" horiz-adv-x="649" 
d="M555 75q0 -20 5.5 -26t25.5 -8l43 -4v-37h-265v37l42 4q20 2 26 8t6 26v240q0 86 -21.5 123t-72.5 37q-28 0 -49.5 -11.5t-36.5 -31.5t-23 -47.5t-8 -60.5v-249q0 -20 6 -26t26 -8l42 -4v-37h-265v37l43 4q20 2 25.5 8t5.5 26v595q0 20 -5.5 25.5t-25.5 7.5l-43 5v37h192
l-1 -135v-61l-1 -101h1q23 44 65.5 71.5t101.5 27.5q48 0 79.5 -16t49.5 -43t25 -61.5t7 -71.5v-280z" />
    <glyph glyph-name="i" unicode="i" horiz-adv-x="348" 
d="M241 405v-330q0 -20 6 -26t26 -8l42 -4v-37h-265v37l43 4q20 2 25.5 8t5.5 26v389q0 19 -5.5 24.5t-25.5 8.5l-43 4v37h192zM124 745h117v-135h-117v135z" />
    <glyph glyph-name="j" unicode="j" horiz-adv-x="360" 
d="M133 464q0 19 -5.5 24.5t-25.5 8.5l-43 4v37h192l-1 -133v-392q0 -69 -8 -109t-27.5 -61t-51.5 -26.5t-80 -5.5h-71v74h70q17 0 27 3t15.5 15t7 36t1.5 67v458zM133 745h117v-135h-117v135z" />
    <glyph glyph-name="k" unicode="k" horiz-adv-x="618" 
d="M228 745l-1 -137v-345l193 195q15 15 10 25.5t-30 13.5l-51 4v37h256v-37l-49 -6q-8 -1 -15 -3t-15 -7.5t-18 -14t-23 -22.5l-114 -111l155 -253q14 -21 28 -31.5t40 -13.5l24 -2v-37h-179l-150 256l-62 -61v-120q0 -20 6 -26t26 -8l42 -4v-37h-265v37l43 4q20 2 25.5 8
t5.5 26v595q0 20 -5.5 25.5t-25.5 7.5l-43 5v37h192z" />
    <glyph glyph-name="l" unicode="l" horiz-adv-x="333" 
d="M228 745l-1 -137v-533q0 -20 6 -26t26 -8l42 -4v-37h-265v37l43 4q20 2 25.5 8t5.5 26v595q0 20 -5.5 25.5t-25.5 7.5l-43 5v37h192z" />
    <glyph glyph-name="m" unicode="m" horiz-adv-x="960" 
d="M240 448h1q23 44 61.5 71.5t97.5 27.5q33 0 57 -8.5t41.5 -22.5t28.5 -33.5t18 -40.5q22 47 65 76t103 29q48 0 78 -17t46.5 -44t22 -61.5t5.5 -69.5v-280q0 -20 5.5 -26t25.5 -8l43 -4v-37h-266v37l43 4q20 2 26 8t6 26v240q0 87 -18.5 123.5t-66.5 36.5
q-29 0 -49.5 -11.5t-34 -31.5t-20 -47.5t-6.5 -60.5v-249q0 -20 6 -26t26 -8l43 -4v-37h-266v37l43 4q20 2 26 8t6 26v240q0 86 -19.5 123t-67.5 37q-28 0 -48.5 -11.5t-34 -31.5t-20 -47.5t-6.5 -60.5v-249q0 -20 6 -26t26 -8l42 -4v-37h-265v37l43 4q20 2 25.5 8t5.5 26
v389q0 19 -5.5 24.5t-25.5 8.5l-43 4v37h190v-90z" />
    <glyph glyph-name="n" unicode="n" horiz-adv-x="664" 
d="M569 75q0 -20 5.5 -26t25.5 -8l43 -4v-37h-265v37l42 4q20 2 26 8t6 26v240q0 86 -21.5 123t-72.5 37q-28 0 -49.5 -11.5t-36.5 -31.5t-23 -47.5t-8 -60.5v-249q0 -20 6 -26t26 -8l42 -4v-37h-265v37l43 4q20 2 25.5 8t5.5 26v389q0 19 -5.5 24.5t-25.5 8.5l-43 4v37h190
v-90h1q23 44 65.5 71.5t101.5 27.5q48 0 79.5 -16t49.5 -43t25 -61.5t7 -71.5v-280z" />
    <glyph glyph-name="o" unicode="o" horiz-adv-x="627" 
d="M452 267q0 60 -10.5 102t-29.5 68.5t-44.5 38.5t-55.5 12q-29 0 -54 -12t-43.5 -38.5t-29 -68.5t-10.5 -102t10.5 -102t29 -68.5t43.5 -38.5t54 -12q30 0 55.5 12t44 38.5t29.5 68.5t11 102zM579 267q0 -64 -20 -116t-55.5 -88.5t-85 -56t-107.5 -19.5t-106.5 19.5
t-83 56t-54 88t-19.5 116.5q0 64 19.5 116t54.5 88.5t83.5 56t106.5 19.5t107.5 -19.5t84.5 -56t55 -88.5t20 -116z" />
    <glyph glyph-name="p" unicode="p" horiz-adv-x="652" 
d="M205 267q0 -63 12 -104t31.5 -65t43.5 -33.5t48 -9.5q33 0 58.5 15.5t43 43.5t26.5 67t9 86t-8 86t-24.5 67t-40.5 43.5t-57 15.5q-24 0 -49 -9.5t-45.5 -33.5t-34 -65t-13.5 -104zM211 444h2q11 19 27 37.5t37.5 33t48 23.5t58.5 9q48 0 88 -19.5t69.5 -56t46 -88.5
t16.5 -116t-18.5 -115.5t-50.5 -88t-75.5 -56.5t-93.5 -20q-54 0 -93 28.5t-59 67.5h-2q0 -11 0.5 -18l1 -14t0.5 -15v-21v-127q0 -20 6 -26t26 -8l69 -5v-38h-292v37l43 5q20 2 25.5 7.5t5.5 25.5v578q0 19 -5.5 24.5t-25.5 8.5l-43 4v37h188v-94z" />
    <glyph glyph-name="q" unicode="q" horiz-adv-x="657" 
d="M447 266q0 63 -12.5 104.5t-32 65.5t-44 33.5t-47.5 9.5q-32 0 -57.5 -15.5t-43 -43.5t-26.5 -67.5t-9 -86.5t8 -86t24 -66.5t40 -43t56 -15.5q24 0 49.5 9t46.5 33t34.5 65t13.5 104zM438 14v39t1 37h-1q-11 -20 -27.5 -38.5t-38 -33t-48.5 -23t-58 -8.5q-47 0 -87 20
t-69 56.5t-45.5 88t-16.5 115.5t18 116t50 88.5t75.5 56t94.5 19.5q54 0 97.5 -24.5t71.5 -66.5h2l42 82h58l-2 -190v-462q0 -20 5.5 -25.5t25.5 -7.5l43 -5v-37h-292v38l69 5q20 2 26 8t6 26v126z" />
    <glyph glyph-name="r" unicode="r" horiz-adv-x="468" 
d="M240 418h2q22 58 67.5 91t105.5 33h47v-110h-95q-29 0 -52.5 -5.5t-40 -20t-25 -40.5t-8.5 -67v-223q0 -20 6 -26t26 -7l75 -5v-38h-298v37l43 4q20 2 25.5 8t5.5 26v389q0 19 -5.5 24.5t-25.5 8.5l-43 4v37h190v-120z" />
    <glyph glyph-name="s" unicode="s" horiz-adv-x="552" 
d="M156 169q6 -52 38 -87.5t96 -35.5q58 0 90 23t32 61q0 23 -11.5 39t-29.5 27t-41 17.5t-47 11.5l-62 12q-30 6 -59 17.5t-52 30.5t-37 46t-14 64q0 40 19 69t49.5 47.5t69 27t77.5 8.5q42 0 80 -10.5t68 -31t50 -50.5t28 -70h-109q-1 22 -11 41t-27 32.5t-39.5 21.5
t-48.5 8q-15 0 -34 -3t-36.5 -10.5t-29.5 -21t-12 -34.5q0 -36 27 -56t78 -30l62 -13q37 -8 71 -19t60.5 -30t42 -47.5t15.5 -70.5q0 -45 -18.5 -76.5t-50 -51.5t-73 -29t-87.5 -9q-47 0 -88 12t-72 35t-50.5 57t-22.5 78h109v0z" />
    <glyph glyph-name="t" unicode="t" horiz-adv-x="412" 
d="M372 474h-153v-322q0 -25 3.5 -41t12 -25t23.5 -12.5t39 -3.5h74v-70h-92q-53 0 -87 5t-54 20t-28 42t-8 72v335h-94v64h94v171h117v-171h153v-64z" />
    <glyph glyph-name="u" unicode="u" horiz-adv-x="634" 
d="M408 85h-1q-23 -44 -63.5 -71t-100.5 -27q-48 0 -78.5 16t-48 43t-24 61.5t-6.5 71.5v285q0 19 -5.5 24.5t-25.5 8.5l-43 4v37h192l-1 -136v-184q0 -86 20 -122.5t71 -36.5q56 0 84.5 42.5t28.5 108.5v254q0 19 -5.5 24.5t-25.5 8.5l-43 4v37h192l-1 -136v-318
q0 -20 6 -26t26 -8l42 -4v-37l-186 -18z" />
    <glyph glyph-name="v" unicode="v" horiz-adv-x="556" 
d="M60 466q-5 15 -11.5 23t-25.5 10l-27 2v37h249v-37l-39 -3q-18 -2 -23 -9t1 -24l108 -324l109 297q10 27 11.5 42.5t-23.5 17.5l-39 3v37h210v-37l-31 -2q-11 -1 -18 -4t-12 -9.5t-10 -17.5t-11 -28l-174 -442h-68z" />
    <glyph glyph-name="w" unicode="w" horiz-adv-x="792" 
d="M637 438q8 28 8 43t-20 17l-37 3v37h208v-37l-31 -2q-15 -1 -28 -12.5t-24 -46.5l-134 -442h-71l-118 387l-119 -387h-71l-140 468q-4 15 -10 23t-17 9l-37 3v37h248v-37l-38 -3q-18 -2 -22.5 -9t0.5 -24l75 -307l117 380h72l115 -381z" />
    <glyph glyph-name="x" unicode="x" horiz-adv-x="663" 
d="M273 261l-150 199q-17 22 -27 28.5t-27 9.5l-22 3v37h253v-37l-35 -3q-16 -2 -17.5 -8.5t9.5 -21.5l90 -119l101 119q10 13 10 19.5t-20 9.5l-39 4v37h229v-37l-30 -2q-26 -3 -40.5 -13.5t-33.5 -32.5l-135 -160l163 -215q9 -11 15 -18t11.5 -11t11.5 -6t15 -3l22 -3v-37
h-252v37l35 3q16 2 17.5 8.5t-10.5 21.5l-103 135l-114 -135q-10 -12 -10 -19t20 -10l39 -4v-37h-229v37l31 2q26 3 40.5 14t34.5 34z" />
    <glyph glyph-name="y" unicode="y" horiz-adv-x="563" 
d="M37 -189v71h80q20 0 34 4t26 17t23 36t24 62l5 13l-169 452q-5 17 -12.5 23.5t-28.5 9.5l-23 2v37h255v-37l-45 -3q-18 -2 -23 -9t1 -24l111 -333l113 306q10 27 11 41.5t-23 17.5l-45 4v37h216v-37l-32 -2q-18 -2 -27 -12.5t-20 -38.5l-179 -458q-21 -54 -38 -88.5
t-38 -54.5t-49 -28t-70 -8h-77z" />
    <glyph glyph-name="z" unicode="z" horiz-adv-x="555" 
d="M48 62l313 412h-285v64h426v-60l-314 -414h319v-64h-459v62z" />
    <glyph glyph-name="braceleft" unicode="{" horiz-adv-x="314" 
d="M259 -188q-92 0 -129.5 29t-37.5 94v212q0 20 -2.5 40.5t-11 36.5t-24 26t-42.5 10v41q27 0 42.5 10t24 26t11 36.5t2.5 40.5v207q0 66 37.5 95t129.5 29h43v-53h-14q-48 0 -63.5 -23.5t-15.5 -60.5v-184q0 -36 -6.5 -60.5t-20.5 -41t-35 -26t-50 -14.5v-2q29 -6 50 -15
t35 -25t20.5 -40.5t6.5 -60.5v-190q0 -36 15.5 -60t63.5 -24h14v-53h-43v0z" />
    <glyph glyph-name="bar" unicode="|" horiz-adv-x="257" 
d="M91 -90v815h75v-815h-75z" />
    <glyph glyph-name="braceright" unicode="}" horiz-adv-x="314" 
d="M12 -188v53h14q24 0 39.5 6.5t24.5 17.5t12.5 26.5t3.5 33.5v190q0 36 6.5 60.5t20.5 40.5t34.5 25t49.5 15v2q-29 5 -49.5 14.5t-34.5 26t-20.5 41t-6.5 60.5v184q0 18 -3.5 33.5t-12.5 27t-24.5 17.5t-39.5 6h-14v53h44q91 0 129 -29t38 -95v-207q0 -20 2.5 -40.5
t10.5 -36.5t23.5 -26t42.5 -10v-41q-27 0 -42.5 -10t-23.5 -26t-10.5 -36.5t-2.5 -40.5v-212q0 -66 -37.5 -94.5t-129.5 -28.5h-44z" />
    <glyph glyph-name="asciitilde" unicode="~" horiz-adv-x="709" 
d="M471 278q28 0 47.5 18.5t22.5 53.5h76q-4 -66 -43.5 -104.5t-102.5 -38.5q-31 0 -61 11.5t-59 25t-56.5 25t-53.5 11.5q-28 0 -47.5 -18.5t-21.5 -54.5h-78q4 67 43.5 105t103.5 38q36 0 68 -11.5t60.5 -25t53.5 -24.5t48 -11z" />
    <glyph glyph-name="uni00A0" unicode="&#xa0;" horiz-adv-x="270" 
 />
    <glyph glyph-name="exclamdown" unicode="&#xa1;" horiz-adv-x="337" 
d="M104 -188v202l42 315h48l44 -316v-201h-134zM96 538h145v-145h-145v145z" />
    <glyph glyph-name="cent" unicode="&#xa2;" horiz-adv-x="593" 
d="M48 267q0 59 16.5 107.5t46.5 84.5t71.5 58t92.5 28v74h50v-73q39 -2 76.5 -13.5t68.5 -34t52 -56.5t29 -80h-113q-1 33 -12 56t-27.5 38t-36 22.5t-37.5 9.5v-442q19 1 38.5 8t35.5 21.5t27 37.5t12 57h113q-8 -46 -29 -79.5t-52 -56t-68.5 -34t-76.5 -12.5v-70h-50v71
q-51 6 -92.5 28t-71.5 58t-46.5 84.5t-16.5 107.5zM175 267q0 -85 24.5 -141t75.5 -73v428q-50 -17 -75 -73t-25 -141z" />
    <glyph glyph-name="sterling" unicode="&#xa3;" horiz-adv-x="621" 
d="M443 412v-51h-184q9 -20 15 -41t6 -44q0 -31 -12 -56t-30.5 -45.5t-41 -37t-44.5 -29.5l1 -1q47 23 97 23q24 0 46.5 -7.5t46 -16t47.5 -16t50 -7.5q34 0 69 10.5t64 23.5l36 -93q-13 -7 -32.5 -14t-41.5 -12t-45 -8.5t-44 -3.5q-35 0 -64.5 6t-56.5 13.5t-52.5 14
t-52.5 6.5q-40 0 -81 -12t-85 -30l-37 82q72 27 110 73t38 124q0 26 -6.5 50.5t-17.5 47.5h-121v51h96q-17 33 -30.5 68t-13.5 77q0 55 22.5 90.5t59.5 56.5t83.5 29.5t93.5 8.5q63 0 112.5 -16.5t84.5 -47t54.5 -74t21.5 -96.5h-111q0 41 -12 73.5t-34 55.5t-51.5 35
t-65.5 12q-60 0 -99 -28.5t-39 -95.5q0 -45 12.5 -80.5t29.5 -67.5h209z" />
    <glyph glyph-name="currency" unicode="&#xa4;" horiz-adv-x="656" 
d="M85 352q0 40 12 75.5t33 65.5l-69 71l48 47l68 -68q31 24 68.5 37.5t79.5 13.5q43 0 81.5 -14t70.5 -39l70 70l48 -47l-72 -72q21 -29 33 -65t12 -75q0 -40 -12 -75.5t-34 -65.5l73 -72l-48 -47l-71 70q-32 -24 -70 -37.5t-81 -13.5q-42 0 -79 13t-68 37l-69 -69l-48 47
l70 71q-22 30 -34 66t-12 76zM160 352q0 -37 12 -68.5t34 -55t52 -36.5t66 -13q38 0 69 13t53.5 36.5t35 55t12.5 68.5t-12.5 69t-35 55.5t-53.5 37t-69 13.5q-36 0 -66 -13.5t-52 -37t-34 -55.5t-12 -69z" />
    <glyph glyph-name="yen" unicode="&#xa5;" horiz-adv-x="681" 
d="M396 130v-54q0 -15 5.5 -23t25.5 -10l49 -5v-38h-277v38l48 5q20 2 26 10t6 23v54h-109v53h109v78h-109v53h93l-189 335q-8 14 -17 24t-27 12l-34 3v37h289v-37l-49 -4q-20 -2 -28 -11.5t0 -23.5l157 -288l165 288q8 14 -0.5 23.5t-29.5 11.5l-49 4v37h236v-37l-32 -3
q-19 -2 -28 -12t-17 -24l-198 -335h93v-53h-109v-78h109v-53h-109z" />
    <glyph glyph-name="brokenbar" unicode="&#xa6;" horiz-adv-x="257" 
d="M166 725v-305h-75v305h75zM166 215v-305h-75v305h75z" />
    <glyph glyph-name="section" unicode="&#xa7;" horiz-adv-x="618" 
d="M410 577q0 23 -7.5 43.5t-22.5 36t-37 24.5t-52 9q-42 0 -74 -16t-32 -51q0 -32 24.5 -54.5t68.5 -45.5l152 -82q28 -15 53.5 -32t44.5 -37.5t30 -44.5t11 -54q0 -32 -11 -57t-29.5 -44t-44 -33.5t-53.5 -24.5q40 -29 61.5 -62t21.5 -78q0 -41 -18 -73t-48 -54.5
t-69 -34.5t-81 -12q-47 0 -88.5 12t-73 36t-52 60.5t-26.5 84.5h108q3 -63 36.5 -100.5t93.5 -37.5q54 0 84 26.5t30 64.5q0 19 -6 34t-19 28.5t-33 27t-48 28.5l-129 69q-26 14 -52 32t-46.5 40t-33.5 49t-13 60q0 28 12 51t32 41t46 30.5t55 21.5q-39 26 -66 60t-27 84
q0 36 18 62.5t48 43.5t67.5 25.5t76.5 8.5q44 0 82.5 -9t68 -29t49 -51t26.5 -76h-108zM391 140q31 14 53.5 39t22.5 57q0 38 -30 66t-81 55l-128 70q-3 2 -6.5 3.5t-6.5 3.5q-32 -12 -56.5 -35.5t-24.5 -56.5q0 -22 7 -38.5t19 -29.5t28.5 -23.5t35.5 -21.5l136 -72z" />
    <glyph glyph-name="dieresis" unicode="&#xa8;" horiz-adv-x="393" 
d="M24 745h112v-135h-112v135zM257 745h112v-135h-112v135z" />
    <glyph glyph-name="copyright" unicode="&#xa9;" horiz-adv-x="846" 
d="M48 361q0 83 29.5 152.5t80.5 119t119.5 77t146.5 27.5q77 0 145 -27.5t119 -77t80.5 -119t29.5 -152.5t-29.5 -152t-80.5 -118.5t-119 -76.5t-145 -27q-78 0 -146.5 27t-119.5 76.5t-80.5 118.5t-29.5 152zM117 361q0 -70 23.5 -127.5t65 -99t97.5 -64t121 -22.5
t121 22.5t97 64t64 99t23 127.5t-23 128t-64 99.5t-97 64t-121 22.5t-121 -22.5t-97.5 -64t-65 -99.5t-23.5 -128zM421 219q35 0 66 18t43 60l67 -19q-8 -24 -22.5 -45.5t-36.5 -38t-51 -26t-66 -9.5q-90 0 -138 55.5t-48 153.5q0 97 51.5 150.5t139.5 53.5q71 0 112.5 -35
t55.5 -88l-67 -21q-10 42 -39 63t-67 21q-47 0 -80 -35.5t-33 -108.5t33 -111t80 -38z" />
    <glyph glyph-name="ordfeminine" unicode="&#xaa;" horiz-adv-x="371" 
d="M44 528q0 31 14 49t36 27q21 8 45 12.5t49 8.5l46 5v14q0 35 -12 51t-43 16q-24 0 -39.5 -13t-16.5 -45h-69q3 45 40 68.5t88 23.5q64 0 94.5 -24.5t28.5 -83.5v-65v-37t1 -38q0 -13 3 -17t16 -5l23 -3v-22l-101 -7l-5 47h-4q-11 -21 -31.5 -37t-54.5 -16q-20 0 -39 6.5
t-34.5 18t-25 28.5t-9.5 38zM234 594l-38 -4q-11 -2 -23 -5.5t-22.5 -10t-17 -17t-6.5 -26.5q0 -23 14 -35.5t38 -12.5q10 0 20 3t18 11t12.5 23.5t4.5 41.5v32z" />
    <glyph glyph-name="guillemotleft" unicode="&#xab;" horiz-adv-x="514" 
d="M0 273l209 234h63l-141 -234l141 -235h-63zM218 273l209 234h63l-141 -234l141 -235h-63z" />
    <glyph glyph-name="logicalnot" unicode="&#xac;" horiz-adv-x="708" 
d="M64 361v76h530v-338h-81v262h-449z" />
    <glyph glyph-name="uni00AD" unicode="&#xad;" horiz-adv-x="329" 
d="M24 326h281v-99h-281v99z" />
    <glyph glyph-name="registered" unicode="&#xae;" horiz-adv-x="846" 
d="M48 361q0 83 29.5 152.5t80.5 119t119.5 77t146.5 27.5q77 0 145 -27.5t119 -77t80.5 -119t29.5 -152.5t-29.5 -152t-80.5 -118.5t-119 -76.5t-145 -27q-78 0 -146.5 27t-119.5 76.5t-80.5 118.5t-29.5 152zM117 361q0 -70 23.5 -127.5t65 -99t97.5 -64t121 -22.5
t121 22.5t97 64t64 99t23 127.5t-23 128t-64 99.5t-97 64t-121 22.5t-121 -22.5t-97.5 -64t-65 -99.5t-23.5 -128zM444 329h-20h-72v-153h-73v397h122q44 0 78.5 -4.5t58.5 -18t36.5 -37t12.5 -62.5q0 -34 -17 -62t-55 -44l91 -169h-81zM514 450q0 37 -27 49t-69 12h-66
v-122h71q48 0 69.5 15t21.5 46z" />
    <glyph glyph-name="macron" unicode="&#xaf;" horiz-adv-x="361" 
d="M36 631v71h289v-71h-289z" />
    <glyph glyph-name="degree" unicode="&#xb0;" horiz-adv-x="346" 
d="M24 589q0 31 11.5 58t32 47.5t47.5 32t57 11.5q31 0 58.5 -11.5t47.5 -32t32 -47.5t12 -58t-12 -58t-32 -47.5t-47.5 -32t-58.5 -11.5q-30 0 -57 11.5t-47.5 32t-32 47.5t-11.5 58zM95 589q0 -35 21 -60.5t56 -25.5q37 0 58.5 25.5t21.5 60.5q0 36 -21.5 61t-58.5 25
q-35 0 -56 -25t-21 -61z" />
    <glyph glyph-name="plusminus" unicode="&#xb1;" 
d="M313 539h80v-168h230v-75h-230v-172h-80v172h-230v75h230v168zM83 0v75h540v-75h-540z" />
    <glyph glyph-name="twosuperior" unicode="&#xb2;" horiz-adv-x="373" 
d="M333 508v-63h-316v67q72 46 118.5 79.5t73.5 60t37.5 50t10.5 49.5q0 30 -19 49.5t-51 19.5q-47 0 -66.5 -32.5t-16.5 -82.5h-72q-2 37 10 65.5t33.5 47.5t51.5 28.5t64 9.5q63 0 103 -25t40 -81q0 -32 -22 -63.5t-57.5 -61.5t-79.5 -59.5t-87 -57.5h245z" />
    <glyph glyph-name="threesuperior" unicode="&#xb3;" horiz-adv-x="387" 
d="M189 438q-33 0 -62 9.5t-50.5 26.5t-34.5 41t-14 53h70q0 -39 25.5 -66t66.5 -27q35 0 59 19t24 61q0 22 -9 36.5t-24 23t-35.5 12t-43.5 3.5h-13v44h7q21 0 40.5 4t34.5 13t24.5 23.5t9.5 35.5q0 32 -21 51t-54 19q-38 0 -62.5 -23.5t-24.5 -62.5h-71q1 27 14 49
t34.5 38.5t49.5 25.5t61 9q27 0 54 -6t49 -18t35.5 -30t13.5 -43q0 -68 -74 -98v-2q85 -25 85 -100q0 -32 -13 -55t-35.5 -37.5t-52.5 -21.5t-63 -7z" />
    <glyph glyph-name="acute" unicode="&#xb4;" horiz-adv-x="297" 
d="M93 603h-57l93 142h132z" />
    <glyph glyph-name="mu" unicode="&#xb5;" horiz-adv-x="589" 
d="M70 -189q7 29 8.5 65t1.5 93v566h81v-299q0 -94 32.5 -136.5t95.5 -42.5q66 0 102 48.5t36 140.5v289h81v-535h-81v81q-21 -45 -56 -69.5t-79 -24.5q-48 0 -80 20.5t-51 56.5v-86q0 -63 -3 -100.5t-8 -66.5h-80v0z" />
    <glyph glyph-name="mu" unicode="&#x3bc;" horiz-adv-x="589" 
d="M70 -189q7 29 8.5 65t1.5 93v566h81v-299q0 -94 32.5 -136.5t95.5 -42.5q66 0 102 48.5t36 140.5v289h81v-535h-81v81q-21 -45 -56 -69.5t-79 -24.5q-48 0 -80 20.5t-51 56.5v-86q0 -63 -3 -100.5t-8 -66.5h-80v0z" />
    <glyph glyph-name="paragraph" unicode="&#xb6;" horiz-adv-x="548" 
d="M24 534q0 89 60.5 140t184.5 51h196v-816h-71v749h-120v-749h-71v446q-33 4 -65.5 16t-57.5 34t-40.5 54t-15.5 75z" />
    <glyph glyph-name="periodcentered" unicode="&#xb7;" horiz-adv-x="313" 
d="M84 352h145v-145h-145v145z" />
    <glyph glyph-name="cedilla" unicode="&#xb8;" horiz-adv-x="297" 
d="M131 3h48l-37 -53q55 10 87 -13t32 -64q0 -22 -11 -39t-28 -28.5t-38.5 -17.5t-43.5 -6q-23 0 -49 3.5t-55 16.5l17 41q15 -7 32 -11.5t34 -4.5q10 0 22 2t22.5 7t17 13t6.5 19q0 20 -16.5 29t-35.5 9q-10 0 -20.5 -2.5t-19.5 -7.5l-21 19z" />
    <glyph glyph-name="onesuperior" unicode="&#xb9;" horiz-adv-x="258" 
d="M187 491q0 -10 2.5 -15.5t15.5 -7.5l20 -3v-20h-169v20l39 5q12 1 15 6t3 15v275h-90v29q50 2 78 12t51 36h35v-352v0z" />
    <glyph glyph-name="ordmasculine" unicode="&#xba;" horiz-adv-x="384" 
d="M262 592q0 66 -20.5 91.5t-49.5 25.5q-30 0 -49.5 -25.5t-19.5 -91.5q0 -33 5.5 -56t15 -36.5t22 -19.5t26.5 -6t27 6t22.5 19.5t15 36.5t5.5 56zM345 591q0 -36 -11.5 -64.5t-32 -48.5t-48.5 -30.5t-62 -10.5q-69 0 -110 42t-41 114t41.5 112t110.5 40q68 0 110.5 -41
t42.5 -113z" />
    <glyph glyph-name="guillemotright" unicode="&#xbb;" horiz-adv-x="514" 
d="M88 38h-64l141 235l-141 234h64l208 -234zM306 38h-64l141 235l-141 234h64l208 -234z" />
    <glyph glyph-name="onequarter" unicode="&#xbc;" horiz-adv-x="929" 
d="M187 379q0 -10 2.5 -15.5t15.5 -7.5l20 -3v-20h-169v20l39 4q12 1 15 6.5t3 15.5v275h-90v28q50 2 78 12.5t51 35.5h35v-351v0zM85 0l508 725h88l-508 -725h-88zM899 162v-56h-73v-59q0 -12 3 -16.5t17 -5.5l19 -3v-22h-151v22l18 3q13 1 16 5.5t3 16.5v59h-211v41
l222 254h65l-1 -104v-135h73zM751 324l-142 -162h142v162z" />
    <glyph glyph-name="onehalf" unicode="&#xbd;" horiz-adv-x="881" 
d="M187 379q0 -10 2.5 -15.5t15.5 -7.5l20 -3v-20h-169v20l39 4q12 1 15 6.5t3 15.5v275h-90v28q50 2 78 12.5t51 35.5h35v-351v0zM85 0l508 725h88l-508 -725h-88zM841 62v-62h-316v67q72 46 118.5 79.5t73.5 60t37.5 50t10.5 49.5q0 29 -19 49t-51 20q-24 0 -40.5 -8.5
t-26.5 -24t-14 -36.5t-2 -46h-72q-2 37 10 65t33.5 47t51.5 29t64 10q63 0 103 -25t40 -81q0 -33 -22 -64t-57.5 -61t-79.5 -59.5t-87 -58.5h245z" />
    <glyph glyph-name="threequarters" unicode="&#xbe;" horiz-adv-x="1058" 
d="M189 325q-33 0 -62 9.5t-50.5 26.5t-34.5 41t-14 53h70q0 -38 25.5 -65t66.5 -27q35 0 59 19t24 60q0 22 -9 36.5t-24 23.5t-35.5 12.5t-43.5 3.5h-13v43h7q21 0 40.5 4t34.5 13.5t24.5 24t9.5 35.5q0 32 -21 51t-54 19q-38 0 -62.5 -23.5t-24.5 -63.5h-71q1 27 14 49.5
t34.5 39t49.5 25.5t61 9q27 0 54 -6t49 -18t35.5 -30.5t13.5 -43.5q0 -35 -18 -58.5t-56 -39.5v-1q85 -25 85 -100q0 -32 -13 -55t-35.5 -38t-52.5 -22t-63 -7zM214 0l508 725h88l-508 -725h-88zM1028 162v-56h-73v-59q0 -12 3 -16.5t17 -5.5l19 -3v-22h-151v22l18 3
q13 1 16 5.5t3 16.5v59h-211v41l222 254h65l-1 -104v-135h73zM880 324l-142 -162h142v162z" />
    <glyph glyph-name="questiondown" unicode="&#xbf;" horiz-adv-x="563" 
d="M285 -138q76 0 123 44t42 128h107q3 -60 -18 -103.5t-59 -72t-89 -42t-109 -13.5q-56 0 -102.5 11.5t-79.5 32t-51.5 48.5t-18.5 62q0 39 16 67t41 49.5t55.5 38.5t58.5 35q28 17 48 33t33 34t19.5 40.5t6.5 53.5v35h65v-39q0 -53 -7 -88t-21.5 -60.5t-37.5 -44.5
t-55 -38q-18 -11 -36.5 -23t-33 -26t-24 -31t-9.5 -38q0 -40 34.5 -66.5t101.5 -26.5zM267 538h145v-145h-145v145z" />
    <glyph glyph-name="Agrave" unicode="&#xc0;" horiz-adv-x="740" 
d="M329 725h82l255 -649q6 -14 13 -23.5t26 -11.5l39 -3v-38h-287v38l49 5q42 3 29 33l-53 137h-276l-52 -137q-11 -30 29 -33l49 -5v-38h-236v38l40 3q18 2 25 11.5t13 23.5zM231 277h227l-114 296zM157 890h145l103 -117h-72z" />
    <glyph glyph-name="Aacute" unicode="&#xc1;" horiz-adv-x="740" 
d="M329 725h82l255 -649q6 -14 13 -23.5t26 -11.5l39 -3v-38h-287v38l49 5q42 3 29 33l-53 137h-276l-52 -137q-11 -30 29 -33l49 -5v-38h-236v38l40 3q18 2 25 11.5t13 23.5zM231 277h227l-114 296zM410 773h-72l103 117h145z" />
    <glyph glyph-name="Acircumflex" unicode="&#xc2;" horiz-adv-x="740" 
d="M329 725h82l255 -649q6 -14 13 -23.5t26 -11.5l39 -3v-38h-287v38l49 5q42 3 29 33l-53 137h-276l-52 -137q-11 -30 29 -33l49 -5v-38h-236v38l40 3q18 2 25 11.5t13 23.5zM231 277h227l-114 296zM551 773h-78l-104 58l-103 -58h-78l128 117h109z" />
    <glyph glyph-name="Atilde" unicode="&#xc3;" horiz-adv-x="740" 
d="M329 725h82l255 -649q6 -14 13 -23.5t26 -11.5l39 -3v-38h-287v38l49 5q42 3 29 33l-53 137h-276l-52 -137q-11 -30 29 -33l49 -5v-38h-236v38l40 3q18 2 25 11.5t13 23.5zM231 277h227l-114 296zM434 844q22 0 32.5 11.5t13.5 34.5h62q-10 -64 -36.5 -91t-67.5 -27
q-22 0 -40.5 7.5t-35 16.5t-31 16.5t-27.5 7.5q-21 0 -31 -12t-15 -35h-60q4 34 13.5 57t24 36.5t31.5 19t36 5.5q21 0 39 -7.5t34 -16t30 -16t28 -7.5z" />
    <glyph glyph-name="Adieresis" unicode="&#xc4;" horiz-adv-x="740" 
d="M329 725h82l255 -649q6 -14 13 -23.5t26 -11.5l39 -3v-38h-287v38l49 5q42 3 29 33l-53 137h-276l-52 -137q-11 -30 29 -33l49 -5v-38h-236v38l40 3q18 2 25 11.5t13 23.5zM231 277h227l-114 296zM198 890h117v-117h-117v117zM426 890h117v-117h-117v117z" />
    <glyph glyph-name="Aring" unicode="&#xc5;" horiz-adv-x="740" 
d="M329 725h82l255 -649q6 -14 13 -23.5t26 -11.5l39 -3v-38h-287v38l49 5q42 3 29 33l-53 137h-276l-52 -137q-11 -30 29 -33l49 -5v-38h-236v38l40 3q18 2 25 11.5t13 23.5zM231 277h227l-114 296zM371 943q19 0 36 -6.5t29.5 -18t20 -27.5t7.5 -35q0 -38 -27 -63t-66 -25
q-40 0 -67 25t-27 63q0 19 7.5 35t20.5 27.5t30 18t36 6.5zM371 900q-18 0 -31.5 -12.5t-13.5 -31.5q0 -20 13.5 -32t31.5 -12q17 0 30.5 12t13.5 32q0 19 -13.5 31.5t-30.5 12.5z" />
    <glyph glyph-name="AE" unicode="&#xc6;" horiz-adv-x="1083" 
d="M1006 725v-222h-45l-8 66q-5 35 -11.5 54t-20 28t-36.5 10.5t-60 1.5h-201v-256h297v-65h-297v-280h213q37 0 59.5 1.5t36 10.5t19.5 28t11 54l9 66h45v-222h-598v38l49 5q20 2 25 10t5 23v137h-258l-89 -137q-14 -20 -13 -25.5t15 -7.5l55 -5v-38h-225v38l24 3
q18 3 33.5 9t29.5 26l427 649h509zM281 277h217v333z" />
    <glyph glyph-name="Ccedilla" unicode="&#xc7;" horiz-adv-x="783" 
d="M50 365q0 87 26 157t73 118.5t114 75t150 26.5q60 0 113.5 -15.5t96.5 -46t73 -76.5t44 -107h-124q-9 84 -60.5 133.5t-142.5 49.5q-59 0 -102 -22.5t-71.5 -64t-42.5 -99.5t-14 -129t14 -129t42.5 -99.5t71.5 -64.5t102 -23q91 0 143 49.5t61 134.5h124
q-14 -61 -44 -107t-73.5 -77t-97 -46.5t-113.5 -15.5q-83 0 -150 26.5t-114 75.5t-73 119t-26 157zM346 3h48l-37 -53q48 9 78 -13t30 -64q0 -21 -9.5 -37.5t-25 -28.5t-36.5 -18.5t-44 -6.5q-24 0 -42.5 3.5t-43.5 14.5l15 36q12 -7 28 -10t33 -3q25 0 42.5 10t17.5 35
q0 20 -14.5 29t-30.5 9q-28 0 -45 -10l-21 19z" />
    <glyph glyph-name="Egrave" unicode="&#xc8;" horiz-adv-x="724" 
d="M647 725v-222h-44l-9 66q-5 35 -11.5 54t-20 28t-36.5 10.5t-60 1.5h-201v-256h297v-65h-297v-280h213q37 0 59.5 1.5t36 10.5t20 28t11.5 54l9 66h44v-222h-598v38l49 5q20 2 25.5 10t5.5 23v573q0 15 -5.5 24t-25.5 11l-49 4v37h587zM174 890h145l103 -117h-72z" />
    <glyph glyph-name="Eacute" unicode="&#xc9;" horiz-adv-x="724" 
d="M647 725v-222h-44l-9 66q-5 35 -11.5 54t-20 28t-36.5 10.5t-60 1.5h-201v-256h297v-65h-297v-280h213q37 0 59.5 1.5t36 10.5t20 28t11.5 54l9 66h44v-222h-598v38l49 5q20 2 25.5 10t5.5 23v573q0 15 -5.5 24t-25.5 11l-49 4v37h587zM391 773h-72l103 117h145z" />
    <glyph glyph-name="Ecircumflex" unicode="&#xca;" horiz-adv-x="724" 
d="M647 725v-222h-44l-9 66q-5 35 -11.5 54t-20 28t-36.5 10.5t-60 1.5h-201v-256h297v-65h-297v-280h213q37 0 59.5 1.5t36 10.5t20 28t11.5 54l9 66h44v-222h-598v38l49 5q20 2 25.5 10t5.5 23v573q0 15 -5.5 24t-25.5 11l-49 4v37h587zM555 773h-78l-104 58l-103 -58h-78
l128 117h109z" />
    <glyph glyph-name="Edieresis" unicode="&#xcb;" horiz-adv-x="724" 
d="M647 725v-222h-44l-9 66q-5 35 -11.5 54t-20 28t-36.5 10.5t-60 1.5h-201v-256h297v-65h-297v-280h213q37 0 59.5 1.5t36 10.5t20 28t11.5 54l9 66h44v-222h-598v38l49 5q20 2 25.5 10t5.5 23v573q0 15 -5.5 24t-25.5 11l-49 4v37h587zM201 890h117v-117h-117v117z
M429 890h117v-117h-117v117z" />
    <glyph glyph-name="Igrave" unicode="&#xcc;" horiz-adv-x="405" 
d="M345 0h-285v38l49 5q20 2 25.5 10t5.5 23v573q0 15 -5.5 24t-25.5 11l-49 4v37h285v-37l-49 -4q-20 -2 -25.5 -11t-5.5 -24v-573q0 -15 5.5 -23t25.5 -10l49 -5v-38zM19 890h145l103 -117h-72z" />
    <glyph glyph-name="Iacute" unicode="&#xcd;" horiz-adv-x="405" 
d="M345 0h-285v38l49 5q20 2 25.5 10t5.5 23v573q0 15 -5.5 24t-25.5 11l-49 4v37h285v-37l-49 -4q-20 -2 -25.5 -11t-5.5 -24v-573q0 -15 5.5 -23t25.5 -10l49 -5v-38zM215 773h-72l103 117h145z" />
    <glyph glyph-name="Icircumflex" unicode="&#xce;" horiz-adv-x="405" 
d="M345 0h-285v38l49 5q20 2 25.5 10t5.5 23v573q0 15 -5.5 24t-25.5 11l-49 4v37h285v-37l-49 -4q-20 -2 -25.5 -11t-5.5 -24v-573q0 -15 5.5 -23t25.5 -10l49 -5v-38zM384 773h-78l-104 58l-103 -58h-78l128 117h109z" />
    <glyph glyph-name="Idieresis" unicode="&#xcf;" horiz-adv-x="405" 
d="M345 0h-285v38l49 5q20 2 25.5 10t5.5 23v573q0 15 -5.5 24t-25.5 11l-49 4v37h285v-37l-49 -4q-20 -2 -25.5 -11t-5.5 -24v-573q0 -15 5.5 -23t25.5 -10l49 -5v-38zM32 890h117v-117h-117v117zM260 890h117v-117h-117v117z" />
    <glyph glyph-name="Eth" unicode="&#xd0;" horiz-adv-x="821" 
d="M771 363q0 -97 -31 -166t-87 -112.5t-135 -64t-175 -20.5h-273v38l49 5q20 2 25.5 10t5.5 23v266h-114v65h114v242q0 15 -5.5 24t-25.5 11l-49 4v37h273q96 0 175 -20.5t135 -64t87 -112t31 -165.5zM409 342h-134v-280h78q148 0 217 72.5t69 228.5q0 155 -69 227.5
t-217 72.5h-78v-256h134v-65z" />
    <glyph glyph-name="Ntilde" unicode="&#xd1;" horiz-adv-x="825" 
d="M715 0h-66l-436 563v-487q0 -15 5 -23t25 -10l50 -5v-38h-233v38l49 5q20 2 25.5 10t5.5 23v573q0 15 -5.5 24t-25.5 11l-49 4v37h183l399 -518v442q0 15 -5.5 23t-25.5 10l-49 5v38h233v-38l-49 -5q-20 -2 -25.5 -10t-5.5 -23v-649zM489 844q22 0 32.5 11.5t13.5 34.5
h62q-10 -64 -36.5 -91t-67.5 -27q-22 0 -40.5 7.5t-35 16.5t-31 16.5t-27.5 7.5q-21 0 -31 -12t-15 -35h-60q4 34 13.5 57t24 36.5t31.5 19t36 5.5q21 0 39 -7.5t34 -16t30 -16t28 -7.5z" />
    <glyph glyph-name="Ograve" unicode="&#xd2;" horiz-adv-x="828" 
d="M414 -13q-80 0 -147 26.5t-115 75.5t-75 119t-27 157t27 157t75 118.5t115 75t147 26.5t146.5 -26.5t114.5 -75t75 -118.5t27 -157t-27 -157t-75 -119t-114.5 -75.5t-146.5 -26.5zM644 365q0 70 -14 128t-42.5 99.5t-72 64.5t-101.5 23q-59 0 -102.5 -23t-72 -64.5
t-42.5 -99.5t-14 -128q0 -71 14 -129t42.5 -99.5t72 -64.5t102.5 -23q58 0 101.5 23t72 64.5t42.5 99.5t14 129zM194 890h145l103 -117h-72z" />
    <glyph glyph-name="Oacute" unicode="&#xd3;" horiz-adv-x="828" 
d="M414 -13q-80 0 -147 26.5t-115 75.5t-75 119t-27 157t27 157t75 118.5t115 75t147 26.5t146.5 -26.5t114.5 -75t75 -118.5t27 -157t-27 -157t-75 -119t-114.5 -75.5t-146.5 -26.5zM644 365q0 70 -14 128t-42.5 99.5t-72 64.5t-101.5 23q-59 0 -102.5 -23t-72 -64.5
t-42.5 -99.5t-14 -128q0 -71 14 -129t42.5 -99.5t72 -64.5t102.5 -23q58 0 101.5 23t72 64.5t42.5 99.5t14 129zM426 773h-72l103 117h145z" />
    <glyph glyph-name="Ocircumflex" unicode="&#xd4;" horiz-adv-x="828" 
d="M414 -13q-80 0 -147 26.5t-115 75.5t-75 119t-27 157t27 157t75 118.5t115 75t147 26.5t146.5 -26.5t114.5 -75t75 -118.5t27 -157t-27 -157t-75 -119t-114.5 -75.5t-146.5 -26.5zM644 365q0 70 -14 128t-42.5 99.5t-72 64.5t-101.5 23q-59 0 -102.5 -23t-72 -64.5
t-42.5 -99.5t-14 -128q0 -71 14 -129t42.5 -99.5t72 -64.5t102.5 -23q58 0 101.5 23t72 64.5t42.5 99.5t14 129zM594 773h-78l-104 58l-103 -58h-78l128 117h109z" />
    <glyph glyph-name="Otilde" unicode="&#xd5;" horiz-adv-x="828" 
d="M414 -13q-80 0 -147 26.5t-115 75.5t-75 119t-27 157t27 157t75 118.5t115 75t147 26.5t146.5 -26.5t114.5 -75t75 -118.5t27 -157t-27 -157t-75 -119t-114.5 -75.5t-146.5 -26.5zM644 365q0 70 -14 128t-42.5 99.5t-72 64.5t-101.5 23q-59 0 -102.5 -23t-72 -64.5
t-42.5 -99.5t-14 -128q0 -71 14 -129t42.5 -99.5t72 -64.5t102.5 -23q58 0 101.5 23t72 64.5t42.5 99.5t14 129zM473 844q22 0 32.5 11.5t13.5 34.5h62q-10 -64 -36.5 -91t-67.5 -27q-22 0 -40.5 7.5t-35 16.5t-31 16.5t-27.5 7.5q-21 0 -31 -12t-15 -35h-60q4 34 13.5 57
t24 36.5t31.5 19t36 5.5q21 0 39 -7.5t34 -16t30 -16t28 -7.5z" />
    <glyph glyph-name="Odieresis" unicode="&#xd6;" horiz-adv-x="828" 
d="M414 -13q-80 0 -147 26.5t-115 75.5t-75 119t-27 157t27 157t75 118.5t115 75t147 26.5t146.5 -26.5t114.5 -75t75 -118.5t27 -157t-27 -157t-75 -119t-114.5 -75.5t-146.5 -26.5zM644 365q0 70 -14 128t-42.5 99.5t-72 64.5t-101.5 23q-59 0 -102.5 -23t-72 -64.5
t-42.5 -99.5t-14 -128q0 -71 14 -129t42.5 -99.5t72 -64.5t102.5 -23q58 0 101.5 23t72 64.5t42.5 99.5t14 129zM250 890h117v-117h-117v117zM478 890h117v-117h-117v117z" />
    <glyph glyph-name="multiply" unicode="&#xd7;" 
d="M532 35l-181 181l-178 -178l-57 57l178 178l-178 179l57 57l178 -179l178 178l57 -57l-178 -178l181 -181z" />
    <glyph glyph-name="Oslash" unicode="&#xd8;" horiz-adv-x="828" 
d="M414 -13q-64 0 -119 16.5t-100 48.5l-75 -95l-48 41l75 95q-46 49 -71.5 117.5t-25.5 154.5q0 87 27 157t75 118.5t115 75t147 26.5q59 0 110 -14.5t94 -41.5l60 75l49 -39l-59 -75q51 -49 80 -120t29 -162q0 -87 -27 -157t-75 -119t-114.5 -75.5t-146.5 -26.5zM644 365
q0 60 -10 110.5t-31 90.5l-353 -445q29 -35 69.5 -53.5t94.5 -18.5q58 0 101.5 23t72 64.5t42.5 99.5t14 129zM183 365q0 -54 8 -101t25 -85l349 440q-28 29 -65.5 45t-85.5 16q-59 0 -102.5 -23t-72 -64.5t-42.5 -99.5t-14 -128z" />
    <glyph glyph-name="Ugrave" unicode="&#xd9;" horiz-adv-x="800" 
d="M407 -13q-89 0 -148.5 20.5t-95.5 57.5t-51 89.5t-15 117.5v377q0 15 -6 24t-26 11l-49 4v37h286v-37l-49 -4q-20 -2 -25.5 -11t-5.5 -24v-372q0 -104 43.5 -159t145.5 -55q103 0 159 48t56 164v374q0 15 -5 24t-25 11l-49 4v37h235v-37l-49 -4q-20 -2 -25 -11t-5 -24
v-369q0 -63 -15.5 -116.5t-50.5 -93t-91.5 -61.5t-138.5 -22zM217 890h145l103 -117h-72z" />
    <glyph glyph-name="Uacute" unicode="&#xda;" horiz-adv-x="800" 
d="M407 -13q-89 0 -148.5 20.5t-95.5 57.5t-51 89.5t-15 117.5v377q0 15 -6 24t-26 11l-49 4v37h286v-37l-49 -4q-20 -2 -25.5 -11t-5.5 -24v-372q0 -104 43.5 -159t145.5 -55q103 0 159 48t56 164v374q0 15 -5 24t-25 11l-49 4v37h235v-37l-49 -4q-20 -2 -25 -11t-5 -24
v-369q0 -63 -15.5 -116.5t-50.5 -93t-91.5 -61.5t-138.5 -22zM458 773h-72l103 117h145z" />
    <glyph glyph-name="Ucircumflex" unicode="&#xdb;" horiz-adv-x="800" 
d="M407 -13q-89 0 -148.5 20.5t-95.5 57.5t-51 89.5t-15 117.5v377q0 15 -6 24t-26 11l-49 4v37h286v-37l-49 -4q-20 -2 -25.5 -11t-5.5 -24v-372q0 -104 43.5 -159t145.5 -55q103 0 159 48t56 164v374q0 15 -5 24t-25 11l-49 4v37h235v-37l-49 -4q-20 -2 -25 -11t-5 -24
v-369q0 -63 -15.5 -116.5t-50.5 -93t-91.5 -61.5t-138.5 -22zM606 773h-78l-104 58l-103 -58h-78l128 117h109z" />
    <glyph glyph-name="Udieresis" unicode="&#xdc;" horiz-adv-x="800" 
d="M407 -13q-89 0 -148.5 20.5t-95.5 57.5t-51 89.5t-15 117.5v377q0 15 -6 24t-26 11l-49 4v37h286v-37l-49 -4q-20 -2 -25.5 -11t-5.5 -24v-372q0 -104 43.5 -159t145.5 -55q103 0 159 48t56 164v374q0 15 -5 24t-25 11l-49 4v37h235v-37l-49 -4q-20 -2 -25 -11t-5 -24
v-369q0 -63 -15.5 -116.5t-50.5 -93t-91.5 -61.5t-138.5 -22zM253 890h117v-117h-117v117zM481 890h117v-117h-117v117z" />
    <glyph glyph-name="Yacute" unicode="&#xdd;" horiz-adv-x="690" 
d="M279 287l-205 362q-8 14 -17 24t-27 12l-34 3v37h297v-37l-49 -4q-20 -2 -28 -11.5t-1 -23.5l159 -288l165 288q7 14 -1.5 23.5t-28.5 11.5l-49 4v37h236v-37l-32 -3q-19 -2 -28.5 -12t-17.5 -24l-214 -363v-210q0 -15 6 -23t26 -10l49 -5v-38h-286v38l48 5q20 2 26 10
t6 23v211zM406 773h-72l103 117h145z" />
    <glyph glyph-name="Thorn" unicode="&#xde;" horiz-adv-x="663" 
d="M341 219q57 0 94.5 11t60 31t32 47.5t9.5 61.5t-9.5 62t-32 47.5t-60 30.5t-94.5 11h-76v-302h76zM349 583q71 0 130 -10.5t101 -35t65.5 -65.5t23.5 -102t-23.5 -102t-65.5 -66t-101 -35.5t-130 -10.5h-84v-80q0 -15 5.5 -23t25.5 -10l66 -5v-38h-302v38l49 5
q20 2 25.5 10t5.5 23v573q0 15 -5.5 24t-25.5 11l-49 4v37h302v-37l-66 -4q-20 -2 -25.5 -11t-5.5 -24v-66h84z" />
    <glyph glyph-name="germandbls" unicode="&#xdf;" horiz-adv-x="720" 
d="M111 519q0 121 69 177.5t190 56.5q124 0 183 -47.5t59 -124.5q0 -34 -11 -60.5t-29.5 -46t-42 -32t-48.5 -18.5v-4q35 -3 69 -18t60.5 -40.5t43 -62t16.5 -82.5q0 -56 -19.5 -99t-54 -72t-82.5 -44t-106 -15q-38 0 -72 3t-66 8v90h3q32 -18 66 -30t67 -12q31 0 56.5 9.5
t44 29.5t28.5 51.5t10 76.5q0 82 -54 125t-148 43h-31v64h22q75 0 115.5 30.5t40.5 98.5q0 66 -35 93t-90 27q-72 0 -104.5 -41t-32.5 -137v-311l2 -205h-182v35l32 4q20 3 25.5 10.5t5.5 23.5v446z" />
    <glyph glyph-name="agrave" unicode="&#xe0;" horiz-adv-x="607" 
d="M402 269q-48 -6 -89 -12.5t-70.5 -19.5t-46 -35.5t-16.5 -59.5q0 -38 24.5 -62.5t67.5 -24.5q25 0 48.5 9t41.5 30t29 56t11 88v31zM400 362q0 72 -26 100.5t-83 28.5q-55 0 -81.5 -33.5t-29.5 -87.5h-110q3 39 21.5 72t48.5 56t69.5 36t85.5 13q55 0 97 -10.5t69 -34.5
t40 -63t12 -96q-1 -23 -1.5 -55.5t-0.5 -67.5v-68t2 -69q2 -20 6.5 -26t24.5 -8l43 -4v-37l-167 -11l-8 98h-3q-26 -49 -68 -78.5t-116 -29.5q-37 0 -68.5 10.5t-54.5 29.5t-36 46t-13 60q0 48 26 80.5t72.5 54t110 35t138.5 22.5v37zM138 745h131l94 -142h-57z" />
    <glyph glyph-name="aacute" unicode="&#xe1;" horiz-adv-x="607" 
d="M402 269q-48 -6 -89 -12.5t-70.5 -19.5t-46 -35.5t-16.5 -59.5q0 -38 24.5 -62.5t67.5 -24.5q25 0 48.5 9t41.5 30t29 56t11 88v31zM400 362q0 72 -26 100.5t-83 28.5q-55 0 -81.5 -33.5t-29.5 -87.5h-110q3 39 21.5 72t48.5 56t69.5 36t85.5 13q55 0 97 -10.5t69 -34.5
t40 -63t12 -96q-1 -23 -1.5 -55.5t-0.5 -67.5v-68t2 -69q2 -20 6.5 -26t24.5 -8l43 -4v-37l-167 -11l-8 98h-3q-26 -49 -68 -78.5t-116 -29.5q-37 0 -68.5 10.5t-54.5 29.5t-36 46t-13 60q0 48 26 80.5t72.5 54t110 35t138.5 22.5v37zM328 603h-57l93 142h132z" />
    <glyph glyph-name="acircumflex" unicode="&#xe2;" horiz-adv-x="607" 
d="M402 269q-48 -6 -89 -12.5t-70.5 -19.5t-46 -35.5t-16.5 -59.5q0 -38 24.5 -62.5t67.5 -24.5q25 0 48.5 9t41.5 30t29 56t11 88v31zM400 362q0 72 -26 100.5t-83 28.5q-55 0 -81.5 -33.5t-29.5 -87.5h-110q3 39 21.5 72t48.5 56t69.5 36t85.5 13q55 0 97 -10.5t69 -34.5
t40 -63t12 -96q-1 -23 -1.5 -55.5t-0.5 -67.5v-68t2 -69q2 -20 6.5 -26t24.5 -8l43 -4v-37l-167 -11l-8 98h-3q-26 -49 -68 -78.5t-116 -29.5q-37 0 -68.5 10.5t-54.5 29.5t-36 46t-13 60q0 48 26 80.5t72.5 54t110 35t138.5 22.5v37zM482 603h-60l-113 67l-115 -67h-60
l142 142h69z" />
    <glyph glyph-name="atilde" unicode="&#xe3;" horiz-adv-x="607" 
d="M402 269q-48 -6 -89 -12.5t-70.5 -19.5t-46 -35.5t-16.5 -59.5q0 -38 24.5 -62.5t67.5 -24.5q25 0 48.5 9t41.5 30t29 56t11 88v31zM400 362q0 72 -26 100.5t-83 28.5q-55 0 -81.5 -33.5t-29.5 -87.5h-110q3 39 21.5 72t48.5 56t69.5 36t85.5 13q55 0 97 -10.5t69 -34.5
t40 -63t12 -96q-1 -23 -1.5 -55.5t-0.5 -67.5v-68t2 -69q2 -20 6.5 -26t24.5 -8l43 -4v-37l-167 -11l-8 98h-3q-26 -49 -68 -78.5t-116 -29.5q-37 0 -68.5 10.5t-54.5 29.5t-36 46t-13 60q0 48 26 80.5t72.5 54t110 35t138.5 22.5v37zM348 679q22 0 32.5 12.5t13.5 34.5h62
q-10 -64 -36.5 -91.5t-67.5 -27.5q-22 0 -40.5 7.5t-35 16.5t-31 16.5t-27.5 7.5q-21 0 -31 -12.5t-15 -35.5h-60q4 34 13.5 57t24 36.5t31.5 19.5t36 6q21 0 39 -7.5t34 -16t30 -16t28 -7.5z" />
    <glyph glyph-name="adieresis" unicode="&#xe4;" horiz-adv-x="607" 
d="M402 269q-48 -6 -89 -12.5t-70.5 -19.5t-46 -35.5t-16.5 -59.5q0 -38 24.5 -62.5t67.5 -24.5q25 0 48.5 9t41.5 30t29 56t11 88v31zM400 362q0 72 -26 100.5t-83 28.5q-55 0 -81.5 -33.5t-29.5 -87.5h-110q3 39 21.5 72t48.5 56t69.5 36t85.5 13q55 0 97 -10.5t69 -34.5
t40 -63t12 -96q-1 -23 -1.5 -55.5t-0.5 -67.5v-68t2 -69q2 -20 6.5 -26t24.5 -8l43 -4v-37l-167 -11l-8 98h-3q-26 -49 -68 -78.5t-116 -29.5q-37 0 -68.5 10.5t-54.5 29.5t-36 46t-13 60q0 48 26 80.5t72.5 54t110 35t138.5 22.5v37zM136 745h112v-135h-112v135zM369 745
h112v-135h-112v135z" />
    <glyph glyph-name="aring" unicode="&#xe5;" horiz-adv-x="607" 
d="M402 269q-48 -6 -89 -12.5t-70.5 -19.5t-46 -35.5t-16.5 -59.5q0 -38 24.5 -62.5t67.5 -24.5q25 0 48.5 9t41.5 30t29 56t11 88v31zM400 362q0 72 -26 100.5t-83 28.5q-55 0 -81.5 -33.5t-29.5 -87.5h-110q3 39 21.5 72t48.5 56t69.5 36t85.5 13q55 0 97 -10.5t69 -34.5
t40 -63t12 -96q-1 -23 -1.5 -55.5t-0.5 -67.5v-68t2 -69q2 -20 6.5 -26t24.5 -8l43 -4v-37l-167 -11l-8 98h-3q-26 -49 -68 -78.5t-116 -29.5q-37 0 -68.5 10.5t-54.5 29.5t-36 46t-13 60q0 48 26 80.5t72.5 54t110 35t138.5 22.5v37zM292 764q19 0 36 -6.5t30 -18.5
t20.5 -28t7.5 -35q0 -38 -27.5 -63.5t-66.5 -25.5q-40 0 -67 25.5t-27 63.5q0 19 7.5 35t20.5 28t30 18.5t36 6.5zM292 721q-17 0 -31 -13t-14 -32q0 -20 14 -32t31 -12t31 12t14 32q0 19 -14 32t-31 13z" />
    <glyph glyph-name="ae" unicode="&#xe6;" horiz-adv-x="963" 
d="M677 46q51 0 85 32.5t40 89.5h113q-8 -47 -31.5 -81t-56.5 -56t-73.5 -33t-83.5 -11q-72 0 -126.5 29.5t-88.5 85.5q-34 -63 -89.5 -89t-121.5 -26q-39 0 -73.5 12.5t-60 35t-40 53t-14.5 66.5q0 48 22 78.5t59 49.5q36 17 82.5 26.5t96.5 15.5l84 10v34q0 67 -25 95
t-82 28q-55 0 -81.5 -28.5t-29.5 -82.5h-110q3 39 21.5 70t48.5 52.5t69.5 33t85.5 11.5q69 0 114.5 -18.5t70.5 -61.5q33 36 80.5 58t104.5 22q54 0 100 -17.5t80 -52.5t52.5 -88.5t17.5 -126.5h-389q0 -49 10 -88.5t29 -68t46.5 -44t63.5 -15.5zM402 278l-76 -8
q-27 -3 -52.5 -10t-46 -20.5t-32.5 -34.5t-12 -52q0 -42 26 -70t75 -28q20 0 41 7t38 26t28 52t11 85v53zM666 490q-28 0 -52.5 -9.5t-43 -30t-30 -52t-12.5 -76.5h266q1 45 -8.5 77t-26.5 52.5t-41 29.5t-52 9z" />
    <glyph glyph-name="ccedilla" unicode="&#xe7;" horiz-adv-x="597" 
d="M48 267q0 64 19.5 116t54 88.5t82.5 56t106 19.5q41 0 81 -11t73 -33.5t56 -57.5t31 -83h-113q-1 35 -13 59t-30 39t-39 21.5t-40 6.5q-70 0 -105.5 -60t-35.5 -161q0 -50 9 -90.5t26.5 -69.5t44 -45t62.5 -16q19 0 40 6t38.5 20.5t29.5 38.5t13 59h113q-8 -48 -31 -83
t-56 -57t-73 -32.5t-81 -10.5q-58 0 -106 20t-82.5 56.5t-54 88t-19.5 115.5zM266 3h48l-37 -53q55 10 87 -13t32 -64q0 -22 -11 -39t-28 -28.5t-38.5 -17.5t-43.5 -6q-23 0 -49 3.5t-55 16.5l17 41q15 -7 32 -11.5t34 -4.5q10 0 22 2t22.5 7t17 13t6.5 19q0 20 -16.5 29
t-35.5 9q-10 0 -20.5 -2.5t-19.5 -7.5l-21 19z" />
    <glyph glyph-name="egrave" unicode="&#xe8;" horiz-adv-x="604" 
d="M319 46q50 0 84.5 29.5t39.5 86.5h114q-8 -47 -31.5 -80t-56.5 -54t-74 -31t-84 -10q-58 0 -106.5 19.5t-83.5 55.5t-54.5 87t-19.5 115q0 60 18 111.5t52 90t82.5 60t109.5 21.5q54 0 100 -17.5t79.5 -52.5t52.5 -88.5t18 -126.5h-390q0 -100 38.5 -158t111.5 -58z
M308 490q-57 0 -95.5 -40t-43.5 -128h267q1 45 -8.5 77t-27 52.5t-41.5 29.5t-51 9zM115 745h131l94 -142h-57z" />
    <glyph glyph-name="eacute" unicode="&#xe9;" horiz-adv-x="604" 
d="M319 46q50 0 84.5 29.5t39.5 86.5h114q-8 -47 -31.5 -80t-56.5 -54t-74 -31t-84 -10q-58 0 -106.5 19.5t-83.5 55.5t-54.5 87t-19.5 115q0 60 18 111.5t52 90t82.5 60t109.5 21.5q54 0 100 -17.5t79.5 -52.5t52.5 -88.5t18 -126.5h-390q0 -100 38.5 -158t111.5 -58z
M308 490q-57 0 -95.5 -40t-43.5 -128h267q1 45 -8.5 77t-27 52.5t-41.5 29.5t-51 9zM318 603h-57l93 142h132z" />
    <glyph glyph-name="ecircumflex" unicode="&#xea;" horiz-adv-x="604" 
d="M319 46q50 0 84.5 29.5t39.5 86.5h114q-8 -47 -31.5 -80t-56.5 -54t-74 -31t-84 -10q-58 0 -106.5 19.5t-83.5 55.5t-54.5 87t-19.5 115q0 60 18 111.5t52 90t82.5 60t109.5 21.5q54 0 100 -17.5t79.5 -52.5t52.5 -88.5t18 -126.5h-390q0 -100 38.5 -158t111.5 -58z
M308 490q-57 0 -95.5 -40t-43.5 -128h267q1 45 -8.5 77t-27 52.5t-41.5 29.5t-51 9zM487 603h-60l-113 67l-115 -67h-60l142 142h69z" />
    <glyph glyph-name="edieresis" unicode="&#xeb;" horiz-adv-x="604" 
d="M319 46q50 0 84.5 29.5t39.5 86.5h114q-8 -47 -31.5 -80t-56.5 -54t-74 -31t-84 -10q-58 0 -106.5 19.5t-83.5 55.5t-54.5 87t-19.5 115q0 60 18 111.5t52 90t82.5 60t109.5 21.5q54 0 100 -17.5t79.5 -52.5t52.5 -88.5t18 -126.5h-390q0 -100 38.5 -158t111.5 -58z
M308 490q-57 0 -95.5 -40t-43.5 -128h267q1 45 -8.5 77t-27 52.5t-41.5 29.5t-51 9zM139 745h112v-135h-112v135zM372 745h112v-135h-112v135z" />
    <glyph glyph-name="igrave" unicode="&#xec;" horiz-adv-x="348" 
d="M241 405v-330q0 -20 6 -26t26 -8l42 -4v-37h-265v37l43 4q20 2 25.5 8t5.5 26v389q0 19 -5.5 24.5t-25.5 8.5l-43 4v37h192zM-12 745h131l94 -142h-57z" />
    <glyph glyph-name="iacute" unicode="&#xed;" horiz-adv-x="348" 
d="M241 405v-330q0 -20 6 -26t26 -8l42 -4v-37h-265v37l43 4q20 2 25.5 8t5.5 26v389q0 19 -5.5 24.5t-25.5 8.5l-43 4v37h192zM174 603h-57l93 142h132z" />
    <glyph glyph-name="icircumflex" unicode="&#xee;" horiz-adv-x="348" 
d="M241 405v-330q0 -20 6 -26t26 -8l42 -4v-37h-265v37l43 4q20 2 25.5 8t5.5 26v389q0 19 -5.5 24.5t-25.5 8.5l-43 4v37h192zM358 603h-60l-113 67l-115 -67h-60l142 142h69z" />
    <glyph glyph-name="idieresis" unicode="&#xef;" horiz-adv-x="348" 
d="M241 405v-330q0 -20 6 -26t26 -8l42 -4v-37h-265v37l43 4q20 2 25.5 8t5.5 26v389q0 19 -5.5 24.5t-25.5 8.5l-43 4v37h192zM7 745h112v-135h-112v135zM240 745h112v-135h-112v135z" />
    <glyph glyph-name="eth" unicode="&#xf0;" horiz-adv-x="614" 
d="M221 679q-26 13 -54 23t-59 19l15 40q35 -5 70 -14t69 -23l62 68l37 -33l-52 -57q51 -26 94.5 -63t75.5 -84t50 -103.5t18 -122.5q0 -170 -67 -256t-193 -86q-57 0 -103 19.5t-78 55.5t-49 86.5t-17 113.5t17.5 113.5t48 86t71.5 54.5t89 19q57 0 95 -26.5t59 -67.5l2 1
q-30 133 -157 212l-67 -74l-37 33zM429 263q0 62 -12 102.5t-31 64.5t-42.5 33.5t-46.5 9.5q-32 0 -57.5 -15.5t-42.5 -43t-26 -66.5t-9 -85t8 -85.5t24.5 -69t41.5 -46t58 -16.5q26 0 50.5 10.5t43 35.5t30 67t11.5 104z" />
    <glyph glyph-name="ntilde" unicode="&#xf1;" horiz-adv-x="664" 
d="M569 75q0 -20 5.5 -26t25.5 -8l43 -4v-37h-265v37l42 4q20 2 26 8t6 26v240q0 86 -21.5 123t-72.5 37q-28 0 -49.5 -11.5t-36.5 -31.5t-23 -47.5t-8 -60.5v-249q0 -20 6 -26t26 -8l42 -4v-37h-265v37l43 4q20 2 25.5 8t5.5 26v389q0 19 -5.5 24.5t-25.5 8.5l-43 4v37h190
v-90h1q23 44 65.5 71.5t101.5 27.5q48 0 79.5 -16t49.5 -43t25 -61.5t7 -71.5v-280zM415 679q22 0 32.5 12.5t13.5 34.5h62q-10 -64 -36.5 -91.5t-67.5 -27.5q-22 0 -40.5 7.5t-35 16.5t-31 16.5t-27.5 7.5q-21 0 -31 -12.5t-15 -35.5h-60q4 34 13.5 57t24 36.5t31.5 19.5
t36 6q21 0 39 -7.5t34 -16t30 -16t28 -7.5z" />
    <glyph glyph-name="ograve" unicode="&#xf2;" horiz-adv-x="627" 
d="M452 267q0 60 -10.5 102t-29.5 68.5t-44.5 38.5t-55.5 12q-29 0 -54 -12t-43.5 -38.5t-29 -68.5t-10.5 -102t10.5 -102t29 -68.5t43.5 -38.5t54 -12q30 0 55.5 12t44 38.5t29.5 68.5t11 102zM579 267q0 -64 -20 -116t-55.5 -88.5t-85 -56t-107.5 -19.5t-106.5 19.5
t-83 56t-54 88t-19.5 116.5q0 64 19.5 116t54.5 88.5t83.5 56t106.5 19.5t107.5 -19.5t84.5 -56t55 -88.5t20 -116zM124 745h131l94 -142h-57z" />
    <glyph glyph-name="oacute" unicode="&#xf3;" horiz-adv-x="627" 
d="M452 267q0 60 -10.5 102t-29.5 68.5t-44.5 38.5t-55.5 12q-29 0 -54 -12t-43.5 -38.5t-29 -68.5t-10.5 -102t10.5 -102t29 -68.5t43.5 -38.5t54 -12q30 0 55.5 12t44 38.5t29.5 68.5t11 102zM579 267q0 -64 -20 -116t-55.5 -88.5t-85 -56t-107.5 -19.5t-106.5 19.5
t-83 56t-54 88t-19.5 116.5q0 64 19.5 116t54.5 88.5t83.5 56t106.5 19.5t107.5 -19.5t84.5 -56t55 -88.5t20 -116zM327 603h-57l93 142h132z" />
    <glyph glyph-name="ocircumflex" unicode="&#xf4;" horiz-adv-x="627" 
d="M452 267q0 60 -10.5 102t-29.5 68.5t-44.5 38.5t-55.5 12q-29 0 -54 -12t-43.5 -38.5t-29 -68.5t-10.5 -102t10.5 -102t29 -68.5t43.5 -38.5t54 -12q30 0 55.5 12t44 38.5t29.5 68.5t11 102zM579 267q0 -64 -20 -116t-55.5 -88.5t-85 -56t-107.5 -19.5t-106.5 19.5
t-83 56t-54 88t-19.5 116.5q0 64 19.5 116t54.5 88.5t83.5 56t106.5 19.5t107.5 -19.5t84.5 -56t55 -88.5t20 -116zM491 603h-60l-113 67l-115 -67h-60l142 142h69z" />
    <glyph glyph-name="otilde" unicode="&#xf5;" horiz-adv-x="627" 
d="M452 267q0 60 -10.5 102t-29.5 68.5t-44.5 38.5t-55.5 12q-29 0 -54 -12t-43.5 -38.5t-29 -68.5t-10.5 -102t10.5 -102t29 -68.5t43.5 -38.5t54 -12q30 0 55.5 12t44 38.5t29.5 68.5t11 102zM579 267q0 -64 -20 -116t-55.5 -88.5t-85 -56t-107.5 -19.5t-106.5 19.5
t-83 56t-54 88t-19.5 116.5q0 64 19.5 116t54.5 88.5t83.5 56t106.5 19.5t107.5 -19.5t84.5 -56t55 -88.5t20 -116zM382 679q22 0 32.5 12.5t13.5 34.5h62q-10 -64 -36.5 -91.5t-67.5 -27.5q-22 0 -40.5 7.5t-35 16.5t-31 16.5t-27.5 7.5q-21 0 -31 -12.5t-15 -35.5h-60
q4 34 13.5 57t24 36.5t31.5 19.5t36 6q21 0 39 -7.5t34 -16t30 -16t28 -7.5z" />
    <glyph glyph-name="odieresis" unicode="&#xf6;" horiz-adv-x="627" 
d="M452 267q0 60 -10.5 102t-29.5 68.5t-44.5 38.5t-55.5 12q-29 0 -54 -12t-43.5 -38.5t-29 -68.5t-10.5 -102t10.5 -102t29 -68.5t43.5 -38.5t54 -12q30 0 55.5 12t44 38.5t29.5 68.5t11 102zM579 267q0 -64 -20 -116t-55.5 -88.5t-85 -56t-107.5 -19.5t-106.5 19.5
t-83 56t-54 88t-19.5 116.5q0 64 19.5 116t54.5 88.5t83.5 56t106.5 19.5t107.5 -19.5t84.5 -56t55 -88.5t20 -116zM145 745h112v-135h-112v135zM378 745h112v-135h-112v135z" />
    <glyph glyph-name="divide" unicode="&#xf7;" 
d="M303 156h105v-107h-105v107zM303 494h105v-109h-105v109zM92 230v76h522v-76h-522z" />
    <glyph glyph-name="oslash" unicode="&#xf8;" horiz-adv-x="627" 
d="M579 267q0 -64 -20 -116t-55.5 -88.5t-85 -56t-107.5 -19.5q-97 0 -163 51l-44 -51l-39 33l46 54q-30 36 -46.5 84.5t-16.5 108.5q0 64 19.5 116t54.5 88.5t83.5 56t106.5 19.5q48 0 88.5 -13t73.5 -37l41 47l37 -31l-42 -49q33 -36 51 -85.5t18 -111.5zM452 267
q0 65 -14 112l-231 -271q19 -33 46 -47.5t59 -14.5q30 0 55.5 12t44 38.5t29.5 68.5t11 102zM312 488q-29 0 -54 -12t-43.5 -38.5t-29 -68.5t-10.5 -102q0 -32 3 -58t8 -48l231 269q-19 30 -46 44t-59 14z" />
    <glyph glyph-name="ugrave" unicode="&#xf9;" horiz-adv-x="634" 
d="M408 85h-1q-23 -44 -63.5 -71t-100.5 -27q-48 0 -78.5 16t-48 43t-24 61.5t-6.5 71.5v285q0 19 -5.5 24.5t-25.5 8.5l-43 4v37h192l-1 -136v-184q0 -86 20 -122.5t71 -36.5q56 0 84.5 42.5t28.5 108.5v254q0 19 -5.5 24.5t-25.5 8.5l-43 4v37h192l-1 -136v-318
q0 -20 6 -26t26 -8l42 -4v-37l-186 -18zM80 745h131l94 -142h-57z" />
    <glyph glyph-name="uacute" unicode="&#xfa;" horiz-adv-x="634" 
d="M408 85h-1q-23 -44 -63.5 -71t-100.5 -27q-48 0 -78.5 16t-48 43t-24 61.5t-6.5 71.5v285q0 19 -5.5 24.5t-25.5 8.5l-43 4v37h192l-1 -136v-184q0 -86 20 -122.5t71 -36.5q56 0 84.5 42.5t28.5 108.5v254q0 19 -5.5 24.5t-25.5 8.5l-43 4v37h192l-1 -136v-318
q0 -20 6 -26t26 -8l42 -4v-37l-186 -18zM308 603h-57l93 142h132z" />
    <glyph glyph-name="ucircumflex" unicode="&#xfb;" horiz-adv-x="634" 
d="M408 85h-1q-23 -44 -63.5 -71t-100.5 -27q-48 0 -78.5 16t-48 43t-24 61.5t-6.5 71.5v285q0 19 -5.5 24.5t-25.5 8.5l-43 4v37h192l-1 -136v-184q0 -86 20 -122.5t71 -36.5q56 0 84.5 42.5t28.5 108.5v254q0 19 -5.5 24.5t-25.5 8.5l-43 4v37h192l-1 -136v-318
q0 -20 6 -26t26 -8l42 -4v-37l-186 -18zM454 603h-60l-113 67l-115 -67h-60l142 142h69z" />
    <glyph glyph-name="udieresis" unicode="&#xfc;" horiz-adv-x="634" 
d="M408 85h-1q-23 -44 -63.5 -71t-100.5 -27q-48 0 -78.5 16t-48 43t-24 61.5t-6.5 71.5v285q0 19 -5.5 24.5t-25.5 8.5l-43 4v37h192l-1 -136v-184q0 -86 20 -122.5t71 -36.5q56 0 84.5 42.5t28.5 108.5v254q0 19 -5.5 24.5t-25.5 8.5l-43 4v37h192l-1 -136v-318
q0 -20 6 -26t26 -8l42 -4v-37l-186 -18zM122 745h112v-135h-112v135zM355 745h112v-135h-112v135z" />
    <glyph glyph-name="yacute" unicode="&#xfd;" horiz-adv-x="563" 
d="M37 -189v71h80q20 0 34 4t26 17t23 36t24 62l5 13l-169 452q-5 17 -12.5 23.5t-28.5 9.5l-23 2v37h255v-37l-45 -3q-18 -2 -23 -9t1 -24l111 -333l113 306q10 27 11 41.5t-23 17.5l-45 4v37h216v-37l-32 -2q-18 -2 -27 -12.5t-20 -38.5l-179 -458q-21 -54 -38 -88.5
t-38 -54.5t-49 -28t-70 -8h-77zM333 603h-57l93 142h132z" />
    <glyph glyph-name="thorn" unicode="&#xfe;" horiz-adv-x="650" 
d="M204 264q0 -63 12.5 -103.5t32 -64t43.5 -32.5t48 -9q65 0 100.5 57.5t35.5 151.5q0 47 -8 86t-24 67t-40 43.5t-57 15.5q-24 0 -49 -9.5t-46 -33.5t-34.5 -65t-13.5 -104zM214 514q0 -20 -0.5 -37.5t-1.5 -35.5h1q11 20 27 38.5t37.5 33t48 23t58.5 8.5q48 0 88 -19.5
t69 -56t45 -88t16 -115.5t-18 -115.5t-50 -87.5t-75 -55.5t-94 -19.5q-54 0 -92.5 28.5t-58.5 67.5h-2q0 -11 0.5 -18l1 -14t0.5 -15.5v-21.5v-126q0 -20 6 -26t26 -8l69 -5v-38h-292v37l43 5q20 2 25.5 7.5t5.5 25.5v784q0 20 -5.5 25.5t-25.5 7.5l-43 5v37h192l-1 -137
v-94z" />
    <glyph glyph-name="ydieresis" unicode="&#xff;" horiz-adv-x="563" 
d="M37 -189v71h80q20 0 34 4t26 17t23 36t24 62l5 13l-169 452q-5 17 -12.5 23.5t-28.5 9.5l-23 2v37h255v-37l-45 -3q-18 -2 -23 -9t1 -24l111 -333l113 306q10 27 11 41.5t-23 17.5l-45 4v37h216v-37l-32 -2q-18 -2 -27 -12.5t-20 -38.5l-179 -458q-21 -54 -38 -88.5
t-38 -54.5t-49 -28t-70 -8h-77zM130 745h112v-135h-112v135zM363 745h112v-135h-112v135z" />
    <glyph glyph-name="Abreve" unicode="&#x102;" horiz-adv-x="740" 
d="M329 725h82l255 -649q6 -14 13 -23.5t26 -11.5l39 -3v-38h-287v38l49 5q42 3 29 33l-53 137h-276l-52 -137q-11 -30 29 -33l49 -5v-38h-236v38l40 3q18 2 25 11.5t13 23.5zM231 277h227l-114 296zM528 890q-6 -54 -45 -88t-119 -34q-77 0 -116 34.5t-46 87.5h66
q4 -32 32 -49.5t65 -17.5t65 18t33 49h65z" />
    <glyph glyph-name="Amacron" unicode="&#x100;" horiz-adv-x="740" 
d="M329 725h82l255 -649q6 -14 13 -23.5t26 -11.5l39 -3v-38h-287v38l49 5q42 3 29 33l-53 137h-276l-52 -137q-11 -30 29 -33l49 -5v-38h-236v38l40 3q18 2 25 11.5t13 23.5zM231 277h227l-114 296zM215 797v67h311v-67h-311z" />
    <glyph glyph-name="Aogonek" unicode="&#x104;" horiz-adv-x="740" 
d="M457 0v38l49 5q42 3 29 33l-52 137h-276l-53 -137q-11 -30 29 -33l49 -5v-38h-236v38l40 3q18 2 25 11.5t13 23.5l255 649h82l255 -649q6 -14 13 -23.5t26 -11.5l39 -3v-38h-98q-40 -19 -67 -42.5t-27 -49.5q0 -15 6 -25t16 -16t23 -8.5t26 -2.5q14 0 27.5 2t23.5 7v-44
q-13 -6 -33.5 -9t-43.5 -3q-21 0 -43.5 4.5t-41.5 14.5t-31 27t-12 43q0 16 8.5 31t23.5 28.5t34.5 24t41.5 18.5h-120zM231 277h227l-114 296z" />
    <glyph glyph-name="Cacute" unicode="&#x106;" horiz-adv-x="783" 
d="M50 365q0 87 26 157t73 118.5t114 75t150 26.5q60 0 113.5 -15.5t96.5 -46t73 -76.5t44 -107h-124q-9 84 -60.5 133.5t-142.5 49.5q-59 0 -102 -22.5t-71.5 -64t-42.5 -99.5t-14 -129t14 -129t42.5 -99.5t71.5 -64.5t102 -23q91 0 143 49.5t61 134.5h124
q-14 -61 -44 -107t-73.5 -77t-97 -46.5t-113.5 -15.5q-83 0 -150 26.5t-114 75.5t-73 119t-26 157zM431 773h-72l103 117h145z" />
    <glyph glyph-name="Ccaron" unicode="&#x10c;" horiz-adv-x="783" 
d="M50 365q0 87 26 157t73 118.5t114 75t150 26.5q60 0 113.5 -15.5t96.5 -46t73 -76.5t44 -107h-124q-9 84 -60.5 133.5t-142.5 49.5q-59 0 -102 -22.5t-71.5 -64t-42.5 -99.5t-14 -129t14 -129t42.5 -99.5t71.5 -64.5t102 -23q91 0 143 49.5t61 134.5h124
q-14 -61 -44 -107t-73.5 -77t-97 -46.5t-113.5 -15.5q-83 0 -150 26.5t-114 75.5t-73 119t-26 157zM224 890h78l102 -58l105 58h78l-129 -117h-110z" />
    <glyph glyph-name="Ccircumflex" unicode="&#x108;" horiz-adv-x="783" 
d="M50 365q0 87 26 157t73 118.5t114 75t150 26.5q60 0 113.5 -15.5t96.5 -46t73 -76.5t44 -107h-124q-9 84 -60.5 133.5t-142.5 49.5q-59 0 -102 -22.5t-71.5 -64t-42.5 -99.5t-14 -129t14 -129t42.5 -99.5t71.5 -64.5t102 -23q91 0 143 49.5t61 134.5h124
q-14 -61 -44 -107t-73.5 -77t-97 -46.5t-113.5 -15.5q-83 0 -150 26.5t-114 75.5t-73 119t-26 157zM586 773h-78l-104 58l-103 -58h-78l128 117h109z" />
    <glyph glyph-name="Cdotaccent" unicode="&#x10a;" horiz-adv-x="783" 
d="M50 365q0 87 26 157t73 118.5t114 75t150 26.5q60 0 113.5 -15.5t96.5 -46t73 -76.5t44 -107h-124q-9 84 -60.5 133.5t-142.5 49.5q-59 0 -102 -22.5t-71.5 -64t-42.5 -99.5t-14 -129t14 -129t42.5 -99.5t71.5 -64.5t102 -23q91 0 143 49.5t61 134.5h124
q-14 -61 -44 -107t-73.5 -77t-97 -46.5t-113.5 -15.5q-83 0 -150 26.5t-114 75.5t-73 119t-26 157zM352 890h117v-117h-117v117z" />
    <glyph glyph-name="Dcaron" unicode="&#x10e;" horiz-adv-x="811" 
d="M629 363q0 155 -69 227.5t-217 72.5h-78v-601h78q148 0 217 72.5t69 228.5zM761 363q0 -97 -30.5 -166t-87 -112.5t-135.5 -64t-175 -20.5h-273v38l49 5q20 2 25.5 10t5.5 23v573q0 15 -5.5 24t-25.5 11l-49 4v37h273q96 0 175 -20.5t135.5 -64t87 -112t30.5 -165.5z
M202 890h78l102 -58l105 58h78l-129 -117h-110z" />
    <glyph glyph-name="Dcroat" unicode="&#x110;" horiz-adv-x="821" 
d="M771 363q0 -97 -31 -166t-87 -112.5t-135 -64t-175 -20.5h-273v38l49 5q20 2 25.5 10t5.5 23v266h-114v65h114v242q0 15 -5.5 24t-25.5 11l-49 4v37h273q96 0 175 -20.5t135 -64t87 -112t31 -165.5zM409 342h-134v-280h78q148 0 217 72.5t69 228.5q0 155 -69 227.5
t-217 72.5h-78v-256h134v-65z" />
    <glyph glyph-name="Ebreve" unicode="&#x114;" horiz-adv-x="724" 
d="M647 725v-222h-44l-9 66q-5 35 -11.5 54t-20 28t-36.5 10.5t-60 1.5h-201v-256h297v-65h-297v-280h213q37 0 59.5 1.5t36 10.5t20 28t11.5 54l9 66h44v-222h-598v38l49 5q20 2 25.5 10t5.5 23v573q0 15 -5.5 24t-25.5 11l-49 4v37h587zM536 890q-6 -54 -45 -88t-119 -34
q-77 0 -116 34.5t-46 87.5h66q4 -32 32 -49.5t65 -17.5t65 18t33 49h65z" />
    <glyph glyph-name="Ecaron" unicode="&#x11a;" horiz-adv-x="724" 
d="M647 725v-222h-44l-9 66q-5 35 -11.5 54t-20 28t-36.5 10.5t-60 1.5h-201v-256h297v-65h-297v-280h213q37 0 59.5 1.5t36 10.5t20 28t11.5 54l9 66h44v-222h-598v38l49 5q20 2 25.5 10t5.5 23v573q0 15 -5.5 24t-25.5 11l-49 4v37h587zM196 890h78l102 -58l105 58h78
l-129 -117h-110z" />
    <glyph glyph-name="Emacron" unicode="&#x112;" horiz-adv-x="724" 
d="M647 725v-222h-44l-9 66q-5 35 -11.5 54t-20 28t-36.5 10.5t-60 1.5h-201v-256h297v-65h-297v-280h213q37 0 59.5 1.5t36 10.5t20 28t11.5 54l9 66h44v-222h-598v38l49 5q20 2 25.5 10t5.5 23v573q0 15 -5.5 24t-25.5 11l-49 4v37h587zM219 797v67h311v-67h-311z" />
    <glyph glyph-name="Eogonek" unicode="&#x118;" horiz-adv-x="722" 
d="M60 0v38l49 5q20 2 25.5 10t5.5 23v573q0 15 -5.5 24t-25.5 11l-49 4v37h587v-222h-44l-9 66q-5 35 -11.5 54t-20 28t-36.5 10.5t-60 1.5h-201v-256h297v-65h-297v-280h213q37 0 59.5 1.5t36 10.5t20 28t11.5 54l9 66h44v-222q-39 -19 -66.5 -42.5t-27.5 -49.5
q0 -15 6 -25t16 -16t23 -8.5t26 -2.5q14 0 28 2t24 7v-44q-14 -6 -34 -9t-44 -3q-21 0 -43.5 4.5t-41 14.5t-31 27t-12.5 43q0 16 8.5 31t23.5 28.5t35 24t42 18.5h-530z" />
    <glyph glyph-name="Edotaccent" unicode="&#x116;" horiz-adv-x="724" 
d="M647 725v-222h-44l-9 66q-5 35 -11.5 54t-20 28t-36.5 10.5t-60 1.5h-201v-256h297v-65h-297v-280h213q37 0 59.5 1.5t36 10.5t20 28t11.5 54l9 66h44v-222h-598v38l49 5q20 2 25.5 10t5.5 23v573q0 15 -5.5 24t-25.5 11l-49 4v37h587zM311 890h117v-117h-117v117z" />
    <glyph glyph-name="Gbreve" unicode="&#x11e;" horiz-adv-x="825" 
d="M413 680q-59 0 -102 -22.5t-71.5 -64t-42.5 -99.5t-14 -129t14 -129t42.5 -99.5t71.5 -64.5t102 -23q14 0 34.5 2t43 9t45 20t40.5 36t29.5 56.5t11.5 80.5v56h-113v54h237v-363h-70l-20 93q-34 -52 -93.5 -79t-144.5 -27q-83 0 -150 26.5t-114 75.5t-73 119t-26 157
t26 157t73 118.5t114 75t150 26.5q60 0 113.5 -15.5t96.5 -46t73 -76.5t44 -107h-124q-9 84 -60.5 133.5t-142.5 49.5zM568 890q-6 -54 -45 -88t-119 -34q-77 0 -116 34.5t-46 87.5h66q4 -32 32 -49.5t65 -17.5t65 18t33 49h65z" />
    <glyph glyph-name="Gcircumflex" unicode="&#x11c;" horiz-adv-x="825" 
d="M413 680q-59 0 -102 -22.5t-71.5 -64t-42.5 -99.5t-14 -129t14 -129t42.5 -99.5t71.5 -64.5t102 -23q14 0 34.5 2t43 9t45 20t40.5 36t29.5 56.5t11.5 80.5v56h-113v54h237v-363h-70l-20 93q-34 -52 -93.5 -79t-144.5 -27q-83 0 -150 26.5t-114 75.5t-73 119t-26 157
t26 157t73 118.5t114 75t150 26.5q60 0 113.5 -15.5t96.5 -46t73 -76.5t44 -107h-124q-9 84 -60.5 133.5t-142.5 49.5zM587 773h-78l-104 58l-103 -58h-78l128 117h109z" />
    <glyph glyph-name="Gcommaaccent" unicode="&#x122;" horiz-adv-x="825" 
d="M413 680q-59 0 -102 -22.5t-71.5 -64t-42.5 -99.5t-14 -129t14 -129t42.5 -99.5t71.5 -64.5t102 -23q14 0 34.5 2t43 9t45 20t40.5 36t29.5 56.5t11.5 80.5v56h-113v54h237v-363h-70l-20 93q-34 -52 -93.5 -79t-144.5 -27q-83 0 -150 26.5t-114 75.5t-73 119t-26 157
t26 157t73 118.5t114 75t150 26.5q60 0 113.5 -15.5t96.5 -46t73 -76.5t44 -107h-124q-9 84 -60.5 133.5t-142.5 49.5zM351 -37h109v-98l-45 -93h-67l40 99h-37v92z" />
    <glyph glyph-name="Gdotaccent" unicode="&#x120;" horiz-adv-x="825" 
d="M413 680q-59 0 -102 -22.5t-71.5 -64t-42.5 -99.5t-14 -129t14 -129t42.5 -99.5t71.5 -64.5t102 -23q14 0 34.5 2t43 9t45 20t40.5 36t29.5 56.5t11.5 80.5v56h-113v54h237v-363h-70l-20 93q-34 -52 -93.5 -79t-144.5 -27q-83 0 -150 26.5t-114 75.5t-73 119t-26 157
t26 157t73 118.5t114 75t150 26.5q60 0 113.5 -15.5t96.5 -46t73 -76.5t44 -107h-124q-9 84 -60.5 133.5t-142.5 49.5zM343 890h117v-117h-117v117z" />
    <glyph glyph-name="Hbar" unicode="&#x126;" horiz-adv-x="883" 
d="M742 571h80v-65h-80v-430q0 -15 5 -23t25 -10l50 -5v-38h-285v38l49 5q20 2 25.5 10t5.5 23v266h-352v-266q0 -15 5.5 -23t25.5 -10l49 -5v-38h-285v38l49 5q20 2 25.5 10t5.5 23v430h-80v65h80v78q0 15 -5.5 24t-25.5 11l-49 4v37h285v-37l-49 -4q-20 -2 -25.5 -11
t-5.5 -24v-78h352v78q0 15 -5.5 24t-25.5 11l-49 4v37h285v-37l-50 -4q-20 -2 -25 -11t-5 -24v-78zM617 407v99h-352v-99h352z" />
    <glyph glyph-name="Hcircumflex" unicode="&#x124;" horiz-adv-x="882" 
d="M742 76q0 -15 5 -23t25 -10l50 -5v-38h-285v38l49 5q20 2 25.5 10t5.5 23v266h-352v-266q0 -15 5.5 -23t25.5 -10l49 -5v-38h-285v38l49 5q20 2 25.5 10t5.5 23v573q0 15 -5.5 24t-25.5 11l-49 4v37h285v-37l-49 -4q-20 -2 -25.5 -11t-5.5 -24v-242h352v242q0 15 -5.5 24
t-25.5 11l-49 4v37h285v-37l-50 -4q-20 -2 -25 -11t-5 -24v-573zM623 773h-78l-104 58l-103 -58h-78l128 117h109z" />
    <glyph glyph-name="Ibreve" unicode="&#x12c;" horiz-adv-x="405" 
d="M345 0h-285v38l49 5q20 2 25.5 10t5.5 23v573q0 15 -5.5 24t-25.5 11l-49 4v37h285v-37l-49 -4q-20 -2 -25.5 -11t-5.5 -24v-573q0 -15 5.5 -23t25.5 -10l49 -5v-38zM366 890q-6 -54 -45 -88t-119 -34q-77 0 -116 34.5t-46 87.5h66q4 -32 32 -49.5t65 -17.5t65 18t33 49
h65z" />
    <glyph glyph-name="Idotaccent" unicode="&#x130;" horiz-adv-x="405" 
d="M345 0h-285v38l49 5q20 2 25.5 10t5.5 23v573q0 15 -5.5 24t-25.5 11l-49 4v37h285v-37l-49 -4q-20 -2 -25.5 -11t-5.5 -24v-573q0 -15 5.5 -23t25.5 -10l49 -5v-38zM145 890h117v-117h-117v117z" />
    <glyph glyph-name="Imacron" unicode="&#x12a;" horiz-adv-x="405" 
d="M345 0h-285v38l49 5q20 2 25.5 10t5.5 23v573q0 15 -5.5 24t-25.5 11l-49 4v37h285v-37l-49 -4q-20 -2 -25.5 -11t-5.5 -24v-573q0 -15 5.5 -23t25.5 -10l49 -5v-38zM48 797v67h311v-67h-311z" />
    <glyph glyph-name="Iogonek" unicode="&#x12e;" horiz-adv-x="405" 
d="M345 0h-285v38l49 5q20 2 25.5 10t5.5 23v573q0 15 -5.5 24t-25.5 11l-49 4v37h285v-37l-49 -4q-20 -2 -25.5 -11t-5.5 -24v-573q0 -15 5.5 -23t25.5 -10l49 -5v-38zM264 0q-40 -19 -67 -42.5t-27 -49.5q0 -15 6 -25t16 -16t23 -8.5t26 -2.5q31 0 51 9v-44
q-13 -6 -33.5 -9t-43.5 -3q-21 0 -43.5 4.5t-41.5 14.5t-31 27t-12 43q0 16 8.5 31t23.5 28.5t34.5 24t41.5 18.5h69z" />
    <glyph glyph-name="Itilde" unicode="&#x128;" horiz-adv-x="405" 
d="M339 0h-285v38l49 5q20 2 25.5 10t5.5 23v573q0 15 -5.5 24t-25.5 11l-49 4v37h285v-37l-49 -4q-20 -2 -25.5 -11t-5.5 -24v-573q0 -15 5.5 -23t25.5 -10l49 -5v-38zM260 844q22 0 32.5 11.5t13.5 34.5h62q-10 -64 -36.5 -91t-67.5 -27q-22 0 -40.5 7.5t-35 16.5
t-31 16.5t-27.5 7.5q-21 0 -31 -12t-15 -35h-60q4 34 13.5 57t24 36.5t31.5 19t36 5.5q21 0 39 -7.5t34 -16t30 -16t28 -7.5z" />
    <glyph glyph-name="uni1ECA" unicode="&#x1eca;" horiz-adv-x="405" 
d="M345 0h-285v38l49 5q20 2 25.5 10t5.5 23v573q0 15 -5.5 24t-25.5 11l-49 4v37h285v-37l-49 -4q-20 -2 -25.5 -11t-5.5 -24v-573q0 -15 5.5 -23t25.5 -10l49 -5v-38zM142 -54h117v-135h-117v135z" />
    <glyph glyph-name="Jcircumflex" unicode="&#x134;" horiz-adv-x="429" 
d="M309 176q0 -66 -13 -102t-38.5 -52.5t-62.5 -19t-84 -2.5h-61v62h22q27 0 48 2t35.5 13.5t21.5 35.5t7 68v468q0 15 -5 24t-25 11l-49 4v37h285v-37l-50 -4q-20 -2 -25.5 -11t-5.5 -24v-473zM427 773h-78l-104 58l-103 -58h-78l128 117h109z" />
    <glyph glyph-name="Kcommaaccent" unicode="&#x136;" horiz-adv-x="788" 
d="M265 357l295 292q19 18 11 25t-39 11l-33 3v37h247v-37l-25 -2q-24 -3 -42.5 -17t-50.5 -46l-184 -180l235 -353q10 -16 18.5 -25.5t17 -15t17 -7.5t20.5 -3l24 -1v-38h-289v38l22 1q18 1 27.5 3t12 6.5t-1 11.5t-9.5 16l-183 279l-90 -88v-191q0 -15 5.5 -23t25.5 -10
l49 -5v-38h-285v38l49 5q20 2 25.5 10t5.5 23v573q0 15 -5.5 24t-25.5 11l-49 4v37h285v-37l-49 -4q-20 -2 -25.5 -11t-5.5 -24v-292zM361 -37h109v-98l-45 -93h-67l40 99h-37v92z" />
    <glyph glyph-name="Lacute" unicode="&#x139;" horiz-adv-x="646" 
d="M60 38l49 5q20 2 25.5 10t5.5 23v573q0 15 -5.5 24t-25.5 11l-49 4v37h285v-37l-49 -4q-20 -2 -25.5 -11t-5.5 -24v-587h189q37 0 59.5 1.5t36 10.5t20 28t11.5 54l9 66h44v-222h-574v38zM218 773h-72l103 117h145z" />
    <glyph glyph-name="Lcaron" unicode="&#x13d;" horiz-adv-x="646" 
d="M60 38l49 5q20 2 25.5 10t5.5 23v573q0 15 -5.5 24t-25.5 11l-49 4v37h285v-37l-49 -4q-20 -2 -25.5 -11t-5.5 -24v-587h189q37 0 59.5 1.5t36 10.5t20 28t11.5 54l9 66h44v-222h-574v38zM409 725h132v-132l-73 -156h-47l44 156h-56v132z" />
    <glyph glyph-name="Lcommaaccent" unicode="&#x13b;" horiz-adv-x="646" 
d="M60 38l49 5q20 2 25.5 10t5.5 23v573q0 15 -5.5 24t-25.5 11l-49 4v37h285v-37l-49 -4q-20 -2 -25.5 -11t-5.5 -24v-587h189q37 0 59.5 1.5t36 10.5t20 28t11.5 54l9 66h44v-222h-574v38zM299 -37h109v-98l-45 -93h-67l40 99h-37v92z" />
    <glyph glyph-name="Ldot" unicode="&#x13f;" horiz-adv-x="646" 
d="M60 38l49 5q20 2 25.5 10t5.5 23v573q0 15 -5.5 24t-25.5 11l-49 4v37h285v-37l-49 -4q-20 -2 -25.5 -11t-5.5 -24v-587h189q37 0 59.5 1.5t36 10.5t20 28t11.5 54l9 66h44v-222h-574v38zM391 485h117v-135h-117v135z" />
    <glyph glyph-name="Lslash" unicode="&#x141;" horiz-adv-x="653" 
d="M67 38l49 5q20 2 25.5 10t5.5 23v242l-113 -35l-16 52l129 40v274q0 15 -5.5 24t-25.5 11l-49 4v37h285v-37l-49 -4q-20 -2 -25.5 -11t-5.5 -24v-234l142 45l17 -53l-159 -50v-295h189q37 0 59.5 1.5t36 10.5t20 28t11.5 54l9 66h44v-222h-574v38z" />
    <glyph glyph-name="Eng" unicode="&#x14a;" horiz-adv-x="825" 
d="M213 563v-487q0 -15 5 -23t25 -10l50 -5v-38h-233v38l49 5q20 2 25.5 10t5.5 23v573q0 15 -5.5 24t-25.5 11l-49 4v37h183l399 -518v442q0 15 -5.5 23t-25.5 10l-49 5v38h233v-38l-49 -5q-20 -2 -25.5 -10t-5.5 -23v-673q0 -59 -8 -92t-26.5 -49.5t-48 -20t-72.5 -3.5
h-37v67h23q35 0 54.5 2t28.5 10.5t11 26.5t2 51v41z" />
    <glyph glyph-name="Nacute" unicode="&#x143;" horiz-adv-x="825" 
d="M715 0h-66l-436 563v-487q0 -15 5 -23t25 -10l50 -5v-38h-233v38l49 5q20 2 25.5 10t5.5 23v573q0 15 -5.5 24t-25.5 11l-49 4v37h183l399 -518v442q0 15 -5.5 23t-25.5 10l-49 5v38h233v-38l-49 -5q-20 -2 -25.5 -10t-5.5 -23v-649zM442 773h-72l103 117h145z" />
    <glyph glyph-name="Ncaron" unicode="&#x147;" horiz-adv-x="825" 
d="M715 0h-66l-436 563v-487q0 -15 5 -23t25 -10l50 -5v-38h-233v38l49 5q20 2 25.5 10t5.5 23v573q0 15 -5.5 24t-25.5 11l-49 4v37h183l399 -518v442q0 15 -5.5 23t-25.5 10l-49 5v38h233v-38l-49 -5q-20 -2 -25.5 -10t-5.5 -23v-649zM235 890h78l102 -58l105 58h78
l-129 -117h-110z" />
    <glyph glyph-name="Ncommaaccent" unicode="&#x145;" horiz-adv-x="825" 
d="M715 0h-66l-436 563v-487q0 -15 5 -23t25 -10l50 -5v-38h-233v38l49 5q20 2 25.5 10t5.5 23v573q0 15 -5.5 24t-25.5 11l-49 4v37h183l399 -518v442q0 15 -5.5 23t-25.5 10l-49 5v38h233v-38l-49 -5q-20 -2 -25.5 -10t-5.5 -23v-649zM375 -37h109v-98l-45 -93h-67l40 99
h-37v92z" />
    <glyph glyph-name="OE" unicode="&#x152;" horiz-adv-x="1216" 
d="M414 -13q-80 0 -147 26.5t-115 75.5t-75 119t-27 157t27 157t75 118.5t115 75t147 26.5q139 0 217 -98v81h508v-222h-45l-9 66q-5 35 -11.5 54t-20 28t-36.5 10.5t-60 1.5h-201v-256h297v-65h-297v-280h213q37 0 60 1.5t36.5 10.5t19.5 28t11 54l9 66h45v-222h-519v88
q-40 -49 -95 -75t-122 -26zM644 365q0 70 -14 128t-42.5 99.5t-72 64.5t-101.5 23q-59 0 -102.5 -23t-72 -64.5t-42.5 -99.5t-14 -128q0 -71 14 -129t42.5 -99.5t72 -64.5t102.5 -23q58 0 101.5 23t72 64.5t42.5 99.5t14 129z" />
    <glyph glyph-name="Obreve" unicode="&#x14e;" horiz-adv-x="828" 
d="M414 -13q-80 0 -147 26.5t-115 75.5t-75 119t-27 157t27 157t75 118.5t115 75t147 26.5t146.5 -26.5t114.5 -75t75 -118.5t27 -157t-27 -157t-75 -119t-114.5 -75.5t-146.5 -26.5zM644 365q0 70 -14 128t-42.5 99.5t-72 64.5t-101.5 23q-59 0 -102.5 -23t-72 -64.5
t-42.5 -99.5t-14 -128q0 -71 14 -129t42.5 -99.5t72 -64.5t102.5 -23q58 0 101.5 23t72 64.5t42.5 99.5t14 129zM577 890q-6 -54 -45 -88t-119 -34q-77 0 -116 34.5t-46 87.5h66q4 -32 32 -49.5t65 -17.5t65 18t33 49h65z" />
    <glyph glyph-name="Ohungarumlaut" unicode="&#x150;" horiz-adv-x="828" 
d="M414 -13q-80 0 -147 26.5t-115 75.5t-75 119t-27 157t27 157t75 118.5t115 75t147 26.5t146.5 -26.5t114.5 -75t75 -118.5t27 -157t-27 -157t-75 -119t-114.5 -75.5t-146.5 -26.5zM644 365q0 70 -14 128t-42.5 99.5t-72 64.5t-101.5 23q-59 0 -102.5 -23t-72 -64.5
t-42.5 -99.5t-14 -128q0 -71 14 -129t42.5 -99.5t72 -64.5t102.5 -23q58 0 101.5 23t72 64.5t42.5 99.5t14 129zM355 773h-60l103 117h134zM522 773h-60l103 117h134z" />
    <glyph glyph-name="Omacron" unicode="&#x14c;" horiz-adv-x="828" 
d="M414 -13q-80 0 -147 26.5t-115 75.5t-75 119t-27 157t27 157t75 118.5t115 75t147 26.5t146.5 -26.5t114.5 -75t75 -118.5t27 -157t-27 -157t-75 -119t-114.5 -75.5t-146.5 -26.5zM644 365q0 70 -14 128t-42.5 99.5t-72 64.5t-101.5 23q-59 0 -102.5 -23t-72 -64.5
t-42.5 -99.5t-14 -128q0 -71 14 -129t42.5 -99.5t72 -64.5t102.5 -23q58 0 101.5 23t72 64.5t42.5 99.5t14 129zM268 797v67h311v-67h-311z" />
    <glyph glyph-name="uni1ECC" unicode="&#x1ecc;" horiz-adv-x="828" 
d="M350 -54h117v-135h-117v135zM414 -13q-80 0 -147 26.5t-115 75.5t-75 119t-27 157t27 157t75 118.5t115 75t147 26.5t146.5 -26.5t114.5 -75t75 -118.5t27 -157t-27 -157t-75 -119t-114.5 -75.5t-146.5 -26.5zM644 365q0 70 -14 128t-42.5 99.5t-72 64.5t-101.5 23
q-59 0 -102.5 -23t-72 -64.5t-42.5 -99.5t-14 -128q0 -71 14 -129t42.5 -99.5t72 -64.5t102.5 -23q58 0 101.5 23t72 64.5t42.5 99.5t14 129z" />
    <glyph glyph-name="Racute" unicode="&#x154;" horiz-adv-x="755" 
d="M60 725q69 0 136.5 0.5t136.5 0.5q88 0 149 -13.5t99 -39t55.5 -63.5t17.5 -86q0 -60 -35 -107t-110 -73l154 -258q14 -26 25 -33.5t31 -9.5l42 -5v-38h-189l-51 94l-134 228q-13 -1 -26.5 -1.5t-27.5 -0.5h-68v-244q0 -15 5.5 -23t25.5 -10l53 -5v-38h-289v38l49 5
q20 2 25.5 10t5.5 23v573q0 15 -5.5 24t-25.5 11l-49 4v37zM265 664v-281h73q94 0 140 33t46 108t-46 107.5t-140 32.5h-73zM381 773h-72l103 117h145z" />
    <glyph glyph-name="Rcaron" unicode="&#x158;" horiz-adv-x="755" 
d="M60 725q69 0 136.5 0.5t136.5 0.5q88 0 149 -13.5t99 -39t55.5 -63.5t17.5 -86q0 -60 -35 -107t-110 -73l154 -258q14 -26 25 -33.5t31 -9.5l42 -5v-38h-189l-51 94l-134 228q-13 -1 -26.5 -1.5t-27.5 -0.5h-68v-244q0 -15 5.5 -23t25.5 -10l53 -5v-38h-289v38l49 5
q20 2 25.5 10t5.5 23v573q0 15 -5.5 24t-25.5 11l-49 4v37zM265 664v-281h73q94 0 140 33t46 108t-46 107.5t-140 32.5h-73zM188 890h78l102 -58l105 58h78l-129 -117h-110z" />
    <glyph glyph-name="Rcommaaccent" unicode="&#x156;" horiz-adv-x="755" 
d="M60 725q69 0 136.5 0.5t136.5 0.5q88 0 149 -13.5t99 -39t55.5 -63.5t17.5 -86q0 -60 -35 -107t-110 -73l154 -258q14 -26 25 -33.5t31 -9.5l42 -5v-38h-189l-51 94l-134 228q-13 -1 -26.5 -1.5t-27.5 -0.5h-68v-244q0 -15 5.5 -23t25.5 -10l53 -5v-38h-289v38l49 5
q20 2 25.5 10t5.5 23v573q0 15 -5.5 24t-25.5 11l-49 4v37zM265 664v-281h73q94 0 140 33t46 108t-46 107.5t-140 32.5h-73zM357 -37h109v-98l-45 -93h-67l40 99h-37v92z" />
    <glyph glyph-name="Sacute" unicode="&#x15a;" horiz-adv-x="662" 
d="M493 522q-8 79 -58 118.5t-123 39.5q-26 0 -54 -6t-51 -18.5t-38.5 -33.5t-15.5 -51q0 -27 11 -47t30.5 -34.5t45.5 -24.5t55 -17l80 -21q48 -12 94 -28.5t82 -41.5t58.5 -62t22.5 -91q0 -55 -25.5 -95.5t-66.5 -67.5t-93.5 -40.5t-107.5 -13.5q-66 0 -120.5 17t-96 49
t-68 78.5t-35.5 106.5h124q4 -37 16.5 -71t36.5 -60.5t60 -42t86 -15.5q30 0 61 7t56.5 23t42 40.5t16.5 60.5q0 32 -14.5 54t-38.5 37.5t-55.5 26t-66.5 19.5l-91 24q-41 10 -79 27.5t-67.5 43t-47 60t-17.5 79.5q0 50 24 86t64 59.5t91 34.5t104 11q61 0 111 -17.5
t87 -47.5t60.5 -70t31.5 -85h-121zM351 773h-72l103 117h145z" />
    <glyph glyph-name="Scaron" unicode="&#x160;" horiz-adv-x="662" 
d="M493 522q-8 79 -58 118.5t-123 39.5q-26 0 -54 -6t-51 -18.5t-38.5 -33.5t-15.5 -51q0 -27 11 -47t30.5 -34.5t45.5 -24.5t55 -17l80 -21q48 -12 94 -28.5t82 -41.5t58.5 -62t22.5 -91q0 -55 -25.5 -95.5t-66.5 -67.5t-93.5 -40.5t-107.5 -13.5q-66 0 -120.5 17t-96 49
t-68 78.5t-35.5 106.5h124q4 -37 16.5 -71t36.5 -60.5t60 -42t86 -15.5q30 0 61 7t56.5 23t42 40.5t16.5 60.5q0 32 -14.5 54t-38.5 37.5t-55.5 26t-66.5 19.5l-91 24q-41 10 -79 27.5t-67.5 43t-47 60t-17.5 79.5q0 50 24 86t64 59.5t91 34.5t104 11q61 0 111 -17.5
t87 -47.5t60.5 -70t31.5 -85h-121zM149 890h78l102 -58l105 58h78l-129 -117h-110z" />
    <glyph glyph-name="Scedilla" unicode="&#x15e;" horiz-adv-x="662" 
d="M493 522q-8 79 -58 118.5t-123 39.5q-26 0 -54 -6t-51 -18.5t-38.5 -33.5t-15.5 -51q0 -27 11 -47t30.5 -34.5t45.5 -24.5t55 -17l80 -21q48 -12 94 -28.5t82 -41.5t58.5 -62t22.5 -91q0 -55 -25.5 -95.5t-66.5 -67.5t-93.5 -40.5t-107.5 -13.5q-66 0 -120.5 17t-96 49
t-68 78.5t-35.5 106.5h124q4 -37 16.5 -71t36.5 -60.5t60 -42t86 -15.5q30 0 61 7t56.5 23t42 40.5t16.5 60.5q0 32 -14.5 54t-38.5 37.5t-55.5 26t-66.5 19.5l-91 24q-41 10 -79 27.5t-67.5 43t-47 60t-17.5 79.5q0 50 24 86t64 59.5t91 34.5t104 11q61 0 111 -17.5
t87 -47.5t60.5 -70t31.5 -85h-121zM314 3h48l-37 -53q48 9 78 -13t30 -64q0 -21 -9.5 -37.5t-25 -28.5t-36.5 -18.5t-44 -6.5q-24 0 -42.5 3.5t-43.5 14.5l15 36q12 -7 28 -10t33 -3q25 0 42.5 10t17.5 35q0 20 -14.5 29t-30.5 9q-28 0 -45 -10l-21 19z" />
    <glyph glyph-name="Scircumflex" unicode="&#x15c;" horiz-adv-x="662" 
d="M493 522q-8 79 -58 118.5t-123 39.5q-26 0 -54 -6t-51 -18.5t-38.5 -33.5t-15.5 -51q0 -27 11 -47t30.5 -34.5t45.5 -24.5t55 -17l80 -21q48 -12 94 -28.5t82 -41.5t58.5 -62t22.5 -91q0 -55 -25.5 -95.5t-66.5 -67.5t-93.5 -40.5t-107.5 -13.5q-66 0 -120.5 17t-96 49
t-68 78.5t-35.5 106.5h124q4 -37 16.5 -71t36.5 -60.5t60 -42t86 -15.5q30 0 61 7t56.5 23t42 40.5t16.5 60.5q0 32 -14.5 54t-38.5 37.5t-55.5 26t-66.5 19.5l-91 24q-41 10 -79 27.5t-67.5 43t-47 60t-17.5 79.5q0 50 24 86t64 59.5t91 34.5t104 11q61 0 111 -17.5
t87 -47.5t60.5 -70t31.5 -85h-121zM505 773h-78l-104 58l-103 -58h-78l128 117h109z" />
    <glyph glyph-name="Scommaaccent" unicode="&#x218;" horiz-adv-x="662" 
d="M493 522q-8 79 -58 118.5t-123 39.5q-26 0 -54 -6t-51 -18.5t-38.5 -33.5t-15.5 -51q0 -27 11 -47t30.5 -34.5t45.5 -24.5t55 -17l80 -21q48 -12 94 -28.5t82 -41.5t58.5 -62t22.5 -91q0 -55 -25.5 -95.5t-66.5 -67.5t-93.5 -40.5t-107.5 -13.5q-66 0 -120.5 17t-96 49
t-68 78.5t-35.5 106.5h124q4 -37 16.5 -71t36.5 -60.5t60 -42t86 -15.5q30 0 61 7t56.5 23t42 40.5t16.5 60.5q0 32 -14.5 54t-38.5 37.5t-55.5 26t-66.5 19.5l-91 24q-41 10 -79 27.5t-67.5 43t-47 60t-17.5 79.5q0 50 24 86t64 59.5t91 34.5t104 11q61 0 111 -17.5
t87 -47.5t60.5 -70t31.5 -85h-121zM270 -37h109v-98l-45 -93h-67l40 99h-37v92z" />
    <glyph glyph-name="Tbar" unicode="&#x166;" horiz-adv-x="719" 
d="M695 725v-222h-44l-9 66q-5 35 -11.5 54.5t-20 28.5t-36.5 11t-60 2h-92v-258h151v-65h-151v-264q0 -16 6 -24t26 -10l60 -5v-39h-309v39l61 5q20 2 25.5 10t5.5 24v264h-141v65h141v258h-92q-37 0 -59.5 -2t-36 -11t-20.5 -28.5t-11 -54.5l-9 -66h-45v222h671z" />
    <glyph glyph-name="Tcaron" unicode="&#x164;" horiz-adv-x="719" 
d="M695 725v-222h-44l-9 66q-5 35 -11.5 54.5t-20 28.5t-36.5 11t-60 2h-92v-587q0 -16 6 -24t26 -10l60 -5v-39h-309v39l61 5q20 2 25.5 10t5.5 24v587h-92q-37 0 -59.5 -2t-36 -11t-20.5 -28.5t-11 -54.5l-9 -66h-45v222h671zM176 890h78l102 -58l105 58h78l-129 -117
h-110z" />
    <glyph glyph-name="uni0162" unicode="&#x162;" horiz-adv-x="719" 
d="M695 725v-222h-44l-9 66q-5 35 -11.5 54.5t-20 28.5t-36.5 11t-60 2h-92v-587q0 -16 6 -24t26 -10l60 -5v-39h-309v39l61 5q20 2 25.5 10t5.5 24v587h-92q-37 0 -59.5 -2t-36 -11t-20.5 -28.5t-11 -54.5l-9 -66h-45v222h671zM308 -37h109v-98l-45 -93h-67l40 99h-37v92z
" />
    <glyph glyph-name="Tcommaaccent" unicode="&#x21a;" horiz-adv-x="719" 
d="M695 725v-222h-44l-9 66q-5 35 -11.5 54.5t-20 28.5t-36.5 11t-60 2h-92v-587q0 -16 6 -24t26 -10l60 -5v-39h-309v39l61 5q20 2 25.5 10t5.5 24v587h-92q-37 0 -59.5 -2t-36 -11t-20.5 -28.5t-11 -54.5l-9 -66h-45v222h671zM308 -37h109v-98l-45 -93h-67l40 99h-37v92z
" />
    <glyph glyph-name="Ubreve" unicode="&#x16c;" horiz-adv-x="800" 
d="M407 -13q-89 0 -148.5 20.5t-95.5 57.5t-51 89.5t-15 117.5v377q0 15 -6 24t-26 11l-49 4v37h286v-37l-49 -4q-20 -2 -25.5 -11t-5.5 -24v-372q0 -104 43.5 -159t145.5 -55q103 0 159 48t56 164v374q0 15 -5 24t-25 11l-49 4v37h235v-37l-49 -4q-20 -2 -25 -11t-5 -24
v-369q0 -63 -15.5 -116.5t-50.5 -93t-91.5 -61.5t-138.5 -22zM584 890q-6 -54 -45 -88t-119 -34q-77 0 -116 34.5t-46 87.5h66q4 -32 32 -49.5t65 -17.5t65 18t33 49h65z" />
    <glyph glyph-name="Uhungarumlaut" unicode="&#x170;" horiz-adv-x="800" 
d="M407 -13q-89 0 -148.5 20.5t-95.5 57.5t-51 89.5t-15 117.5v377q0 15 -6 24t-26 11l-49 4v37h286v-37l-49 -4q-20 -2 -25.5 -11t-5.5 -24v-372q0 -104 43.5 -159t145.5 -55q103 0 159 48t56 164v374q0 15 -5 24t-25 11l-49 4v37h235v-37l-49 -4q-20 -2 -25 -11t-5 -24
v-369q0 -63 -15.5 -116.5t-50.5 -93t-91.5 -61.5t-138.5 -22zM372 773h-60l103 117h134zM539 773h-60l103 117h134z" />
    <glyph glyph-name="Umacron" unicode="&#x16a;" horiz-adv-x="800" 
d="M407 -13q-89 0 -148.5 20.5t-95.5 57.5t-51 89.5t-15 117.5v377q0 15 -6 24t-26 11l-49 4v37h286v-37l-49 -4q-20 -2 -25.5 -11t-5.5 -24v-372q0 -104 43.5 -159t145.5 -55q103 0 159 48t56 164v374q0 15 -5 24t-25 11l-49 4v37h235v-37l-49 -4q-20 -2 -25 -11t-5 -24
v-369q0 -63 -15.5 -116.5t-50.5 -93t-91.5 -61.5t-138.5 -22zM267 797v67h311v-67h-311z" />
    <glyph glyph-name="Uogonek" unicode="&#x172;" horiz-adv-x="800" 
d="M703 280q0 -59 -13.5 -109.5t-43.5 -89t-78 -62.5t-117 -30q-32 -17 -51.5 -37.5t-19.5 -43.5q0 -15 6 -25t16 -16t23 -8.5t26 -2.5q14 0 27.5 2t23.5 7v-44q-14 -6 -34 -9t-44 -3q-21 0 -43 4.5t-41 14.5t-31 27t-12 43t21.5 49.5t55.5 40.5q-79 4 -132 25.5t-85.5 58.5
t-46 87.5t-13.5 112.5v377q0 15 -6 24t-26 11l-49 4v37h285v-37l-49 -4q-20 -2 -25.5 -11t-5.5 -24v-372q0 -104 44 -159t146 -55q103 0 159 48t56 164v374q0 15 -5 24t-25 11l-49 4v37h235v-37l-49 -4q-20 -2 -25 -11t-5 -24v-369v0z" />
    <glyph glyph-name="Uring" unicode="&#x16e;" horiz-adv-x="800" 
d="M407 -13q-89 0 -148.5 20.5t-95.5 57.5t-51 89.5t-15 117.5v377q0 15 -6 24t-26 11l-49 4v37h286v-37l-49 -4q-20 -2 -25.5 -11t-5.5 -24v-372q0 -104 43.5 -159t145.5 -55q103 0 159 48t56 164v374q0 15 -5 24t-25 11l-49 4v37h235v-37l-49 -4q-20 -2 -25 -11t-5 -24
v-369q0 -63 -15.5 -116.5t-50.5 -93t-91.5 -61.5t-138.5 -22zM422 943q19 0 36 -6.5t29.5 -18t20 -27.5t7.5 -35q0 -38 -27 -63t-66 -25q-40 0 -67 25t-27 63q0 19 7.5 35t20.5 27.5t30 18t36 6.5zM422 900q-18 0 -31.5 -12.5t-13.5 -31.5q0 -20 13.5 -32t31.5 -12
q17 0 30.5 12t13.5 32q0 19 -13.5 31.5t-30.5 12.5z" />
    <glyph glyph-name="Utilde" unicode="&#x168;" horiz-adv-x="800" 
d="M407 -13q-89 0 -148.5 20.5t-95.5 57.5t-51 89.5t-15 117.5v377q0 15 -6 24t-26 11l-49 4v37h286v-37l-49 -4q-20 -2 -25.5 -11t-5.5 -24v-372q0 -104 43.5 -159t145.5 -55q103 0 159 48t56 164v374q0 15 -5 24t-25 11l-49 4v37h235v-37l-49 -4q-20 -2 -25 -11t-5 -24
v-369q0 -63 -15.5 -116.5t-50.5 -93t-91.5 -61.5t-138.5 -22zM485 844q22 0 32.5 11.5t13.5 34.5h62q-10 -64 -36.5 -91t-67.5 -27q-22 0 -40.5 7.5t-35 16.5t-31 16.5t-27.5 7.5q-21 0 -31 -12t-15 -35h-60q4 34 13.5 57t24 36.5t31.5 19t36 5.5q21 0 39 -7.5t34 -16
t30 -16t28 -7.5z" />
    <glyph glyph-name="uni1EE4" unicode="&#x1ee4;" horiz-adv-x="800" 
d="M350 -54h117v-135h-117v135zM407 -13q-89 0 -148.5 20.5t-95.5 57.5t-51 89.5t-15 117.5v377q0 15 -6 24t-26 11l-49 4v37h286v-37l-49 -4q-20 -2 -25.5 -11t-5.5 -24v-372q0 -104 43.5 -159t145.5 -55q103 0 159 48t56 164v374q0 15 -5 24t-25 11l-49 4v37h235v-37
l-49 -4q-20 -2 -25 -11t-5 -24v-369q0 -63 -15.5 -116.5t-50.5 -93t-91.5 -61.5t-138.5 -22z" />
    <glyph glyph-name="Wacute" unicode="&#x1e82;" horiz-adv-x="999" 
d="M728 175l107 474q3 14 -3 23.5t-27 11.5l-49 4v37h237v-37l-40 -3q-19 -2 -26.5 -11.5t-12.5 -24.5l-161 -649h-96l-153 516l-162 -516h-88l-170 649q-5 15 -12.5 24.5t-25.5 11.5l-40 3v37h287v-37l-49 -4q-21 -2 -27 -10t-1 -25l106 -471l164 547h79zM562 773h-72
l103 117h145z" />
    <glyph glyph-name="Wcircumflex" unicode="&#x174;" horiz-adv-x="999" 
d="M728 175l107 474q3 14 -3 23.5t-27 11.5l-49 4v37h237v-37l-40 -3q-19 -2 -26.5 -11.5t-12.5 -24.5l-161 -649h-96l-153 516l-162 -516h-88l-170 649q-5 15 -12.5 24.5t-25.5 11.5l-40 3v37h287v-37l-49 -4q-21 -2 -27 -10t-1 -25l106 -471l164 547h79zM706 773h-78
l-104 58l-103 -58h-78l128 117h109z" />
    <glyph glyph-name="Wdieresis" unicode="&#x1e84;" horiz-adv-x="999" 
d="M728 175l107 474q3 14 -3 23.5t-27 11.5l-49 4v37h237v-37l-40 -3q-19 -2 -26.5 -11.5t-12.5 -24.5l-161 -649h-96l-153 516l-162 -516h-88l-170 649q-5 15 -12.5 24.5t-25.5 11.5l-40 3v37h287v-37l-49 -4q-21 -2 -27 -10t-1 -25l106 -471l164 547h79zM351 890h117v-117
h-117v117zM579 890h117v-117h-117v117z" />
    <glyph glyph-name="Wgrave" unicode="&#x1e80;" horiz-adv-x="999" 
d="M728 175l107 474q3 14 -3 23.5t-27 11.5l-49 4v37h237v-37l-40 -3q-19 -2 -26.5 -11.5t-12.5 -24.5l-161 -649h-96l-153 516l-162 -516h-88l-170 649q-5 15 -12.5 24.5t-25.5 11.5l-40 3v37h287v-37l-49 -4q-21 -2 -27 -10t-1 -25l106 -471l164 547h79zM312 890h145
l103 -117h-72z" />
    <glyph glyph-name="Ycircumflex" unicode="&#x176;" horiz-adv-x="690" 
d="M279 287l-205 362q-8 14 -17 24t-27 12l-34 3v37h297v-37l-49 -4q-20 -2 -28 -11.5t-1 -23.5l159 -288l165 288q7 14 -1.5 23.5t-28.5 11.5l-49 4v37h236v-37l-32 -3q-19 -2 -28.5 -12t-17.5 -24l-214 -363v-210q0 -15 6 -23t26 -10l49 -5v-38h-286v38l48 5q20 2 26 10
t6 23v211zM557 773h-78l-104 58l-103 -58h-78l128 117h109z" />
    <glyph glyph-name="Ydieresis" unicode="&#x178;" horiz-adv-x="690" 
d="M279 287l-205 362q-8 14 -17 24t-27 12l-34 3v37h297v-37l-49 -4q-20 -2 -28 -11.5t-1 -23.5l159 -288l165 288q7 14 -1.5 23.5t-28.5 11.5l-49 4v37h236v-37l-32 -3q-19 -2 -28.5 -12t-17.5 -24l-214 -363v-210q0 -15 6 -23t26 -10l49 -5v-38h-286v38l48 5q20 2 26 10
t6 23v211zM206 890h117v-117h-117v117zM434 890h117v-117h-117v117z" />
    <glyph glyph-name="Ygrave" unicode="&#x1ef2;" horiz-adv-x="690" 
d="M279 287l-205 362q-8 14 -17 24t-27 12l-34 3v37h297v-37l-49 -4q-20 -2 -28 -11.5t-1 -23.5l159 -288l165 288q7 14 -1.5 23.5t-28.5 11.5l-49 4v37h236v-37l-32 -3q-19 -2 -28.5 -12t-17.5 -24l-214 -363v-210q0 -15 6 -23t26 -10l49 -5v-38h-286v38l48 5q20 2 26 10
t6 23v211zM167 890h145l103 -117h-72z" />
    <glyph glyph-name="uni0232" unicode="&#x232;" horiz-adv-x="690" 
d="M279 287l-205 362q-8 14 -17 24t-27 12l-34 3v37h297v-37l-49 -4q-20 -2 -28 -11.5t-1 -23.5l159 -288l165 288q7 14 -1.5 23.5t-28.5 11.5l-49 4v37h236v-37l-32 -3q-19 -2 -28.5 -12t-17.5 -24l-214 -363v-210q0 -15 6 -23t26 -10l49 -5v-38h-286v38l48 5q20 2 26 10
t6 23v211zM219 797v67h311v-67h-311z" />
    <glyph glyph-name="Zacute" unicode="&#x179;" horiz-adv-x="707" 
d="M250 663q-37 0 -59.5 -1.5t-36 -10.5t-20.5 -28t-11 -54l-8 -66h-45v222h581v-59l-471 -604h297q37 0 59.5 1.5t36 10.5t20 28t11.5 54l9 66h44v-222h-621v61l470 602h-256v0zM392 773h-72l103 117h145z" />
    <glyph glyph-name="Zcaron" unicode="&#x17d;" horiz-adv-x="707" 
d="M250 663q-37 0 -59.5 -1.5t-36 -10.5t-20.5 -28t-11 -54l-8 -66h-45v222h581v-59l-471 -604h297q37 0 59.5 1.5t36 10.5t20 28t11.5 54l9 66h44v-222h-621v61l470 602h-256v0zM183 890h78l102 -58l105 58h78l-129 -117h-110z" />
    <glyph glyph-name="Zdotaccent" unicode="&#x17b;" horiz-adv-x="707" 
d="M250 663q-37 0 -59.5 -1.5t-36 -10.5t-20.5 -28t-11 -54l-8 -66h-45v222h581v-59l-471 -604h297q37 0 59.5 1.5t36 10.5t20 28t11.5 54l9 66h44v-222h-621v61l470 602h-256v0zM304 890h117v-117h-117v117z" />
    <glyph glyph-name="uni018F" unicode="&#x18f;" horiz-adv-x="799" 
d="M387 -12q-40 0 -81 8t-79 26t-71 46.5t-57 68.5t-37 93t-11 120h565v16q0 71 -13.5 129t-41 99.5t-70.5 64t-101 22.5q-91 0 -144.5 -49.5t-62.5 -133.5l-125 1q13 61 44.5 107t75 76.5t98 46t114.5 15.5q82 0 148.5 -26.5t113.5 -75.5t72 -119t25 -157t-26 -157
t-73 -119t-114 -75.5t-149 -26.5zM387 50q99 0 154.5 63.5t69.5 171.5h-425q-4 -69 13 -114t46.5 -72t67 -38t74.5 -11z" />
    <glyph glyph-name="abreve" unicode="&#x103;" horiz-adv-x="607" 
d="M402 269q-48 -6 -89 -12.5t-70.5 -19.5t-46 -35.5t-16.5 -59.5q0 -38 24.5 -62.5t67.5 -24.5q25 0 48.5 9t41.5 30t29 56t11 88v31zM400 362q0 72 -26 100.5t-83 28.5q-55 0 -81.5 -33.5t-29.5 -87.5h-110q3 39 21.5 72t48.5 56t69.5 36t85.5 13q55 0 97 -10.5t69 -34.5
t40 -63t12 -96q-1 -23 -1.5 -55.5t-0.5 -67.5v-68t2 -69q2 -20 6.5 -26t24.5 -8l43 -4v-37l-167 -11l-8 98h-3q-26 -49 -68 -78.5t-116 -29.5q-37 0 -68.5 10.5t-54.5 29.5t-36 46t-13 60q0 48 26 80.5t72.5 54t110 35t138.5 22.5v37zM201 739q3 -47 27 -67t59 -20
q36 0 60.5 20t27.5 67h69q-6 -66 -44.5 -105t-113.5 -39q-72 0 -110 39t-44 105h69v0z" />
    <glyph glyph-name="amacron" unicode="&#x101;" horiz-adv-x="607" 
d="M402 269q-48 -6 -89 -12.5t-70.5 -19.5t-46 -35.5t-16.5 -59.5q0 -38 24.5 -62.5t67.5 -24.5q25 0 48.5 9t41.5 30t29 56t11 88v31zM400 362q0 72 -26 100.5t-83 28.5q-55 0 -81.5 -33.5t-29.5 -87.5h-110q3 39 21.5 72t48.5 56t69.5 36t85.5 13q55 0 97 -10.5t69 -34.5
t40 -63t12 -96q-1 -23 -1.5 -55.5t-0.5 -67.5v-68t2 -69q2 -20 6.5 -26t24.5 -8l43 -4v-37l-167 -11l-8 98h-3q-26 -49 -68 -78.5t-116 -29.5q-37 0 -68.5 10.5t-54.5 29.5t-36 46t-13 60q0 48 26 80.5t72.5 54t110 35t138.5 22.5v37zM143 631v71h289v-71h-289z" />
    <glyph glyph-name="aogonek" unicode="&#x105;" horiz-adv-x="608" 
d="M56 155q0 48 22 78.5t59 49.5q36 17 82.5 26.5t96.5 15.5l84 10v34q0 67 -25 94.5t-82 27.5q-55 0 -81.5 -28t-29.5 -82h-110q3 39 21.5 70t48.5 52.5t69.5 32.5t85.5 11q112 0 165.5 -43t50.5 -146q-1 -34 -1.5 -68t-0.5 -69v-68.5t2 -69.5q2 -20 6.5 -26t24.5 -8l43 -4
v-37l-65 -5q-38 -19 -64 -44t-26 -51q0 -29 22.5 -40.5t48.5 -11.5q14 0 27.5 2t23.5 7v-44q-14 -6 -34 -9t-43 -3q-21 0 -43.5 4.5t-41 14.5t-31 27t-12.5 43q0 31 19 54.5t58 45.5l-14 90h-3q-23 -45 -63.5 -73t-101.5 -28q-39 0 -73.5 12.5t-60 35t-40 53.5t-14.5 67z
M402 279l-76 -8q-27 -3 -52.5 -10t-46 -20.5t-32.5 -34.5t-12 -52q0 -42 26 -70.5t75 -28.5q20 0 41 7t38 26t28 52t11 85v54z" />
    <glyph glyph-name="cacute" unicode="&#x107;" horiz-adv-x="597" 
d="M48 267q0 64 19.5 116t54 88.5t82.5 56t106 19.5q41 0 81 -11t73 -33.5t56 -57.5t31 -83h-113q-1 35 -13 59t-30 39t-39 21.5t-40 6.5q-70 0 -105.5 -60t-35.5 -161q0 -50 9 -90.5t26.5 -69.5t44 -45t62.5 -16q19 0 40 6t38.5 20.5t29.5 38.5t13 59h113q-8 -48 -31 -83
t-56 -57t-73 -32.5t-81 -10.5q-58 0 -106 20t-82.5 56.5t-54 88t-19.5 115.5zM342 603h-57l93 142h132z" />
    <glyph glyph-name="ccaron" unicode="&#x10d;" horiz-adv-x="597" 
d="M48 267q0 64 19.5 116t54 88.5t82.5 56t106 19.5q41 0 81 -11t73 -33.5t56 -57.5t31 -83h-113q-1 35 -13 59t-30 39t-39 21.5t-40 6.5q-70 0 -105.5 -60t-35.5 -161q0 -50 9 -90.5t26.5 -69.5t44 -45t62.5 -16q19 0 40 6t38.5 20.5t29.5 38.5t13 59h113q-8 -48 -31 -83
t-56 -57t-73 -32.5t-81 -10.5q-58 0 -106 20t-82.5 56.5t-54 88t-19.5 115.5zM135 745h60l114 -68l114 68h60l-141 -142h-68z" />
    <glyph glyph-name="ccircumflex" unicode="&#x109;" horiz-adv-x="597" 
d="M48 267q0 64 19.5 116t54 88.5t82.5 56t106 19.5q41 0 81 -11t73 -33.5t56 -57.5t31 -83h-113q-1 35 -13 59t-30 39t-39 21.5t-40 6.5q-70 0 -105.5 -60t-35.5 -161q0 -50 9 -90.5t26.5 -69.5t44 -45t62.5 -16q19 0 40 6t38.5 20.5t29.5 38.5t13 59h113q-8 -48 -31 -83
t-56 -57t-73 -32.5t-81 -10.5q-58 0 -106 20t-82.5 56.5t-54 88t-19.5 115.5zM487 603h-60l-113 67l-115 -67h-60l142 142h69z" />
    <glyph glyph-name="cdotaccent" unicode="&#x10b;" horiz-adv-x="597" 
d="M48 267q0 64 19.5 116t54 88.5t82.5 56t106 19.5q41 0 81 -11t73 -33.5t56 -57.5t31 -83h-113q-1 35 -13 59t-30 39t-39 21.5t-40 6.5q-70 0 -105.5 -60t-35.5 -161q0 -50 9 -90.5t26.5 -69.5t44 -45t62.5 -16q19 0 40 6t38.5 20.5t29.5 38.5t13 59h113q-8 -48 -31 -83
t-56 -57t-73 -32.5t-81 -10.5q-58 0 -106 20t-82.5 56.5t-54 88t-19.5 115.5zM253 745h117v-135h-117v135z" />
    <glyph glyph-name="dcaron" unicode="&#x10f;" horiz-adv-x="776" 
d="M638 745h118v-118l-65 -140h-42l39 140h-50v118zM447 267q0 63 -12.5 104t-32 65t-44 33.5t-47.5 9.5q-32 0 -57.5 -15.5t-43 -43.5t-26.5 -67t-9 -86t8 -86t24 -67t40 -43.5t56 -15.5q24 0 49.5 9.5t46.5 33.5t34.5 65t13.5 104zM556 745l-1 -137v-524q0 -20 5.5 -26
t25.5 -8l43 -4v-37l-186 -12l-2 93h-2q-12 -20 -28.5 -38.5t-38 -32.5t-48 -23t-57.5 -9q-48 0 -88 20t-69 56.5t-45.5 88t-16.5 115.5t18 116t50 88.5t75.5 56t94.5 19.5q54 0 92 -29t60 -68h2q0 13 -0.5 23t-1 19.5t-0.5 20.5v25v132q0 20 -6 25.5t-26 7.5l-56 5v37h206z
" />
    <glyph glyph-name="dcroat" unicode="&#x111;" horiz-adv-x="677" 
d="M556 745l-1 -108h92v-65h-92v-488q0 -20 5.5 -26t25.5 -8l43 -4v-37l-186 -12l-2 93h-2q-12 -20 -28.5 -38.5t-38 -32.5t-48 -23t-57.5 -9q-48 0 -88 20t-69 56.5t-45.5 88t-16.5 115.5t18 116t50 88.5t75.5 56t94.5 19.5q54 0 92 -29t60 -68h2q0 13 -0.5 23t-1 19.5
t-0.5 20.5v25v34h-110v65h110v33q0 20 -6 25.5t-26 7.5l-56 5v37h206zM447 267q0 63 -12.5 104t-32 65t-44 33.5t-47.5 9.5q-32 0 -57.5 -15.5t-43 -43.5t-26.5 -67t-9 -86t8 -86t24 -67t40 -43.5t56 -15.5q24 0 49.5 9.5t46.5 33.5t34.5 65t13.5 104z" />
    <glyph glyph-name="ebreve" unicode="&#x115;" horiz-adv-x="604" 
d="M319 46q50 0 84.5 29.5t39.5 86.5h114q-8 -47 -31.5 -80t-56.5 -54t-74 -31t-84 -10q-58 0 -106.5 19.5t-83.5 55.5t-54.5 87t-19.5 115q0 60 18 111.5t52 90t82.5 60t109.5 21.5q54 0 100 -17.5t79.5 -52.5t52.5 -88.5t18 -126.5h-390q0 -100 38.5 -158t111.5 -58z
M308 490q-57 0 -95.5 -40t-43.5 -128h267q1 45 -8.5 77t-27 52.5t-41.5 29.5t-51 9zM226 739q3 -47 27 -67t59 -20q36 0 60.5 20t27.5 67h69q-6 -66 -44.5 -105t-113.5 -39q-72 0 -110 39t-44 105h69v0z" />
    <glyph glyph-name="ecaron" unicode="&#x11b;" horiz-adv-x="604" 
d="M319 46q50 0 84.5 29.5t39.5 86.5h114q-8 -47 -31.5 -80t-56.5 -54t-74 -31t-84 -10q-58 0 -106.5 19.5t-83.5 55.5t-54.5 87t-19.5 115q0 60 18 111.5t52 90t82.5 60t109.5 21.5q54 0 100 -17.5t79.5 -52.5t52.5 -88.5t18 -126.5h-390q0 -100 38.5 -158t111.5 -58z
M308 490q-57 0 -95.5 -40t-43.5 -128h267q1 45 -8.5 77t-27 52.5t-41.5 29.5t-51 9zM137 745h60l114 -68l114 68h60l-141 -142h-68z" />
    <glyph glyph-name="emacron" unicode="&#x113;" horiz-adv-x="604" 
d="M319 46q50 0 84.5 29.5t39.5 86.5h114q-8 -47 -31.5 -80t-56.5 -54t-74 -31t-84 -10q-58 0 -106.5 19.5t-83.5 55.5t-54.5 87t-19.5 115q0 60 18 111.5t52 90t82.5 60t109.5 21.5q54 0 100 -17.5t79.5 -52.5t52.5 -88.5t18 -126.5h-390q0 -100 38.5 -158t111.5 -58z
M308 490q-57 0 -95.5 -40t-43.5 -128h267q1 45 -8.5 77t-27 52.5t-41.5 29.5t-51 9zM171 631v71h289v-71h-289z" />
    <glyph glyph-name="eogonek" unicode="&#x119;" horiz-adv-x="604" 
d="M319 46q50 0 84.5 32.5t39.5 89.5h114q-12 -68 -55.5 -109.5t-99.5 -62.5q-42 -16 -68 -39t-26 -49q0 -29 22.5 -40.5t48.5 -11.5q14 0 27.5 2t23.5 7v-44q-13 -6 -33 -9t-43 -3q-21 0 -44 4.5t-41.5 14.5t-31 27t-12.5 43q0 53 61 90q-53 4 -97 25.5t-75.5 57.5t-49 86
t-17.5 110t18 111t52 88.5t82.5 59t109.5 21.5q54 0 100 -17.5t79.5 -52.5t52.5 -88.5t18 -126.5h-390q0 -49 10 -88.5t29 -68t47 -44t64 -15.5zM308 490q-28 0 -52.5 -9.5t-43 -30t-30 -52t-13.5 -76.5h267q1 45 -8.5 77t-27 52.5t-41.5 29.5t-51 9z" />
    <glyph glyph-name="edotaccent" unicode="&#x117;" horiz-adv-x="604" 
d="M319 46q50 0 84.5 29.5t39.5 86.5h114q-8 -47 -31.5 -80t-56.5 -54t-74 -31t-84 -10q-58 0 -106.5 19.5t-83.5 55.5t-54.5 87t-19.5 115q0 60 18 111.5t52 90t82.5 60t109.5 21.5q54 0 100 -17.5t79.5 -52.5t52.5 -88.5t18 -126.5h-390q0 -100 38.5 -158t111.5 -58z
M308 490q-57 0 -95.5 -40t-43.5 -128h267q1 45 -8.5 77t-27 52.5t-41.5 29.5t-51 9zM257 745h117v-135h-117v135z" />
    <glyph glyph-name="gbreve" unicode="&#x11f;" horiz-adv-x="608" 
d="M441 485q22 -23 34.5 -53.5t12.5 -69.5q0 -46 -17.5 -80.5t-47 -57.5t-68.5 -34.5t-82 -11.5q-35 0 -64 7q-14 -6 -22 -15.5t-8 -20.5q0 -21 17.5 -28.5t49.5 -10.5l143 -10q51 -3 84.5 -12.5t53.5 -24.5t28 -34.5t8 -43.5q0 -33 -20 -65t-57 -57.5t-90.5 -41
t-119.5 -15.5q-64 0 -109.5 10t-74.5 27.5t-42.5 40t-13.5 46.5q0 19 10 35.5t27.5 29t40 20.5t47.5 11q-44 11 -62.5 33.5t-18.5 51.5q0 15 8.5 28t22.5 23.5t32.5 18t38.5 11.5q-54 19 -89 61.5t-35 108.5q0 46 17.5 80.5t47 58t68.5 35t82 11.5q54 0 99 -18l212 9v-64z
M273 226q47 0 73 33.5t26 102.5q0 70 -26 103.5t-73 33.5t-73 -33.5t-26 -103.5q0 -69 26 -102.5t73 -33.5zM204 20q-4 0 -7.5 0.5t-7.5 0.5q-20 -9 -34.5 -29t-14.5 -43q0 -39 35.5 -64.5t107.5 -25.5q36 0 67 7t53.5 19t35.5 29t13 37q0 30 -23 43.5t-77 16.5zM202 739
q3 -47 27 -67t59 -20q36 0 60.5 20t27.5 67h69q-6 -66 -44.5 -105t-113.5 -39q-72 0 -110 39t-44 105h69v0z" />
    <glyph glyph-name="gcircumflex" unicode="&#x11d;" horiz-adv-x="608" 
d="M441 485q22 -23 34.5 -53.5t12.5 -69.5q0 -46 -17.5 -80.5t-47 -57.5t-68.5 -34.5t-82 -11.5q-35 0 -64 7q-14 -6 -22 -15.5t-8 -20.5q0 -21 17.5 -28.5t49.5 -10.5l143 -10q51 -3 84.5 -12.5t53.5 -24.5t28 -34.5t8 -43.5q0 -33 -20 -65t-57 -57.5t-90.5 -41
t-119.5 -15.5q-64 0 -109.5 10t-74.5 27.5t-42.5 40t-13.5 46.5q0 19 10 35.5t27.5 29t40 20.5t47.5 11q-44 11 -62.5 33.5t-18.5 51.5q0 15 8.5 28t22.5 23.5t32.5 18t38.5 11.5q-54 19 -89 61.5t-35 108.5q0 46 17.5 80.5t47 58t68.5 35t82 11.5q54 0 99 -18l212 9v-64z
M273 226q47 0 73 33.5t26 102.5q0 70 -26 103.5t-73 33.5t-73 -33.5t-26 -103.5q0 -69 26 -102.5t73 -33.5zM204 20q-4 0 -7.5 0.5t-7.5 0.5q-20 -9 -34.5 -29t-14.5 -43q0 -39 35.5 -64.5t107.5 -25.5q36 0 67 7t53.5 19t35.5 29t13 37q0 30 -23 43.5t-77 16.5zM455 603
h-60l-113 67l-115 -67h-60l142 142h69z" />
    <glyph glyph-name="gcommaaccent" unicode="&#x123;" horiz-adv-x="608" 
d="M333 590h-107v99l45 93h66l-39 -100h35v-92zM441 485q22 -23 34.5 -53.5t12.5 -69.5q0 -46 -17.5 -80.5t-47 -57.5t-68.5 -34.5t-82 -11.5q-35 0 -64 7q-14 -6 -22 -15.5t-8 -20.5q0 -21 17.5 -28.5t49.5 -10.5l143 -10q51 -3 84.5 -12.5t53.5 -24.5t28 -34.5t8 -43.5
q0 -33 -20 -65t-57 -57.5t-90.5 -41t-119.5 -15.5q-64 0 -109.5 10t-74.5 27.5t-42.5 40t-13.5 46.5q0 19 10 35.5t27.5 29t40 20.5t47.5 11q-44 11 -62.5 33.5t-18.5 51.5q0 15 8.5 28t22.5 23.5t32.5 18t38.5 11.5q-54 19 -89 61.5t-35 108.5q0 46 17.5 80.5t47 58
t68.5 35t82 11.5q54 0 99 -18l212 9v-64zM273 226q47 0 73 33.5t26 102.5q0 70 -26 103.5t-73 33.5t-73 -33.5t-26 -103.5q0 -69 26 -102.5t73 -33.5zM204 20q-4 0 -7.5 0.5t-7.5 0.5q-20 -9 -34.5 -29t-14.5 -43q0 -39 35.5 -64.5t107.5 -25.5q36 0 67 7t53.5 19t35.5 29
t13 37q0 30 -23 43.5t-77 16.5z" />
    <glyph glyph-name="gdotaccent" unicode="&#x121;" horiz-adv-x="608" 
d="M441 485q22 -23 34.5 -53.5t12.5 -69.5q0 -46 -17.5 -80.5t-47 -57.5t-68.5 -34.5t-82 -11.5q-35 0 -64 7q-14 -6 -22 -15.5t-8 -20.5q0 -21 17.5 -28.5t49.5 -10.5l143 -10q51 -3 84.5 -12.5t53.5 -24.5t28 -34.5t8 -43.5q0 -33 -20 -65t-57 -57.5t-90.5 -41
t-119.5 -15.5q-64 0 -109.5 10t-74.5 27.5t-42.5 40t-13.5 46.5q0 19 10 35.5t27.5 29t40 20.5t47.5 11q-44 11 -62.5 33.5t-18.5 51.5q0 15 8.5 28t22.5 23.5t32.5 18t38.5 11.5q-54 19 -89 61.5t-35 108.5q0 46 17.5 80.5t47 58t68.5 35t82 11.5q54 0 99 -18l212 9v-64z
M273 226q47 0 73 33.5t26 102.5q0 70 -26 103.5t-73 33.5t-73 -33.5t-26 -103.5q0 -69 26 -102.5t73 -33.5zM204 20q-4 0 -7.5 0.5t-7.5 0.5q-20 -9 -34.5 -29t-14.5 -43q0 -39 35.5 -64.5t107.5 -25.5q36 0 67 7t53.5 19t35.5 29t13 37q0 30 -23 43.5t-77 16.5zM224 745
h117v-135h-117v135z" />
    <glyph glyph-name="hbar" unicode="&#x127;" horiz-adv-x="649" 
d="M570 75q0 -20 5.5 -26t25.5 -8l43 -4v-37h-265v37l42 4q20 2 26 8t6 26v240q0 86 -21.5 123t-72.5 37q-28 0 -49.5 -11.5t-36.5 -31.5t-23 -47.5t-8 -60.5v-249q0 -20 6 -26t26 -8l42 -4v-37h-265v37l43 4q20 2 25.5 8t5.5 26v497h-89v65h89v33q0 20 -5.5 25.5t-25.5 7.5
l-43 5v37h192l-1 -108h114v-65h-114v-23l-1 -101h1q23 44 65.5 71.5t101.5 27.5q48 0 79.5 -16t49.5 -43t25 -61.5t7 -71.5v-280z" />
    <glyph glyph-name="hcircumflex" unicode="&#x125;" horiz-adv-x="649" 
d="M553 75q0 -20 5.5 -26t25.5 -8l43 -4v-37h-265v37l42 4q20 2 26 8t6 26v240q0 86 -21.5 123t-72.5 37q-28 0 -49.5 -11.5t-36.5 -31.5t-23 -47.5t-8 -60.5v-249q0 -20 6 -26t26 -8l42 -4v-37h-265v37l43 4q20 2 25.5 8t5.5 26v595q0 20 -5.5 25.5t-25.5 7.5l-43 5v37h192
l-1 -135v-61l-1 -101h1q23 44 65.5 71.5t101.5 27.5q48 0 79.5 -16t49.5 -43t25 -61.5t7 -71.5v-280zM348 773h-78l-104 58l-103 -58h-78l128 117h109z" />
    <glyph glyph-name="dotlessi" unicode="&#x131;" horiz-adv-x="348" 
d="M241 405v-330q0 -20 6 -26t26 -8l42 -4v-37h-265v37l43 4q20 2 25.5 8t5.5 26v389q0 19 -5.5 24.5t-25.5 8.5l-43 4v37h192z" />
    <glyph glyph-name="ibreve" unicode="&#x12d;" horiz-adv-x="348" 
d="M241 405v-330q0 -20 6 -26t26 -8l42 -4v-37h-265v37l43 4q20 2 25.5 8t5.5 26v389q0 19 -5.5 24.5t-25.5 8.5l-43 4v37h192zM93 739q3 -47 27 -67t59 -20q36 0 60.5 20t27.5 67h69q-6 -66 -44.5 -105t-113.5 -39q-72 0 -110 39t-44 105h69v0z" />
    <glyph glyph-name="imacron" unicode="&#x12b;" horiz-adv-x="348" 
d="M241 405v-330q0 -20 6 -26t26 -8l42 -4v-37h-265v37l43 4q20 2 25.5 8t5.5 26v389q0 19 -5.5 24.5t-25.5 8.5l-43 4v37h192zM38 631v71h289v-71h-289z" />
    <glyph glyph-name="iogonek" unicode="&#x12f;" horiz-adv-x="348" 
d="M242 0q-40 -19 -67 -42.5t-27 -49.5q0 -15 6 -25t16 -16t23 -8.5t26 -2.5q31 0 51 9v-44q-13 -6 -33.5 -9t-43.5 -3q-21 0 -43.5 4.5t-41.5 14.5t-31 27t-12 43q0 16 8.5 31t23.5 28.5t34.5 24t41.5 18.5h69zM241 405v-330q0 -20 6 -26t26 -8l42 -4v-37h-265v37l43 4
q20 2 25.5 8t5.5 26v389q0 19 -5.5 24.5t-25.5 8.5l-43 4v37h192zM124 745h117v-135h-117v135z" />
    <glyph glyph-name="itilde" unicode="&#x129;" horiz-adv-x="348" 
d="M241 405v-330q0 -20 6 -26t26 -8l42 -4v-37h-265v37l43 4q20 2 25.5 8t5.5 26v389q0 19 -5.5 24.5t-25.5 8.5l-43 4v37h192zM237 679q22 0 32.5 12.5t13.5 34.5h62q-10 -64 -36.5 -91.5t-67.5 -27.5q-22 0 -40.5 7.5t-35 16.5t-31 16.5t-27.5 7.5q-21 0 -31 -12.5
t-15 -35.5h-60q4 34 13.5 57t24 36.5t31.5 19.5t36 6q21 0 39 -7.5t34 -16t30 -16t28 -7.5z" />
    <glyph glyph-name="uni1ECB" unicode="&#x1ecb;" horiz-adv-x="348" 
d="M124 -54h117v-135h-117v135zM241 405v-330q0 -20 6 -26t26 -8l42 -4v-37h-265v37l43 4q20 2 25.5 8t5.5 26v389q0 19 -5.5 24.5t-25.5 8.5l-43 4v37h192zM124 745h117v-135h-117v135z" />
    <glyph glyph-name="dotlessj" unicode="&#x237;" horiz-adv-x="360" 
d="M133 464q0 19 -5.5 24.5t-25.5 8.5l-43 4v37h192l-1 -133v-392q0 -69 -8 -109t-27.5 -61t-51.5 -26.5t-80 -5.5h-71v74h70q17 0 27 3t15.5 15t7 36t1.5 67v458z" />
    <glyph glyph-name="jcircumflex" unicode="&#x135;" horiz-adv-x="360" 
d="M362 603h-60l-113 67l-115 -67h-60l142 142h69zM133 464q0 19 -5.5 24.5t-25.5 8.5l-43 4v37h192l-1 -133v-392q0 -69 -8 -109t-27.5 -61t-51.5 -26.5t-80 -5.5h-71v74h70q17 0 27 3t15.5 15t7 36t1.5 67v458z" />
    <glyph glyph-name="kcommaaccent" unicode="&#x137;" horiz-adv-x="618" 
d="M228 745l-1 -137v-345l193 195q15 15 10 25.5t-30 13.5l-51 4v37h256v-37l-49 -6q-8 -1 -15 -3t-15 -7.5t-18 -14t-23 -22.5l-114 -111l155 -253q14 -21 28 -31.5t40 -13.5l24 -2v-37h-179l-150 256l-62 -61v-120q0 -20 6 -26t26 -8l42 -4v-37h-265v37l43 4q20 2 25.5 8
t5.5 26v595q0 20 -5.5 25.5t-25.5 7.5l-43 5v37h192zM268 -37h109v-98l-45 -93h-67l40 99h-37v92z" />
    <glyph glyph-name="lacute" unicode="&#x13a;" horiz-adv-x="333" 
d="M228 745l-1 -137v-533q0 -20 6 -26t26 -8l42 -4v-37h-265v37l43 4q20 2 25.5 8t5.5 26v595q0 20 -5.5 25.5t-25.5 7.5l-43 5v37h192zM181 773h-72l103 117h145z" />
    <glyph glyph-name="lcaron" unicode="&#x13e;" horiz-adv-x="448" 
d="M310 745h118v-118l-65 -140h-42l39 140h-50v118zM228 745l-1 -137v-533q0 -20 6 -26t26 -8l42 -4v-37h-265v37l43 4q20 2 25.5 8t5.5 26v595q0 20 -5.5 25.5t-25.5 7.5l-43 5v37h192z" />
    <glyph glyph-name="lcommaaccent" unicode="&#x13c;" horiz-adv-x="333" 
d="M228 745l-1 -137v-533q0 -20 6 -26t26 -8l42 -4v-37h-265v37l43 4q20 2 25.5 8t5.5 26v595q0 20 -5.5 25.5t-25.5 7.5l-43 5v37h192zM113 -37h109v-98l-45 -93h-67l40 99h-37v92z" />
    <glyph glyph-name="ldot" unicode="&#x140;" horiz-adv-x="430" 
d="M228 745l-1 -137v-533q0 -20 6 -26t26 -8l42 -4v-37h-265v37l43 4q20 2 25.5 8t5.5 26v595q0 20 -5.5 25.5t-25.5 7.5l-43 5v37h192zM301 485h117v-135h-117v135z" />
    <glyph glyph-name="lslash" unicode="&#x142;" horiz-adv-x="364" 
d="M240 745l-1 -137v-184l98 31l15 -49l-113 -36v-295q0 -20 6 -26t26 -8l42 -4v-37h-265v37l43 4q20 2 25.5 8t5.5 26v259l-84 -26l-14 49l98 30v283q0 20 -5.5 25.5t-25.5 7.5l-43 5v37h192z" />
    <glyph glyph-name="eng" unicode="&#x14b;" horiz-adv-x="590" 
d="M569 12q0 -69 -8.5 -109t-28 -60.5t-51.5 -26.5t-79 -6h-71v74h69q17 0 27.5 3t16 15t7 36t1.5 67v307q0 86 -21.5 123t-72.5 37q-28 0 -49.5 -11.5t-36.5 -31.5t-23 -47.5t-8 -60.5v-246q0 -20 6 -26t26 -8l42 -4v-37h-265v37l43 4q20 2 25.5 8t5.5 26v386
q0 19 -5.5 24.5t-25.5 8.5l-43 4v37h190v-90h1q23 44 65.5 71.5t101.5 27.5q48 0 79.5 -16t49.5 -43t25 -61.5t7 -71.5v-340z" />
    <glyph glyph-name="nacute" unicode="&#x144;" horiz-adv-x="664" 
d="M569 75q0 -20 5.5 -26t25.5 -8l43 -4v-37h-265v37l42 4q20 2 26 8t6 26v240q0 86 -21.5 123t-72.5 37q-28 0 -49.5 -11.5t-36.5 -31.5t-23 -47.5t-8 -60.5v-249q0 -20 6 -26t26 -8l42 -4v-37h-265v37l43 4q20 2 25.5 8t5.5 26v389q0 19 -5.5 24.5t-25.5 8.5l-43 4v37h190
v-90h1q23 44 65.5 71.5t101.5 27.5q48 0 79.5 -16t49.5 -43t25 -61.5t7 -71.5v-280zM376 603h-57l93 142h132z" />
    <glyph glyph-name="ncaron" unicode="&#x148;" horiz-adv-x="664" 
d="M569 75q0 -20 5.5 -26t25.5 -8l43 -4v-37h-265v37l42 4q20 2 26 8t6 26v240q0 86 -21.5 123t-72.5 37q-28 0 -49.5 -11.5t-36.5 -31.5t-23 -47.5t-8 -60.5v-249q0 -20 6 -26t26 -8l42 -4v-37h-265v37l43 4q20 2 25.5 8t5.5 26v389q0 19 -5.5 24.5t-25.5 8.5l-43 4v37h190
v-90h1q23 44 65.5 71.5t101.5 27.5q48 0 79.5 -16t49.5 -43t25 -61.5t7 -71.5v-280zM170 745h60l114 -68l114 68h60l-141 -142h-68z" />
    <glyph glyph-name="ncommaaccent" unicode="&#x146;" horiz-adv-x="664" 
d="M569 75q0 -20 5.5 -26t25.5 -8l43 -4v-37h-265v37l42 4q20 2 26 8t6 26v240q0 86 -21.5 123t-72.5 37q-28 0 -49.5 -11.5t-36.5 -31.5t-23 -47.5t-8 -60.5v-249q0 -20 6 -26t26 -8l42 -4v-37h-265v37l43 4q20 2 25.5 8t5.5 26v389q0 19 -5.5 24.5t-25.5 8.5l-43 4v37h190
v-90h1q23 44 65.5 71.5t101.5 27.5q48 0 79.5 -16t49.5 -43t25 -61.5t7 -71.5v-280zM291 -37h109v-98l-45 -93h-67l40 99h-37v92z" />
    <glyph glyph-name="oe" unicode="&#x153;" horiz-adv-x="1005" 
d="M718 46q51 0 85 32.5t40 89.5h113q-8 -47 -31 -81t-56 -56t-74 -33t-84 -11q-65 0 -115.5 24t-84.5 69q-33 -45 -83.5 -69t-116.5 -24q-58 0 -106.5 19.5t-83 56.5t-54 88.5t-19.5 116.5q0 64 19.5 115t54.5 87t83.5 55t106.5 19q66 0 116 -24t83 -69q32 44 81.5 68.5
t116.5 24.5q54 0 100 -17t79.5 -52t52.5 -88.5t18 -126.5h-390q1 -98 39 -156t110 -58zM452 266q0 60 -10.5 101.5t-29.5 68t-44.5 38t-55.5 11.5q-29 0 -54 -11.5t-43.5 -38t-29 -68t-10.5 -101.5t10.5 -101.5t29 -68t43.5 -38.5t54 -12q30 0 55.5 12t44 38.5t29.5 68
t11 101.5zM835 320q1 45 -8 77t-26.5 52t-41.5 29t-52 9t-52.5 -9.5t-43 -29.5t-30 -51.5t-12.5 -76.5h266z" />
    <glyph glyph-name="obreve" unicode="&#x14f;" horiz-adv-x="627" 
d="M452 267q0 60 -10.5 102t-29.5 68.5t-44.5 38.5t-55.5 12q-29 0 -54 -12t-43.5 -38.5t-29 -68.5t-10.5 -102t10.5 -102t29 -68.5t43.5 -38.5t54 -12q30 0 55.5 12t44 38.5t29.5 68.5t11 102zM579 267q0 -64 -20 -116t-55.5 -88.5t-85 -56t-107.5 -19.5t-106.5 19.5
t-83 56t-54 88t-19.5 116.5q0 64 19.5 116t54.5 88.5t83.5 56t106.5 19.5t107.5 -19.5t84.5 -56t55 -88.5t20 -116zM232 739q3 -47 27 -67t59 -20q36 0 60.5 20t27.5 67h69q-6 -66 -44.5 -105t-113.5 -39q-72 0 -110 39t-44 105h69v0z" />
    <glyph glyph-name="ohungarumlaut" unicode="&#x151;" horiz-adv-x="627" 
d="M452 267q0 60 -10.5 102t-29.5 68.5t-44.5 38.5t-55.5 12q-29 0 -54 -12t-43.5 -38.5t-29 -68.5t-10.5 -102t10.5 -102t29 -68.5t43.5 -38.5t54 -12q30 0 55.5 12t44 38.5t29.5 68.5t11 102zM579 267q0 -64 -20 -116t-55.5 -88.5t-85 -56t-107.5 -19.5t-106.5 19.5
t-83 56t-54 88t-19.5 116.5q0 64 19.5 116t54.5 88.5t83.5 56t106.5 19.5t107.5 -19.5t84.5 -56t55 -88.5t20 -116zM259 603h-57l94 142h131zM426 603h-57l94 142h131z" />
    <glyph glyph-name="omacron" unicode="&#x14d;" horiz-adv-x="627" 
d="M452 267q0 60 -10.5 102t-29.5 68.5t-44.5 38.5t-55.5 12q-29 0 -54 -12t-43.5 -38.5t-29 -68.5t-10.5 -102t10.5 -102t29 -68.5t43.5 -38.5t54 -12q30 0 55.5 12t44 38.5t29.5 68.5t11 102zM579 267q0 -64 -20 -116t-55.5 -88.5t-85 -56t-107.5 -19.5t-106.5 19.5
t-83 56t-54 88t-19.5 116.5q0 64 19.5 116t54.5 88.5t83.5 56t106.5 19.5t107.5 -19.5t84.5 -56t55 -88.5t20 -116zM177 631v71h289v-71h-289z" />
    <glyph glyph-name="uni1ECD" unicode="&#x1ecd;" horiz-adv-x="627" 
d="M251 -54h117v-135h-117v135zM452 267q0 60 -10.5 102t-29.5 68.5t-44.5 38.5t-55.5 12q-29 0 -54 -12t-43.5 -38.5t-29 -68.5t-10.5 -102t10.5 -102t29 -68.5t43.5 -38.5t54 -12q30 0 55.5 12t44 38.5t29.5 68.5t11 102zM579 267q0 -64 -20 -116t-55.5 -88.5t-85 -56
t-107.5 -19.5t-106.5 19.5t-83 56t-54 88t-19.5 116.5q0 64 19.5 116t54.5 88.5t83.5 56t106.5 19.5t107.5 -19.5t84.5 -56t55 -88.5t20 -116z" />
    <glyph glyph-name="racute" unicode="&#x155;" horiz-adv-x="468" 
d="M240 418h2q22 58 67.5 91t105.5 33h47v-110h-95q-29 0 -52.5 -5.5t-40 -20t-25 -40.5t-8.5 -67v-223q0 -20 6 -26t26 -7l75 -5v-38h-298v37l43 4q20 2 25.5 8t5.5 26v389q0 19 -5.5 24.5t-25.5 8.5l-43 4v37h190v-120zM296 603h-57l93 142h132z" />
    <glyph glyph-name="rcaron" unicode="&#x159;" horiz-adv-x="468" 
d="M240 418h2q22 58 67.5 91t105.5 33h47v-110h-95q-29 0 -52.5 -5.5t-40 -20t-25 -40.5t-8.5 -67v-223q0 -20 6 -26t26 -7l75 -5v-38h-298v37l43 4q20 2 25.5 8t5.5 26v389q0 19 -5.5 24.5t-25.5 8.5l-43 4v37h190v-120zM119 745h60l114 -68l114 68h60l-141 -142h-68z" />
    <glyph glyph-name="rcommaaccent" unicode="&#x157;" horiz-adv-x="468" 
d="M240 418h2q22 58 67.5 91t105.5 33h47v-110h-95q-29 0 -52.5 -5.5t-40 -20t-25 -40.5t-8.5 -67v-223q0 -20 6 -26t26 -7l75 -5v-38h-298v37l43 4q20 2 25.5 8t5.5 26v389q0 19 -5.5 24.5t-25.5 8.5l-43 4v37h190v-120zM131 -37h109v-98l-45 -93h-67l40 99h-37v92z" />
    <glyph glyph-name="sacute" unicode="&#x15b;" horiz-adv-x="552" 
d="M156 169q6 -52 38 -87.5t96 -35.5q58 0 90 23t32 61q0 23 -11.5 39t-29.5 27t-41 17.5t-47 11.5l-62 12q-30 6 -59 17.5t-52 30.5t-37 46t-14 64q0 40 19 69t49.5 47.5t69 27t77.5 8.5q42 0 80 -10.5t68 -31t50 -50.5t28 -70h-109q-1 22 -11 41t-27 32.5t-39.5 21.5
t-48.5 8q-15 0 -34 -3t-36.5 -10.5t-29.5 -21t-12 -34.5q0 -36 27 -56t78 -30l62 -13q37 -8 71 -19t60.5 -30t42 -47.5t15.5 -70.5q0 -45 -18.5 -76.5t-50 -51.5t-73 -29t-87.5 -9q-47 0 -88 12t-72 35t-50.5 57t-22.5 78h109v0zM295 603h-57l93 142h132z" />
    <glyph glyph-name="scaron" unicode="&#x161;" horiz-adv-x="552" 
d="M156 169q6 -52 38 -87.5t96 -35.5q58 0 90 23t32 61q0 23 -11.5 39t-29.5 27t-41 17.5t-47 11.5l-62 12q-30 6 -59 17.5t-52 30.5t-37 46t-14 64q0 40 19 69t49.5 47.5t69 27t77.5 8.5q42 0 80 -10.5t68 -31t50 -50.5t28 -70h-109q-1 22 -11 41t-27 32.5t-39.5 21.5
t-48.5 8q-15 0 -34 -3t-36.5 -10.5t-29.5 -21t-12 -34.5q0 -36 27 -56t78 -30l62 -13q37 -8 71 -19t60.5 -30t42 -47.5t15.5 -70.5q0 -45 -18.5 -76.5t-50 -51.5t-73 -29t-87.5 -9q-47 0 -88 12t-72 35t-50.5 57t-22.5 78h109v0zM107 745h60l114 -68l114 68h60l-141 -142
h-68z" />
    <glyph glyph-name="scedilla" unicode="&#x15f;" horiz-adv-x="552" 
d="M156 169q6 -52 38 -87.5t96 -35.5q58 0 90 23t32 61q0 23 -11.5 39t-29.5 27t-41 17.5t-47 11.5l-62 12q-30 6 -59 17.5t-52 30.5t-37 46t-14 64q0 40 19 69t49.5 47.5t69 27t77.5 8.5q42 0 80 -10.5t68 -31t50 -50.5t28 -70h-109q-1 22 -11 41t-27 32.5t-39.5 21.5
t-48.5 8q-15 0 -34 -3t-36.5 -10.5t-29.5 -21t-12 -34.5q0 -36 27 -56t78 -30l62 -13q37 -8 71 -19t60.5 -30t42 -47.5t15.5 -70.5q0 -45 -18.5 -76.5t-50 -51.5t-73 -29t-87.5 -9q-47 0 -88 12t-72 35t-50.5 57t-22.5 78h109v0zM253 3h48l-37 -53q55 10 87 -13t32 -64
q0 -22 -11 -39t-28 -28.5t-38.5 -17.5t-43.5 -6q-23 0 -49 3.5t-55 16.5l17 41q15 -7 32 -11.5t34 -4.5q10 0 22 2t22.5 7t17 13t6.5 19q0 20 -16.5 29t-35.5 9q-10 0 -20.5 -2.5t-19.5 -7.5l-21 19z" />
    <glyph glyph-name="scircumflex" unicode="&#x15d;" horiz-adv-x="552" 
d="M156 169q6 -52 38 -87.5t96 -35.5q58 0 90 23t32 61q0 23 -11.5 39t-29.5 27t-41 17.5t-47 11.5l-62 12q-30 6 -59 17.5t-52 30.5t-37 46t-14 64q0 40 19 69t49.5 47.5t69 27t77.5 8.5q42 0 80 -10.5t68 -31t50 -50.5t28 -70h-109q-1 22 -11 41t-27 32.5t-39.5 21.5
t-48.5 8q-15 0 -34 -3t-36.5 -10.5t-29.5 -21t-12 -34.5q0 -36 27 -56t78 -30l62 -13q37 -8 71 -19t60.5 -30t42 -47.5t15.5 -70.5q0 -45 -18.5 -76.5t-50 -51.5t-73 -29t-87.5 -9q-47 0 -88 12t-72 35t-50.5 57t-22.5 78h109v0zM456 603h-60l-113 67l-115 -67h-60l142 142
h69z" />
    <glyph glyph-name="scommaaccent" unicode="&#x219;" horiz-adv-x="552" 
d="M156 169q6 -52 38 -87.5t96 -35.5q58 0 90 23t32 61q0 23 -11.5 39t-29.5 27t-41 17.5t-47 11.5l-62 12q-30 6 -59 17.5t-52 30.5t-37 46t-14 64q0 40 19 69t49.5 47.5t69 27t77.5 8.5q42 0 80 -10.5t68 -31t50 -50.5t28 -70h-109q-1 22 -11 41t-27 32.5t-39.5 21.5
t-48.5 8q-15 0 -34 -3t-36.5 -10.5t-29.5 -21t-12 -34.5q0 -36 27 -56t78 -30l62 -13q37 -8 71 -19t60.5 -30t42 -47.5t15.5 -70.5q0 -45 -18.5 -76.5t-50 -51.5t-73 -29t-87.5 -9q-47 0 -88 12t-72 35t-50.5 57t-22.5 78h109v0zM224 -37h109v-98l-45 -93h-67l40 99h-37v92z
" />
    <glyph glyph-name="tbar" unicode="&#x167;" horiz-adv-x="412" 
d="M102 371v100h-94v64h94v174h117v-174h153v-64h-153v-100h153v-64h-153v-155q0 -25 3.5 -41t12 -25t23.5 -12.5t39 -3.5h74v-70h-92q-53 0 -87 5t-54 20t-28 42t-8 72v168h-94v64h94z" />
    <glyph glyph-name="tcaron" unicode="&#x165;" horiz-adv-x="528" 
d="M420 745h118v-118l-65 -140h-42l39 140h-50v118zM372 474h-153v-322q0 -25 3.5 -41t12 -25t23.5 -12.5t39 -3.5h74v-70h-92q-53 0 -87 5t-54 20t-28 42t-8 72v335h-94v64h94v171h117v-171h153v-64z" />
    <glyph glyph-name="uni0163" unicode="&#x163;" horiz-adv-x="412" 
d="M372 474h-153v-322q0 -25 3.5 -41t12 -25t23.5 -12.5t39 -3.5h74v-70h-92q-53 0 -87 5t-54 20t-28 42t-8 72v335h-94v64h94v171h117v-171h153v-64zM119 -37h109v-98l-45 -93h-67l40 99h-37v92z" />
    <glyph glyph-name="tcommaaccent" unicode="&#x21b;" horiz-adv-x="412" 
d="M372 474h-153v-322q0 -25 3.5 -41t12 -25t23.5 -12.5t39 -3.5h74v-70h-92q-53 0 -87 5t-54 20t-28 42t-8 72v335h-94v64h94v171h117v-171h153v-64zM119 -37h109v-98l-45 -93h-67l40 99h-37v92z" />
    <glyph glyph-name="ubreve" unicode="&#x16d;" horiz-adv-x="634" 
d="M408 85h-1q-23 -44 -63.5 -71t-100.5 -27q-48 0 -78.5 16t-48 43t-24 61.5t-6.5 71.5v285q0 19 -5.5 24.5t-25.5 8.5l-43 4v37h192l-1 -136v-184q0 -86 20 -122.5t71 -36.5q56 0 84.5 42.5t28.5 108.5v254q0 19 -5.5 24.5t-25.5 8.5l-43 4v37h192l-1 -136v-318
q0 -20 6 -26t26 -8l42 -4v-37l-186 -18zM188 739q3 -47 27 -67t59 -20q36 0 60.5 20t27.5 67h69q-6 -66 -44.5 -105t-113.5 -39q-72 0 -110 39t-44 105h69v0z" />
    <glyph glyph-name="uhungarumlaut" unicode="&#x171;" horiz-adv-x="634" 
d="M408 85h-1q-23 -44 -63.5 -71t-100.5 -27q-48 0 -78.5 16t-48 43t-24 61.5t-6.5 71.5v285q0 19 -5.5 24.5t-25.5 8.5l-43 4v37h192l-1 -136v-184q0 -86 20 -122.5t71 -36.5q56 0 84.5 42.5t28.5 108.5v254q0 19 -5.5 24.5t-25.5 8.5l-43 4v37h192l-1 -136v-318
q0 -20 6 -26t26 -8l42 -4v-37l-186 -18zM214 603h-57l94 142h131zM381 603h-57l94 142h131z" />
    <glyph glyph-name="umacron" unicode="&#x16b;" horiz-adv-x="634" 
d="M408 85h-1q-23 -44 -63.5 -71t-100.5 -27q-48 0 -78.5 16t-48 43t-24 61.5t-6.5 71.5v285q0 19 -5.5 24.5t-25.5 8.5l-43 4v37h192l-1 -136v-184q0 -86 20 -122.5t71 -36.5q56 0 84.5 42.5t28.5 108.5v254q0 19 -5.5 24.5t-25.5 8.5l-43 4v37h192l-1 -136v-318
q0 -20 6 -26t26 -8l42 -4v-37l-186 -18zM130 631v71h289v-71h-289z" />
    <glyph glyph-name="uogonek" unicode="&#x173;" horiz-adv-x="634" 
d="M408 85h-1q-23 -44 -63.5 -71t-100.5 -27q-48 0 -78.5 16t-48 43t-24 61.5t-6.5 71.5v285q0 19 -5.5 24.5t-25.5 8.5l-43 4v37h192l-1 -136v-184q0 -86 20 -122.5t71 -36.5q56 0 84.5 42.5t28.5 108.5v254q0 19 -5.5 24.5t-25.5 8.5l-43 4v37h192l-1 -136v-318
q0 -20 6 -26t26 -8l42 -4v-37l-86 -9q-32 -19 -53 -44t-21 -48q0 -15 6 -25t16 -16t23 -8.5t26 -2.5q14 0 27.5 2t23.5 7v-44q-13 -6 -33.5 -9t-43.5 -3q-21 0 -43.5 4.5t-41.5 14.5t-31 27t-12 43q0 24 17.5 49.5t46.5 44.5z" />
    <glyph glyph-name="uring" unicode="&#x16f;" horiz-adv-x="634" 
d="M408 85h-1q-23 -44 -63.5 -71t-100.5 -27q-48 0 -78.5 16t-48 43t-24 61.5t-6.5 71.5v285q0 19 -5.5 24.5t-25.5 8.5l-43 4v37h192l-1 -136v-184q0 -86 20 -122.5t71 -36.5q56 0 84.5 42.5t28.5 108.5v254q0 19 -5.5 24.5t-25.5 8.5l-43 4v37h192l-1 -136v-318
q0 -20 6 -26t26 -8l42 -4v-37l-186 -18zM281 764q19 0 36 -6.5t30 -18.5t20.5 -28t7.5 -35q0 -38 -27.5 -63.5t-66.5 -25.5q-40 0 -67 25.5t-27 63.5q0 19 7.5 35t20.5 28t30 18.5t36 6.5zM281 721q-17 0 -31 -13t-14 -32q0 -20 14 -32t31 -12t31 12t14 32q0 19 -14 32
t-31 13z" />
    <glyph glyph-name="utilde" unicode="&#x169;" horiz-adv-x="634" 
d="M408 85h-1q-23 -44 -63.5 -71t-100.5 -27q-48 0 -78.5 16t-48 43t-24 61.5t-6.5 71.5v285q0 19 -5.5 24.5t-25.5 8.5l-43 4v37h192l-1 -136v-184q0 -86 20 -122.5t71 -36.5q56 0 84.5 42.5t28.5 108.5v254q0 19 -5.5 24.5t-25.5 8.5l-43 4v37h192l-1 -136v-318
q0 -20 6 -26t26 -8l42 -4v-37l-186 -18zM341 679q22 0 32.5 12.5t13.5 34.5h62q-10 -64 -36.5 -91.5t-67.5 -27.5q-22 0 -40.5 7.5t-35 16.5t-31 16.5t-27.5 7.5q-21 0 -31 -12.5t-15 -35.5h-60q4 34 13.5 57t24 36.5t31.5 19.5t36 6q21 0 39 -7.5t34 -16t30 -16t28 -7.5z
" />
    <glyph glyph-name="uni1EE5" unicode="&#x1ee5;" horiz-adv-x="634" 
d="M249 -54h117v-135h-117v135zM408 85h-1q-23 -44 -63.5 -71t-100.5 -27q-48 0 -78.5 16t-48 43t-24 61.5t-6.5 71.5v285q0 19 -5.5 24.5t-25.5 8.5l-43 4v37h192l-1 -136v-184q0 -86 20 -122.5t71 -36.5q56 0 84.5 42.5t28.5 108.5v254q0 19 -5.5 24.5t-25.5 8.5l-43 4v37
h192l-1 -136v-318q0 -20 6 -26t26 -8l42 -4v-37l-186 -18z" />
    <glyph glyph-name="wacute" unicode="&#x1e83;" horiz-adv-x="792" 
d="M637 438q8 28 8 43t-20 17l-37 3v37h208v-37l-31 -2q-15 -1 -28 -12.5t-24 -46.5l-134 -442h-71l-118 387l-119 -387h-71l-140 468q-4 15 -10 23t-17 9l-37 3v37h248v-37l-38 -3q-18 -2 -22.5 -9t0.5 -24l75 -307l117 380h72l115 -381zM441 603h-57l93 142h132z" />
    <glyph glyph-name="wcircumflex" unicode="&#x175;" horiz-adv-x="792" 
d="M637 438q8 28 8 43t-20 17l-37 3v37h208v-37l-31 -2q-15 -1 -28 -12.5t-24 -46.5l-134 -442h-71l-118 387l-119 -387h-71l-140 468q-4 15 -10 23t-17 9l-37 3v37h248v-37l-38 -3q-18 -2 -22.5 -9t0.5 -24l75 -307l117 380h72l115 -381zM584 603h-60l-113 67l-115 -67h-60
l142 142h69z" />
    <glyph glyph-name="wdieresis" unicode="&#x1e85;" horiz-adv-x="792" 
d="M637 438q8 28 8 43t-20 17l-37 3v37h208v-37l-31 -2q-15 -1 -28 -12.5t-24 -46.5l-134 -442h-71l-118 387l-119 -387h-71l-140 468q-4 15 -10 23t-17 9l-37 3v37h248v-37l-38 -3q-18 -2 -22.5 -9t0.5 -24l75 -307l117 380h72l115 -381zM236 745h112v-135h-112v135z
M469 745h112v-135h-112v135z" />
    <glyph glyph-name="wgrave" unicode="&#x1e81;" horiz-adv-x="792" 
d="M637 438q8 28 8 43t-20 17l-37 3v37h208v-37l-31 -2q-15 -1 -28 -12.5t-24 -46.5l-134 -442h-71l-118 387l-119 -387h-71l-140 468q-4 15 -10 23t-17 9l-37 3v37h248v-37l-38 -3q-18 -2 -22.5 -9t0.5 -24l75 -307l117 380h72l115 -381zM213 745h131l94 -142h-57z" />
    <glyph glyph-name="ycircumflex" unicode="&#x177;" horiz-adv-x="563" 
d="M37 -189v71h80q20 0 34 4t26 17t23 36t24 62l5 13l-169 452q-5 17 -12.5 23.5t-28.5 9.5l-23 2v37h255v-37l-45 -3q-18 -2 -23 -9t1 -24l111 -333l113 306q10 27 11 41.5t-23 17.5l-45 4v37h216v-37l-32 -2q-18 -2 -27 -12.5t-20 -38.5l-179 -458q-21 -54 -38 -88.5
t-38 -54.5t-49 -28t-70 -8h-77zM474 603h-60l-113 67l-115 -67h-60l142 142h69z" />
    <glyph glyph-name="ygrave" unicode="&#x1ef3;" horiz-adv-x="563" 
d="M37 -189v71h80q20 0 34 4t26 17t23 36t24 62l5 13l-169 452q-5 17 -12.5 23.5t-28.5 9.5l-23 2v37h255v-37l-45 -3q-18 -2 -23 -9t1 -24l111 -333l113 306q10 27 11 41.5t-23 17.5l-45 4v37h216v-37l-32 -2q-18 -2 -27 -12.5t-20 -38.5l-179 -458q-21 -54 -38 -88.5
t-38 -54.5t-49 -28t-70 -8h-77zM106 745h131l94 -142h-57z" />
    <glyph glyph-name="uni0233" unicode="&#x233;" horiz-adv-x="563" 
d="M37 -189v71h80q20 0 34 4t26 17t23 36t24 62l5 13l-169 452q-5 17 -12.5 23.5t-28.5 9.5l-23 2v37h255v-37l-45 -3q-18 -2 -23 -9t1 -24l111 -333l113 306q10 27 11 41.5t-23 17.5l-45 4v37h216v-37l-32 -2q-18 -2 -27 -12.5t-20 -38.5l-179 -458q-21 -54 -38 -88.5
t-38 -54.5t-49 -28t-70 -8h-77zM155 631v71h289v-71h-289z" />
    <glyph glyph-name="zacute" unicode="&#x17a;" horiz-adv-x="555" 
d="M48 62l313 412h-285v64h426v-60l-314 -414h319v-64h-459v62zM318 603h-57l93 142h132z" />
    <glyph glyph-name="zcaron" unicode="&#x17e;" horiz-adv-x="555" 
d="M48 62l313 412h-285v64h426v-60l-314 -414h319v-64h-459v62zM119 745h60l114 -68l114 68h60l-141 -142h-68z" />
    <glyph glyph-name="zdotaccent" unicode="&#x17c;" horiz-adv-x="555" 
d="M48 62l313 412h-285v64h426v-60l-314 -414h319v-64h-459v62zM238 745h117v-135h-117v135z" />
    <glyph glyph-name="uni0259" unicode="&#x259;" horiz-adv-x="609" 
d="M289 486q-51 0 -85 -32.5t-40 -89.5h-113q8 46 31 80.5t56 56.5t74 33t84 11q58 0 106.5 -19.5t83.5 -56t55 -88t20 -115.5q0 -60 -18 -110.5t-52 -88t-83 -58.5t-110 -21q-54 0 -100 17t-80 52t-52.5 88.5t-17.5 126.5h390q-2 98 -39.5 156t-109.5 58zM300 45
q28 0 52 9.5t42.5 29.5t30 51.5t13.5 76.5h-266q-1 -45 8.5 -77t26.5 -52t41 -29t52 -9z" />
    <glyph glyph-name="ellipsis" unicode="&#x2026;" horiz-adv-x="774" 
d="M61 145h145v-145h-145v145zM315 145h145v-145h-145v145zM569 145h145v-145h-145v145z" />
    <glyph glyph-name="endash" unicode="&#x2013;" horiz-adv-x="500" 
d="M36 239v77h428v-77h-428z" />
    <glyph glyph-name="emdash" unicode="&#x2014;" horiz-adv-x="726" 
d="M36 239v77h654v-77h-654z" />
    <glyph glyph-name="guilsinglleft" unicode="&#x2039;" horiz-adv-x="296" 
d="M0 273l209 234h63l-141 -234l141 -235h-63z" />
    <glyph glyph-name="guilsinglright" unicode="&#x203a;" horiz-adv-x="296" 
d="M88 38h-64l141 235l-141 234h64l208 -234z" />
    <glyph glyph-name="quoteleft" unicode="&#x2018;" horiz-adv-x="300" 
d="M216 437h-132v132l73 156h47l-44 -156h56v-132z" />
    <glyph glyph-name="quoteright" unicode="&#x2019;" horiz-adv-x="300" 
d="M84 725h132v-132l-73 -156h-47l44 156h-56v132z" />
    <glyph glyph-name="quotedblleft" unicode="&#x201c;" horiz-adv-x="487" 
d="M216 437h-132v132l73 156h47l-44 -156h56v-132zM403 437h-132v132l73 156h47l-44 -156h56v-132z" />
    <glyph glyph-name="quotedblright" unicode="&#x201d;" horiz-adv-x="487" 
d="M84 725h132v-132l-73 -156h-47l44 156h-56v132zM271 725h132v-132l-73 -156h-47l44 156h-56v132z" />
    <glyph glyph-name="quotesinglbase" unicode="&#x201a;" horiz-adv-x="313" 
d="M84 145h145v-155l-85 -175h-47l48 185h-61v145z" />
    <glyph glyph-name="quotedblbase" unicode="&#x201e;" horiz-adv-x="525" 
d="M297 145h145v-155l-85 -175h-47l48 185h-61v145zM84 145h145v-155l-85 -175h-47l48 185h-61v145z" />
    <glyph glyph-name="bullet" unicode="&#x2022;" horiz-adv-x="462" 
d="M48 283q0 37 14 70t38.5 57.5t57 38.5t69.5 14q40 0 74 -14t59 -38.5t39.5 -57.5t14.5 -70q0 -39 -14.5 -73t-39.5 -59t-59 -39.5t-74 -14.5q-37 0 -69.5 14.5t-57 39.5t-38.5 59t-14 73z" />
    <glyph glyph-name="dagger" unicode="&#x2020;" horiz-adv-x="557" 
d="M238 0v421h-207v77h207v227h80v-227h208v-77h-208v-421h-80z" />
    <glyph glyph-name="daggerdbl" unicode="&#x2021;" horiz-adv-x="557" 
d="M526 276v-76h-208v-200h-80v200h-207v76h207v164h-207v76h207v209h80v-209h208v-76h-208v-164h208z" />
    <glyph glyph-name="perthousand" unicode="&#x2030;" horiz-adv-x="1374" 
d="M1054 197q0 -85 25 -129t68 -44t68 44t25 129t-25 129t-68 44t-68 -44t-25 -129zM970 197q0 52 14.5 91.5t39 65.5t56.5 39t67 13t67 -13t56.5 -39t39 -65.5t14.5 -91.5q0 -53 -14.5 -92.5t-39 -65.5t-56.5 -39t-67 -13t-67 13t-56.5 39t-39 65.5t-14.5 92.5zM547 197
q0 52 14.5 91.5t39 65.5t56.5 39t67 13t67 -13t56.5 -39t39 -65.5t14.5 -91.5q0 -53 -14.5 -92.5t-39 -65.5t-56.5 -39t-67 -13t-67 13t-56.5 39t-39 65.5t-14.5 92.5zM631 197q0 -85 25 -129t68 -44t68 44t25 129t-25 129t-68 44t-68 -44t-25 -129zM172 0l508 725h88
l-508 -725h-88zM50 533q0 52 14.5 91.5t39 65.5t56.5 39t67 13t67 -13t56.5 -39t39 -65.5t14.5 -91.5q0 -53 -14.5 -92.5t-39 -65.5t-56.5 -39t-67 -13t-67 13t-56.5 39t-39 65.5t-14.5 92.5zM134 533q0 -85 25 -128.5t68 -43.5t68 43.5t25 128.5t-25 129t-68 44t-68 -44
t-25 -129z" />
    <glyph glyph-name="uni2117" unicode="&#x2117;" horiz-adv-x="846" 
d="M48 361q0 83 29.5 152.5t80.5 119t119.5 77t146.5 27.5q77 0 145 -27.5t119 -77t80.5 -119t29.5 -152.5t-29.5 -152t-80.5 -118.5t-119 -76.5t-145 -27q-78 0 -146.5 27t-119.5 76.5t-80.5 118.5t-29.5 152zM117 361q0 -70 23.5 -127.5t65 -99t97.5 -64t121 -22.5
t121 22.5t97 64t64 99t23 127.5t-23 128t-64 99.5t-97 64t-121 22.5t-121 -22.5t-97.5 -64t-65 -99.5t-23.5 -128zM365 329v-153h-73v397h122q44 0 78.5 -4.5t58.5 -18t36.5 -37t12.5 -62.5q0 -25 -9.5 -47t-29.5 -38.5t-50.5 -26.5t-73.5 -10h-72zM527 450q0 37 -27 49
t-69 12h-66v-122h71q48 0 69.5 15t21.5 46z" />
    <glyph glyph-name="trademark" unicode="&#x2122;" horiz-adv-x="864" 
d="M142 662h-129v63h331v-63h-130v-342h-72v342zM569 320l-115 321v-321h-72v405h118l110 -317l106 317h117v-405h-72v321l-115 -321h-77z" />
    <glyph glyph-name="lozenge" unicode="&#x25ca;" horiz-adv-x="509" 
d="M95 348l161 -277l160 277l-160 278zM256 772l246 -424l-246 -424l-249 424z" />
    <glyph glyph-name="afii61289" unicode="&#x2113;" horiz-adv-x="409" 
d="M115 218l-82 -62l-33 48l115 88v260q0 93 30 139.5t104 46.5q62 0 93 -44t31 -112q0 -49 -14 -92t-38.5 -80.5t-58 -71t-71.5 -62.5l-13 -10v-125q0 -52 13.5 -75t53.5 -23q35 0 56.5 13t36.5 28l34 -43q-26 -24 -57 -39t-75 -15q-36 0 -60.5 9.5t-38.5 29t-20 48.5
t-6 67v77zM178 340l20 16q57 43 83.5 102.5t26.5 120.5q0 31 -6 51.5t-15 31.5t-21 15.5t-24 4.5q-35 0 -49.5 -29.5t-14.5 -101.5v-211z" />
    <glyph glyph-name="afii61352" unicode="&#x2116;" horiz-adv-x="1161" 
d="M715 0h-66l-436 563v-487q0 -15 5 -23t25 -10l50 -5v-38h-233v38l49 5q20 2 25.5 10t5.5 23v573q0 15 -5.5 24t-25.5 11l-49 4v37h183l399 -518v442q0 15 -5.5 23t-25.5 10l-49 5v38h233v-38l-49 -5q-20 -2 -25.5 -10t-5.5 -23v-649zM1038 593q0 66 -20 91.5t-50 25.5
q-29 0 -48.5 -25.5t-19.5 -91.5q0 -67 19.5 -92.5t48.5 -25.5t49.5 25.5t20.5 92.5zM1121 592q0 -36 -11.5 -64.5t-31.5 -48.5t-48.5 -30.5t-62.5 -10.5q-68 0 -109 42t-41 114t41.5 112t109.5 40q69 0 111 -41t42 -113zM821 326v61h298v-61h-298z" />
    <glyph glyph-name="apple" horiz-adv-x="462" 
d="M48 283q0 37 14 70t38.5 57.5t57 38.5t69.5 14q40 0 74 -14t59 -38.5t39.5 -57.5t14.5 -70q0 -39 -14.5 -73t-39.5 -59t-59 -39.5t-74 -14.5q-37 0 -69.5 14.5t-57 39.5t-38.5 59t-14 73z" />
    <glyph glyph-name="estimated" unicode="&#x212e;" horiz-adv-x="594" 
d="M549 150q-12 -34 -33.5 -64t-51.5 -52t-70 -34.5t-90 -12.5q-68 0 -119 22t-85.5 60t-52 89t-17.5 110q0 61 19 112.5t54.5 88.5t85 57.5t110.5 20.5q64 0 113 -22.5t82 -60.5t50.5 -88.5t18.5 -106.5h-416v-193q23 -24 68.5 -39.5t96.5 -15.5q72 0 121.5 34.5t74.5 94.5
h41zM147 301h298v159q-23 22 -60.5 37.5t-86.5 15.5q-48 0 -87 -13t-64 -39v-160z" />
    <glyph glyph-name="minus" unicode="&#x2212;" 
d="M620 312v-76h-534v76h534z" />
    <glyph glyph-name="lessequal" unicode="&#x2264;" 
d="M620 199v-84l-535 182v70l535 184v-84l-428 -135zM83 75h540v-75h-540v75z" />
    <glyph glyph-name="greaterequal" unicode="&#x2265;" 
d="M85 467v84l535 -184v-70l-535 -182v84l428 133zM82 0v75h540v-75h-540z" />
    <glyph glyph-name="notequal" unicode="&#x2260;" 
d="M106 419h285l83 144l65 -33l-64 -111h125v-75h-167l-75 -131h242v-75h-285l-94 -165l-65 36l74 129h-124v75h167l75 131h-242v75z" />
    <glyph glyph-name="approxequal" unicode="&#x2248;" 
d="M468 378q28 0 47.5 18t22.5 53h76q-4 -67 -43.5 -104.5t-102.5 -37.5q-31 0 -61 11t-58.5 24.5t-56 24.5t-53.5 11q-28 0 -47.5 -18t-21.5 -53h-78q4 66 43.5 104t103.5 38q36 0 67.5 -11t60 -24.5t53.5 -24.5t48 -11zM468 191q28 0 47.5 18t22.5 53h76
q-4 -66 -43.5 -104t-102.5 -38q-31 0 -61 11t-58.5 24.5t-56 24.5t-53.5 11q-28 0 -47.5 -18t-21.5 -53h-78q4 67 43.5 104.5t103.5 37.5q36 0 67.5 -11t60 -24.5t53.5 -24.5t48 -11z" />
    <glyph glyph-name="partialdiff" unicode="&#x2202;" horiz-adv-x="574" 
d="M445 266q0 55 -13.5 94t-36 64.5t-52 37.5t-62.5 12q-74 0 -115.5 -55t-41.5 -153q0 -99 41 -154t116 -55q33 0 62.5 12.5t52 38t36 65t13.5 93.5zM280 -13q-55 0 -99 19t-75.5 55t-48.5 88t-17 117t17.5 116.5t48.5 87.5t73.5 55t93.5 19t91.5 -21t65.5 -56l1 1
q-15 42 -42 78t-63.5 62.5t-79.5 42t-89 17.5v74q84 -5 153 -39t118 -90.5t76 -133.5t27 -168q0 -83 -18.5 -144t-52 -101t-79.5 -59.5t-101 -19.5z" />
    <glyph glyph-name="product" unicode="&#x220f;" horiz-adv-x="688" 
d="M82 -189v914h525v-914h-81v839h-363v-839h-81z" />
    <glyph glyph-name="radical" unicode="&#x221a;" horiz-adv-x="513" 
d="M142 292l158 -371l135 804h78l-158 -914h-87l-166 374l-68 -30l-34 72z" />
    <glyph glyph-name="summation" unicode="&#x2211;" horiz-adv-x="593" 
d="M313 268l-282 388v69h531v-75h-436l281 -382l-281 -382h436v-75h-531v69z" />
    <glyph glyph-name="integral" unicode="&#x222b;" horiz-adv-x="290" 
d="M114 483q0 72 10 120.5t28.5 78t45 42t58.5 12.5q33 0 57 -15.5t24 -45.5q0 -22 -12.5 -35.5t-33.5 -13.5q-20 0 -32 12t-12 29q0 8 1.5 16t6.5 13q-21 0 -33.5 -10t-19 -28t-9 -43t-2.5 -54q0 -35 1.5 -75.5t1.5 -91.5v-346q0 -69 -9.5 -116t-28 -75.5t-44.5 -41
t-59 -12.5q-34 0 -57.5 15t-23.5 47q0 20 13 34t33 14t32 -12.5t12 -29.5q0 -8 -2.5 -15.5t-5.5 -12.5q20 0 32.5 10t19 28t8.5 42.5t2 53.5q0 35 -1 75.5t-1 91.5v339z" />
    <glyph glyph-name="infinity" unicode="&#x221e;" horiz-adv-x="799" 
d="M591 418q39 0 71.5 -12t56 -33.5t36.5 -51.5t13 -67t-12.5 -67t-35.5 -51.5t-54.5 -33.5t-70.5 -12q-60 0 -107 29.5t-89 77.5q-39 -44 -86.5 -75.5t-106.5 -31.5q-39 0 -71.5 12t-55.5 33.5t-35.5 52t-12.5 66.5q0 37 13 67t36.5 51.5t56 33.5t72.5 12q57 0 103 -28
t88 -76q47 54 90.5 79t100.5 25zM208 162q42 0 74.5 23.5t70.5 69.5q-35 42 -68 67t-77 25q-42 0 -69.5 -25t-27.5 -68q0 -39 27 -65.5t70 -26.5zM592 162q42 0 69 25.5t27 66.5q0 39 -27 66t-74 27q-42 0 -74.5 -25.5t-65.5 -65.5q36 -44 70 -69t75 -25z" />
    <glyph glyph-name="Delta" unicode="&#x394;" 
d="M354 729l355 -729h-712zM354 557l-232 -482h462z" />
    <glyph glyph-name="Delta" unicode="&#x2206;" 
d="M354 729l355 -729h-712zM354 557l-232 -482h462z" />
    <glyph glyph-name="Omega" unicode="&#x3a9;" horiz-adv-x="800" 
d="M400 738q68 0 132 -20.5t114 -61t80.5 -100t30.5 -138.5q0 -54 -17 -100.5t-45.5 -83.5t-65.5 -63t-78 -38v-58h195v-75h-278v182q47 8 85 29t64.5 52.5t41 71.5t14.5 86q0 57 -21 102.5t-58 77.5t-86.5 49.5t-107.5 17.5q-57 0 -107 -17.5t-87 -49.5t-58 -77.5
t-21 -102.5q0 -46 14.5 -86t41 -71.5t64.5 -52.5t85 -29v-182h-277v75h194v58q-41 12 -78 38t-65.5 63t-45.5 83.5t-17 100.5q0 79 30.5 138.5t80.5 100t114 61t132 20.5z" />
    <glyph glyph-name="Omega" unicode="&#x2126;" horiz-adv-x="800" 
d="M400 738q68 0 132 -20.5t114 -61t80.5 -100t30.5 -138.5q0 -54 -17 -100.5t-45.5 -83.5t-65.5 -63t-78 -38v-58h195v-75h-278v182q47 8 85 29t64.5 52.5t41 71.5t14.5 86q0 57 -21 102.5t-58 77.5t-86.5 49.5t-107.5 17.5q-57 0 -107 -17.5t-87 -49.5t-58 -77.5
t-21 -102.5q0 -46 14.5 -86t41 -71.5t64.5 -52.5t85 -29v-182h-277v75h194v58q-41 12 -78 38t-65.5 63t-45.5 83.5t-17 100.5q0 79 30.5 138.5t80.5 100t114 61t132 20.5z" />
    <glyph glyph-name="pi" unicode="&#x3c0;" horiz-adv-x="645" 
d="M106 0v460h-75v75h580v-75h-77v-315q0 -23 1.5 -38t7.5 -23t18.5 -11t35.5 -3h17v-70h-38q-38 0 -61.5 5.5t-37 20t-18.5 40.5t-5 67v327h-268v-460h-80z" />
    <glyph glyph-name="Euro" unicode="&#x20ac;" horiz-adv-x="837" 
d="M263 266q7 -50 22 -91t39.5 -69.5t59 -44t80.5 -15.5q86 0 132 51.5t55 135.5l114 -2q-27 -122 -106 -183t-195 -61q-136 0 -217.5 74t-104.5 205h-142l40 64h95q-1 8 -1 17v18v26.5t2 25.5h-136l40 63h105q25 124 106 193t213 69q116 0 194.5 -60.5t105.5 -183.5
l-114 -1q-5 42 -17.5 76t-35 59t-55.5 38.5t-78 13.5q-46 0 -80 -14.5t-58 -41t-39 -64t-22 -84.5h261l-40 -63h-228q-1 -13 -1 -25.5v-26.5v-18t1 -17h186l-40 -64h-141z" />
    <glyph glyph-name="fi" unicode="&#xfb01;" horiz-adv-x="773" 
d="M666 405v-330q0 -20 6 -26t26 -8l42 -4v-37h-265v37l43 4q20 2 25.5 8t5.5 26v389q0 19 -5.5 24.5t-25.5 8.5l-43 4v37h192zM348 0h-298v37l43 4q20 2 25.5 8t5.5 26v399h-74v64h74v57q0 49 13 78.5t38.5 45.5t63 21t87.5 5h93v-70h-106q-43 0 -57.5 -14.5t-14.5 -50.5
v-72h178v-64h-178v-398q0 -20 6 -26t26 -7l75 -5v-38zM549 745h117v-135h-117v135z" />
    <glyph glyph-name="fl" unicode="&#xfb02;" horiz-adv-x="758" 
d="M348 0h-298v37l43 4q20 2 25.5 8t5.5 26v399h-74v64h74v57q0 49 13 78.5t38.5 45.5t63 21t87.5 5h93v-70h-106q-43 0 -57.5 -14.5t-14.5 -50.5v-72h178v-64h-178v-398q0 -20 6 -26t26 -7l75 -5v-38zM653 745l-1 -137v-533q0 -20 6 -26t26 -8l42 -4v-37h-265v37l43 4
q20 2 25.5 8t5.5 26v595q0 20 -5.5 25.5t-25.5 7.5l-43 5v37h192z" />
    <glyph glyph-name="breve" unicode="&#x2d8;" horiz-adv-x="384" 
d="M105 739q3 -47 27 -67t59 -20q36 0 60.5 20t27.5 67h69q-6 -66 -44.5 -105t-113.5 -39q-72 0 -110 39t-44 105h69v0z" />
    <glyph glyph-name="caron" unicode="&#x2c7;" horiz-adv-x="420" 
d="M36 745h60l114 -68l114 68h60l-141 -142h-68z" />
    <glyph glyph-name="circumflex" unicode="&#x2c6;" horiz-adv-x="420" 
d="M384 603h-60l-113 67l-115 -67h-60l142 142h69z" />
    <glyph glyph-name="dotaccent" unicode="&#x2d9;" horiz-adv-x="165" 
d="M24 745h117v-135h-117v135z" />
    <glyph glyph-name="dot" horiz-adv-x="348" 
d="M124 745h117v-135h-117v135z" />
    <glyph glyph-name="dotaccent.low" horiz-adv-x="165" 
d="M24 -54h117v-135h-117v135z" />
    <glyph glyph-name="hungarumlaut" unicode="&#x2dd;" horiz-adv-x="464" 
d="M93 603h-57l94 142h131zM260 603h-57l94 142h131z" />
    <glyph glyph-name="commaaccent" horiz-adv-x="184" 
d="M39 -37h109v-98l-45 -93h-67l40 99h-37v92z" />
    <glyph glyph-name="ogonek" unicode="&#x2db;" horiz-adv-x="258" 
d="M203 0q-40 -19 -67 -42.5t-27 -49.5q0 -15 6 -25t16 -16t23 -8.5t26 -2.5q31 0 51 9v-44q-13 -6 -33.5 -9t-43.5 -3q-21 0 -43.5 4.5t-41.5 14.5t-31 27t-12 43q0 16 8.5 31t23.5 28.5t34.5 24t41.5 18.5h69z" />
    <glyph glyph-name="ring" unicode="&#x2da;" horiz-adv-x="260" 
d="M130 764q19 0 36 -6.5t30 -18.5t20.5 -28t7.5 -35q0 -38 -27.5 -63.5t-66.5 -25.5q-40 0 -67 25.5t-27 63.5q0 19 7.5 35t20.5 28t30 18.5t36 6.5zM130 721q-17 0 -31 -13t-14 -32q0 -20 14 -32t31 -12t31 12t14 32q0 19 -14 32t-31 13z" />
    <glyph glyph-name="tilde" unicode="&#x2dc;" horiz-adv-x="416" 
d="M272 679q22 0 32.5 12.5t13.5 34.5h62q-10 -64 -36.5 -91.5t-67.5 -27.5q-22 0 -40.5 7.5t-35 16.5t-31 16.5t-27.5 7.5q-21 0 -31 -12.5t-15 -35.5h-60q4 34 13.5 57t24 36.5t31.5 19.5t36 6q21 0 39 -7.5t34 -16t30 -16t28 -7.5z" />
    <glyph glyph-name="caron.slovak" horiz-adv-x="158" 
d="M20 745h118v-118l-65 -140h-42l39 140h-50v118z" />
    <glyph glyph-name="uni032C" unicode="&#x32c;" horiz-adv-x="420" 
d="M36 0h60l114 -68l114 68h60l-141 -142h-68z" />
    <glyph glyph-name="zero.slashed" horiz-adv-x="729" 
d="M60 365q0 92 23 162.5t64 118t97 72t121 24.5t120.5 -24.5t96.5 -72t64 -118t23 -162.5q0 -93 -23 -163.5t-64 -118t-96.5 -72t-120.5 -24.5t-121 24.5t-97 72t-64 118t-23 163.5zM187 365q0 -58 6 -106l334 261q-20 80 -61 122t-101 42q-87 0 -132.5 -82.5t-45.5 -236.5
zM543 365q0 23 -1.5 45t-3.5 42l-331 -260q20 -72 60 -109t98 -37q86 0 132 82.5t46 236.5z" />
    <glyph glyph-name="one.pof" horiz-adv-x="374" 
d="M278 72q0 -15 5 -23.5t25 -12.5l34 -4v-32h-274v32l63 6q20 2 25 10.5t5 23.5v451h-145v46q40 1 71 5.5t55.5 13.5t44.5 23.5t37 34.5h56l-2 -168v-406z" />
    <glyph glyph-name="two.pof" horiz-adv-x="559" 
d="M518 100v-100h-513v106q116 76 191.5 130.5t120 98.5t62 82t17.5 80q0 49 -30.5 81t-84.5 32q-39 0 -66 -14t-43.5 -39t-22 -59.5t-2.5 -74.5h-118q-3 60 16.5 106t54.5 76.5t83 46.5t104 16q51 0 94 -10t74 -31t48 -53.5t17 -78.5q0 -52 -35.5 -102.5t-92.5 -99.5
t-128 -97t-143 -96h397z" />
    <glyph glyph-name="three.pof" horiz-adv-x="583" 
d="M282 -12q-54 0 -100.5 15t-81 43t-55 66.5t-23.5 85.5h113q0 -31 11 -58.5t31 -47.5t47 -32t59 -12q29 0 54 7.5t43.5 23.5t29 40t10.5 57q0 36 -14 60t-38.5 38.5t-57.5 20.5t-71 6h-23v69h12q34 0 66.5 7t57.5 22.5t40 39.5t15 59q0 51 -35 81.5t-89 30.5
q-61 0 -101 -38t-40 -103h-114q2 44 23 80.5t55.5 63t80 41t97.5 14.5q44 0 88 -9.5t79.5 -29t57.5 -49.5t22 -71q0 -58 -29.5 -96t-91.5 -63v-1q71 -21 105.5 -60.5t34.5 -104.5q0 -52 -21.5 -89t-58.5 -61t-85.5 -35t-102.5 -11z" />
    <glyph glyph-name="four.pof" horiz-adv-x="638" 
d="M493 76q0 -21 5 -28t25 -9l34 -4v-35h-248v35l32 4q20 3 25.5 9.5t5.5 27.5v97h-344v66l360 414h107l-2 -171v-219h120v-90h-120v-97zM372 529l-232 -266h232v266z" />
    <glyph glyph-name="five.pof" horiz-adv-x="591" 
d="M296 -12q-53 0 -96.5 16t-75.5 43.5t-50 64t-20 78.5h113q0 -27 9.5 -53t27 -45.5t41 -31.5t51.5 -12q33 0 58.5 13t42.5 36t26 54.5t9 69.5q0 41 -11.5 71t-31 50t-45.5 29.5t-56 9.5q-21 0 -43.5 -8t-42 -23t-35.5 -36.5t-24 -49.5l-68 14l40 375h420l2 -99h-355
l-22 -148q31 23 70 36t88 13q47 0 90.5 -13t76.5 -40.5t53 -71.5t20 -106q0 -54 -21 -98t-57 -74.5t-83.5 -47t-100.5 -16.5z" />
    <glyph glyph-name="six.pof" horiz-adv-x="623" 
d="M327 382q-66 0 -103.5 -45t-37.5 -127q0 -41 11 -71t29.5 -50.5t43.5 -30.5t54 -10q32 0 56.5 12.5t41 35t25 53t8.5 66.5q0 34 -8.5 64t-24.5 53t-40 36.5t-55 13.5zM334 610q-32 0 -58.5 -17t-45.5 -46t-31 -69t-15 -86q30 25 71 38.5t96 13.5q31 0 71.5 -11t77 -37
t61.5 -70t25 -110q0 -50 -20 -92t-55 -72t-83 -47t-104 -17q-69 0 -120 24t-84.5 66t-49.5 99.5t-16 125.5q0 90 22 158t60.5 114t90.5 69.5t112 23.5q41 0 80 -9.5t70.5 -30.5t53.5 -53.5t30 -78.5h-114q-6 54 -38.5 84t-86.5 30z" />
    <glyph glyph-name="seven.pof" horiz-adv-x="456" 
d="M-8 653h486v-90q-30 -27 -62.5 -54t-63.5 -60t-58 -74t-47 -94.5t-31 -122.5t-9 -158h-137q-2 94 23 177.5t69 153.5t102.5 126.5t123.5 96.5h-396v99z" />
    <glyph glyph-name="eight.pof" horiz-adv-x="645" 
d="M325 -12q-58 0 -109 12.5t-88.5 36.5t-59.5 59t-22 80q0 34 16.5 60t41 45.5t54 32.5t56.5 20q-70 36 -101.5 77.5t-31.5 92.5q0 37 19 67t52 51.5t78.5 33.5t98.5 12q52 0 96.5 -11t77 -31t50.5 -48.5t18 -63.5q0 -26 -13 -49t-34.5 -42t-49.5 -34t-58 -25l8 -3
q38 -17 70.5 -34.5t56 -38.5t36.5 -46.5t13 -57.5q0 -45 -21.5 -81t-59 -61.5t-87.5 -39.5t-107 -14zM167 177q0 -66 43 -97.5t115 -31.5t111 27t39 75q0 27 -7.5 44.5t-25.5 31.5t-47.5 28.5t-72.5 34.5l-59 23q-27 -11 -45.5 -27t-30 -34t-16 -37t-4.5 -37zM460 508
q0 26 -11.5 45.5t-30 32t-42.5 18.5t-48 6q-54 0 -89.5 -21t-35.5 -69q0 -22 9.5 -39t27 -30.5t41 -25t51.5 -23.5l40 -18q38 18 63 52t25 72z" />
    <glyph glyph-name="nine.pof" horiz-adv-x="623" 
d="M296 275q66 0 102.5 45t36.5 126q0 40 -10.5 71t-29 51.5t-43.5 31t-53 10.5q-33 0 -58 -13t-42 -36t-25.5 -54t-8.5 -67q0 -34 8.5 -64t25 -52.5t41 -35.5t56.5 -13zM289 48q32 0 58 16.5t45.5 46t31.5 69t15 84.5q-31 -23 -72 -37.5t-97 -14.5q-30 0 -70 11t-76.5 37.5
t-61.5 70t-25 108.5q0 51 19.5 93t54.5 72t83 47t105 17q69 0 119.5 -24t84 -66t50 -100t16.5 -125q0 -90 -22 -158.5t-61 -114t-91.5 -69t-113.5 -23.5q-41 0 -79 9.5t-69.5 30.5t-53.5 54t-30 79h114q7 -56 39.5 -84.5t86.5 -28.5z" />
    <glyph glyph-name="zero.pof" horiz-adv-x="692" 
d="M60 329q0 85 23.5 148.5t63 106t91.5 63.5t109 21t108.5 -21t90.5 -63.5t62.5 -106t23.5 -148.5q0 -86 -23.5 -149.5t-62.5 -106.5t-90.5 -64t-108.5 -21t-109 21t-91.5 64t-63 106.5t-23.5 149.5zM195 329q0 -137 40.5 -209t111.5 -72q70 0 112 72t42 209t-42 209
t-112 72q-71 0 -111.5 -72t-40.5 -209z" />
    <glyph glyph-name="zero.slashed.pof" horiz-adv-x="692" 
d="M60 329q0 85 23.5 148.5t63 106t91.5 63.5t109 21t108.5 -21t90.5 -63.5t62.5 -106t23.5 -148.5q0 -86 -23.5 -149.5t-62.5 -106.5t-90.5 -64t-108.5 -21t-109 21t-91.5 64t-63 106.5t-23.5 149.5zM501 329q0 50 -6 91l-283 -239q17 -66 52 -99.5t83 -33.5q70 0 112 72
t42 209zM195 329q0 -21 1 -40.5t3 -37.5l271 227l16 -10q-18 70 -54 106t-85 36q-71 0 -111.5 -72t-40.5 -209z" />
    <glyph glyph-name="one.tlf" 
d="M453 73q0 -16 6 -23.5t26 -10.5l43 -4v-35h-296v35l76 5q20 2 25.5 9.5t5.5 23.5v521h-164v44q49 2 84 7.5t61.5 16t46.5 26t38 37.5h50l-2 -186v-466z" />
    <glyph glyph-name="two.tlf" 
d="M631 98v-98h-557v97q130 87 214.5 151t133.5 115t68 94t19 88q0 65 -38.5 102t-98.5 37q-45 0 -76.5 -15.5t-50.5 -43t-26 -66t-4 -83.5h-114q-3 65 17.5 114.5t58.5 83.5t89.5 51t111.5 17q54 0 99.5 -12t79.5 -36t53 -61t19 -87q0 -59 -35 -113.5t-95 -108.5
t-139.5 -109.5t-167.5 -116.5h439z" />
    <glyph glyph-name="three.tlf" 
d="M345 -13q-59 0 -108.5 16.5t-85.5 46t-57 70.5t-24 89h111q0 -34 11.5 -63.5t33.5 -51.5t52 -35t68 -13q35 0 65.5 9t52.5 27.5t34.5 46t12.5 65.5q0 39 -16 67t-44.5 46.5t-67.5 27t-84 8.5h-32v65h25q39 0 75.5 8.5t64.5 26.5t45 46t17 66q0 60 -39 94.5t-105 34.5
q-36 0 -65.5 -11.5t-50.5 -32.5t-32.5 -50t-11.5 -63h-111q2 46 23.5 85t57.5 68t85 45.5t108 16.5q49 0 95.5 -10.5t83.5 -32t59.5 -55.5t22.5 -80q0 -36 -12.5 -64.5t-34 -49.5t-49.5 -36t-58 -25v-1q81 -17 128.5 -63t47.5 -123q0 -56 -23.5 -97t-63.5 -67t-93 -38.5
t-111 -12.5z" />
    <glyph glyph-name="four.tlf" 
d="M530 75q0 -20 6 -26t26 -8l43 -4v-37h-277v37l54 4q20 2 26 8t6 26v122h-376v68l393 460h101l-2 -186v-254h138v-88h-138v-122zM414 602l-271 -317h271v317z" />
    <glyph glyph-name="five.tlf" 
d="M340 -13q-58 0 -105.5 17.5t-81.5 47t-53.5 69t-21.5 84.5h111q0 -32 10.5 -60.5t30.5 -50.5t48 -35t63 -13q40 0 71 14.5t52 40.5t31.5 62t10.5 79q0 47 -13.5 82t-36 57.5t-53 33.5t-64.5 11q-57 0 -104 -33t-67 -93l-67 14l46 411h447v-97h-386l-25 -200
q32 35 79 52.5t103 17.5q52 0 99.5 -14t83.5 -44.5t57.5 -78t21.5 -114.5q0 -61 -23 -109t-62 -81.5t-91 -51.5t-111 -18z" />
    <glyph glyph-name="six.tlf" 
d="M360 425q-77 0 -121.5 -52t-44.5 -142q0 -46 13 -80.5t35 -58t51.5 -35t62.5 -11.5q38 0 67.5 15t49.5 41t30 61t10 74q0 37 -9.5 71t-28.5 60t-48 41.5t-67 15.5zM376 684q-44 0 -77.5 -22.5t-57 -61t-36 -89t-15.5 -107.5q32 44 83 64.5t108 20.5q42 0 87.5 -14.5
t83 -45.5t61.5 -78t24 -113q0 -55 -21.5 -101t-59.5 -79.5t-89 -52t-111 -18.5q-75 0 -129.5 26.5t-89.5 73t-52 110.5t-17 139q0 102 24.5 178t67 127t100 76t122.5 25q42 0 82.5 -11t73.5 -33.5t56.5 -58.5t31.5 -85h-111q-7 61 -43 95.5t-96 34.5z" />
    <glyph glyph-name="seven.tlf" 
d="M86 725h533v-92q-52 -45 -107.5 -99t-101 -127.5t-74 -172.5t-25.5 -234h-134q1 108 31 201.5t79.5 172t113.5 142t133 111.5h-448v98z" />
    <glyph glyph-name="eight.tlf" 
d="M355 -13q-62 0 -116 13.5t-94.5 39t-64 63.5t-23.5 88q0 38 17.5 68.5t44.5 53t61 37.5t67 23q-152 72 -152 189q0 40 19.5 73t54.5 57t83.5 37t105.5 13t105 -12t82 -34t53 -53t19 -69q0 -30 -14.5 -57t-38 -49t-54.5 -39t-64 -27l16 -7q40 -17 74 -36.5t59 -43
t39.5 -52t14.5 -64.5q0 -48 -23 -87.5t-63 -67t-93.5 -42.5t-114.5 -15zM173 193q0 -72 50 -109.5t132 -37.5q81 0 128.5 33t47.5 91q0 30 -11 51t-33.5 38.5t-55.5 33.5t-76 35l-60 25q-33 -11 -56.5 -28.5t-38 -39t-21 -45t-6.5 -47.5zM509 566q0 29 -12.5 51t-33.5 37
t-48.5 22.5t-58.5 7.5q-66 0 -106.5 -27.5t-40.5 -77.5q0 -26 11 -45.5t30.5 -35.5t47 -30t60.5 -28l44 -19q48 20 77.5 59.5t29.5 85.5z" />
    <glyph glyph-name="nine.tlf" 
d="M345 305q77 0 121.5 51.5t44.5 141.5q0 46 -13 80.5t-35 58t-51.5 35.5t-62.5 12q-38 0 -67.5 -15t-49.5 -41.5t-30.5 -61.5t-10.5 -74q0 -37 9.5 -70.5t29 -59.5t48.5 -41.5t67 -15.5zM329 46q44 0 77.5 22.5t56.5 60.5t36 89t16 107q-32 -43 -83 -64t-109 -21
q-42 0 -87 14.5t-82.5 45.5t-61.5 78.5t-24 112.5q0 55 21.5 101.5t59.5 79.5t89 51.5t111 18.5q75 0 129 -26.5t89.5 -73t52.5 -110.5t17 -139q0 -102 -24.5 -178t-67.5 -127t-100 -76t-123 -25q-42 0 -82 11t-73 34t-56.5 58.5t-31.5 85.5h111q7 -62 43 -96t96 -34z" />
    <glyph glyph-name="zero.tlf" 
d="M48 365q0 92 23 162.5t64 118t97 72t121 24.5t120.5 -24.5t96.5 -72t64.5 -118t23.5 -162.5q0 -93 -23.5 -163.5t-64.5 -118t-96.5 -72t-120.5 -24.5t-121 24.5t-97 72t-64 118t-23 163.5zM175 365q0 -154 45.5 -236.5t132.5 -82.5q86 0 132 82.5t46 236.5t-46 236.5
t-132 82.5q-87 0 -132.5 -82.5t-45.5 -236.5z" />
    <glyph glyph-name="zero.slashed.tlf" 
d="M48 365q0 92 23 162.5t64 118t97 72t121 24.5t120.5 -24.5t96.5 -72t64 -118t23 -162.5q0 -93 -23 -163.5t-64 -118t-96.5 -72t-120.5 -24.5t-121 24.5t-97 72t-64 118t-23 163.5zM175 365q0 -58 6 -106l334 261q-20 80 -61 122t-101 42q-87 0 -132.5 -82.5t-45.5 -236.5
zM531 365q0 23 -1.5 45t-3.5 42l-331 -260q20 -72 60 -109t98 -37q86 0 132 82.5t46 236.5z" />
    <glyph glyph-name="one.case" horiz-adv-x="426" 
d="M311 78q0 -17 5.5 -25.5t27.5 -12.5l40 -4v-36h-302v36l71 5q21 3 27 11.5t6 25.5v507h-162v49q45 1 80 6.5t62 15.5t48.5 25.5t40.5 38.5h59l-3 -187v-455z" />
    <glyph glyph-name="two.case" horiz-adv-x="634" 
d="M580 107v-107h-566v112q130 85 214 146.5t133 111t68.5 92t19.5 88.5q0 57 -35 93.5t-95 36.5q-44 0 -74.5 -15.5t-49 -43.5t-25 -66t-3.5 -83h-126q-3 66 18 116.5t60 84.5t92 51.5t114 17.5q56 0 103.5 -11.5t81.5 -35t53 -60t19 -86.5q0 -59 -38.5 -114.5t-100.5 -110
t-141.5 -108.5t-161.5 -109h440z" />
    <glyph glyph-name="three.case" horiz-adv-x="658" 
d="M314 -13q-60 0 -110.5 17t-88 47t-60 72.5t-25.5 93.5h121q0 -35 12 -65t34 -52.5t52 -35.5t66 -13q33 0 61.5 8.5t49.5 26.5t33 45t12 64q0 40 -15.5 67t-43 43.5t-65 24t-80.5 7.5h-27v73h16q38 0 74 8t64 25.5t45 45t17 65.5q0 57 -38.5 91.5t-101.5 34.5
q-35 0 -63.5 -11t-49.5 -31.5t-32.5 -49.5t-11.5 -65h-122q2 48 24.5 88t60 69t88 45.5t108.5 16.5q49 0 97.5 -10.5t87 -32.5t62.5 -55t24 -79q0 -67 -37.5 -108.5t-103.5 -67.5v-1q79 -22 120.5 -66.5t41.5 -118.5q0 -57 -24 -98t-64.5 -67t-94 -38.5t-113.5 -12.5z" />
    <glyph glyph-name="four.case" horiz-adv-x="703" 
d="M533 81q0 -22 6 -29t27 -10l39 -4v-38h-275v38l40 4q21 4 27.5 10.5t6.5 28.5v113h-380v72l397 459h114l-2 -188v-247h134v-96h-134v-113zM404 592l-262 -302h262v302z" />
    <glyph glyph-name="five.case" horiz-adv-x="657" 
d="M327 -13q-59 0 -107 17.5t-83 47.5t-55 70.5t-22 86.5h121q0 -31 10.5 -59.5t30 -50.5t46 -35t59.5 -13q38 0 67 14.5t48.5 40t29.5 61t10 77.5q0 46 -12.5 80t-34.5 56t-51.5 33t-63.5 11q-25 0 -50 -8.5t-47.5 -25t-40 -40.5t-26.5 -55l-73 16l45 414h461l2 -105h-393
l-24 -176q68 59 177 59q52 0 100.5 -14t85 -45t58.5 -79t22 -117q0 -60 -23 -108.5t-63 -82.5t-92.5 -52t-111.5 -18z" />
    <glyph glyph-name="six.case" horiz-adv-x="687" 
d="M360 424q-75 0 -117 -50.5t-42 -141.5q0 -45 12 -79t33 -56.5t49.5 -34t60.5 -11.5q36 0 64 14.5t47 39.5t29 59.5t10 73.5q0 37 -9.5 71t-28 59.5t-45.5 40.5t-63 15zM370 680q-38 0 -68.5 -20t-52.5 -54.5t-35.5 -80.5t-16.5 -99q69 66 188 66q37 0 82 -13t84.5 -42.5
t66 -78t26.5 -119.5q0 -55 -22 -101.5t-60.5 -80t-91.5 -52t-114 -18.5q-77 0 -132.5 26.5t-92 73.5t-54 111t-17.5 139q0 100 24.5 176t67.5 127t100.5 76.5t123.5 25.5q44 0 86.5 -10.5t77 -33.5t59 -59t32.5 -87h-122q-7 60 -43 94t-96 34z" />
    <glyph glyph-name="seven.case" horiz-adv-x="509" 
d="M-4 725h538v-98q-34 -30 -70.5 -61t-71 -68.5t-65 -84t-52.5 -106.5t-34 -135.5t-10 -171.5h-147q-1 106 27 198.5t77 171t113.5 141t136.5 108.5h-442v106z" />
    <glyph glyph-name="eight.case" horiz-adv-x="712" 
d="M358 -13q-64 0 -119.5 13.5t-97 39.5t-65.5 65t-24 89q0 38 18 67.5t45.5 51.5t61 36t63.5 22q-78 39 -113.5 86t-35.5 104q0 40 20.5 73.5t57 57.5t86 37t108.5 13q58 0 106.5 -12t84 -34t55.5 -53.5t20 -70.5q0 -29 -14.5 -55t-38.5 -47.5t-55.5 -38t-64.5 -27.5l11 -5
q42 -18 77.5 -37.5t61.5 -43t40.5 -52t14.5 -64.5q0 -49 -24 -89t-65 -68t-96 -43t-118 -15zM181 196q0 -74 48.5 -109.5t128.5 -35.5q81 0 125.5 31t44.5 86q0 30 -9.5 50t-30 36t-53 32t-79.5 37l-64 26q-32 -12 -53 -29.5t-34 -38t-18.5 -42.5t-5.5 -43zM509 565
q0 29 -12.5 50.5t-33.5 36t-47.5 21.5t-54.5 7q-62 0 -101.5 -25t-39.5 -77q0 -25 11 -43.5t30 -34t45.5 -29t58.5 -26.5l44 -20q44 20 72 58.5t28 81.5z" />
    <glyph glyph-name="nine.case" horiz-adv-x="687" 
d="M327 306q75 0 117 50t42 141q0 45 -12.5 79t-33.5 57.5t-49 35t-60 11.5q-37 0 -65 -15t-47 -40.5t-29 -60t-10 -74.5q0 -37 9.5 -70.5t28 -58.5t46 -40t63.5 -15zM317 51q38 0 68.5 20t52.5 54t35.5 80t16.5 98q-34 -31 -81 -48.5t-108 -17.5q-36 0 -81 13t-84 43
t-66 78t-27 118q0 56 22 102.5t60.5 80t91 52t114.5 18.5q76 0 131.5 -26.5t92 -73.5t54.5 -111t18 -139q0 -101 -24.5 -176.5t-67.5 -126.5t-101 -76.5t-125 -25.5q-44 0 -86 11t-76.5 34t-58.5 59t-32 87h121q8 -62 44 -94.5t96 -32.5z" />
    <glyph glyph-name="zero.case" horiz-adv-x="757" 
d="M65 365q0 94 25 164.5t68 117.5t100 71t121 24t120.5 -24t99.5 -71t68 -117.5t25 -164.5t-25 -165t-68 -118t-99.5 -71t-120.5 -24t-121 24t-100 71t-68 118t-25 165zM208 365q0 -153 45 -233.5t126 -80.5t127 80.5t46 233.5t-46 234t-127 81t-126 -81t-45 -234z" />
    <glyph glyph-name="zero.slashed.case" horiz-adv-x="757" 
d="M65 365q0 94 25 164.5t68 117.5t100 71t121 24t120.5 -24t99.5 -71t68 -117.5t25 -164.5t-25 -165t-68 -118t-99.5 -71t-120.5 -24t-121 24t-100 71t-68 118t-25 165zM552 365q0 52 -6 96l-319 -263q20 -72 58.5 -109.5t93.5 -37.5q81 0 127 80.5t46 233.5zM208 365
q0 -25 1 -48t4 -44l317 260l2 -2q-20 73 -59.5 111t-93.5 38q-81 0 -126 -81t-45 -234z" />
    <glyph glyph-name="uni21B2" unicode="&#x21b2;" horiz-adv-x="840" 
d="M339 574l51 -54l-220 -212h535v437h75v-513h-612l222 -215l-51 -53l-309 305z" />
    <glyph glyph-name="uni21B3" unicode="&#x21b3;" horiz-adv-x="840" 
d="M810 269l-311 -305l-50 53l222 215h-611v513h75v-437h534l-220 212l50 54z" />
    <glyph glyph-name="uni21B0" unicode="&#x21b0;" horiz-adv-x="840" 
d="M705 -188v420h-537l222 -215l-51 -53l-309 305l309 305l51 -54l-220 -213h610v-495h-75z" />
    <glyph glyph-name="uni21B1" unicode="&#x21b1;" horiz-adv-x="840" 
d="M810 269l-311 -305l-50 53l222 215h-536v-420h-75v495h609l-220 213l50 54z" />
    <glyph glyph-name="uni2190" unicode="&#x2190;" horiz-adv-x="840" 
d="M339 574l51 -54l-220 -213h620v-75h-622l222 -215l-51 -53l-309 304z" />
    <glyph glyph-name="uni2191" unicode="&#x2191;" horiz-adv-x="840" 
d="M730 436l-55 -52l-217 221v-605h-75v605l-217 -221l-55 52l309 309z" />
    <glyph glyph-name="uni2192" unicode="&#x2192;" horiz-adv-x="840" 
d="M810 268l-311 -304l-50 53l222 215h-621v75h619l-220 213l50 54z" />
    <glyph glyph-name="uni2193" unicode="&#x2193;" horiz-adv-x="840" 
d="M111 289l55 52l217 -221v605h75v-605l217 221l55 -52l-309 -309z" />
    <glyph glyph-name="uni2196" unicode="&#x2196;" horiz-adv-x="840" 
d="M141 538h438v-72h-312l451 -452l-54 -53l-451 451v-312h-72v438z" />
    <glyph glyph-name="uni2197" unicode="&#x2197;" horiz-adv-x="840" 
d="M699 100h-72v312l-452 -451l-54 53l451 452h-311v72h438v-438z" />
    <glyph glyph-name="uni2198" unicode="&#x2198;" horiz-adv-x="840" 
d="M700 0h-439v72h312l-451 452l54 53l452 -451v312h72v-438z" />
    <glyph glyph-name="uni2199" unicode="&#x2199;" horiz-adv-x="840" 
d="M141 438h72v-312l452 451l54 -53l-451 -452h311v-72h-438v438z" />
    <glyph glyph-name="uni219E" unicode="&#x219e;" horiz-adv-x="840" 
d="M30 269l311 305l50 -54l-220 -212h140l271 266l51 -54l-219 -212h396v-76h-398l221 -215l-51 -53l-273 268h-140l222 -215l-50 -53z" />
    <glyph glyph-name="uni219F" unicode="&#x219f;" horiz-adv-x="840" 
d="M420 745l310 -309l-55 -52l-217 222v-141l272 -272l-55 -50l-217 221v-364h-75v365l-217 -222l-55 50l272 272v141l-217 -222l-55 52z" />
    <glyph glyph-name="uni21A0" unicode="&#x21a0;" horiz-adv-x="840" 
d="M810 269l-311 -305l-50 53l222 215h-140l-273 -268l-51 53l221 215h-398v75h396l-219 213l51 54l271 -267h140l-220 213l50 54z" />
    <glyph glyph-name="uni21A1" unicode="&#x21a1;" horiz-adv-x="840" 
d="M420 -20l-309 309l55 52l217 -222v141l-272 272l55 50l217 -222v365h75v-364l217 221l55 -50l-272 -272v-141l217 222l55 -52z" />
    <glyph glyph-name="uni21A2" unicode="&#x21a2;" horiz-adv-x="840" 
d="M339 575l51 -54l-220 -214h309l269 268l52 -54l-256 -252l256 -252l-52 -53l-272 268h-308l222 -215l-51 -53l-309 305z" />
    <glyph glyph-name="uni21A3" unicode="&#x21a3;" horiz-adv-x="840" 
d="M501 -36l-51 53l222 215h-308l-272 -268l-52 53l256 251l-256 252l52 54l269 -267h309l-220 213l51 54l309 -305z" />
    <glyph glyph-name="uni21A4" unicode="&#x21a4;" horiz-adv-x="840" 
d="M678 0v232h-509l222 -226l-52 -53l-309 316l309 313l52 -54l-220 -221h507v231h82v-538h-82z" />
    <glyph glyph-name="uni21A5" unicode="&#x21a5;" horiz-adv-x="840" 
d="M730 436l-55 -52l-217 222v-526h231v-80h-537v80h231v526l-217 -222l-55 52l309 309z" />
    <glyph glyph-name="uni21A6" unicode="&#x21a6;" horiz-adv-x="840" 
d="M162 0h-82v538h82v-231h507l-220 221l52 54l309 -313l-309 -313l-52 53l222 223h-509v-232z" />
    <glyph glyph-name="uni21A7" unicode="&#x21a7;" horiz-adv-x="840" 
d="M111 289l55 52l217 -222v526h-231v80h537v-80h-231v-526l217 222l55 -52l-310 -309z" />
    <glyph glyph-name="uni25A0" unicode="&#x25a0;" horiz-adv-x="855" 
d="M160 538h535v-538h-535v538z" />
    <glyph glyph-name="uni25A1" unicode="&#x25a1;" horiz-adv-x="855" 
d="M160 538h535v-538h-535v538zM224 64h408v411h-408v-411z" />
    <glyph glyph-name="uni25CB" unicode="&#x25cb;" horiz-adv-x="849" 
d="M146 268q0 58 22 108.5t59.5 88.5t88 60t108.5 22t108.5 -22t88.5 -60t60 -88.5t22 -108.5t-22 -109t-60 -89.5t-88.5 -60.5t-108.5 -22t-108.5 22t-88 60.5t-59.5 89.5t-22 109zM424 48q44 0 83 17t68 46.5t45.5 69.5t16.5 87t-16.5 87t-45.5 69t-68 45.5t-83 16.5
t-82.5 -16.5t-67.5 -45.5t-45.5 -69t-16.5 -87q0 -45 16.5 -85t45.5 -70t67.5 -47.5t82.5 -17.5z" />
    <glyph glyph-name="uni25CF" unicode="&#x25cf;" horiz-adv-x="849" 
d="M146 268q0 58 22 108.5t59.5 88.5t88 60t108.5 22t108.5 -22t88.5 -60t60 -88.5t22 -108.5t-22 -109t-60 -89.5t-88.5 -60.5t-108.5 -22t-108.5 22t-88 60.5t-59.5 89.5t-22 109z" />
    <glyph glyph-name="onethird" unicode="&#x2153;" horiz-adv-x="895" 
d="M187 379q0 -10 2.5 -15.5t15.5 -7.5l20 -3v-20h-169v20l39 4q12 1 15 6.5t3 15.5v275h-90v28q50 2 78 12.5t51 35.5h35v-351v0zM85 0l508 725h88l-508 -725h-88zM697 -8q-33 0 -62 9.5t-50.5 26.5t-34.5 41t-14 53h70q0 -19 7 -36t19 -29.5t29 -20t37 -7.5q35 0 59 19.5
t24 60.5q0 22 -9 36.5t-24 23.5t-35.5 12.5t-43.5 3.5h-13v43h7q21 0 40.5 4t34.5 13.5t24.5 24t9.5 35.5q0 32 -21 51t-54 19q-38 0 -62.5 -23.5t-24.5 -63.5h-71q1 27 14 49.5t34.5 39t49.5 25.5t61 9q27 0 54 -6t49 -18t35.5 -30.5t13.5 -43.5q0 -35 -18 -58.5t-56 -39.5
v-1q85 -25 85 -100q0 -32 -13 -55t-35.5 -38t-52.5 -22t-63 -7z" />
    <glyph glyph-name="uni2155" unicode="&#x2155;" horiz-adv-x="901" 
d="M187 379q0 -10 2.5 -15.5t15.5 -7.5l20 -3v-20h-169v20l39 4q12 1 15 6.5t3 15.5v275h-90v28q50 2 78 12.5t51 35.5h35v-351v0zM85 0l508 725h88l-508 -725h-88zM704 -8q-32 0 -59 10t-46.5 27t-30.5 40t-12 49h70q0 -17 6 -33t16.5 -28.5t24.5 -20t31 -7.5q41 0 62 30
t21 77q0 51 -25.5 74.5t-62.5 23.5q-26 0 -52 -19t-36 -52l-43 8l25 230h259l2 -60h-219l-13 -90q38 29 97 29q28 0 55 -8t47 -25t32.5 -44t12.5 -65q0 -33 -13 -60t-35 -46t-51.5 -29.5t-62.5 -10.5z" />
    <glyph glyph-name="uni2159" unicode="&#x2159;" horiz-adv-x="921" 
d="M187 379q0 -10 2.5 -15.5t15.5 -7.5l20 -3v-20h-169v20l39 4q12 1 15 6.5t3 15.5v275h-90v28q50 2 78 12.5t51 35.5h35v-351v0zM85 0l508 725h88l-508 -725h-88zM723 234q-40 0 -62.5 -26.5t-22.5 -77.5t24.5 -76t59.5 -25q39 0 60 29.5t21 74.5q0 42 -20.5 71.5
t-59.5 29.5zM727 375q-19 0 -35 -10t-27.5 -28t-18.5 -42.5t-9 -52.5q37 31 102 31q18 0 43 -6.5t47.5 -23t38.5 -43.5t16 -67q0 -31 -12.5 -57t-34 -44.5t-51.5 -29t-64 -10.5q-43 0 -74 15t-51.5 41t-30.5 61.5t-10 77.5q0 55 13.5 96.5t37 70t55.5 43t70 14.5
q25 0 48.5 -6t43 -18.5t33 -33t18.5 -49.5h-71q-4 34 -24 52.5t-53 18.5z" />
    <glyph glyph-name="oneeighth" unicode="&#x215b;" horiz-adv-x="935" 
d="M187 379q0 -10 2.5 -15.5t15.5 -7.5l20 -3v-20h-169v20l39 4q12 1 15 6.5t3 15.5v275h-90v28q50 2 78 12.5t51 35.5h35v-351v0zM85 0l508 725h88l-508 -725h-88zM723 -8q-36 0 -68 7.5t-55 22.5t-36.5 36.5t-13.5 49.5q0 21 10 37t25 28t33 19.5t35 12.5q-43 22 -62 48
t-19 57q0 22 11.5 41t32.5 32t49 20.5t61 7.5q32 0 59 -7t47 -19t31 -29.5t11 -38.5q0 -32 -28 -55.5t-65 -37.5l3 -1q47 -21 77.5 -46t30.5 -65q0 -27 -13.5 -49t-37 -38t-54 -24.5t-64.5 -8.5zM625 110q0 -42 27 -61.5t71 -19.5q43 0 67 17.5t24 46.5q0 16 -4.5 26.5
t-15.5 19t-29 17t-45 20.5l-36 15q-34 -13 -46.5 -37t-12.5 -44zM804 311q0 33 -25 48.5t-55 15.5q-32 0 -54 -13t-22 -42q0 -28 22.5 -43.5t56.5 -29.5l25 -11q22 11 37 31.5t15 43.5z" />
    <glyph glyph-name="twothirds" unicode="&#x2154;" horiz-adv-x="1010" 
d="M333 395v-62h-316v67q72 46 118.5 79.5t73.5 60t37.5 50t10.5 49.5q0 29 -19 49t-51 20q-24 0 -40.5 -8.5t-26.5 -24t-14 -36.5t-2 -46h-72q-2 37 10 65t33.5 47t51.5 29t64 10q63 0 103 -25t40 -81q0 -33 -22 -64t-57.5 -61t-79.5 -59.5t-87 -58.5h245zM200 0l508 725
h88l-508 -725h-88zM812 -8q-33 0 -62 9.5t-50.5 26.5t-34.5 41t-14 53h70q0 -19 7 -36t19 -29.5t29 -20t37 -7.5q35 0 59 19.5t24 60.5q0 22 -9 36.5t-24 23.5t-35.5 12.5t-43.5 3.5h-13v43h7q21 0 40.5 4t34.5 13.5t24.5 24t9.5 35.5q0 32 -21 51t-54 19q-38 0 -62.5 -23.5
t-24.5 -63.5h-71q1 27 14 49.5t34.5 39t49.5 25.5t61 9q27 0 54 -6t49 -18t35.5 -30.5t13.5 -43.5q0 -35 -18 -58.5t-56 -39.5v-1q85 -25 85 -100q0 -32 -13 -55t-35.5 -38t-52.5 -22t-63 -7z" />
    <glyph glyph-name="uni2156" unicode="&#x2156;" horiz-adv-x="1016" 
d="M333 395v-62h-316v67q72 46 118.5 79.5t73.5 60t37.5 50t10.5 49.5q0 29 -19 49t-51 20q-24 0 -40.5 -8.5t-26.5 -24t-14 -36.5t-2 -46h-72q-2 37 10 65t33.5 47t51.5 29t64 10q63 0 103 -25t40 -81q0 -33 -22 -64t-57.5 -61t-79.5 -59.5t-87 -58.5h245zM200 0l508 725
h88l-508 -725h-88zM819 -8q-32 0 -59 10t-46.5 27t-30.5 40t-12 49h70q0 -17 6 -33t16.5 -28.5t24.5 -20t31 -7.5q41 0 62 30t21 77q0 51 -25.5 74.5t-62.5 23.5q-26 0 -52 -19t-36 -52l-43 8l25 230h259l2 -60h-219l-13 -90q38 29 97 29q28 0 55 -8t47 -25t32.5 -44
t12.5 -65q0 -33 -13 -60t-35 -46t-51.5 -29.5t-62.5 -10.5z" />
    <glyph glyph-name="uni2157" unicode="&#x2157;" horiz-adv-x="1030" 
d="M189 325q-33 0 -62 9.5t-50.5 26.5t-34.5 41t-14 53h70q0 -38 25.5 -65t66.5 -27q35 0 59 19t24 60q0 22 -9 36.5t-24 23.5t-35.5 12.5t-43.5 3.5h-13v43h7q21 0 40.5 4t34.5 13.5t24.5 24t9.5 35.5q0 32 -21 51t-54 19q-38 0 -62.5 -23.5t-24.5 -63.5h-71q1 27 14 49.5
t34.5 39t49.5 25.5t61 9q27 0 54 -6t49 -18t35.5 -30.5t13.5 -43.5q0 -35 -18 -58.5t-56 -39.5v-1q85 -25 85 -100q0 -32 -13 -55t-35.5 -38t-52.5 -22t-63 -7zM214 0l508 725h88l-508 -725h-88zM833 -8q-32 0 -59 10t-46.5 27t-30.5 40t-12 49h70q0 -17 6 -33t16.5 -28.5
t24.5 -20t31 -7.5q41 0 62 30t21 77q0 51 -25.5 74.5t-62.5 23.5q-26 0 -52 -19t-36 -52l-43 8l25 230h259l2 -60h-219l-13 -90q38 29 97 29q28 0 55 -8t47 -25t32.5 -44t12.5 -65q0 -33 -13 -60t-35 -46t-51.5 -29.5t-62.5 -10.5z" />
    <glyph glyph-name="threeeighths" unicode="&#x215c;" horiz-adv-x="1064" 
d="M189 325q-33 0 -62 9.5t-50.5 26.5t-34.5 41t-14 53h70q0 -38 25.5 -65t66.5 -27q35 0 59 19t24 60q0 22 -9 36.5t-24 23.5t-35.5 12.5t-43.5 3.5h-13v43h7q21 0 40.5 4t34.5 13.5t24.5 24t9.5 35.5q0 32 -21 51t-54 19q-38 0 -62.5 -23.5t-24.5 -63.5h-71q1 27 14 49.5
t34.5 39t49.5 25.5t61 9q27 0 54 -6t49 -18t35.5 -30.5t13.5 -43.5q0 -35 -18 -58.5t-56 -39.5v-1q85 -25 85 -100q0 -32 -13 -55t-35.5 -38t-52.5 -22t-63 -7zM214 0l508 725h88l-508 -725h-88zM852 -8q-36 0 -68 7.5t-55 22.5t-36.5 36.5t-13.5 49.5q0 21 10 37t25 28
t33 19.5t35 12.5q-43 22 -62 48t-19 57q0 22 11.5 41t32.5 32t49 20.5t61 7.5q32 0 59 -7t47 -19t31 -29.5t11 -38.5q0 -32 -28 -55.5t-65 -37.5l3 -1q47 -21 77.5 -46t30.5 -65q0 -27 -13.5 -49t-37 -38t-54 -24.5t-64.5 -8.5zM754 110q0 -42 27 -61.5t71 -19.5
q43 0 67 17.5t24 46.5q0 16 -4.5 26.5t-15.5 19t-29 17t-45 20.5l-36 15q-34 -13 -46.5 -37t-12.5 -44zM933 311q0 33 -25 48.5t-55 15.5q-32 0 -54 -13t-22 -42q0 -28 22.5 -43.5t56.5 -29.5l25 -11q22 11 37 31.5t15 43.5z" />
    <glyph glyph-name="uni2158" unicode="&#x2158;" horiz-adv-x="1064" 
d="M391 495v-56h-73v-59q0 -12 3 -16.5t17 -5.5l19 -3v-22h-151v22l18 3q13 1 16 5.5t3 16.5v59h-211v41l222 254h65l-1 -104v-135h73zM243 657l-142 -162h142v162zM248 0l508 725h88l-508 -725h-88zM867 -8q-32 0 -59 10t-46.5 27t-30.5 40t-12 49h70q0 -17 6 -33
t16.5 -28.5t24.5 -20t31 -7.5q41 0 62 30t21 77q0 51 -25.5 74.5t-62.5 23.5q-26 0 -52 -19t-36 -52l-43 8l25 230h259l2 -60h-219l-13 -90q38 29 97 29q28 0 55 -8t47 -25t32.5 -44t12.5 -65q0 -33 -13 -60t-35 -46t-51.5 -29.5t-62.5 -10.5z" />
    <glyph glyph-name="uni215A" unicode="&#x215a;" horiz-adv-x="1056" 
d="M196 325q-32 0 -59 10t-46.5 27t-30.5 40t-12 49h70q0 -17 6 -33t16.5 -28t24.5 -19.5t31 -7.5q41 0 62 29.5t21 77.5q0 50 -25.5 73.5t-62.5 23.5q-26 0 -52 -19t-36 -52l-43 8l25 230h259l2 -60h-219l-13 -90q38 29 97 29q28 0 55 -8t47 -25t32.5 -44t12.5 -65
q0 -33 -13 -60t-35 -46t-51.5 -29.5t-62.5 -10.5zM220 0l508 725h88l-508 -725h-88zM858 234q-40 0 -62.5 -26.5t-22.5 -77.5t24.5 -76t59.5 -25q39 0 60 29.5t21 74.5q0 42 -20.5 71.5t-59.5 29.5zM862 375q-19 0 -35 -10t-27.5 -28t-18.5 -42.5t-9 -52.5q37 31 102 31
q18 0 43 -6.5t47.5 -23t38.5 -43.5t16 -67q0 -31 -12.5 -57t-34 -44.5t-51.5 -29t-64 -10.5q-43 0 -74 15t-51.5 41t-30.5 61.5t-10 77.5q0 55 13.5 96.5t37 70t55.5 43t70 14.5q25 0 48.5 -6t43 -18.5t33 -33t18.5 -49.5h-71q-4 34 -24 52.5t-53 18.5z" />
    <glyph glyph-name="fiveeighths" unicode="&#x215d;" horiz-adv-x="1070" 
d="M196 325q-32 0 -59 10t-46.5 27t-30.5 40t-12 49h70q0 -17 6 -33t16.5 -28t24.5 -19.5t31 -7.5q41 0 62 29.5t21 77.5q0 50 -25.5 73.5t-62.5 23.5q-26 0 -52 -19t-36 -52l-43 8l25 230h259l2 -60h-219l-13 -90q38 29 97 29q28 0 55 -8t47 -25t32.5 -44t12.5 -65
q0 -33 -13 -60t-35 -46t-51.5 -29.5t-62.5 -10.5zM220 0l508 725h88l-508 -725h-88zM858 -8q-36 0 -68 7.5t-55 22.5t-36.5 36.5t-13.5 49.5q0 21 10 37t25 28t33 19.5t35 12.5q-43 22 -62 48t-19 57q0 22 11.5 41t32.5 32t49 20.5t61 7.5q32 0 59 -7t47 -19t31 -29.5
t11 -38.5q0 -32 -28 -55.5t-65 -37.5l3 -1q47 -21 77.5 -46t30.5 -65q0 -27 -13.5 -49t-37 -38t-54 -24.5t-64.5 -8.5zM760 110q0 -42 27 -61.5t71 -19.5q43 0 67 17.5t24 46.5q0 16 -4.5 26.5t-15.5 19t-29 17t-45 20.5l-36 15q-34 -13 -46.5 -37t-12.5 -44zM939 311
q0 33 -25 48.5t-55 15.5q-32 0 -54 -13t-22 -42q0 -28 22.5 -43.5t56.5 -29.5l25 -11q22 11 37 31.5t15 43.5z" />
    <glyph glyph-name="seveneighths" unicode="&#x215e;" horiz-adv-x="983" 
d="M6 734h299v-55q-28 -24 -58 -50t-54.5 -64.5t-40 -93.5t-13.5 -138h-85q-1 58 14 109t42 94t62.5 77.5t75.5 59.5h-242v61zM133 0l508 725h88l-508 -725h-88zM771 -8q-36 0 -68 7.5t-55 22.5t-36.5 36.5t-13.5 49.5q0 21 10 37t25 28t33 19.5t35 12.5q-43 22 -62 48
t-19 57q0 22 11.5 41t32.5 32t49 20.5t61 7.5q32 0 59 -7t47 -19t31 -29.5t11 -38.5q0 -32 -28 -55.5t-65 -37.5l3 -1q47 -21 77.5 -46t30.5 -65q0 -27 -13.5 -49t-37 -38t-54 -24.5t-64.5 -8.5zM673 110q0 -42 27 -61.5t71 -19.5q43 0 67 17.5t24 46.5q0 16 -4.5 26.5
t-15.5 19t-29 17t-45 20.5l-36 15q-34 -13 -46.5 -37t-12.5 -44zM852 311q0 33 -25 48.5t-55 15.5q-32 0 -54 -13t-22 -42q0 -28 22.5 -43.5t56.5 -29.5l25 -11q22 11 37 31.5t15 43.5z" />
    <glyph glyph-name="uni215F" unicode="&#x215f;" horiz-adv-x="508" 
d="M187 379q0 -10 2.5 -15.5t15.5 -7.5l20 -3v-20h-169v20l39 4q12 1 15 6.5t3 15.5v275h-90v28q50 2 78 12.5t51 35.5h35v-351v0zM85 0l508 725h88l-508 -725h-88z" />
    <glyph glyph-name="fraction" unicode="&#x2044;" horiz-adv-x="250" 
d="M-173 0l508 725h88l-508 -725h-88z" />
    <glyph glyph-name="a.superior" horiz-adv-x="371" 
d="M44 532q0 30 14 47t36 26q21 8 45 12.5t49 8.5l46 5v14q0 35 -12 51t-43 16q-24 0 -39.5 -13t-16.5 -45h-69q3 45 40 68.5t88 23.5q64 0 94.5 -24.5t28.5 -83.5v-65v-37t1 -38q0 -12 3 -16.5t16 -5.5l23 -3v-22l-101 -7l-5 47h-4q-11 -21 -31.5 -37t-54.5 -16
q-20 0 -39 6.5t-34.5 19t-25 30t-9.5 38.5zM234 595l-38 -4q-11 -2 -23 -5.5t-22.5 -10t-17 -17t-6.5 -26.5q0 -23 14 -36.5t38 -13.5q10 0 20 3t18 12t12.5 24.5t4.5 41.5v32z" />
    <glyph glyph-name="b.superior" horiz-adv-x="406" 
d="M74 811q0 13 -3 16.5t-16 5.5l-24 2v22h119v-124v-21.5t-1 -19.5h1q11 19 35.5 36.5t58.5 17.5q54 0 87.5 -41t33.5 -113t-37.5 -113t-95.5 -41q-27 0 -52 12.5t-44 39.5l-31 -45h-31q1 26 0.5 51t-0.5 50v265zM145 591q0 -35 7 -56.5t17.5 -33t22 -15.5t21.5 -4
q36 0 53 30.5t17 78.5q0 23 -3 43.5t-10 35.5t-19.5 24t-30.5 9q-12 0 -25 -4t-24.5 -16t-18.5 -34t-7 -58z" />
    <glyph glyph-name="c.superior" horiz-adv-x="365" 
d="M40 592q0 74 42 114t108 40q22 0 44.5 -5.5t41.5 -18t32.5 -32t18.5 -47.5h-72q0 21 -7.5 34t-17 20.5t-20 10t-16.5 2.5q-29 0 -50 -27.5t-21 -90.5t20.5 -90t51.5 -27q6 0 16 2.5t20 9.5t16.5 19.5t6.5 33.5h73q-5 -27 -18.5 -46.5t-32.5 -32t-41.5 -18t-44.5 -5.5
q-33 0 -60.5 10.5t-47.5 30t-31 48.5t-11 65z" />
    <glyph glyph-name="d.superior" horiz-adv-x="401" 
d="M262 594q0 34 -7 55.5t-17.5 33.5t-23 16t-22.5 4q-35 0 -52 -31t-17 -78q0 -23 3 -43.5t10.5 -35.5t19.5 -24t30 -9q12 0 25.5 4t24.5 16t18.5 34t7.5 58zM333 857l-1 -89v-269q0 -13 3 -17t16 -6l24 -2v-22l-118 -8v47h-1q-12 -18 -36.5 -35.5t-57.5 -17.5
q-54 0 -88 41.5t-34 113.5q0 71 37.5 112t95.5 41q28 0 49 -15t34 -38h1q0 8 -0.5 17t-0.5 34v67q0 13 -2.5 17t-15.5 5l-33 2v22h128z" />
    <glyph glyph-name="e.superior" horiz-adv-x="370" 
d="M194 475q24 0 42 17t20 47h74q-11 -54 -51 -77.5t-90 -23.5q-30 0 -57.5 9.5t-48 29t-33 48t-12.5 67.5q0 32 10 60t29 49t46.5 33t62.5 12q68 0 106.5 -40t35.5 -119h-210q1 -55 22 -83.5t54 -28.5zM186 711q-29 0 -48 -18.5t-20 -66.5h131q3 47 -15.5 66t-47.5 19z" />
    <glyph glyph-name="f.superior" horiz-adv-x="267" 
d="M209 445h-174v22l24 4q12 1 15.5 5t3.5 16v209h-41v40h41v30q0 31 8.5 48t24 25.5t37 10.5t48.5 2h56v-42h-66q-20 0 -26 -8.5t-6 -24.5v-41h98v-40h-98v-207q0 -14 3 -18t16 -5l36 -3v-23z" />
    <glyph glyph-name="g.superior" horiz-adv-x="379" 
d="M261 712q29 -27 29 -69q0 -28 -11 -47t-28.5 -30.5t-39.5 -16.5t-43 -5q-22 0 -38 4q-4 -4 -4 -8.5v-6.5q0 -13 8.5 -15.5t18.5 -3.5l85 -6q54 -5 74 -21.5t20 -43.5q0 -18 -13 -36.5t-35 -33.5t-51.5 -24t-63.5 -9q-39 0 -65 6t-41.5 15.5t-21.5 21.5t-6 24
q0 21 19.5 36t47.5 18q-40 9 -40 46q0 17 18 28t39 16q-32 10 -52 33.5t-20 61.5q0 24 9.5 43t26 31.5t38 19t45.5 6.5q23 0 44.5 -6t38.5 -18l-17 15l109 4v-40zM166 571q24 0 36 17t12 56q0 41 -12 57.5t-36 16.5q-45 0 -45 -72q0 -39 9.5 -57t35.5 -18zM120 459
q-6 -5 -10.5 -16t-4.5 -22q0 -20 17.5 -35.5t50.5 -15.5q35 0 59.5 15.5t24.5 35.5q0 17 -12.5 23.5t-35.5 8.5z" />
    <glyph glyph-name="h.superior" horiz-adv-x="392" 
d="M326 492q0 -12 3 -16t16 -5l24 -4v-22h-162v22l24 4q12 1 15.5 5t3.5 16v115q0 53 -10 73t-36 20q-19 0 -30 -7.5t-17 -18.5t-7.5 -24t-1.5 -23v-135q0 -12 3 -16t16 -5l24 -4v-22h-162v22l24 4q12 1 15.5 5t3.5 16v319q0 13 -3 16.5t-16 5.5l-24 2v22h119v-89
q0 3 -0.5 -8t-0.5 -25v-39q12 21 35 35.5t53 14.5q28 0 45.5 -9t27.5 -24t14 -35t4 -43v-143z" />
    <glyph glyph-name="i.superior" horiz-adv-x="229" 
d="M156 492q0 -12 3 -16t16 -5l24 -4v-22h-162v22l24 4q12 1 15.5 5t3.5 16v205q0 12 -3.5 15t-15.5 4l-24 2v23h119v-249zM80 857h76v-80h-76v80z" />
    <glyph glyph-name="j.superior" horiz-adv-x="245" 
d="M89 697q0 12 -3 15t-15 4l-24 2v23h119v-271q0 -44 -5.5 -69.5t-18 -38.5t-32 -17t-47.5 -4h-38v46h38q9 0 14 2t8 9t3.5 21.5t0.5 40.5v237zM89 857h77v-80h-77v80z" />
    <glyph glyph-name="k.superior" horiz-adv-x="379" 
d="M148 857v-268l114 110q2 2 -3 8t-16 8l-33 5v21h156v-21l-40 -6q-1 0 -8 -6.5t-24 -21.5l-61 -57l89 -142q4 -5 10 -10t18 -7l14 -3v-22h-109l-76 133l-31 -29v-57q0 -12 3 -16t16 -5l24 -4v-22h-162v22l24 4q12 1 15.5 5t3.5 16v319q0 13 -3 16.5t-16 5.5l-24 2v22h119z
" />
    <glyph glyph-name="l.superior" horiz-adv-x="217" 
d="M148 857v-365q0 -12 3 -16t16 -5l24 -4v-22h-162v22l24 4q12 1 15.5 5t3.5 16v319q0 13 -3 16.5t-16 5.5l-24 2v22h119z" />
    <glyph glyph-name="m.superior" horiz-adv-x="558" 
d="M155 696q12 21 32.5 35.5t51.5 14.5q35 0 53.5 -15.5t26.5 -38.5q10 22 33.5 38t55.5 16q27 0 43.5 -9.5t25.5 -25t12 -35.5t3 -41v-143q0 -12 3 -16t16 -5l24 -4v-22h-162v22l24 4q13 1 16 5t3 16v115q0 53 -9 73t-33 20q-19 0 -29 -7.5t-14.5 -18.5t-5.5 -24t-1 -23
v-135q0 -12 3 -16t16 -5l24 -4v-22h-162v22l24 4q14 1 17 5t3 16v115q0 53 -10 73t-34 20q-18 0 -28 -7.5t-14.5 -18.5t-5.5 -24t-1 -23v-135q0 -12 3 -16t16 -5l24 -4v-22h-162v22l24 4q12 1 15.5 5t3.5 16v205q0 12 -3.5 15t-15.5 4l-24 2v23h118v-45z" />
    <glyph glyph-name="n.superior" unicode="&#x207f;" horiz-adv-x="400" 
d="M334 492q0 -12 3 -16t16 -5l24 -4v-22h-162v22l24 4q12 1 15.5 5t3.5 16v115q0 53 -10 73t-36 20q-19 0 -30 -7.5t-17 -18.5t-7.5 -24t-1.5 -23v-135q0 -12 3 -16t16 -5l24 -4v-22h-162v22l24 4q12 1 15.5 5t3.5 16v205q0 12 -3.5 15t-15.5 4l-24 2v23h118v-45
q12 21 35 35.5t53 14.5q28 0 45.5 -9t27.5 -24t14 -35t4 -43v-143z" />
    <glyph glyph-name="o.superior" horiz-adv-x="384" 
d="M262 593q0 66 -20.5 91.5t-49.5 25.5q-30 0 -49.5 -25.5t-19.5 -91.5q0 -33 5.5 -56t15 -36.5t22 -19.5t26.5 -6t27 6t22.5 19.5t15 36.5t5.5 56zM345 592q0 -36 -11.5 -64.5t-32 -48.5t-48.5 -30.5t-62 -10.5q-69 0 -110 42t-41 114t41.5 112t110.5 40q68 0 110.5 -41
t42.5 -113z" />
    <glyph glyph-name="p.superior" horiz-adv-x="395" 
d="M134 591q0 -35 7 -56.5t17 -33t22 -15.5t22 -4q36 0 52.5 30.5t16.5 78.5q0 23 -3 43.5t-10 35.5t-19.5 24t-30.5 9q-12 0 -25 -4t-24 -16t-18 -34t-7 -58zM137 692h1q11 18 35.5 36t59.5 18q53 0 87 -41t34 -113q0 -36 -10 -64.5t-28 -48.5t-42.5 -30.5t-52.5 -10.5
t-49.5 15t-32.5 38h-1v-12t0.5 -3t0.5 -4.5v-15.5v-66q0 -14 3 -18t16 -5l40 -2v-24h-178v23l24 2q12 1 15.5 5t3.5 18v308q0 12 -3.5 15t-15.5 4l-24 2v23h117v-49z" />
    <glyph glyph-name="q.superior" horiz-adv-x="405" 
d="M262 594q0 34 -7 55.5t-17.5 33.5t-23 16t-22.5 4q-35 0 -52 -31t-17 -78q0 -23 3 -43.5t10 -35.5t19.5 -24t30.5 -9q12 0 25.5 4t24.5 16t18.5 34t7.5 58zM256 455q0 9 -0.5 18.5t0.5 18.5h-1q-11 -19 -35.5 -36.5t-58.5 -17.5q-54 0 -87.5 41t-33.5 113t37.5 113
t95.5 41q28 0 53 -13t43 -39h1l33 47h30l-1 -108v-244q0 -14 3 -18t16 -5l24 -2v-23h-178v24l41 2q12 1 15 5t3 18v65z" />
    <glyph glyph-name="r.superior" horiz-adv-x="300" 
d="M37 467l24 4q12 1 15.5 5t3.5 16v205q0 12 -3.5 15t-15.5 4l-24 2v23h118v-71h1q13 35 41 54.5t61 19.5h24v-72h-59q-15 0 -27 -2t-21 -9t-14 -20.5t-5 -36.5v-110q0 -14 3 -18t16 -5l36 -3v-23h-174v22z" />
    <glyph glyph-name="s.superior" horiz-adv-x="338" 
d="M169 438q-22 0 -44 5.5t-40.5 17.5t-30.5 31t-14 46h69q1 -11 5 -22.5t12.5 -20.5t21.5 -14.5t31 -5.5q60 0 60 41q0 14 -7 23t-17.5 14t-22.5 7t-21 4l-34 7q-15 3 -31.5 9t-30 16.5t-22.5 26t-9 38.5q0 25 12 41.5t30.5 26t40 13.5t41.5 4q48 0 83 -23.5t44 -68.5h-68
q0 20 -18.5 38t-46.5 18q-5 0 -15 -0.5t-19.5 -3.5t-17 -9.5t-7.5 -18.5q0 -20 14.5 -30.5t43.5 -16.5l35 -6q21 -4 39.5 -10t33 -16.5t23 -27.5t8.5 -43q0 -27 -11 -44t-29.5 -27.5t-42 -14.5t-48.5 -4z" />
    <glyph glyph-name="t.superior" horiz-adv-x="262" 
d="M220 701h-79v-167q0 -26 7.5 -35.5t36.5 -9.5h36v-44h-44q-34 0 -56 2.5t-34.5 11t-17.5 24t-5 41.5v177h-50v40h50v96h77v-96h79v-40z" />
    <glyph glyph-name="u.superior" horiz-adv-x="392" 
d="M238 489q-13 -22 -35 -36.5t-54 -14.5q-28 0 -45.5 9t-27 24t-13 35t-3.5 43v148q0 12 -3.5 15t-16.5 4l-23 2v23h119l-1 -89v-74q0 -54 10.5 -74t36.5 -20q19 0 30 7.5t17 19t7.5 24t1.5 23.5v139q0 12 -3.5 15t-15.5 4l-24 2v23h119v-242q0 -13 3 -17t16 -6l24 -2v-22
l-117 -13z" />
    <glyph glyph-name="v.superior" horiz-adv-x="345" 
d="M47 700q-3 8 -6.5 12t-14.5 6l-15 2v21h148v-21l-22 -3q-11 -1 -13 -5t2 -14l55 -164l58 154q5 14 6.5 21t-9.5 8l-27 3v21h124v-21l-20 -2q-5 -1 -8.5 -2.5t-6 -5.5t-5.5 -11t-7 -17l-96 -238h-45z" />
    <glyph glyph-name="w.superior" horiz-adv-x="474" 
d="M365 688q4 15 4.5 21.5t-5.5 7.5l-27 3v21h125v-21l-19 -2q-5 -1 -13.5 -7.5t-15.5 -28.5l-77 -238h-44l-59 203l-59 -203h-48l-80 256q-5 16 -12 17l-24 3v21h148v-21l-21 -3q-11 -1 -12.5 -5t1.5 -16l37 -151l60 196h48l56 -196z" />
    <glyph glyph-name="x.superior" horiz-adv-x="413" 
d="M167 587l-81 107q-11 15 -17 18t-16 5l-8 3v21h146v-21l-21 -3q-4 -1 -4 -4t5 -11l44 -59l62 71q-1 -1 -10 2l-24 4v21h139v-21l-21 -2q-15 -2 -21.5 -6t-10.5 -9l-85 -98l86 -113q11 -14 17 -17t15 -5l9 -3v-22h-145v22l21 3q4 1 4 4t-5 11l-50 65l-69 -79q2 2 3 2t9 -2
l24 -4v-22h-139v22l22 1q14 2 21 7t13 11z" />
    <glyph glyph-name="y.superior" horiz-adv-x="345" 
d="M32 341v43h47q20 0 32 14t26 53l1 5l-91 244q-2 8 -7 12t-18 6l-11 2v21h154v-21l-30 -3q-11 -1 -13 -5t3 -16l56 -163l59 155q5 11 6.5 18.5t-7.5 9.5l-33 4v21h127v-21l-20 -2q-8 -2 -12 -6.5t-10 -21.5l-100 -248q-10 -25 -19.5 -44t-21.5 -31.5t-29.5 -19t-42.5 -6.5
h-46z" />
    <glyph glyph-name="z.superior" horiz-adv-x="341" 
d="M38 485l167 216h-151v40h244v-37l-167 -218h171v-41h-264v40z" />
    <glyph glyph-name="four.superior" unicode="&#x2074;" horiz-adv-x="421" 
d="M391 607v-56h-73v-59q0 -12 3 -16t17 -5l19 -4v-22h-151v22l18 4q13 1 16 5t3 16v59h-211v42l222 253h65l-1 -104v-135h73zM243 770l-142 -163h142v163z" />
    <glyph glyph-name="five.superior" unicode="&#x2075;" horiz-adv-x="393" 
d="M196 438q-32 0 -59 10t-46.5 27t-30.5 39.5t-12 48.5h70q0 -17 6 -33t16.5 -28t24.5 -19.5t31 -7.5q41 0 62 30t21 77q0 51 -25.5 74t-62.5 23q-26 0 -52 -18.5t-36 -52.5l-43 9l25 229h259l2 -60h-219l-13 -89q19 14 42.5 21t54.5 7q28 0 55 -8t47 -25t32.5 -44
t12.5 -65q0 -33 -13 -60t-35 -45.5t-51.5 -29t-62.5 -10.5z" />
    <glyph glyph-name="six.superior" unicode="&#x2076;" horiz-adv-x="413" 
d="M215 679q-40 0 -62.5 -26.5t-22.5 -77.5q0 -50 24.5 -75t59.5 -25q39 0 60 29.5t21 74.5q0 41 -20.5 70.5t-59.5 29.5zM219 820q-19 0 -35 -10t-27.5 -28t-18.5 -42t-9 -52q36 30 102 30q18 0 43 -6.5t47.5 -22.5t38.5 -43t16 -67q0 -31 -12.5 -57t-34 -44.5t-51.5 -29
t-64 -10.5q-43 0 -74 15t-51.5 41t-30.5 61.5t-10 76.5q0 55 13.5 97t37 70t55.5 42.5t70 14.5q25 0 48.5 -6t43 -18.5t33 -33t18.5 -49.5h-71q-4 35 -24 53t-53 18z" />
    <glyph glyph-name="seven.superior" unicode="&#x2077;" horiz-adv-x="306" 
d="M6 846h299v-54q-28 -25 -58 -51t-54.5 -64.5t-40 -93.5t-13.5 -138h-85q-1 58 14 109t42 94.5t62.5 78t75.5 58.5h-242v61z" />
    <glyph glyph-name="eight.superior" unicode="&#x2078;" horiz-adv-x="427" 
d="M215 438q-36 0 -68 7.5t-55 22.5t-36.5 36.5t-13.5 49.5q0 20 10 36t25 28t33 20t35 12q-43 23 -62 49t-19 57q0 22 11.5 40.5t32.5 32t49 20.5t61 7q64 0 106 -25.5t42 -68.5q0 -16 -8 -30t-21 -26t-30 -21t-36 -15l5 -2q47 -20 77.5 -45.5t30.5 -64.5q0 -27 -13.5 -49
t-37 -38t-54 -24.5t-64.5 -8.5zM117 556q0 -42 27 -61.5t71 -19.5q43 0 67 17t24 46q0 16 -4.5 27t-15.5 19.5t-29 16.5l-45 20l-36 15q-34 -13 -46.5 -36.5t-12.5 -43.5zM296 757q0 32 -25 47.5t-55 15.5q-32 0 -54 -12.5t-22 -42.5q0 -28 22.5 -43t56.5 -30l24 -11
q23 11 38 32t15 44z" />
    <glyph glyph-name="nine.superior" unicode="&#x2079;" horiz-adv-x="413" 
d="M197 615q40 0 62.5 27t22.5 78q0 50 -24.5 75t-59.5 25q-40 0 -60.5 -29.5t-20.5 -74.5q0 -42 20 -71.5t60 -29.5zM192 475q19 0 35 10t27.5 27.5t19 41.5t10.5 52q-19 -14 -44 -22.5t-60 -8.5q-18 0 -43 6.5t-47.5 23t-38 43t-15.5 67.5q0 31 12.5 57t34 44.5t51 29
t64.5 10.5q42 0 73.5 -14.5t52 -40.5t30.5 -61.5t10 -77.5q0 -55 -13.5 -97t-37.5 -70t-56 -42.5t-69 -14.5q-25 0 -49 6t-43.5 18.5t-33 33t-17.5 49.5h71q3 -35 23.5 -52.5t52.5 -17.5z" />
    <glyph glyph-name="zero.superior" unicode="&#x2070;" horiz-adv-x="457" 
d="M52 647q0 52 14.5 91.5t39 65.5t56.5 39t67 13t67 -13t56.5 -39t39 -65.5t14.5 -91.5q0 -53 -14.5 -92t-39 -65t-56.5 -39t-67 -13t-67 13t-56.5 39t-39 65t-14.5 92zM136 647q0 -85 25 -128.5t68 -43.5t68 43.5t25 128.5t-25 129t-68 44t-68 -44t-25 -129z" />
    <glyph glyph-name="zero.slashed.superior" horiz-adv-x="457" 
d="M52 647q0 52 14.5 91.5t39 65.5t56.5 39t67 13t67 -13t56.5 -39t39 -65.5t14.5 -91.5q0 -53 -14.5 -92t-39 -65t-56.5 -39t-67 -13t-67 13t-56.5 39t-39 65t-14.5 92zM136 647v-19.5t1 -17.5l179 109q-20 101 -87 101q-43 0 -68 -44t-25 -129zM322 647v18t-1 17
l-179 -109q20 -98 87 -98q43 0 68 43.5t25 128.5z" />
    <glyph glyph-name="period.superior" horiz-adv-x="212" 
d="M61 536h90v-91h-90v91z" />
    <glyph glyph-name="hyphen.superior" horiz-adv-x="289" 
d="M67 629h155v-61h-155v61z" />
    <glyph glyph-name="comma.superior" horiz-adv-x="212" 
d="M61 536h90v-97l-52 -103h-29l28 109h-37v91z" />
    <glyph glyph-name="equal.superior" unicode="&#x207c;" horiz-adv-x="364" 
d="M41 632v48h281v-48h-281zM41 519v47h281v-47h-281z" />
    <glyph glyph-name="plus.superior" unicode="&#x207a;" horiz-adv-x="381" 
d="M164 445v127h-127v48h127v124h51v-124h127v-48h-127v-127h-51z" />
    <glyph glyph-name="minus.superior" unicode="&#x207b;" horiz-adv-x="379" 
d="M342 620v-48h-305v48h305z" />
    <glyph glyph-name="parenleft.superior" unicode="&#x207d;" horiz-adv-x="188" 
d="M111 605q0 -72 15 -135.5t47 -128.5h-41q-45 62 -71 124.5t-26 135.5q0 72 26 132.5t71 123.5h41q-32 -63 -47 -122t-15 -130z" />
    <glyph glyph-name="parenright.superior" unicode="&#x207e;" horiz-adv-x="187" 
d="M75 605q0 71 -15.5 130t-45.5 122h40q44 -63 71 -123.5t27 -132.5q0 -73 -27 -135.5t-71 -124.5h-40q30 65 45.5 128.5t15.5 135.5z" />
    <glyph glyph-name="a.inferior" horiz-adv-x="371" 
d="M44 -44q0 30 14 47t36 26q21 8 45 12.5t49 8.5l46 5v14q0 35 -12 51t-43 16q-24 0 -39.5 -13t-16.5 -45h-69q3 45 40 68.5t88 23.5q64 0 94.5 -24.5t28.5 -83.5v-65v-37t1 -38q0 -12 3 -16.5t16 -5.5l23 -3v-22l-101 -7l-5 47h-4q-11 -21 -31.5 -37t-54.5 -16
q-20 0 -39 6.5t-34.5 19t-25 30t-9.5 38.5zM234 19l-38 -4q-11 -2 -23 -5.5t-22.5 -10t-17 -17t-6.5 -26.5q0 -23 14 -36.5t38 -13.5q10 0 20 3t18 12t12.5 24.5t4.5 41.5v32z" />
    <glyph glyph-name="b.inferior" horiz-adv-x="406" 
d="M74 236q0 13 -3 16.5t-16 5.5l-24 2v22h119v-124v-21.5t-1 -19.5h1q11 19 35.5 36.5t58.5 17.5q54 0 87.5 -41t33.5 -113t-37.5 -113t-95.5 -41q-27 0 -52 12.5t-44 39.5l-31 -45h-31q1 26 0.5 51t-0.5 50v265zM145 16q0 -35 7 -56.5t17.5 -33t22 -15.5t21.5 -4
q36 0 53 30.5t17 78.5q0 23 -3 43.5t-10 35.5t-19.5 24t-30.5 9q-12 0 -25 -4t-24.5 -16t-18.5 -34t-7 -58z" />
    <glyph glyph-name="c.inferior" horiz-adv-x="365" 
d="M40 16q0 74 42 114t108 40q22 0 44.5 -5.5t41.5 -18t32.5 -32t18.5 -47.5h-72q0 21 -7.5 34t-17 20.5t-20 10t-16.5 2.5q-29 0 -50 -27.5t-21 -90.5t20.5 -90t51.5 -27q6 0 16 2.5t20 9.5t16.5 19.5t6.5 33.5h73q-5 -27 -18.5 -46.5t-32.5 -32t-41.5 -18t-44.5 -5.5
q-33 0 -60.5 10.5t-47.5 30t-31 48.5t-11 65z" />
    <glyph glyph-name="d.inferior" horiz-adv-x="401" 
d="M262 18q0 34 -7 55.5t-17.5 33.5t-23 16t-22.5 4q-35 0 -52 -31t-17 -78q0 -23 3 -43.5t10.5 -35.5t19.5 -24t30 -9q12 0 25.5 4t24.5 16t18.5 34t7.5 58zM333 281l-1 -89v-269q0 -13 3 -17t16 -6l24 -2v-22l-118 -8v47h-1q-12 -18 -36.5 -35.5t-57.5 -17.5
q-54 0 -88 41.5t-34 113.5q0 71 37.5 112t95.5 41q28 0 49 -15t34 -38h1q0 8 -0.5 17t-0.5 34v67q0 13 -2.5 17t-15.5 5l-33 2v22h128z" />
    <glyph glyph-name="e.inferior" horiz-adv-x="370" 
d="M194 -101q24 0 42 17t20 47h74q-11 -54 -51 -77.5t-90 -23.5q-30 0 -57.5 9.5t-48 29t-33 48t-12.5 67.5q0 32 10 60t29 49t46.5 33t62.5 12q68 0 106.5 -40t35.5 -119h-210q1 -55 22 -83.5t54 -28.5zM186 135q-29 0 -48 -18.5t-20 -66.5h131q3 47 -15.5 66t-47.5 19z
" />
    <glyph glyph-name="f.inferior" horiz-adv-x="267" 
d="M209 -130h-174v22l24 4q12 1 15.5 5t3.5 16v209h-41v40h41v30q0 31 8.5 48t24 25.5t37 10.5t48.5 2h56v-42h-66q-20 0 -26 -8.5t-6 -24.5v-41h98v-40h-98v-207q0 -14 3 -18t16 -5l36 -3v-23z" />
    <glyph glyph-name="g.inferior" horiz-adv-x="379" 
d="M261 136q29 -27 29 -69q0 -28 -11 -47t-28.5 -30.5t-39.5 -16.5t-43 -5q-22 0 -38 4q-4 -4 -4 -8.5v-6.5q0 -13 8.5 -15.5t18.5 -3.5l85 -6q54 -5 74 -21.5t20 -43.5q0 -18 -13 -36.5t-35 -33.5t-51.5 -24t-63.5 -9q-39 0 -65 6t-41.5 15.5t-21.5 21.5t-6 24
q0 21 19.5 36t47.5 18q-40 9 -40 46q0 17 18 28t39 16q-32 10 -52 33.5t-20 61.5q0 24 9.5 43t26 31.5t38 19t45.5 6.5q23 0 44.5 -6t38.5 -18l-17 15l109 4v-40zM166 -5q24 0 36 17t12 56q0 41 -12 57.5t-36 16.5q-45 0 -45 -72q0 -39 9.5 -57t35.5 -18zM120 -117
q-6 -5 -10.5 -16t-4.5 -22q0 -20 17.5 -35.5t50.5 -15.5q35 0 59.5 15.5t24.5 35.5q0 17 -12.5 23.5t-35.5 8.5z" />
    <glyph glyph-name="h.inferior" horiz-adv-x="392" 
d="M326 -83q0 -12 3 -16t16 -5l24 -4v-22h-162v22l24 4q12 1 15.5 5t3.5 16v115q0 53 -10 73t-36 20q-19 0 -30 -7.5t-17 -18.5t-7.5 -24t-1.5 -23v-135q0 -12 3 -16t16 -5l24 -4v-22h-162v22l24 4q12 1 15.5 5t3.5 16v319q0 13 -3 16.5t-16 5.5l-24 2v22h119v-89
q0 3 -0.5 -8t-0.5 -25v-39q12 21 35 35.5t53 14.5q28 0 45.5 -9t27.5 -24t14 -35t4 -43v-143z" />
    <glyph glyph-name="i.inferior" horiz-adv-x="229" 
d="M156 -83q0 -12 3 -16t16 -5l24 -4v-22h-162v22l24 4q12 1 15.5 5t3.5 16v205q0 12 -3.5 15t-15.5 4l-24 2v23h119v-249zM80 282h76v-80h-76v80z" />
    <glyph glyph-name="j.inferior" horiz-adv-x="245" 
d="M89 122q0 12 -3 15t-15 4l-24 2v23h119v-271q0 -44 -5.5 -69.5t-18 -38.5t-32 -17t-47.5 -4h-38v46h38q9 0 14 2t8 9t3.5 21.5t0.5 40.5v237zM89 282h77v-80h-77v80z" />
    <glyph glyph-name="k.inferior" horiz-adv-x="379" 
d="M148 282v-268l114 110q2 2 -3 8t-16 8l-33 5v21h156v-21l-40 -6q-1 0 -8 -6.5t-24 -21.5l-61 -57l89 -142q4 -5 10 -10t18 -7l14 -3v-22h-109l-76 133l-31 -29v-57q0 -12 3 -16t16 -5l24 -4v-22h-162v22l24 4q12 1 15.5 5t3.5 16v319q0 13 -3 16.5t-16 5.5l-24 2v22h119z
" />
    <glyph glyph-name="l.inferior" horiz-adv-x="217" 
d="M148 282v-365q0 -12 3 -16t16 -5l24 -4v-22h-162v22l24 4q12 1 15.5 5t3.5 16v319q0 13 -3 16.5t-16 5.5l-24 2v22h119z" />
    <glyph glyph-name="m.inferior" horiz-adv-x="558" 
d="M155 121q12 21 32.5 35.5t51.5 14.5q35 0 53.5 -15.5t26.5 -38.5q10 22 33.5 38t55.5 16q27 0 43.5 -9.5t25.5 -25t12 -35.5t3 -41v-143q0 -12 3 -16t16 -5l24 -4v-22h-162v22l24 4q13 1 16 5t3 16v115q0 53 -9 73t-33 20q-19 0 -29 -7.5t-14.5 -18.5t-5.5 -24t-1 -23
v-135q0 -12 3 -16t16 -5l24 -4v-22h-162v22l24 4q14 1 17 5t3 16v115q0 53 -10 73t-34 20q-18 0 -28 -7.5t-14.5 -18.5t-5.5 -24t-1 -23v-135q0 -12 3 -16t16 -5l24 -4v-22h-162v22l24 4q12 1 15.5 5t3.5 16v205q0 12 -3.5 15t-15.5 4l-24 2v23h118v-45z" />
    <glyph glyph-name="n.inferior" horiz-adv-x="400" 
d="M334 -83q0 -12 3 -16t16 -5l24 -4v-22h-162v22l24 4q12 1 15.5 5t3.5 16v115q0 53 -10 73t-36 20q-19 0 -30 -7.5t-17 -18.5t-7.5 -24t-1.5 -23v-135q0 -12 3 -16t16 -5l24 -4v-22h-162v22l24 4q12 1 15.5 5t3.5 16v205q0 12 -3.5 15t-15.5 4l-24 2v23h118v-45
q12 21 35 35.5t53 14.5q28 0 45.5 -9t27.5 -24t14 -35t4 -43v-143z" />
    <glyph glyph-name="o.inferior" horiz-adv-x="384" 
d="M262 17q0 66 -20.5 91.5t-49.5 25.5q-30 0 -49.5 -25.5t-19.5 -91.5q0 -33 5.5 -56t15 -36.5t22 -19.5t26.5 -6t27 6t22.5 19.5t15 36.5t5.5 56zM345 16q0 -36 -11.5 -64.5t-32 -48.5t-48.5 -30.5t-62 -10.5q-69 0 -110 42t-41 114t41.5 112t110.5 40q68 0 110.5 -41
t42.5 -113z" />
    <glyph glyph-name="p.inferior" horiz-adv-x="395" 
d="M134 15q0 -35 7 -56.5t17 -33t22 -15.5t22 -4q36 0 52.5 30.5t16.5 78.5q0 23 -3 43.5t-10 35.5t-19.5 24t-30.5 9q-12 0 -25 -4t-24 -16t-18 -34t-7 -58zM137 116h1q11 18 35.5 36t59.5 18q53 0 87 -41t34 -113q0 -36 -10 -64.5t-28 -48.5t-42.5 -30.5t-52.5 -10.5
t-49.5 15t-32.5 38h-1v-12t0.5 -3t0.5 -4.5v-15.5v-66q0 -14 3 -18t16 -5l40 -2v-24h-178v23l24 2q12 1 15.5 5t3.5 18v308q0 12 -3.5 15t-15.5 4l-24 2v23h117v-49z" />
    <glyph glyph-name="q.inferior" horiz-adv-x="405" 
d="M262 18q0 34 -7 55.5t-17.5 33.5t-23 16t-22.5 4q-35 0 -52 -31t-17 -78q0 -23 3 -43.5t10 -35.5t19.5 -24t30.5 -9q12 0 25.5 4t24.5 16t18.5 34t7.5 58zM256 -121q0 9 -0.5 18.5t0.5 18.5h-1q-11 -19 -35.5 -36.5t-58.5 -17.5q-54 0 -87.5 41t-33.5 113t37.5 113
t95.5 41q28 0 53 -13t43 -39h1l33 47h30l-1 -108v-244q0 -14 3 -18t16 -5l24 -2v-23h-178v24l41 2q12 1 15 5t3 18v65z" />
    <glyph glyph-name="r.inferior" horiz-adv-x="300" 
d="M37 -108l24 4q12 1 15.5 5t3.5 16v205q0 12 -3.5 15t-15.5 4l-24 2v23h118v-71h1q13 35 41 54.5t61 19.5h24v-72h-59q-15 0 -27 -2t-21 -9t-14 -20.5t-5 -36.5v-110q0 -14 3 -18t16 -5l36 -3v-23h-174v22z" />
    <glyph glyph-name="s.inferior" horiz-adv-x="338" 
d="M169 -138q-22 0 -44 5.5t-40.5 17.5t-30.5 31t-14 46h69q1 -11 5 -22.5t12.5 -20.5t21.5 -14.5t31 -5.5q60 0 60 41q0 14 -7 23t-17.5 14t-22.5 7t-21 4l-34 7q-15 3 -31.5 9t-30 16.5t-22.5 26t-9 38.5q0 25 12 41.5t30.5 26t40 13.5t41.5 4q48 0 83 -23.5t44 -68.5h-68
q0 20 -18.5 38t-46.5 18q-5 0 -15 -0.5t-19.5 -3.5t-17 -9.5t-7.5 -18.5q0 -20 14.5 -30.5t43.5 -16.5l35 -6q21 -4 39.5 -10t33 -16.5t23 -27.5t8.5 -43q0 -27 -11 -44t-29.5 -27.5t-42 -14.5t-48.5 -4z" />
    <glyph glyph-name="t.inferior" horiz-adv-x="262" 
d="M220 126h-79v-167q0 -26 7.5 -35.5t36.5 -9.5h36v-44h-44q-34 0 -56 2.5t-34.5 11t-17.5 24t-5 41.5v177h-50v40h50v96h77v-96h79v-40z" />
    <glyph glyph-name="u.inferior" horiz-adv-x="392" 
d="M238 -86q-13 -22 -35 -36.5t-54 -14.5q-28 0 -45.5 9t-27 24t-13 35t-3.5 43v148q0 12 -3.5 15t-16.5 4l-23 2v23h119l-1 -89v-74q0 -54 10.5 -74t36.5 -20q19 0 30 7.5t17 19t7.5 24t1.5 23.5v139q0 12 -3.5 15t-15.5 4l-24 2v23h119v-242q0 -13 3 -17t16 -6l24 -2v-22
l-117 -13z" />
    <glyph glyph-name="v.inferior" horiz-adv-x="345" 
d="M47 125q-3 8 -6.5 12t-14.5 6l-15 2v21h148v-21l-22 -3q-11 -1 -13 -5t2 -14l55 -164l58 154q5 14 6.5 21t-9.5 8l-27 3v21h124v-21l-20 -2q-5 -1 -8.5 -2.5t-6 -5.5t-5.5 -11t-7 -17l-96 -238h-45z" />
    <glyph glyph-name="w.inferior" horiz-adv-x="474" 
d="M365 113q4 15 4.5 21.5t-5.5 7.5l-27 3v21h125v-21l-19 -2q-5 -1 -13.5 -7.5t-15.5 -28.5l-77 -238h-44l-59 203l-59 -203h-48l-80 256q-5 16 -12 17l-24 3v21h148v-21l-21 -3q-11 -1 -12.5 -5t1.5 -16l37 -151l60 196h48l56 -196z" />
    <glyph glyph-name="x.inferior" horiz-adv-x="413" 
d="M167 12l-81 107q-11 15 -17 18t-16 5l-8 3v21h146v-21l-21 -3q-4 -1 -4 -4t5 -11l44 -59l62 71q-1 -1 -10 2l-24 4v21h139v-21l-21 -2q-15 -2 -21.5 -6t-10.5 -9l-85 -98l86 -113q11 -14 17 -17t15 -5l9 -3v-22h-145v22l21 3q4 1 4 4t-5 11l-50 65l-69 -79q2 2 3 2t9 -2
l24 -4v-22h-139v22l22 1q14 2 21 7t13 11z" />
    <glyph glyph-name="y.inferior" horiz-adv-x="345" 
d="M32 -234v43h47q20 0 32 14t26 53l1 5l-91 244q-2 8 -7 12t-18 6l-11 2v21h154v-21l-30 -3q-11 -1 -13 -5t3 -16l56 -163l59 155q5 11 6.5 18.5t-7.5 9.5l-33 4v21h127v-21l-20 -2q-8 -2 -12 -6.5t-10 -21.5l-100 -248q-10 -25 -19.5 -44t-21.5 -31.5t-29.5 -19
t-42.5 -6.5h-46z" />
    <glyph glyph-name="z.inferior" horiz-adv-x="341" 
d="M38 -90l167 216h-151v40h244v-37l-167 -218h171v-41h-264v40z" />
    <glyph glyph-name="one.inferior" unicode="&#x2081;" horiz-adv-x="258" 
d="M187 -84q0 -10 2.5 -15.5t15.5 -7.5l20 -3v-20h-169v20l39 5q12 1 15 6t3 15v275h-90v29q50 2 78 12t51 36h35v-352v0z" />
    <glyph glyph-name="two.inferior" unicode="&#x2082;" horiz-adv-x="373" 
d="M333 -67v-63h-316v67q72 46 118.5 79.5t73.5 60t37.5 50t10.5 49.5q0 30 -19 49.5t-51 19.5q-47 0 -66.5 -32.5t-16.5 -82.5h-72q-2 37 10 65.5t33.5 47.5t51.5 28.5t64 9.5q63 0 103 -25t40 -81q0 -32 -22 -63.5t-57.5 -61.5t-79.5 -59.5t-87 -57.5h245z" />
    <glyph glyph-name="three.inferior" unicode="&#x2083;" horiz-adv-x="387" 
d="M189 -138q-33 0 -62 9.5t-50.5 26.5t-34.5 41t-14 53h70q0 -39 25.5 -66t66.5 -27q35 0 59 19t24 61q0 22 -9 36.5t-24 23t-35.5 12t-43.5 3.5h-13v44h7q21 0 40.5 4t34.5 13t24.5 23.5t9.5 35.5q0 32 -21 51t-54 19q-38 0 -62.5 -23.5t-24.5 -62.5h-71q1 27 14 49
t34.5 38.5t49.5 25.5t61 9q27 0 54 -6t49 -18t35.5 -30t13.5 -43q0 -68 -74 -98v-2q85 -25 85 -100q0 -32 -13 -55t-35.5 -37.5t-52.5 -21.5t-63 -7z" />
    <glyph glyph-name="four.inferior" unicode="&#x2084;" horiz-adv-x="421" 
d="M391 32v-56h-73v-59q0 -12 3 -16t17 -5l19 -4v-22h-151v22l18 4q13 1 16 5t3 16v59h-211v42l222 253h65l-1 -104v-135h73zM243 195l-142 -163h142v163z" />
    <glyph glyph-name="five.inferior" unicode="&#x2085;" horiz-adv-x="393" 
d="M196 -137q-32 0 -59 10t-46.5 27t-30.5 39.5t-12 48.5h70q0 -17 6 -33t16.5 -28t24.5 -19.5t31 -7.5q41 0 62 30t21 77q0 51 -25.5 74t-62.5 23q-26 0 -52 -18.5t-36 -52.5l-43 9l25 229h259l2 -60h-219l-13 -89q19 14 42.5 21t54.5 7q28 0 55 -8t47 -25t32.5 -44
t12.5 -65q0 -33 -13 -60t-35 -45.5t-51.5 -29t-62.5 -10.5z" />
    <glyph glyph-name="six.inferior" unicode="&#x2086;" horiz-adv-x="413" 
d="M215 104q-40 0 -62.5 -26.5t-22.5 -77.5q0 -50 24.5 -75t59.5 -25q39 0 60 29.5t21 74.5q0 41 -20.5 70.5t-59.5 29.5zM219 245q-19 0 -35 -10t-27.5 -28t-18.5 -42t-9 -52q36 30 102 30q18 0 43 -6.5t47.5 -22.5t38.5 -43t16 -67q0 -31 -12.5 -57t-34 -44.5t-51.5 -29
t-64 -10.5q-43 0 -74 15t-51.5 41t-30.5 61.5t-10 76.5q0 55 13.5 97t37 70t55.5 42.5t70 14.5q25 0 48.5 -6t43 -18.5t33 -33t18.5 -49.5h-71q-4 35 -24 53t-53 18z" />
    <glyph glyph-name="seven.inferior" unicode="&#x2087;" horiz-adv-x="306" 
d="M6 271h299v-54q-28 -25 -58 -51t-54.5 -64.5t-40 -93.5t-13.5 -138h-85q-1 58 14 109t42 94.5t62.5 78t75.5 58.5h-242v61z" />
    <glyph glyph-name="eight.inferior" unicode="&#x2088;" horiz-adv-x="427" 
d="M215 -138q-36 0 -68 7.5t-55 22.5t-36.5 36.5t-13.5 49.5q0 20 10 36t25 28t33 20t35 12q-43 23 -62 49t-19 57q0 22 11.5 40.5t32.5 32t49 20.5t61 7q64 0 106 -25.5t42 -68.5q0 -16 -8 -30t-21 -26t-30 -21t-36 -15l5 -2q47 -20 77.5 -45.5t30.5 -64.5q0 -27 -13.5 -49
t-37 -38t-54 -24.5t-64.5 -8.5zM117 -20q0 -42 27 -61.5t71 -19.5q43 0 67 17t24 46q0 16 -4.5 27t-15.5 19.5t-29 16.5l-45 20l-36 15q-34 -13 -46.5 -36.5t-12.5 -43.5zM296 181q0 32 -25 47.5t-55 15.5q-32 0 -54 -12.5t-22 -42.5q0 -28 22.5 -43t56.5 -30l24 -11
q23 11 38 32t15 44z" />
    <glyph glyph-name="nine.inferior" unicode="&#x2089;" horiz-adv-x="413" 
d="M197 39q40 0 62.5 27t22.5 78q0 50 -24.5 75t-59.5 25q-40 0 -60.5 -29.5t-20.5 -74.5q0 -42 20 -71.5t60 -29.5zM192 -101q19 0 35 10t27.5 27.5t19 41.5t10.5 52q-19 -14 -44 -22.5t-60 -8.5q-18 0 -43 6.5t-47.5 23t-38 43t-15.5 67.5q0 31 12.5 57t34 44.5t51 29
t64.5 10.5q42 0 73.5 -14.5t52 -40.5t30.5 -61.5t10 -77.5q0 -55 -13.5 -97t-37.5 -70t-56 -42.5t-69 -14.5q-25 0 -49 6t-43.5 18.5t-33 33t-17.5 49.5h71q3 -35 23.5 -52.5t52.5 -17.5z" />
    <glyph glyph-name="zero.inferior" unicode="&#x2080;" horiz-adv-x="457" 
d="M52 71q0 52 14.5 91.5t39 65.5t56.5 39t67 13t67 -13t56.5 -39t39 -65.5t14.5 -91.5q0 -53 -14.5 -92t-39 -65t-56.5 -39t-67 -13t-67 13t-56.5 39t-39 65t-14.5 92zM136 71q0 -85 25 -128.5t68 -43.5t68 43.5t25 128.5t-25 129t-68 44t-68 -44t-25 -129z" />
    <glyph glyph-name="zero.slashed.inferior" horiz-adv-x="457" 
d="M52 71q0 52 14.5 91.5t39 65.5t56.5 39t67 13t67 -13t56.5 -39t39 -65.5t14.5 -91.5q0 -53 -14.5 -92t-39 -65t-56.5 -39t-67 -13t-67 13t-56.5 39t-39 65t-14.5 92zM136 71v-19.5t1 -17.5l179 109q-20 101 -87 101q-43 0 -68 -44t-25 -129zM322 71v18t-1 17l-179 -109
q20 -98 87 -98q43 0 68 43.5t25 128.5z" />
    <glyph glyph-name="period.inferior" horiz-adv-x="212" 
d="M61 -39h90v-91h-90v91z" />
    <glyph glyph-name="hyphen.inferior" horiz-adv-x="289" 
d="M67 53h155v-61h-155v61z" />
    <glyph glyph-name="comma.inferior" horiz-adv-x="212" 
d="M61 -39h90v-97l-52 -103h-29l28 109h-37v91z" />
    <glyph glyph-name="equal.inferior" horiz-adv-x="364" 
d="M41 57v48h281v-48h-281zM41 -56v47h281v-47h-281z" />
    <glyph glyph-name="plus.inferior" horiz-adv-x="381" 
d="M164 -130v127h-127v48h127v124h51v-124h127v-48h-127v-127h-51z" />
    <glyph glyph-name="minus.inferior" horiz-adv-x="379" 
d="M342 45v-48h-305v48h305z" />
    <glyph glyph-name="parenleft.inferior" unicode="&#x208d;" horiz-adv-x="188" 
d="M111 29q0 -72 15 -135.5t47 -128.5h-41q-45 62 -71 124.5t-26 135.5q0 72 26 132.5t71 123.5h41q-32 -63 -47 -122t-15 -130z" />
    <glyph glyph-name="parenright.inferior" unicode="&#x208e;" horiz-adv-x="187" 
d="M75 29q0 71 -15.5 130t-45.5 122h40q44 -63 71 -123.5t27 -132.5q0 -73 -27 -135.5t-71 -124.5h-40q30 65 45.5 128.5t15.5 135.5z" />
    <glyph glyph-name="one.numerator" horiz-adv-x="258" 
d="M187 379q0 -10 2.5 -15.5t15.5 -7.5l20 -3v-20h-169v20l39 4q12 1 15 6.5t3 15.5v275h-90v28q50 2 78 12.5t51 35.5h35v-351v0z" />
    <glyph glyph-name="two.numerator" horiz-adv-x="373" 
d="M333 395v-62h-316v67q72 46 118.5 79.5t73.5 60t37.5 50t10.5 49.5q0 29 -19 49t-51 20q-24 0 -40.5 -8.5t-26.5 -24t-14 -36.5t-2 -46h-72q-2 37 10 65t33.5 47t51.5 29t64 10q63 0 103 -25t40 -81q0 -33 -22 -64t-57.5 -61t-79.5 -59.5t-87 -58.5h245z" />
    </font>
</defs>
</svg>
