<svg version="1.1"  xmlns="http://www.w3.org/2000/svg" xmlns:xlink="http://www.w3.org/1999/xlink" x="0px" y="0px"
	 viewBox="0 0 382 305" enable-background="new 0 0 382 305" xml:space="preserve">
<g>
	<g>
		<path fill-rule="evenodd" clip-rule="evenodd" fill="#646569" d="M251.8,298.7c47-6.5,81.2-43.4,96.9-93.9
			c6.4-20.9,7.3-44,5.1-68.3c-4.1-43.2-24-80.8-53-108.2c-0.1-0.1-0.2-0.2-0.2,0c-0.1,0.1-0.3,0.3-0.5,0.3c-0.2,0.1-0.2,0-0.1,0.2
			c30.8,28.1,50.5,72.9,52.7,118.1c3.3,64.6-28.1,121.8-75.1,141.5c-7.9,3.3-16.2,5.9-24.8,7.2C252.2,296.4,251.8,297.5,251.8,298.7
			"/>
		<path fill-rule="evenodd" clip-rule="evenodd" fill="#646569" d="M369,190.8c-3.9,4.6-10,9-16.5,7.3c-0.3,0.5-2.1,3-2.3,3.4
			c-0.3,0.5-0.9,0.9-1.3,0.5c-0.3-0.2-0.5-0.5-0.2-1.1c0.9-1.2,1.9-2.4,3-3.7c1.9-10.3,4.8-17.1,10.7-24c6.8-7.9,13.8-11.5,18.2-13
			c0.6-0.2,1.2-0.3,1.8-0.5c0.4,4-1.4,9.7-2.8,13.1C376.7,179.6,373.7,185.5,369,190.8"/>
		<path fill-rule="evenodd" clip-rule="evenodd" fill="#646569" d="M312.4,46.4c0.5,0.2,3.7,1.1,4.1,0.4c0.1-0.2,0-0.8-0.3-0.9
			c-1.2-0.1-2.5-0.2-3.6-0.4c-2-6.5-7.8-9.3-13.1-10.4c-6.3-1.3-13.3,0.7-20.8,1.7c-0.4,0.1-0.8,0.1-1.2,0.1
			c0.1,0.2,0.3,0.4,0.5,0.7c3.1,4.3,8,8.2,12.8,10.1c3.2,1.4,7,2.1,10.8,2C305.7,49.6,309,48.7,312.4,46.4"/>
		<path fill-rule="evenodd" clip-rule="evenodd" fill="#646569" d="M300.1,28.7c-0.3,0.1-0.3,0-0.7-0.3c-0.9-0.8-1.6-1.3-2.6-2.2
			c-5.1,0-9.9-1.5-14.4-4.5c-2-1.4-4-3-5.7-5c-4-4.3-7.3-10.7-8.8-16.5c-0.1-0.3-0.1-0.6-0.2-0.9c0.4,0.2,0.7,0.3,1.1,0.5
			c8.2,3.3,16.1,4.8,22.7,11.2c4.5,4.2,6.8,9.4,5.9,14.4c1,0.8,2.1,1.6,3,2.5C300.9,28.3,300.4,28.7,300.1,28.7"/>
		<path fill-rule="evenodd" clip-rule="evenodd" fill="#646569" d="M329.9,73.7c0.5,0.3,3.7,1.9,4.1,1.4c0.2-0.2,0.1-0.9-0.2-1
			c-1.1-0.4-2.5-0.7-3.6-1.2c-0.4-4.6-3-8.9-8.1-11.8c-7.8-4.1-16.7-3.4-25-4.2c-0.4,0-0.8-0.1-1.2-0.1c0.1,0.2,0.3,0.5,0.4,0.7
			c2.8,4.8,7.3,10,11.9,13c3.1,2.1,6.9,3.6,10.7,4.4C322.8,75.5,326.2,75.1,329.9,73.7"/>
		<path fill-rule="evenodd" clip-rule="evenodd" fill="#646569" d="M370.8,144.6c-2.5,5.7-7.1,11.9-13.7,12.4
			c-0.2,0.6-1.4,3.3-1.6,3.8c-0.1,0.6-0.6,1.2-1.1,1c-0.2-0.1-0.5-0.4-0.5-1c0.7-1.5,1.4-2.7,2.2-4.3c-0.6-10.5,0-18.1,4-26.7
			c4.5-9.9,10.8-15.6,14.7-18.4c0.5-0.4,1-0.8,1.6-1.1c0.9,4,0.6,10.3,0.1,14C375.3,131.5,373.7,138,370.8,144.6"/>
		<path fill-rule="evenodd" clip-rule="evenodd" fill="#646569" d="M363.3,102.6c-1.1,6.1-3.8,12.2-9.9,14.8c-0.1,0.6-0.8,3.6-0.8,4
			c0,0.6-0.2,1.3-0.8,1.3c-0.2,0-0.6-0.2-0.6-0.8c0.3-1.6,0.7-3.4,1-5.1c-2-7.4-3.1-14.1-2.8-21.4c0.6-10.2,4.3-19,10.3-26.1
			c0.5-0.5,0.8-1.1,1.2-1.5c1.7,3.5,2.8,9.5,3.1,13.1C364.6,88.1,364.6,95.5,363.3,102.6"/>
		<path fill-rule="evenodd" clip-rule="evenodd" fill="#646569" d="M348,64.3c0.1,6.3-1.3,13.2-6.6,17.3c0,0.6,0.1,3.7,0.2,4.1
			c0.1,0.6,0,1.3-0.5,1.4c-0.2,0-0.6,0-0.7-0.6c-0.1-1.6-0.2-4-0.2-5.7c-4.5-7.6-6.9-15.8-7-25.3c-0.2-10.9,2.5-17.9,4.7-22.3
			c0.3-0.6,0.6-1.2,0.9-1.8c2.4,2.9,4.6,8.3,5.6,11.7C346.3,50,347.8,57.1,348,64.3"/>
		<path fill-rule="evenodd" clip-rule="evenodd" fill="#646569" d="M324.8,29.3c1.4,5.9,1,14.5-3.4,18c0.2,0.8,0.5,3.4,0.6,3.9
			c0.1,0.6,0.3,1.2-0.2,1.5c-0.2,0.1-0.4,0.1-0.6-0.5c-0.3-1.6-0.4-3-0.7-4.7c-6.2-6.6-9.8-13.2-11.7-22.2c-2-9.4-1.7-16.9-0.8-22.1
			c0.1-0.6,0.3-1.3,0.4-1.9c5.5,4.4,9.4,10.2,12.7,16.8C322.7,21.6,324.1,25.2,324.8,29.3"/>
		<path fill-rule="evenodd" clip-rule="evenodd" fill="#646569" d="M343.9,109.6c0.5,0.5,3.3,3.1,4,2.8c0.2-0.2,0.3-1,0-1.2
			c-1.1-0.9-2.4-1.5-3.5-2.3c0.3-5.1-0.8-10.2-5.4-15c-7.1-6.9-16.5-9.2-25.1-12.8c-0.4-0.2-0.8-0.4-1.2-0.5
			c0.1,0.3,0.1,0.6,0.2,0.9c1.7,5.9,5.1,12.8,9.2,17.4c2.7,3.1,6.3,6.1,10,8.1C336,109.1,339.8,109.8,343.9,109.6"/>
		<path fill-rule="evenodd" clip-rule="evenodd" fill="#646569" d="M349.8,150.8c0.4,0.7,2.6,4.3,3.3,4.1c0.3,0,0.6-0.9,0.4-1.2
			c-0.9-1.2-2.1-2.2-2.9-3.5c1.4-4.6,0.8-11.4-2.7-17.8c-5.5-9.4-13.5-13.9-21.3-20.5c-0.3-0.3-0.7-0.7-1-1c0,0.3-0.1,0.6,0,1
			c0.2,6.4,1.8,14.5,4.9,20.5c1.9,4.1,4.8,8.2,8.1,11.6C341.9,147.6,345.5,149.5,349.8,150.8"/>
		<path fill-rule="evenodd" clip-rule="evenodd" fill="#646569" d="M345.9,191.2c0.3,0.8,1.8,5.1,2.6,5.3c0.3,0,0.7-0.7,0.6-1.1
			c-0.6-1.4-1.3-3.1-1.9-4.6c2.6-2.5,3.5-9.4,1.4-16.7c-3.5-10.6-11.3-18.6-17.6-27.4c-0.3-0.4-0.6-0.8-0.9-1.2
			c-0.1,0.3-0.1,0.6-0.2,0.9c-1.1,6.2-1,14.4,0.7,21.1c1.1,4.5,3.1,9.4,5.7,13.6C338.8,185.6,342,188.7,345.9,191.2"/>
		<path fill-rule="evenodd" clip-rule="evenodd" fill="#646569" d="M355.3,238.5c-4.8,3.1-13.3,5.5-19.2,1.6
			c-0.4,0.4-2.9,1.8-3.2,2.1c-0.4,0.4-1,0.7-1.4,0.1c-0.2-0.3-0.3-0.7,0.1-1.1c1.2-0.9,2.6-1.4,3.9-2.2c4.5-9.3,9.3-15.6,16.7-20.2
			c8.4-5.4,15.5-5.5,20-5.5c0.6,0,1.2,0,1.9,0.1C373,222.4,361.7,234.5,355.3,238.5"/>
		<path fill-rule="evenodd" clip-rule="evenodd" fill="#646569" d="M331.9,231.3c0,0.6,0.3,3.2,0.8,4.8c0.1,0.5,0.2,1.2,0.8,0.9
			c0.3-0.1,0.5-0.6,0.5-0.9c-0.3-1.6-0.5-3.3-0.7-4.9c2.9-1.9,5.2-7.9,5.7-15.4c-0.5-11.3-5.6-21.5-9.6-32.1c-0.1-0.5-0.3-1-0.5-1.5
			c-0.2,0.2-0.3,0.5-0.4,0.8c-2.7,5.6-4.8,13.4-4.9,20.4c-0.2,4.6,0.5,10,1.8,14.9C326.8,223.5,328.9,227.5,331.9,231.3"/>
		<path fill-rule="evenodd" clip-rule="evenodd" fill="#646569" d="M329.5,277c-5.5,1.1-12.9,0.8-17.5-5c-1.2,0.2-3.1,0.5-4.3,0.6
			c-0.3,0-0.6-0.2-0.7-0.7c-0.1-0.3,0-0.7,0.6-1c1.4-0.3,2.8-0.3,4.2-0.5c6.2-7.2,12-11.3,20.4-12.8c9.7-1.8,17.9,0.7,22.3,2.5
			c0.6,0.2,1.2,0.5,1.8,0.8c-1.6,3.5-6.1,7.1-9,8.8C341.7,273.3,336.1,275.9,329.5,277"/>
		<path fill-rule="evenodd" clip-rule="evenodd" fill="#646569" d="M309.9,261.7c-0.1,0.7-0.2,3.2-0.2,4.9c0,0.4-0.1,1.1,0.5,1.1
			c0.3,0,0.6-0.4,0.7-0.7c0.1-1.6,0-3.2,0.3-4.8c3.2-1,7.6-6,9.5-12.7c2.3-10.9-0.2-22.1-1.4-33.6c-0.1-0.5-0.1-1-0.1-1.6
			c-0.2,0.2-0.5,0.4-0.7,0.6c-4,4.3-8,11-9.8,17.6c-1.3,4.3-2,9.6-2,14.7C306.9,252.6,307.9,257.1,309.9,261.7"/>
		<path fill-rule="evenodd" clip-rule="evenodd" fill="#646569" d="M279.2,283.9c-0.3,0.5-0.7,2.6-1.1,4.2c-0.1,0.4-0.4,1,0.2,1.2
			c0.3,0.1,0.7-0.1,0.8-0.4c0.6-1.4,0.6-2.8,1.2-4.1c3.2,0.7,8.6-3.3,12.2-8.5c5-9,5.5-19.6,7.4-30.4c0.1-0.5,0.2-1,0.3-1.5
			c-0.2,0.1-0.5,0.2-0.8,0.3c-4.8,2.4-10.2,6.7-13.7,11.9c-2.4,3.4-4.6,8-5.9,12.8C278.6,274.3,278.5,279,279.2,283.9"/>
		<path fill-rule="evenodd" clip-rule="evenodd" fill="#646569" d="M296.4,303.9c-5.6-0.7-12.9-3.3-16.1-10.5
			c-1.1-0.3-3.1-0.6-4.3-0.9c-0.3-0.1-0.5-0.4-0.5-0.9c0-0.3,0.2-0.6,0.8-0.7c1.4,0.2,2.8,0.6,4.3,0.8c8.1-4.8,14.7-7,23.3-5.8
			c9.9,1.4,17,6.3,20.8,9.5c0.6,0.5,1.1,0.9,1.6,1.4c-2.4,2.9-7.7,4.9-10.8,5.7C309.3,304.3,303.2,304.9,296.4,303.9"/>
	</g>
	<g>
		<path fill-rule="evenodd" clip-rule="evenodd" fill="#646569" d="M131,298.7c-47-6.5-81.2-43.4-96.8-93.9
			c-6.4-20.9-7.4-44-5.1-68.3c4.1-43.2,24-80.8,53-108.2c0.1-0.1,0.2-0.2,0.2,0c0.1,0.1,0.3,0.3,0.5,0.3c0.2,0.1,0.2,0,0.1,0.2
			C52.1,57,32.3,101.8,30.2,147c-3.3,64.6,28.1,121.8,75.1,141.5c7.9,3.3,16.1,5.9,24.8,7.2C130.6,296.4,131,297.5,131,298.7"/>
		<path fill-rule="evenodd" clip-rule="evenodd" fill="#646569" d="M13.8,190.8c3.9,4.6,9.9,9,16.5,7.3c0.3,0.5,2.1,3,2.3,3.4
			c0.3,0.5,0.8,0.9,1.3,0.5c0.3-0.2,0.5-0.5,0.2-1.1c-0.9-1.2-1.9-2.4-3-3.7c-1.9-10.3-4.8-17.1-10.7-24c-6.8-7.9-13.8-11.5-18.2-13
			c-0.6-0.2-1.2-0.3-1.8-0.5c-0.4,4,1.4,9.7,2.8,13.1C6.1,179.6,9.1,185.5,13.8,190.8"/>
		<path fill-rule="evenodd" clip-rule="evenodd" fill="#646569" d="M70.4,46.4c-0.5,0.2-3.7,1.1-4.1,0.4c-0.1-0.2,0-0.8,0.3-0.9
			c1.2-0.1,2.5-0.2,3.6-0.4c2-6.5,7.8-9.3,13.1-10.4c6.3-1.3,13.3,0.7,20.8,1.7c0.4,0.1,0.8,0.1,1.2,0.1c-0.1,0.2-0.3,0.4-0.5,0.7
			c-3.1,4.3-8,8.2-12.8,10.1c-3.2,1.4-7,2.1-10.8,2C77.2,49.6,73.8,48.7,70.4,46.4"/>
		<path fill-rule="evenodd" clip-rule="evenodd" fill="#646569" d="M82.7,28.7c0.3,0.1,0.3,0,0.7-0.3c0.9-0.8,1.6-1.3,2.6-2.2
			c5.1,0,9.9-1.5,14.4-4.5c2-1.4,4-3,5.7-5c4-4.3,7.3-10.7,8.8-16.5c0.1-0.3,0.1-0.6,0.2-0.9c-0.4,0.2-0.7,0.3-1.1,0.5
			c-8.2,3.3-16.1,4.8-22.7,11.2c-4.5,4.2-6.8,9.4-5.9,14.4c-1,0.8-2.1,1.6-3,2.5C82,28.3,82.5,28.7,82.7,28.7"/>
		<path fill-rule="evenodd" clip-rule="evenodd" fill="#646569" d="M53,73.7c-0.5,0.3-3.6,1.9-4.1,1.4c-0.2-0.2-0.1-0.9,0.2-1
			c1.1-0.4,2.5-0.7,3.6-1.2c0.4-4.6,3-8.9,8.1-11.8c7.8-4.1,16.7-3.4,25-4.2c0.4,0,0.8-0.1,1.2-0.1c-0.1,0.2-0.3,0.5-0.4,0.7
			c-2.8,4.8-7.3,10-11.9,13c-3.1,2.1-6.9,3.6-10.7,4.4C60.1,75.5,56.6,75.1,53,73.7"/>
		<path fill-rule="evenodd" clip-rule="evenodd" fill="#646569" d="M12,144.6c2.5,5.7,7.1,11.9,13.7,12.4c0.2,0.6,1.4,3.3,1.6,3.8
			c0.1,0.6,0.6,1.2,1.1,1c0.2-0.1,0.5-0.4,0.5-1c-0.7-1.5-1.4-2.7-2.2-4.3c0.6-10.5,0-18.1-4-26.7c-4.5-9.9-10.8-15.6-14.7-18.4
			c-0.5-0.4-1-0.8-1.6-1.1c-0.9,4-0.6,10.3-0.1,14C7.5,131.5,9.1,138,12,144.6"/>
		<path fill-rule="evenodd" clip-rule="evenodd" fill="#646569" d="M19.5,102.6c1.1,6.1,3.8,12.2,9.9,14.8c0.1,0.6,0.8,3.6,0.8,4
			c0,0.6,0.2,1.3,0.8,1.3c0.2,0,0.6-0.2,0.6-0.8c-0.3-1.6-0.7-3.4-1-5.1c2-7.4,3.1-14.1,2.8-21.4c-0.6-10.2-4.4-19-10.3-26.1
			c-0.4-0.5-0.8-1.1-1.2-1.5c-1.7,3.5-2.8,9.5-3.1,13.1C18.2,88.1,18.3,95.5,19.5,102.6"/>
		<path fill-rule="evenodd" clip-rule="evenodd" fill="#646569" d="M34.9,64.3c-0.2,6.3,1.3,13.2,6.6,17.3c0,0.6-0.2,3.7-0.2,4.1
			c-0.1,0.6,0,1.3,0.5,1.4c0.2,0,0.6,0,0.7-0.6c0.1-1.6,0.2-4,0.3-5.7c4.5-7.6,6.9-15.8,7-25.3c0.2-10.9-2.5-17.9-4.7-22.3
			c-0.3-0.6-0.6-1.2-0.9-1.8c-2.4,2.9-4.6,8.3-5.6,11.7C36.5,50,35,57.1,34.9,64.3"/>
		<path fill-rule="evenodd" clip-rule="evenodd" fill="#646569" d="M58.1,29.3c-1.4,5.9-1,14.5,3.4,18c-0.2,0.8-0.5,3.4-0.6,3.9
			c-0.2,0.6-0.3,1.2,0.2,1.5c0.2,0.1,0.4,0.1,0.6-0.5c0.3-1.6,0.4-3,0.7-4.7c6.3-6.6,9.8-13.2,11.8-22.2c2-9.4,1.7-16.9,0.8-22.1
			c-0.1-0.6-0.3-1.3-0.4-1.9C69,5.6,65.1,11.4,61.8,18C60.1,21.6,58.7,25.2,58.1,29.3"/>
		<path fill-rule="evenodd" clip-rule="evenodd" fill="#646569" d="M39,109.6c-0.5,0.5-3.3,3.1-4,2.8c-0.2-0.2-0.3-1,0-1.2
			c1.1-0.9,2.4-1.5,3.5-2.3c-0.3-5.1,0.8-10.2,5.4-15C51,86.9,60.4,84.6,68.9,81c0.4-0.2,0.8-0.4,1.2-0.5c-0.1,0.3-0.1,0.6-0.2,0.9
			c-1.7,5.9-5,12.8-9.2,17.4c-2.7,3.1-6.3,6.1-10,8.1C46.8,109.1,43.1,109.8,39,109.6"/>
		<path fill-rule="evenodd" clip-rule="evenodd" fill="#646569" d="M33.1,150.8c-0.4,0.7-2.6,4.3-3.3,4.1c-0.3,0-0.6-0.9-0.4-1.2
			c0.9-1.2,2.1-2.2,2.9-3.5c-1.4-4.6-0.8-11.4,2.7-17.8c5.5-9.4,13.5-13.9,21.3-20.5c0.3-0.3,0.7-0.7,1-1c0,0.3,0.1,0.6,0,1
			c-0.2,6.4-1.8,14.5-4.9,20.5c-1.9,4.1-4.8,8.2-8.1,11.6C40.9,147.6,37.3,149.5,33.1,150.8"/>
		<path fill-rule="evenodd" clip-rule="evenodd" fill="#646569" d="M36.9,191.2c-0.3,0.8-1.8,5.1-2.6,5.3c-0.3,0-0.7-0.7-0.6-1.1
			c0.6-1.4,1.3-3.1,1.9-4.6c-2.6-2.5-3.5-9.4-1.4-16.7c3.5-10.6,11.3-18.6,17.6-27.4c0.3-0.4,0.6-0.8,0.9-1.2
			c0.1,0.3,0.1,0.6,0.2,0.9c1.1,6.2,1,14.4-0.7,21.1c-1.1,4.5-3.1,9.4-5.7,13.6C44,185.6,40.8,188.7,36.9,191.2"/>
		<path fill-rule="evenodd" clip-rule="evenodd" fill="#646569" d="M27.5,238.5c4.7,3.1,13.3,5.5,19.2,1.6c0.5,0.4,2.9,1.8,3.2,2.1
			c0.4,0.4,1,0.7,1.4,0.1c0.2-0.3,0.3-0.7-0.1-1.1c-1.2-0.9-2.6-1.4-3.9-2.2c-4.5-9.3-9.3-15.6-16.7-20.2c-8.4-5.4-15.5-5.5-20-5.5
			c-0.6,0-1.2,0-1.9,0.1C9.8,222.4,21.2,234.5,27.5,238.5"/>
		<path fill-rule="evenodd" clip-rule="evenodd" fill="#646569" d="M50.9,231.3c0,0.6-0.3,3.2-0.8,4.8c-0.1,0.5-0.2,1.2-0.8,0.9
			c-0.3-0.1-0.5-0.6-0.5-0.9c0.3-1.6,0.5-3.3,0.7-4.9c-2.9-1.9-5.2-7.9-5.7-15.4c0.5-11.3,5.6-21.5,9.6-32.1c0.1-0.5,0.3-1,0.5-1.5
			c0.2,0.2,0.3,0.5,0.4,0.8c2.7,5.6,4.8,13.4,4.9,20.4c0.2,4.6-0.5,10-1.9,14.9C56.1,223.5,53.9,227.5,50.9,231.3"/>
		<path fill-rule="evenodd" clip-rule="evenodd" fill="#646569" d="M53.4,277c5.5,1.1,12.9,0.8,17.5-5c1.2,0.2,3.1,0.5,4.3,0.6
			c0.3,0,0.6-0.2,0.7-0.7c0.1-0.3,0-0.7-0.6-1c-1.4-0.3-2.8-0.3-4.2-0.5c-6.2-7.2-12-11.3-20.4-12.8c-9.7-1.8-17.9,0.7-22.3,2.5
			c-0.6,0.2-1.2,0.5-1.8,0.8c1.6,3.5,6.1,7.1,9,8.8C41.1,273.3,46.7,275.9,53.4,277"/>
		<path fill-rule="evenodd" clip-rule="evenodd" fill="#646569" d="M72.9,261.7c0.1,0.7,0.2,3.2,0.2,4.9c0,0.4,0.1,1.1-0.5,1.1
			c-0.3,0-0.6-0.4-0.7-0.7c-0.1-1.6,0-3.2-0.3-4.8c-3.2-1-7.5-6-9.5-12.7c-2.3-10.9,0.2-22.1,1.4-33.6c0.1-0.5,0.1-1,0.1-1.6
			c0.2,0.2,0.5,0.4,0.7,0.6c4,4.3,8,11,9.8,17.6c1.3,4.3,2,9.6,2,14.7C76,252.6,74.9,257.1,72.9,261.7"/>
		<path fill-rule="evenodd" clip-rule="evenodd" fill="#646569" d="M103.7,283.9c0.3,0.5,0.7,2.6,1.1,4.2c0.1,0.4,0.4,1-0.2,1.2
			c-0.3,0.1-0.7-0.1-0.8-0.4c-0.6-1.4-0.6-2.8-1.2-4.1c-3.2,0.7-8.6-3.3-12.2-8.5c-5-9-5.5-19.6-7.4-30.4c-0.1-0.5-0.2-1-0.3-1.5
			c0.2,0.1,0.5,0.2,0.8,0.3c4.8,2.4,10.2,6.7,13.7,11.9c2.4,3.4,4.6,8,5.9,12.8C104.3,274.3,104.3,279,103.7,283.9"/>
		<path fill-rule="evenodd" clip-rule="evenodd" fill="#646569" d="M86.4,303.9c5.6-0.7,12.9-3.3,16.1-10.5c1.1-0.3,3.1-0.6,4.3-0.9
			c0.3-0.1,0.5-0.4,0.5-0.9c0-0.3-0.2-0.6-0.7-0.7c-1.4,0.2-2.8,0.6-4.3,0.8c-8.1-4.8-14.7-7-23.3-5.8c-9.8,1.4-17,6.3-20.8,9.5
			c-0.6,0.5-1.1,0.9-1.6,1.4c2.4,2.9,7.7,4.9,10.8,5.7C73.6,304.3,79.6,304.9,86.4,303.9"/>
	</g>
</g>
</svg>
