<?xml version="1.0" encoding="utf-8"?>
<!-- Generator: Adobe Illustrator 17.1.0, SVG Export Plug-In . SVG Version: 6.00 Build 0)  -->
<!DOCTYPE svg PUBLIC "-//W3C//DTD SVG 1.1//EN" "http://www.w3.org/Graphics/SVG/1.1/DTD/svg11.dtd">
<svg version="1.1" id="Layer_1" xmlns="http://www.w3.org/2000/svg" xmlns:xlink="http://www.w3.org/1999/xlink" x="0px" y="0px"
	 viewBox="0 0 62 62" enable-background="new 0 0 62 62" xml:space="preserve">
<path fill="#d0c5b0" d="M47.5,30.9c0,0-1.7-1.6-3-3.9c-1-2.7-1-6.1-1.7-7.9c-1.2-2.8-5.8-7.6-14-7C18,12.7,15.4,17.1,14.1,24.6
	C13,30.7,16.2,36.8,18,38.9c1.7,2.1,6.8,6.3,7.1,10.9c0.4,3-3.5,7.1-3.9,7.6l-2.9,3.3c-0.5,0.5-0.1,1.3,0.5,1.3H42
	c0.5,0,0.6-0.5,0.4-0.8c-2.1-2.3-9.4-8.9-5.9-13c2.8-3.3,5.6-1.7,8.4-2.3c2.6-0.5,1.5-2.8,1.5-4.3c-0.1-1.5,0.3-1.4,0.6-1.9
	c0.3-0.5-0.2-0.8-0.5-1c-0.1,0-0.1-0.3,0-0.4c0.4-0.3,0.8-0.5,0.8-0.8c0-0.7-0.8-1.2-0.8-2.3c0-0.7,1.3-1,1.8-1.6
	C49.1,32.5,47.5,30.9,47.5,30.9z"/>
</svg>
