<?xml version="1.0" encoding="utf-8"?>
<!-- Generator: Adobe Illustrator 17.1.0, SVG Export Plug-In . SVG Version: 6.00 Build 0)  -->
<!DOCTYPE svg PUBLIC "-//W3C//DTD SVG 1.1//EN" "http://www.w3.org/Graphics/SVG/1.1/DTD/svg11.dtd">
<svg version="1.1" id="Layer_1" xmlns="http://www.w3.org/2000/svg" xmlns:xlink="http://www.w3.org/1999/xlink" x="0px" y="0px"
	 viewBox="0 0 40 43" enable-background="new 0 0 40 43" xml:space="preserve">
<g id="Layer_1_1_">
	<path d="M37.2,11.8c-0.2-0.4-0.6-0.6-1-0.5L36,11.4c-0.2-0.8-0.8-1.5-1.4-1.8c-0.7-0.4-1.5-0.4-2.2,0c-1.1,0.5-1.9,1.8-2.2,3.3
		c-0.2,0-0.4,0.1-0.7,0.2c-0.2,0.1-0.4,0.2-0.6,0.4c-0.4-0.5-0.8-0.9-1.4-1.2c-0.8-0.2-1.6-0.1-2.3,0.5c-1.3,1-2,3.1-1.8,5.1h-0.1
		l-0.8,0.5c-0.4,0.2-0.5,0.7-0.2,1.1c0.2,0.2,0.4,0.3,0.6,0.3c0.2,0,0.3-0.1,0.5-0.2l0.5-0.3c0.4,0.8,1.1,1.5,1.8,1.6
		c0.2,0.1,0.4,0.1,0.5,0.1c0.7,0,1.3-0.3,1.9-0.8c1.1-1.2,1.8-3.2,1.5-5.1c0-0.2,0.1-0.5,0.5-0.7l0,0c0,0,0,0,0,0.1
		c0,0.1,0,0.2,0,0.3c0.2,1.1,0.8,1.9,1.7,2.3c0.3,0.2,0.6,0.2,0.9,0.2c0.5,0,0.9-0.2,1.4-0.4c1.1-0.7,1.9-2.3,2-3.8l0.5-0.2
		C37.2,12.7,37.3,12.3,37.2,11.8z M27.2,19.2c-0.2,0.2-0.6,0.5-1,0.4c-0.4-0.1-0.8-0.5-0.9-1.2c-0.5-1.5,0-3.6,1-4.4
		c0.2-0.2,0.5-0.2,0.7-0.2c0.1,0,0.2,0,0.2,0c0.4,0.2,0.8,0.6,0.9,1.3c0,0.1,0.1,0.2,0.1,0.3l0,0l0,0C28.5,16.7,28,18.4,27.2,19.2z
		 M33.5,15.6c-0.2,0.2-0.5,0.2-0.9,0.2c-0.4-0.2-0.7-0.6-0.8-1.2c-0.3-1.4,0.3-3,1.3-3.5c0.2-0.1,0.3-0.1,0.5-0.1s0.2,0,0.4,0.1
		c0.4,0.2,0.7,0.7,0.8,1.3C34.9,13.6,34.3,15.1,33.5,15.6z"/>
	<path d="M39.2,0.2L39.2,0.2C38.9,0,38.4-0.1,38,0.1c-0.5,0.1-4.4,0.9-8.8,2.5c-4.4,1.5-8,4.5-9.2,5.6c-1.2-1.2-4.7-4.1-9.2-5.6
		C6.5,1,2.6,0.2,2.1,0.1C1.8-0.1,1.1,0,0.7,0.3C0.5,0.5,0,0.8,0,1.5v31.6c0,0.5,0.2,0.8,0.5,1c0,0.1,0.1,0.1,0.2,0.2
		c0.3,0.4,0.7,0.6,1.1,0.8h0.2c0,0,3.2,0.2,8.5,2.4c5.2,2.1,8.4,5.1,8.5,5.2l0.2,0.2l0.2,0.1c0.3,0.1,0.8,0.2,1,0.2
		c0.2,0,0.6-0.1,0.9-0.2l0.2-0.1l0.2-0.2c0,0,3.3-3.1,8.5-5.2c5.3-2.1,8.4-2.4,8.5-2.4h0.2c0.4-0.2,0.8-0.4,1-0.8
		c0.2-0.4,0.4-0.8,0.4-1.2V1.5C39.8,1,39.5,0.5,39.2,0.2z M9.9,25.8c-3.9-1.5-7-2.2-8.4-2.5V1.6c0,0,0,0,0.1,0c0.1,0,0.1,0,0.1,0
		h0.2C1.9,1.6,6,2.4,10.4,4c4.7,1.6,8,4.7,8.7,5.4v22.1C19.1,31.5,14.1,27.4,9.9,25.8z M38.2,23.3c-1.4,0.3-4.5,1.1-8.4,2.5
		c-4.2,1.6-9.2,5.7-9.2,5.7V9.8l0.1-0.2V9.5c0,0,3.7-3.7,8.9-5.6c4.2-1.4,8-2.2,8.6-2.3V23.3z"/>
</g>
</svg>
