<?xml version="1.0" encoding="utf-8"?>
<!-- Generator: Adobe Illustrator 17.1.0, SVG Export Plug-In . SVG Version: 6.00 Build 0)  -->
<!DOCTYPE svg PUBLIC "-//W3C//DTD SVG 1.1//EN" "http://www.w3.org/Graphics/SVG/1.1/DTD/svg11.dtd">
<svg version="1.1" id="Layer_1" xmlns="http://www.w3.org/2000/svg" xmlns:xlink="http://www.w3.org/1999/xlink" x="0px" y="0px"
	 viewBox="0 0 39.5 39.5" enable-background="new 0 0 39.5 39.5" xml:space="preserve">
<g id="Layer_1_1_">
	<g>
		<path fill="#54565b" d="M28.5,18c0-2.3-0.4-3.4-1.7-3.4c-1.5,0-1.7,1.9-1.7,5.3c0,3.6,0.2,5.3,1.7,5.3c1.3,0,1.5-1,1.7-3.8h4
			c0,4.8-1.7,6.7-5.5,6.7c-5.2,0-5.7-4.2-5.7-8.8c0-4.4,1-7.8,5.7-7.8c4.4,0,5.5,2.5,5.5,6.3L28.5,18L28.5,18z M14.4,18
			c0-2.3-0.4-3.4-1.7-3.4s-1.5,2.1-1.5,5.3c0,3.6,0.2,5.3,1.7,5.3c1.3,0,1.5-1,1.7-3.8h3.6c0,4.8-1.7,6.7-5.5,6.7
			c-5.2,0-5.7-4.2-5.7-8.8c0-4.4,1-7.8,5.7-7.8c4.4,0,5.5,2.5,5.5,6.3L14.4,18L14.4,18z"/>
	</g>
</g>
</svg>
