<?xml version="1.0" encoding="utf-8"?>
<!-- Generator: Adobe Illustrator 20.1.0, SVG Export Plug-In . SVG Version: 6.00 Build 0)  -->
<svg version="1.1" id="Layer_1" xmlns="http://www.w3.org/2000/svg" xmlns:xlink="http://www.w3.org/1999/xlink" x="0px" y="0px"
	 viewBox="0 0 224 224" style="enable-background:new 0 0 224 224;" xml:space="preserve">
<style type="text/css">
	.st0{fill:#0D85C8;}
</style>
<path class="st0" d="M108.5,115.9"/>
<path class="st0" d="M144.2,184.1c-1.1-3.7-2-7.1-2.3-9.1c0-0.9-0.3-2-0.3-2.9c0,0-2.6-5.1-13.7-26c-4.3-7.7,6-5.7,10-2.9
	c3.4,2.3,25.7,22.5,25.7,22.5s0-26,0-39.1c22.1,6,27.9,40.1,29.3,62.7C212.2,169.3,224,142,224,112C224,50.1,173.9,0,112,0
	S0,50.1,0,112c0,30,11.8,57.3,31.1,77.4c1.3-22.6,7.2-56.7,29.3-62.7c0,13.1,0,39.1,0,39.1s22.3-20.3,25.7-22.5
	c4-2.9,14.3-4.9,10,2.9c-11.1,20.8-13.7,26-13.7,26c0,0.9-0.3,2-0.3,2.9c-0.3,2-1.1,5.4-2.3,9.1C74.8,197.6,64,204.1,53,207.2
	c17.1,10.6,37.3,16.8,59,16.8s41.9-6.1,59-16.8C160,204.1,149.2,197.6,144.2,184.1z M76.1,75.1h-0.3v70.8l-10.8,9.7V69.7
	c0-3.1,2.6-5.4,5.7-5.4h82.7c3.1,0,5.7,2.3,5.7,5.4v85.9l-10.8-9.4v-71H76.1z M80.9,192.6c1.4-2.6,3.4-6.6,4.3-10.8h53.9
	c0.9,4.6,2.6,8.3,4.3,10.8H80.9z"/>
</svg>
