<svg version="1.1"  xmlns="http://www.w3.org/2000/svg" xmlns:xlink="http://www.w3.org/1999/xlink" x="0px" y="0px"
	 viewBox="0 0 10 10" enable-background="new 0 0 10 10" xml:space="preserve">
<path fill="#0085CA" d="M9.3,0H0.7C0.3,0,0,0.3,0,0.7v8.5C0,9.7,0.3,10,0.7,10h8.5C9.7,10,10,9.7,10,9.3V0.7C10,0.3,9.7,0,9.3,0z
	 M8.9,2L8.3,5.6c0,0.2-0.2,0.4-0.4,0.4C7.7,6.1,7.5,6,7.4,5.9l-1-1L2.1,9.1C2,9.2,1.8,9.3,1.6,9.3S1.3,9.2,1.1,9
	c-0.3-0.3-0.3-0.7,0-1l4.2-4.2l-1-1C4.2,2.7,4.1,2.5,4.2,2.3c0-0.1,0.1-0.1,0.1-0.2C4.4,2,4.5,1.9,4.6,1.9l3.6-0.6
	c0.2,0,0.4,0,0.5,0.1C8.9,1.6,9,1.8,8.9,2z"/>
</svg>
