<svg version="1.1"  xmlns="http://www.w3.org/2000/svg" xmlns:xlink="http://www.w3.org/1999/xlink" x="0px" y="0px"
	 viewBox="0 0 30 23" enable-background="new 0 0 30 23" xml:space="preserve">
<path fill="#0085CA" d="M12,13.9h11.2l-5.6,5.7c-0.8,0.8-0.8,2,0,2.8c0.8,0.8,2,0.8,2.8,0l9-9l0,0c0.1-0.1,0.2-0.2,0.2-0.3
	c0,0,0-0.1,0.1-0.1c0,0,0.1-0.1,0.1-0.2c0,0,0-0.1,0-0.2c0,0,0-0.1,0-0.2c0-0.1,0-0.2,0-0.3c0,0,0,0,0-0.1c0,0,0,0,0-0.1
	c0-0.1,0-0.2,0-0.3c0,0,0-0.1,0-0.2c0,0,0-0.1,0-0.1c0-0.1-0.1-0.1-0.1-0.2c0,0,0-0.1,0-0.1c0-0.1-0.1-0.2-0.2-0.3l-9.1-9
	C20,1.1,19.5,0.9,19,0.9s-1,0.2-1.4,0.6c-0.8,0.8-0.8,2,0,2.8l5.6,5.6H12c-4.4,0-8-3.6-8-8c0-1.1-0.9-2-2-2S0,0.9,0,2
	C0,8.5,5.4,13.9,12,13.9z"/>
</svg>
