<svg version="1.1" xmlns="http://www.w3.org/2000/svg" xmlns:xlink="http://www.w3.org/1999/xlink" x="0px" y="0px"
	 viewBox="0 0 305 305" enable-background="new 0 0 305 305" xml:space="preserve">
<g id="Layer_1">
	<g>
		<path fill="#54565b" d="M187,150.6l-13-11.4c3.8-4.3,5-10,3.6-15.8c-1.4-5.7-5.4-10.2-10.6-12.1c-5-1.9-10.6-1.4-15.2,1.6
			c-4.7,2.9-7.6,7.6-8.3,13l-17.3-1.7c1.2-10.7,7.3-20.1,16.6-26c9.4-5.7,20.4-6.9,30.5-3.1c10.6,4,18.5,13,21.3,24.2
			C197.4,130.5,194.4,142.1,187,150.6z"/>
		<path fill="none" stroke="#54565b" stroke-width="25.9819" stroke-miterlimit="10" d="M90.8,129.8c0-40.5,35.7-73.3,76-70
			c40.4,3.3,70.2,41.4,63.6,81.4c-5.4,33.3-37.2,47.5-49,77.3c-5.2,13.2-10.6,25.6-25.3,30c-12,3.5-26,1.6-35.7-6.8"/>
		<path fill="#54565b" d="M-0.4,246l102-72.7l19.9,28.8l-95.6,65.8C14.3,264.2,4.9,256.4-0.4,246z M260.8,101.2
			c-3.8-10.9-8.7-21.3-15.9-30.7l42.8-33.4c9.9,7.4,16.5,18.5,17.8,31.5C305.4,68.7,260.8,101.2,260.8,101.2z"/>
	</g>
</g>
</svg>
