<svg version="1.1"  xmlns="http://www.w3.org/2000/svg" xmlns:xlink="http://www.w3.org/1999/xlink" x="0px" y="0px"
	 viewBox="0 0 40 40" enable-background="new 0 0 40 40" xml:space="preserve">
<path fill="#ffffff" d="M38.3,23.6c0.7,0,1.4-0.6,1.5-1.3c0,0,0.1-1,0.1-2.3c0-1.2-0.1-2.3-0.1-2.3c-0.1-0.7-0.8-1.3-1.5-1.3h-3.9
	c-0.7,0-1.5-0.5-1.7-1.1c-0.2-0.6-0.5-2.4,0.1-3l2.7-2.7c0.5-0.5,0.6-1.4,0.1-2l-3.2-3.2c-0.6-0.5-1.5-0.4-2,0.1l-2.7,2.7
	c-0.5,0.5-1.4,0.7-2,0.5c-0.5-0.3-2.1-1.4-2.1-2.1V1.7c0-0.7-0.6-1.4-1.3-1.5c0,0-1-0.1-2.3-0.1c-1.2,0-2.3,0.1-2.3,0.1
	c-0.7,0.1-1.3,0.8-1.3,1.5v3.9c0,0.7-0.5,1.5-1.1,1.7c-0.6,0.2-2.4,0.5-3-0.1L9.6,4.5C9.1,4,8.2,3.9,7.6,4.4L4.4,7.6
	C3.9,8.2,4,9.1,4.5,9.6l2.7,2.7c0.5,0.5,0.7,1.4,0.5,2s-1.4,2.1-2.1,2.1H1.7c-0.7,0-1.4,0.6-1.5,1.3c0,0-0.1,1-0.1,2.3
	c0,1.2,0.1,2.3,0.1,2.3c0.1,0.7,0.8,1.3,1.5,1.3h3.9c0.7,0,1.5,0.5,1.7,1.1c0.2,0.6,0.5,2.4-0.1,3l-2.7,2.7c-0.5,0.5-0.6,1.4-0.1,2
	l3.2,3.2c0.6,0.5,1.5,0.4,2-0.1l2.7-2.7c0.5-0.5,1.4-0.7,2-0.5c0.5,0.3,2.1,1.4,2.1,2.1v3.9c0,0.7,0.6,1.4,1.3,1.5
	c0,0,1,0.1,2.3,0.1s2.3-0.1,2.3-0.1c0.7-0.1,1.3-0.8,1.3-1.5v-3.9c0-0.7,0.5-1.5,1.1-1.7c0.6-0.2,2.4-0.5,3,0.1l2.7,2.7
	c0.5,0.5,1.4,0.6,2,0.1l3.2-3.2c0.5-0.6,0.4-1.5-0.1-2l-2.7-2.7c-0.5-0.5-0.7-1.4-0.5-2c0.3-0.5,1.4-2.1,2.1-2.1L38.3,23.6z
	 M20,27.3c-4,0-7.3-3.3-7.3-7.3c0-4,3.3-7.3,7.3-7.3s7.3,3.3,7.3,7.3S24,27.3,20,27.3z"/>
</svg>
