<?xml version="1.0" encoding="utf-8"?>
<!-- Generator: Adobe Illustrator 17.1.0, SVG Export Plug-In . SVG Version: 6.00 Build 0)  -->
<!DOCTYPE svg PUBLIC "-//W3C//DTD SVG 1.1//EN" "http://www.w3.org/Graphics/SVG/1.1/DTD/svg11.dtd">
<svg version="1.1" id="Layer_1" xmlns="http://www.w3.org/2000/svg" xmlns:xlink="http://www.w3.org/1999/xlink" x="0px" y="0px"
	 viewBox="0 0 57 51" enable-background="new 0 0 57 51" xml:space="preserve">
<g>
	<path d="M19.4,27.7c-1.2,0.8-9,7.9-9,7.9s0-9.1,0-13.7C-1.3,25.1,0,50.7,0.1,51c4.9,0.1,14.1-0.8,17.1-9c0.4-1.3,0.7-2.5,0.8-3.2
		c0-0.3,0.1-0.7,0.1-1c0,0,0.9-1.8,4.8-9.1C24.4,26,20.8,26.7,19.4,27.7z"/>
	<path d="M37.6,27.7c1.2,0.8,9,7.9,9,7.9s0-9.1,0-13.7C58.3,25.1,57,50.7,56.9,51c-4.9,0.1-14.1-0.8-17.1-9
		c-0.4-1.3-0.7-2.5-0.8-3.2c0-0.3-0.1-0.7-0.1-1c0,0-0.9-1.8-4.8-9.1C32.6,26,36.2,26.7,37.6,27.7z"/>
	<path d="M19.1,41.2c-0.3,1.5-1,2.9-1.5,3.8h21.9c-0.6-0.9-1.2-2.2-1.5-3.8H19.1z"/>
	<path d="M15.9,3.8h25.3v24.9L45,32V1.9C45,0.8,44.1,0,43,0H14C12.9,0,12,0.8,12,1.9V32l3.8-3.4V3.8z"/>
</g>
</svg>
