<?xml version="1.0" encoding="utf-8"?>
<!-- Generator: Adobe Illustrator 17.1.0, SVG Export Plug-In . SVG Version: 6.00 Build 0)  -->
<!DOCTYPE svg PUBLIC "-//W3C//DTD SVG 1.1//EN" "http://www.w3.org/Graphics/SVG/1.1/DTD/svg11.dtd">
<svg version="1.1" id="Layer_1" xmlns="http://www.w3.org/2000/svg" xmlns:xlink="http://www.w3.org/1999/xlink" x="0px" y="0px"
	 viewBox="0 0 52 49" enable-background="new 0 0 52 49" xml:space="preserve">
<g>
	<path d="M8.9,28H5.3C2.5,28,0,26.7,0,23.7C0,21.4-0.1,14,3.4,14c0.6,0,3.4,2.3,7,2.3c1.2,0,2.4-0.2,3.6-0.6
		c-0.1,0.6-0.1,1.2-0.1,1.8c0,2.5,0.8,4.9,2.2,7C13.2,24.6,10.7,25.8,8.9,28z M10.4,14c-3.8,0-6.9-3.1-6.9-7s3.1-7,6.9-7
		s6.9,3.1,6.9,7S14.2,14,10.4,14z M39.8,49H12.2c-4.3,0-5.2-2.7-5.2-7.1c0-6.2,1.4-15.7,9.4-15.7c0.9,0,4.3,3.8,9.7,3.8
		s8.8-3.8,9.7-3.8c7.9,0,9.4,9.5,9.4,15.7C45.1,46.3,44.2,49,39.8,49z M26,28c-5.7,0-10.4-4.7-10.4-10.5S20.3,7,26,7
		s10.4,4.7,10.4,10.5S31.7,28,26,28z M41.6,14c-3.8,0-6.9-3.1-6.9-7s3.1-7,6.9-7s6.9,3.1,6.9,7S45.4,14,41.6,14z M46.7,28h-3.6
		c-1.8-2.2-4.4-3.4-7.2-3.5c1.4-2.1,2.2-4.5,2.2-7c0-0.6-0.1-1.2-0.1-1.8c1.2,0.4,2.4,0.6,3.6,0.6c3.7,0,6.5-2.3,7-2.3
		c3.4,0,3.4,7.4,3.4,9.7C52,26.7,49.5,28,46.7,28z"/>
</g>
</svg>
