<?xml version="1.0" encoding="utf-8"?>
<!-- Generator: Adobe Illustrator 17.1.0, SVG Export Plug-In . SVG Version: 6.00 Build 0)  -->
<!DOCTYPE svg PUBLIC "-//W3C//DTD SVG 1.1//EN" "http://www.w3.org/Graphics/SVG/1.1/DTD/svg11.dtd">
<svg version="1.1" id="Layer_1" xmlns="http://www.w3.org/2000/svg" xmlns:xlink="http://www.w3.org/1999/xlink" x="0px" y="0px"
	 viewBox="0 0 50 46" enable-background="new 0 0 50 46" xml:space="preserve">
<g>
	<path d="M50,9.6c0,1-0.9,1.9-1.9,1.9H1.9C0.9,11.5,0,10.6,0,9.6V1.9C0,0.9,0.9,0,1.9,0h46.2C49.1,0,50,0.9,50,1.9V9.6z M48.1,44.1
		c0,1-0.9,1.9-1.9,1.9H3.8c-1.1,0-1.9-0.9-1.9-1.9V16.2c0-1,0.9-1.9,1.9-1.9h42.3c1.1,0,1.9,0.9,1.9,1.9V44.1z M28.8,19.2h-7.7
		c-1.1,0-1.9,0.9-1.9,1.9s0.9,1.9,1.9,1.9h7.7c1.1,0,1.9-0.9,1.9-1.9S29.9,19.2,28.8,19.2z"/>
</g>
</svg>
