<svg version="1.1"  xmlns="http://www.w3.org/2000/svg" xmlns:xlink="http://www.w3.org/1999/xlink" x="0px" y="0px"
	 viewBox="0 0 195 170" enable-background="new 0 0 195 170" xml:space="preserve">
<g>
	<path fill="#646569" stroke="#54565b" stroke-width="0.7441" stroke-miterlimit="10" d="M15.9,51.1h29.5
		c19.5,0,26.5,18.9,26.5,33.5c0,17.9-8.3,33.5-28.6,33.5H15.9C15.9,118.1,15.9,51.1,15.9,51.1z M31.1,102.5h9
		c12.3,0,17.8-11.3,17.9-17.9c0.1-6.8-3.7-17.9-17.9-17.9h-9C31.1,66.8,31.1,102.5,31.1,102.5z"/>
	<path fill="none" stroke="#54565b" stroke-width="22.3653" stroke-miterlimit="10" d="M83.1,132.3c19-3.9,33.6-23.8,33.6-47.7
		c0-23.6-14.1-43.2-32.8-47.6 M127.9,148.4c19.8-11.4,33.6-35.5,33.6-63.6c0-27.8-13.4-51.8-33-63.3"/>
</g>
</svg>
