<?xml version="1.0" encoding="utf-8"?>
<!-- Generator: Adobe Illustrator 17.1.0, SVG Export Plug-In . SVG Version: 6.00 Build 0)  -->
<!DOCTYPE svg PUBLIC "-//W3C//DTD SVG 1.1//EN" "http://www.w3.org/Graphics/SVG/1.1/DTD/svg11.dtd">
<svg version="1.1" id="Layer_1" xmlns="http://www.w3.org/2000/svg" xmlns:xlink="http://www.w3.org/1999/xlink" x="0px" y="0px"
	 viewBox="0 0 23.8 23.4" enable-background="new 0 0 23.8 23.4" xml:space="preserve">
<path fill="#0085CA" d="M23.8,11.9C23.8,5.3,18.5,0,11.9,0C5.3,0,0,5.3,0,11.9c0,5.5,3.8,10.2,9,11.5c-0.6-1-1.6-2.5-2.3-3.8
	c-1-1.7-0.5-7.4,0-7.9c0.5-0.5,1-0.8,1-0.8c0,1,0,2.3,0,4c0,0.6,0.8,0.7,0.8,0c0-0.3,0.1-8.9,0.1-10.2c0-1.3,0.1-2,1.1-2
	c0.6,0,0.9,0.5,0.9,1.6c0,1,0.2,5.9,0.2,7.6c0,0.6,0.7,0.7,0.7,0c0-0.3,0,0,0-1.6c0-1.3,0-1.7,0.6-1.8c0.3-0.1,0.7,0,1,0
	c0.9,0,0.7,1,0.7,1.8c0,1,0,1.6,0,1.6c0,0.6,0.7,0.7,0.7,0c0,0,0,0,0-0.1c0-0.1,0-0.5,0-1.2v-1c0.5,0,0.6,0,1.2,0.3
	c0.6,0.6,0.8,2.3,1.6,2.6c0.9,0.3,1.3,1.6,1.3,1.9c0,0.4,0.1,1.1-0.2,2.5c0,0-0.6,4.1-0.7,4.4c0,0,0,0.3,0.1,0.7
	C21.3,20.2,23.8,16.3,23.8,11.9z"/>
</svg>
