<svg width="16" height="16" viewBox="0 0 16 16" fill="none" xmlns="http://www.w3.org/2000/svg">
<path fill-rule="evenodd" clip-rule="evenodd" d="M9.25 2C9.25 0.895431 8.35457 0 7.25 0H6.5C5.39543 0 4.5 0.89543 4.5 2V7.49748C3.78269 6.90301 2.73193 6.92106 2.01069 7.51076L1.3123 8.08177C0.903679 8.41587 0.825076 9.01002 1.13276 9.43888L1.31831 9.69749C1.76657 10.321 2.21607 10.9442 2.68082 11.5556C2.82067 11.7395 3.03259 12.0174 3.18624 12.1687C3.31806 12.2986 3.47104 12.4039 3.5347 12.4477C3.91515 12.7095 4.31772 12.9452 4.7144 13.1774C4.81007 13.2334 4.9054 13.2892 5 13.3451V16H13V12.9312C13.1075 12.7512 13.2433 12.5115 13.3583 12.2662C13.6063 11.7368 13.6892 11.152 13.7185 10.6837C13.7494 10.1916 13.7279 9.69358 13.6914 9.26689C13.6465 8.74128 13.5755 8.21504 13.4693 7.69801L13.33 7C12.6039 6.6157 11.8925 6.20417 11.157 5.83755C10.6324 5.57604 9.92668 5.26566 9.25 5.02554V2ZM12 8C12 8 9.33234 6.42484 7.75 6.16542V2.36809C7.75 1.88866 7.36134 1.5 6.88191 1.5C6.40248 1.5 6.01382 1.88866 6.01382 2.36809V9.5C6.01382 9.5 4.97856 9.45261 4.74163 9.23757C4.52126 9.03756 4.25911 8.81129 4.02013 8.60871C3.62498 8.27375 3.03984 8.30743 2.67821 8.67833L2.53708 8.82308C2.53708 8.82308 4.00667 10.8714 4.23877 11.1C4.37256 11.2318 5.1226 11.6751 5.73038 12.0344C6.0869 12.2452 6.39448 12.427 6.5 12.5V14.5H11.5V12.5C11.5 12.5 11.8066 12.0426 12 11.6298C12.525 10.5093 12 8 12 8Z" fill="#0085CA"/>
</svg>
