<svg version="1.1"
	 xmlns="http://www.w3.org/2000/svg" xmlns:xlink="http://www.w3.org/1999/xlink"
	 x="0px" y="0px" width="74px" height="36px" viewBox="0 0 74 36" enable-background="new 0 0 74 36" xml:space="preserve">
<defs>National Film Board of Canada logo | Logo de l'Office national du film du Canada
</defs>
<a xlink:href="/" target="_parent">
	<rect width="74px" height="36px" style="fill:rgba(0,0,0,0)" />
<path fill="#000000" d="M24.625,8.475C26.5,8.35,30.25,8.25,35.7,8.25v3.55H19.625V6.725C25.15,4.95,28.9,3.85,30.7,3.475V3.35
	c-1.825,0.1-5.6,0.2-11.075,0.2V0h16.1v5.075C30.275,6.85,26.475,7.95,24.65,8.35v0.125H24.625z"/>
<path fill="#000000" d="M19.625,14.325h16.1v8.2H33.15V18.35h-3.825v4.2H26.75v-4.2h-7.125V14.325z"/>
<path fill="#000000" d="M28.125,32c-0.375,2.55-1.6,3.775-4.025,3.775c-3.25,0-4.475-2.425-4.475-6.025v-5.3h16.1v4.675
	c0,3.625-0.825,6.05-3.95,6.05c-2.3,0-3.375-1.4-3.55-3.175H28.125z M29.3,28.475V29.6c0,1.1,0.625,1.675,1.975,1.675
	c1.325,0,1.85-0.65,1.85-1.7v-1.1H29.3z M22.225,28.475v1.1c0,1.4,0.6,2.1,2.125,2.1c1.425,0,2.375-0.65,2.375-2.05V28.5h-4.5
	V28.475z"/>
<path fill="#000000" d="M8.325,36C2.55,36,0,33.925,0,30c0-3.9,2.575-5.975,8.35-5.975c5.8,0,8.375,2.075,8.375,5.975
	C16.725,33.925,14.15,36,8.325,36L8.325,36z M2.575,30.05c0,1.025,1.225,1.85,5.8,1.85c4.525,0,5.75-0.825,5.75-1.875
	c0-1.05-1.225-1.875-5.75-1.875C3.8,28.15,2.575,28.975,2.575,30.05L2.575,30.05z"/>
<path fill="#000000" d="M11.4,13.95c-1.875,0.125-5.625,0.225-11.075,0.225v-3.55h16.1V15.7C10.9,17.475,7.15,18.575,5.35,18.95
	v0.125c1.825-0.1,5.6-0.2,11.075-0.2v3.55h-16.1V17.35c5.45-1.775,9.25-2.875,11.075-3.275V13.95z"/>
<path fill="#000000" d="M16.4,8.2H0.325V0H2.9v4.2h3.825V0H9.3v4.2h7.1V8.2z"/>
<path fill="#000000" d="M64.225,20.85c3.725-0.5,7.325-2.3,10.125-5.425v-0.05c-2.775-3.125-6.375-4.925-10.1-5.425
	c2.175,0.85,3.7,2.975,3.7,5.45S66.4,20,64.225,20.85z"/>
<path fill="#000000" d="M59.975,9.95c-3.75,0.5-7.35,2.3-10.15,5.45c2.8,3.15,6.4,4.95,10.15,5.45c-2.2-0.85-3.725-2.975-3.725-5.45
	S57.775,10.8,59.975,9.95z"/>
<path fill="#000000" d="M69.55,25.85L69.15,26v0.425c0,0,0,4.375,0,9h5.175V23.55C72.85,24.475,71.25,25.25,69.55,25.85z"/>
<path fill="#000000" d="M55.025,26l-0.4-0.125c-5.25-1.8-9.6-5.425-12.575-10.45C46.3,8.25,53.5,3.95,61.475,3.75h1.2
	c4.225,0.125,8.2,1.375,11.65,3.575V0h-35.4v35.4h16.1C55.025,30.625,55.025,26,55.025,26z"/>
</a>
</svg>
