<svg version="1.1" xmlns="http://www.w3.org/2000/svg" xmlns:xlink="http://www.w3.org/1999/xlink" x="0px" y="0px"
	 viewBox="0 0 32 64" style="enable-background:new 0 0 32 64;fill:#fff" xml:space="preserve">
<path id="n" d="M21.419,7.329C23.029,7.217,26.289,7.13,31,7.13v3.072H17.091V5.82c4.779-1.544,8.016-2.492,9.581-2.817V2.889
	c-1.584,0.096-4.835,0.183-9.581,0.183V0H31v4.395c-4.721,1.533-7.997,2.483-9.581,2.823V7.329z"/>
<path id="f" d="M17.091,12.392H31v7.099h-2.236v-3.628h-3.305v3.622h-2.237v-3.622h-6.132V12.392z"/>
<path id="b" d="M24.431,27.655c-0.314,2.202-1.384,3.265-3.479,3.265c-2.813,0-3.86-2.102-3.86-5.198v-4.577H31v4.032
	c0,3.131-0.723,5.233-3.409,5.233c-1.987,0-2.908-1.219-3.08-2.755H24.431z M25.46,24.617v0.968c0,0.952,0.539,1.441,1.71,1.441
	c1.136,0,1.596-0.562,1.596-1.468v-0.941H25.46z M19.325,24.617v0.951c0,1.211,0.513,1.808,1.843,1.808
	c1.227,0,2.057-0.56,2.057-1.783v-0.977H19.325z"/>
<path id="o" d="M7.205,31.129C2.222,31.129,0,29.325,0,25.953c0-3.372,2.222-5.176,7.225-5.176c5.01,0,7.234,1.804,7.234,5.176
	c0,3.372-2.224,5.176-7.234,5.176H7.205z M2.217,25.974c0,0.894,1.065,1.601,5.013,1.601c3.906,0,4.973-0.707,4.973-1.623
	c0-0.914-1.067-1.622-4.973-1.622c-3.948,0-5.013,0.708-5.013,1.622V25.974z"/>
<path id="n" d="M9.582,12.056c-1.61,0.112-4.87,0.199-9.582,0.199V9.183h13.91v4.382c-4.779,1.544-8.016,2.492-9.581,2.817v0.113
	c1.584-0.096,4.835-0.183,9.581-0.183v3.072H0V14.99c4.721-1.533,7.997-2.482,9.582-2.823V12.056z"/>
<path id="f" d="M13.91,7.099H0V0h2.237v3.627h3.305V0h2.236v3.627h6.132V7.099z"/>
<g>
	<path d="M22.144,51.257c3.265-0.436,6.418-2.015,8.856-4.745v-0.045c-2.432-2.726-5.584-4.304-8.842-4.745
		c1.899,0.749,3.242,2.6,3.242,4.764C25.4,48.657,24.05,50.511,22.144,51.257z"/>
	<path d="M18.415,41.716c-3.28,0.433-6.442,2.02-8.889,4.773c2.445,2.748,5.614,4.335,8.892,4.769
		c-1.909-0.744-3.264-2.599-3.264-4.772C15.155,44.316,16.508,42.461,18.415,41.716z"/>
	<path d="M26.813,55.635l-0.35,0.121l0.003,0.362c0,0,0,3.841,0,7.883H31V53.612C29.697,54.441,28.298,55.121,26.813,55.635z"/>
	<path d="M14.09,55.769l-0.343-0.116c-4.604-1.586-8.403-4.754-11.016-9.159c3.724-6.276,10.028-10.054,17.008-10.224l1.052,0.004
		c3.689,0.105,7.184,1.203,10.21,3.131V33H0v31h14.09C14.09,59.808,14.09,55.769,14.09,55.769z"/>
</g>
</svg>
